<svg width="1956" height="125" viewBox="0 0 1956 125" fill="none" xmlns="http://www.w3.org/2000/svg">
<rect width="1956" height="125" rx="10" fill="#14C871"/>
<path d="M824.385 63.5449H827.871C831.13 63.5449 833.568 62.9069 835.186 61.6309C836.803 60.332 837.612 58.4521 837.612 55.9912C837.612 53.5075 836.929 51.6732 835.562 50.4883C834.217 49.3034 832.098 48.7109 829.204 48.7109H824.385V63.5449ZM848.311 55.6152C848.311 60.9928 846.624 65.1058 843.252 67.9541C839.902 70.8024 835.129 72.2266 828.931 72.2266H824.385V90H813.789V40.0293H829.751C835.812 40.0293 840.415 41.3395 843.56 43.96C846.727 46.5576 848.311 50.4427 848.311 55.6152ZM872.749 58.4863C870.539 58.4863 868.807 59.1927 867.554 60.6055C866.3 61.9954 865.583 63.9779 865.4 66.5527H880.029C879.984 63.9779 879.312 61.9954 878.013 60.6055C876.714 59.1927 874.959 58.4863 872.749 58.4863ZM874.219 90.6836C868.066 90.6836 863.258 88.986 859.795 85.5908C856.331 82.1956 854.6 77.3877 854.6 71.167C854.6 64.764 856.195 59.8193 859.385 56.333C862.598 52.8239 867.03 51.0693 872.681 51.0693C878.081 51.0693 882.285 52.6074 885.293 55.6836C888.301 58.7598 889.805 63.0094 889.805 68.4326V73.4912H865.161C865.275 76.4535 866.152 78.7663 867.793 80.4297C869.434 82.0931 871.735 82.9248 874.697 82.9248C876.999 82.9248 879.175 82.6855 881.226 82.207C883.276 81.7285 885.418 80.9652 887.651 79.917V87.9834C885.828 88.8949 883.88 89.5671 881.807 90C879.733 90.4557 877.204 90.6836 874.219 90.6836ZM924.941 78.6523C924.941 82.5716 923.574 85.5566 920.84 87.6074C918.128 89.6582 914.061 90.6836 908.638 90.6836C905.858 90.6836 903.488 90.4899 901.528 90.1025C899.569 89.738 897.734 89.1911 896.025 88.4619V79.8486C897.962 80.7601 900.138 81.5234 902.554 82.1387C904.992 82.7539 907.134 83.0615 908.979 83.0615C912.762 83.0615 914.653 81.9678 914.653 79.7803C914.653 78.96 914.403 78.2992 913.901 77.7979C913.4 77.2738 912.534 76.6927 911.304 76.0547C910.073 75.3939 908.433 74.6305 906.382 73.7646C903.442 72.5342 901.278 71.3949 899.888 70.3467C898.521 69.2985 897.518 68.1022 896.88 66.7578C896.265 65.3906 895.957 63.7158 895.957 61.7334C895.957 58.3382 897.267 55.7178 899.888 53.8721C902.531 52.0036 906.268 51.0693 911.099 51.0693C915.701 51.0693 920.179 52.0719 924.531 54.0771L921.387 61.5967C919.473 60.7764 917.684 60.1042 916.021 59.5801C914.357 59.056 912.66 58.7939 910.928 58.7939C907.852 58.7939 906.313 59.6257 906.313 61.2891C906.313 62.2233 906.803 63.0322 907.783 63.7158C908.786 64.3994 910.962 65.4134 914.312 66.7578C917.297 67.9655 919.484 69.0934 920.874 70.1416C922.264 71.1898 923.289 72.3975 923.95 73.7646C924.611 75.1318 924.941 76.7611 924.941 78.6523ZM948.901 82.5146C951.545 82.5146 953.481 81.7627 954.712 80.2588C955.942 78.7321 956.615 76.0775 956.729 72.2949V71.0303C956.729 66.9287 956.09 63.9893 954.814 62.2119C953.561 60.4346 951.533 59.5459 948.73 59.5459C943.831 59.5459 941.382 63.3968 941.382 71.0986C941.382 74.9268 941.986 77.7865 943.193 79.6777C944.424 81.569 946.326 82.5146 948.901 82.5146ZM945.176 90.6836C940.664 90.6836 937.132 88.9518 934.58 85.4883C932.028 82.002 930.752 77.1598 930.752 70.9619C930.752 64.7184 932.051 59.8421 934.648 56.333C937.269 52.8239 940.846 51.0693 945.381 51.0693C947.796 51.0693 949.904 51.5251 951.704 52.4365C953.504 53.348 955.088 54.7607 956.455 56.6748H956.729L957.651 51.7871H966.47V106.816H956.011V90.7861C956.011 89.3962 956.159 87.4821 956.455 85.0439H956.011C954.894 86.8896 953.413 88.291 951.567 89.248C949.722 90.2051 947.591 90.6836 945.176 90.6836ZM1004.44 90L1003.04 85.1123H1002.5C1001.38 86.8896 999.795 88.2682 997.744 89.248C995.693 90.2051 993.358 90.6836 990.737 90.6836C986.248 90.6836 982.865 89.4873 980.586 87.0947C978.307 84.6794 977.168 81.2158 977.168 76.7041V51.7871H987.593V74.1064C987.593 76.8636 988.083 78.9372 989.062 80.3271C990.042 81.6943 991.603 82.3779 993.745 82.3779C996.662 82.3779 998.77 81.4095 1000.07 79.4727C1001.37 77.513 1002.02 74.2773 1002.02 69.7656V51.7871H1012.44V90H1004.44ZM1022.93 41.9092C1022.93 38.514 1024.83 36.8164 1028.61 36.8164C1032.39 36.8164 1034.28 38.514 1034.28 41.9092C1034.28 43.527 1033.8 44.7917 1032.85 45.7031C1031.91 46.5918 1030.5 47.0361 1028.61 47.0361C1024.83 47.0361 1022.93 45.3271 1022.93 41.9092ZM1033.8 90H1023.38V51.7871H1033.8V90ZM1071.44 78.6523C1071.44 82.5716 1070.07 85.5566 1067.33 87.6074C1064.62 89.6582 1060.56 90.6836 1055.13 90.6836C1052.35 90.6836 1049.98 90.4899 1048.02 90.1025C1046.06 89.738 1044.23 89.1911 1042.52 88.4619V79.8486C1044.46 80.7601 1046.63 81.5234 1049.05 82.1387C1051.49 82.7539 1053.63 83.0615 1055.47 83.0615C1059.26 83.0615 1061.15 81.9678 1061.15 79.7803C1061.15 78.96 1060.9 78.2992 1060.4 77.7979C1059.89 77.2738 1059.03 76.6927 1057.8 76.0547C1056.57 75.3939 1054.93 74.6305 1052.88 73.7646C1049.94 72.5342 1047.77 71.3949 1046.38 70.3467C1045.01 69.2985 1044.01 68.1022 1043.37 66.7578C1042.76 65.3906 1042.45 63.7158 1042.45 61.7334C1042.45 58.3382 1043.76 55.7178 1046.38 53.8721C1049.03 52.0036 1052.76 51.0693 1057.59 51.0693C1062.2 51.0693 1066.67 52.0719 1071.03 54.0771L1067.88 61.5967C1065.97 60.7764 1064.18 60.1042 1062.51 59.5801C1060.85 59.056 1059.15 58.7939 1057.42 58.7939C1054.35 58.7939 1052.81 59.6257 1052.81 61.2891C1052.81 62.2233 1053.3 63.0322 1054.28 63.7158C1055.28 64.3994 1057.46 65.4134 1060.81 66.7578C1063.79 67.9655 1065.98 69.0934 1067.37 70.1416C1068.76 71.1898 1069.78 72.3975 1070.44 73.7646C1071.11 75.1318 1071.44 76.7611 1071.44 78.6523ZM1103.84 90L1101.82 84.8047H1101.55C1099.79 87.015 1097.98 88.5531 1096.11 89.4189C1094.27 90.262 1091.85 90.6836 1088.87 90.6836C1085.2 90.6836 1082.3 89.6354 1080.19 87.5391C1078.09 85.4427 1077.04 82.4577 1077.04 78.584C1077.04 74.528 1078.45 71.543 1081.28 69.6289C1084.13 67.6921 1088.41 66.6211 1094.13 66.416L1100.76 66.2109V64.5361C1100.76 60.6624 1098.78 58.7256 1094.81 58.7256C1091.76 58.7256 1088.17 59.6484 1084.05 61.4941L1080.6 54.4531C1084.99 52.1517 1089.87 51.001 1095.22 51.001C1100.35 51.001 1104.28 52.1175 1107.02 54.3506C1109.75 56.5837 1111.12 59.9788 1111.12 64.5361V90H1103.84ZM1100.76 72.2949L1096.73 72.4316C1093.7 72.5228 1091.44 73.0697 1089.96 74.0723C1088.48 75.0749 1087.74 76.6016 1087.74 78.6523C1087.74 81.5918 1089.43 83.0615 1092.8 83.0615C1095.21 83.0615 1097.14 82.3665 1098.57 80.9766C1100.03 79.5866 1100.76 77.7409 1100.76 75.4395V72.2949ZM1143.21 51.0693C1144.63 51.0693 1145.8 51.1719 1146.73 51.377L1145.95 61.1523C1145.1 60.9245 1144.08 60.8105 1142.87 60.8105C1139.54 60.8105 1136.95 61.665 1135.08 63.374C1133.23 65.083 1132.31 67.4756 1132.31 70.5518V90H1121.88V51.7871H1129.78L1131.32 58.2129H1131.83C1133.02 56.071 1134.61 54.3506 1136.62 53.0518C1138.64 51.7301 1140.84 51.0693 1143.21 51.0693Z" fill="white"/>
</svg>
