<svg width="2070" height="125" viewBox="0 0 2070 125" fill="none" xmlns="http://www.w3.org/2000/svg">
<rect width="2070" height="125" rx="10" fill="#14C871"/>
<path d="M904.88 90L901.257 78.1055H883.039L879.416 90H868L885.637 39.8242H898.591L916.296 90H904.88ZM898.728 69.2188C895.378 58.4408 893.487 52.3454 893.054 50.9326C892.644 49.5199 892.347 48.4033 892.165 47.583C891.413 50.4997 889.26 57.7116 885.705 69.2188H898.728ZM937.897 82.3779C939.72 82.3779 941.908 81.9792 944.46 81.1816V88.9404C941.862 90.1025 938.672 90.6836 934.89 90.6836C930.72 90.6836 927.678 89.6354 925.764 87.5391C923.872 85.4199 922.927 82.2526 922.927 78.0371V59.6143H917.937V55.2051L923.679 51.7188L926.687 43.6523H933.352V51.7871H944.05V59.6143H933.352V78.0371C933.352 79.5182 933.762 80.612 934.582 81.3184C935.425 82.0247 936.53 82.3779 937.897 82.3779ZM951.774 41.9092C951.774 38.514 953.666 36.8164 957.448 36.8164C961.231 36.8164 963.122 38.514 963.122 41.9092C963.122 43.527 962.644 44.7917 961.687 45.7031C960.752 46.5918 959.34 47.0361 957.448 47.0361C953.666 47.0361 951.774 45.3271 951.774 41.9092ZM962.644 90H952.219V51.7871H962.644V90ZM982.707 90L968.146 51.7871H979.05L986.433 73.5596C987.253 76.3167 987.766 78.9258 987.971 81.3867H988.176C988.29 79.1992 988.802 76.5902 989.714 73.5596L997.062 51.7871H1007.97L993.405 90H982.707ZM1013.02 41.9092C1013.02 38.514 1014.92 36.8164 1018.7 36.8164C1022.48 36.8164 1024.37 38.514 1024.37 41.9092C1024.37 43.527 1023.89 44.7917 1022.94 45.7031C1022 46.5918 1020.59 47.0361 1018.7 47.0361C1014.92 47.0361 1013.02 45.3271 1013.02 41.9092ZM1023.89 90H1013.47V51.7871H1023.89V90ZM1046.96 90.6836C1042.48 90.6836 1038.94 88.9404 1036.37 85.4541C1033.82 81.9678 1032.54 77.137 1032.54 70.9619C1032.54 64.6956 1033.84 59.8193 1036.44 56.333C1039.06 52.8239 1042.66 51.0693 1047.24 51.0693C1052.05 51.0693 1055.71 52.9378 1058.24 56.6748H1058.59C1058.06 53.8265 1057.8 51.2858 1057.8 49.0527V36.8164H1068.26V90H1060.26L1058.24 85.0439H1057.8C1055.43 88.8037 1051.82 90.6836 1046.96 90.6836ZM1050.62 82.3779C1053.29 82.3779 1055.24 81.6032 1056.47 80.0537C1057.72 78.5042 1058.4 75.8724 1058.52 72.1582V71.0303C1058.52 66.9287 1057.88 63.9893 1056.6 62.2119C1055.35 60.4346 1053.3 59.5459 1050.45 59.5459C1048.13 59.5459 1046.32 60.5371 1045.02 62.5195C1043.74 64.4792 1043.1 67.3389 1043.1 71.0986C1043.1 74.8584 1043.75 77.6839 1045.05 79.5752C1046.35 81.4437 1048.21 82.3779 1050.62 82.3779ZM1103.43 90L1101.41 84.8047H1101.14C1099.39 87.015 1097.57 88.5531 1095.71 89.4189C1093.86 90.262 1091.44 90.6836 1088.46 90.6836C1084.79 90.6836 1081.9 89.6354 1079.78 87.5391C1077.68 85.4427 1076.63 82.4577 1076.63 78.584C1076.63 74.528 1078.05 71.543 1080.87 69.6289C1083.72 67.6921 1088 66.6211 1093.72 66.416L1100.35 66.2109V64.5361C1100.35 60.6624 1098.37 58.7256 1094.41 58.7256C1091.35 58.7256 1087.76 59.6484 1083.64 61.4941L1080.19 54.4531C1084.59 52.1517 1089.46 51.001 1094.82 51.001C1099.94 51.001 1103.87 52.1175 1106.61 54.3506C1109.34 56.5837 1110.71 59.9788 1110.71 64.5361V90H1103.43ZM1100.35 72.2949L1096.32 72.4316C1093.29 72.5228 1091.03 73.0697 1089.55 74.0723C1088.07 75.0749 1087.33 76.6016 1087.33 78.6523C1087.33 81.5918 1089.02 83.0615 1092.39 83.0615C1094.81 83.0615 1096.73 82.3665 1098.17 80.9766C1099.62 79.5866 1100.35 77.7409 1100.35 75.4395V72.2949ZM1133.58 90.6836C1129.09 90.6836 1125.56 88.9404 1122.98 85.4541C1120.43 81.9678 1119.15 77.137 1119.15 70.9619C1119.15 64.6956 1120.45 59.8193 1123.05 56.333C1125.67 52.8239 1129.27 51.0693 1133.85 51.0693C1138.66 51.0693 1142.33 52.9378 1144.86 56.6748H1145.2C1144.67 53.8265 1144.41 51.2858 1144.41 49.0527V36.8164H1154.87V90H1146.87L1144.86 85.0439H1144.41C1142.04 88.8037 1138.43 90.6836 1133.58 90.6836ZM1137.23 82.3779C1139.9 82.3779 1141.85 81.6032 1143.08 80.0537C1144.33 78.5042 1145.01 75.8724 1145.13 72.1582V71.0303C1145.13 66.9287 1144.49 63.9893 1143.21 62.2119C1141.96 60.4346 1139.91 59.5459 1137.06 59.5459C1134.74 59.5459 1132.93 60.5371 1131.63 62.5195C1130.35 64.4792 1129.71 67.3389 1129.71 71.0986C1129.71 74.8584 1130.36 77.6839 1131.66 79.5752C1132.96 81.4437 1134.82 82.3779 1137.23 82.3779ZM1181.6 58.4863C1179.39 58.4863 1177.66 59.1927 1176.4 60.6055C1175.15 61.9954 1174.43 63.9779 1174.25 66.5527H1188.88C1188.83 63.9779 1188.16 61.9954 1186.86 60.6055C1185.56 59.1927 1183.81 58.4863 1181.6 58.4863ZM1183.07 90.6836C1176.92 90.6836 1172.11 88.986 1168.64 85.5908C1165.18 82.1956 1163.45 77.3877 1163.45 71.167C1163.45 64.764 1165.04 59.8193 1168.23 56.333C1171.45 52.8239 1175.88 51.0693 1181.53 51.0693C1186.93 51.0693 1191.13 52.6074 1194.14 55.6836C1197.15 58.7598 1198.65 63.0094 1198.65 68.4326V73.4912H1174.01C1174.12 76.4535 1175 78.7663 1176.64 80.4297C1178.28 82.0931 1180.58 82.9248 1183.55 82.9248C1185.85 82.9248 1188.02 82.6855 1190.08 82.207C1192.13 81.7285 1194.27 80.9652 1196.5 79.917V87.9834C1194.68 88.8949 1192.73 89.5671 1190.66 90C1188.58 90.4557 1186.05 90.6836 1183.07 90.6836Z" fill="white"/>
</svg>
