<svg width="428" height="125" viewBox="0 0 428 125" fill="none" xmlns="http://www.w3.org/2000/svg">
<rect width="428" height="125" rx="10" fill="#14C871"/>
<path d="M111.068 90H82.2891V40.0293H111.068V48.7109H92.8848V59.6826H109.804V68.3643H92.8848V81.25H111.068V90ZM129.799 90L115.238 51.7871H126.142L133.524 73.5596C134.345 76.3167 134.857 78.9258 135.062 81.3867H135.268C135.382 79.1992 135.894 76.5902 136.806 73.5596L144.154 51.7871H155.058L140.497 90H129.799ZM176.386 58.4863C174.175 58.4863 172.444 59.1927 171.19 60.6055C169.937 61.9954 169.219 63.9779 169.037 66.5527H183.666C183.62 63.9779 182.948 61.9954 181.649 60.6055C180.351 59.1927 178.596 58.4863 176.386 58.4863ZM177.855 90.6836C171.703 90.6836 166.895 88.986 163.432 85.5908C159.968 82.1956 158.236 77.3877 158.236 71.167C158.236 64.764 159.831 59.8193 163.021 56.333C166.234 52.8239 170.666 51.0693 176.317 51.0693C181.718 51.0693 185.922 52.6074 188.93 55.6836C191.938 58.7598 193.441 63.0094 193.441 68.4326V73.4912H168.798C168.912 76.4535 169.789 78.7663 171.43 80.4297C173.07 82.0931 175.372 82.9248 178.334 82.9248C180.635 82.9248 182.812 82.6855 184.862 82.207C186.913 81.7285 189.055 80.9652 191.288 79.917V87.9834C189.465 88.8949 187.517 89.5671 185.443 90C183.37 90.4557 180.84 90.6836 177.855 90.6836ZM237.191 90H226.767V67.6807C226.767 64.9235 226.277 62.8613 225.297 61.4941C224.317 60.1042 222.756 59.4092 220.614 59.4092C217.698 59.4092 215.59 60.389 214.291 62.3486C212.992 64.2855 212.343 67.5098 212.343 72.0215V90H201.918V51.7871H209.882L211.283 56.6748H211.864C213.026 54.8291 214.621 53.4391 216.649 52.5049C218.7 51.5479 221.024 51.0693 223.622 51.0693C228.065 51.0693 231.438 52.277 233.739 54.6924C236.041 57.085 237.191 60.5485 237.191 65.083V90ZM264.022 82.3779C265.845 82.3779 268.033 81.9792 270.585 81.1816V88.9404C267.987 90.1025 264.797 90.6836 261.015 90.6836C256.845 90.6836 253.803 89.6354 251.889 87.5391C249.997 85.4199 249.052 82.2526 249.052 78.0371V59.6143H244.062V55.2051L249.804 51.7188L252.812 43.6523H259.477V51.7871H270.175V59.6143H259.477V78.0371C259.477 79.5182 259.887 80.612 260.707 81.3184C261.55 82.0247 262.655 82.3779 264.022 82.3779ZM286.649 70.8252C286.649 74.6077 287.265 77.4674 288.495 79.4043C289.748 81.3411 291.776 82.3096 294.579 82.3096C297.359 82.3096 299.353 81.3525 300.561 79.4385C301.791 77.5016 302.406 74.6305 302.406 70.8252C302.406 67.0426 301.791 64.2057 300.561 62.3145C299.33 60.4232 297.313 59.4775 294.511 59.4775C291.731 59.4775 289.726 60.4232 288.495 62.3145C287.265 64.1829 286.649 67.0199 286.649 70.8252ZM313.07 70.8252C313.07 77.0459 311.43 81.9108 308.148 85.4199C304.867 88.929 300.299 90.6836 294.442 90.6836C290.774 90.6836 287.538 89.8861 284.735 88.291C281.933 86.6732 279.779 84.3604 278.275 81.3525C276.771 78.3447 276.02 74.8356 276.02 70.8252C276.02 64.5817 277.649 59.7282 280.907 56.2646C284.166 52.8011 288.746 51.0693 294.647 51.0693C298.316 51.0693 301.552 51.8669 304.354 53.4619C307.157 55.057 309.311 57.347 310.814 60.332C312.318 63.3171 313.07 66.8148 313.07 70.8252ZM348.344 78.6523C348.344 82.5716 346.977 85.5566 344.242 87.6074C341.531 89.6582 337.463 90.6836 332.04 90.6836C329.26 90.6836 326.89 90.4899 324.931 90.1025C322.971 89.738 321.137 89.1911 319.428 88.4619V79.8486C321.365 80.7601 323.541 81.5234 325.956 82.1387C328.394 82.7539 330.536 83.0615 332.382 83.0615C336.164 83.0615 338.056 81.9678 338.056 79.7803C338.056 78.96 337.805 78.2992 337.304 77.7979C336.802 77.2738 335.937 76.6927 334.706 76.0547C333.476 75.3939 331.835 74.6305 329.784 73.7646C326.845 72.5342 324.68 71.3949 323.29 70.3467C321.923 69.2985 320.92 68.1022 320.282 66.7578C319.667 65.3906 319.359 63.7158 319.359 61.7334C319.359 58.3382 320.67 55.7178 323.29 53.8721C325.933 52.0036 329.67 51.0693 334.501 51.0693C339.104 51.0693 343.581 52.0719 347.934 54.0771L344.789 61.5967C342.875 60.7764 341.086 60.1042 339.423 59.5801C337.759 59.056 336.062 58.7939 334.33 58.7939C331.254 58.7939 329.716 59.6257 329.716 61.2891C329.716 62.2233 330.206 63.0322 331.186 63.7158C332.188 64.3994 334.364 65.4134 337.714 66.7578C340.699 67.9655 342.886 69.0934 344.276 70.1416C345.666 71.1898 346.692 72.3975 347.353 73.7646C348.013 75.1318 348.344 76.7611 348.344 78.6523Z" fill="white"/>
</svg>
