<svg width="5516" height="2035" viewBox="0 0 5516 2035" fill="none" xmlns="http://www.w3.org/2000/svg">
<path d="M6.5 1.5C4 1.5 2 3.5 2 6C2 8.5 4 10.5 6.5 10.5C9 10.5 11 8.5 11 6C11 3.5 9 1.5 6.5 1.5Z" fill="white"/>
<path d="M5515.06 2024.06C5515.65 2023.47 5515.65 2022.53 5515.06 2021.94L5505.51 2012.39C5504.93 2011.81 5503.98 2011.81 5503.39 2012.39C5502.81 2012.98 5502.81 2013.93 5503.39 2014.51L5511.88 2023L5503.39 2031.49C5502.81 2032.07 5502.81 2033.02 5503.39 2033.61C5503.98 2034.19 5504.93 2034.19 5505.51 2033.61L5515.06 2024.06ZM3.5 6C3.5 4.32843 4.82843 3 6.5 3V0C3.17157 0 0.5 2.67157 0.5 6H3.5ZM6.5 3C8.17157 3 9.5 4.32843 9.5 6H12.5C12.5 2.67157 9.82843 0 6.5 0V3ZM9.5 6C9.5 7.67157 8.17157 9 6.5 9V12C9.82843 12 12.5 9.32843 12.5 6H9.5ZM6.5 9C4.82843 9 3.5 7.67157 3.5 6H0.5C0.5 9.32843 3.17157 12 6.5 12V9ZM11 7.5H2740.25V4.5H11V7.5ZM2758.75 26V2003H2761.75V26H2758.75ZM2780.25 2024.5H5514V2021.5H2780.25V2024.5ZM2758.75 2003C2758.75 2014.87 2768.38 2024.5 2780.25 2024.5V2021.5C2770.03 2021.5 2761.75 2013.22 2761.75 2003H2758.75ZM2740.25 7.5C2750.47 7.5 2758.75 15.7827 2758.75 26H2761.75C2761.75 14.1259 2752.12 4.5 2740.25 4.5V7.5Z" fill="#14C871"/>
</svg>
