<svg width="2746" height="3707" viewBox="0 0 2746 3707" fill="none" xmlns="http://www.w3.org/2000/svg">
<path d="M2740 2C2737.5 2 2735.5 4 2735.5 6.5C2735.5 9 2737.5 11 2740 11C2742.5 11 2744.5 9 2744.5 6.5C2744.5 4 2742.5 2 2740 2Z" fill="white"/>
<path d="M0.93934 3693.94C0.353553 3694.53 0.353553 3695.47 0.93934 3696.06L10.4853 3705.61C11.0711 3706.19 12.0208 3706.19 12.6066 3705.61C13.1924 3705.02 13.1924 3704.07 12.6066 3703.49L4.12132 3695L12.6066 3686.51C13.1924 3685.93 13.1924 3684.98 12.6066 3684.39C12.0208 3683.81 11.0711 3683.81 10.4853 3684.39L0.93934 3693.94ZM2737 6.5C2737 4.82843 2738.33 3.5 2740 3.5V0.5C2736.67 0.5 2734 3.17157 2734 6.5H2737ZM2740 3.5C2741.67 3.5 2743 4.82843 2743 6.5H2746C2746 3.17157 2743.33 0.5 2740 0.5V3.5ZM2743 6.5C2743 8.17157 2741.67 9.5 2740 9.5V12.5C2743.33 12.5 2746 9.82843 2746 6.5H2743ZM2740 9.5C2738.33 9.5 2737 8.17157 2737 6.5H2734C2734 9.82843 2736.67 12.5 2740 12.5V9.5ZM2735.5 5H1391V8H2735.5V5ZM1369.5 26.5V3675H1372.5V26.5H1369.5ZM1351 3693.5H2V3696.5H1351V3693.5ZM1369.5 3675C1369.5 3685.22 1361.22 3693.5 1351 3693.5V3696.5C1362.87 3696.5 1372.5 3686.87 1372.5 3675H1369.5ZM1391 5C1379.13 5 1369.5 14.6259 1369.5 26.5H1372.5C1372.5 16.2827 1380.78 8 1391 8V5Z" fill="#14C871"/>
</svg>
