<svg width="428" height="926" viewBox="0 0 428 926" fill="none" xmlns="http://www.w3.org/2000/svg">
<rect width="428" height="926" fill="white"/>
<path d="M394.828 107L397.364 109.535L395.95 110.95L391 106L395.95 101.05L397.364 102.465L394.828 105H402C404.122 105 406.157 105.843 407.657 107.343C409.157 108.843 410 110.878 410 113C410 115.122 409.157 117.157 407.657 118.657C406.157 120.157 404.122 121 402 121H393V119H402C403.591 119 405.117 118.368 406.243 117.243C407.368 116.117 408 114.591 408 113C408 111.409 407.368 109.883 406.243 108.757C405.117 107.632 403.591 107 402 107H394.828Z" fill="#14C871"/>
<path d="M26.792 161.056C25.083 161.056 23.7598 161.7 22.8223 162.989C21.8848 164.269 21.416 166.056 21.416 168.351C21.416 173.126 23.208 175.514 26.792 175.514C28.2959 175.514 30.1172 175.138 32.2559 174.386V178.194C30.498 178.927 28.5352 179.293 26.3672 179.293C23.252 179.293 20.8691 178.351 19.2188 176.466C17.5684 174.571 16.7432 171.856 16.7432 168.321C16.7432 166.095 17.1484 164.146 17.959 162.477C18.7695 160.797 19.9316 159.513 21.4453 158.624C22.9688 157.726 24.751 157.276 26.792 157.276C28.8721 157.276 30.9619 157.779 33.0615 158.785L31.5967 162.477C30.7959 162.096 29.9902 161.764 29.1797 161.48C28.3691 161.197 27.5732 161.056 26.792 161.056ZM40.0342 170.782C40.0342 172.403 40.2979 173.629 40.8252 174.459C41.3623 175.289 42.2314 175.704 43.4326 175.704C44.624 175.704 45.4785 175.294 45.9961 174.474C46.5234 173.644 46.7871 172.413 46.7871 170.782C46.7871 169.161 46.5234 167.945 45.9961 167.135C45.4688 166.324 44.6045 165.919 43.4033 165.919C42.2119 165.919 41.3525 166.324 40.8252 167.135C40.2979 167.936 40.0342 169.151 40.0342 170.782ZM51.3574 170.782C51.3574 173.448 50.6543 175.533 49.248 177.037C47.8418 178.541 45.8838 179.293 43.374 179.293C41.8018 179.293 40.415 178.951 39.2139 178.268C38.0127 177.574 37.0898 176.583 36.4453 175.294C35.8008 174.005 35.4785 172.501 35.4785 170.782C35.4785 168.106 36.1768 166.026 37.5732 164.542C38.9697 163.058 40.9326 162.315 43.4619 162.315C45.0342 162.315 46.4209 162.657 47.6221 163.341C48.8232 164.024 49.7461 165.006 50.3906 166.285C51.0352 167.564 51.3574 169.063 51.3574 170.782ZM69.7119 179H65.2441V169.435C65.2441 168.253 65.0439 167.369 64.6436 166.783C64.2529 166.188 63.6328 165.89 62.7832 165.89C61.6406 165.89 60.8105 166.31 60.293 167.149C59.7754 167.989 59.5166 169.371 59.5166 171.295V179H55.0488V162.623H58.4619L59.0625 164.718H59.3115C59.751 163.966 60.3857 163.38 61.2158 162.96C62.0459 162.53 62.998 162.315 64.0723 162.315C66.5234 162.315 68.1836 163.116 69.0527 164.718H69.4482C69.8877 163.956 70.5322 163.365 71.3818 162.945C72.2412 162.525 73.208 162.315 74.2822 162.315C76.1377 162.315 77.5391 162.794 78.4863 163.751C79.4434 164.698 79.9219 166.222 79.9219 168.321V179H75.4395V169.435C75.4395 168.253 75.2393 167.369 74.8389 166.783C74.4482 166.188 73.8281 165.89 72.9785 165.89C71.8848 165.89 71.0645 166.28 70.5176 167.062C69.9805 167.843 69.7119 169.083 69.7119 170.782V179ZM88.0811 170.782C88.0811 172.403 88.3447 173.629 88.8721 174.459C89.4092 175.289 90.2783 175.704 91.4795 175.704C92.6709 175.704 93.5254 175.294 94.043 174.474C94.5703 173.644 94.834 172.413 94.834 170.782C94.834 169.161 94.5703 167.945 94.043 167.135C93.5156 166.324 92.6514 165.919 91.4502 165.919C90.2588 165.919 89.3994 166.324 88.8721 167.135C88.3447 167.936 88.0811 169.151 88.0811 170.782ZM99.4043 170.782C99.4043 173.448 98.7012 175.533 97.2949 177.037C95.8887 178.541 93.9307 179.293 91.4209 179.293C89.8486 179.293 88.4619 178.951 87.2607 178.268C86.0596 177.574 85.1367 176.583 84.4922 175.294C83.8477 174.005 83.5254 172.501 83.5254 170.782C83.5254 168.106 84.2236 166.026 85.6201 164.542C87.0166 163.058 88.9795 162.315 91.5088 162.315C93.0811 162.315 94.4678 162.657 95.6689 163.341C96.8701 164.024 97.793 165.006 98.4375 166.285C99.082 167.564 99.4043 169.063 99.4043 170.782ZM116.074 179.293C114.15 179.293 112.637 178.546 111.533 177.052C110.439 175.558 109.893 173.487 109.893 170.841C109.893 168.155 110.449 166.065 111.562 164.571C112.686 163.067 114.229 162.315 116.191 162.315C118.252 162.315 119.824 163.116 120.908 164.718H121.055C120.83 163.497 120.718 162.408 120.718 161.451V156.207H125.2V179H121.772L120.908 176.876H120.718C119.702 178.487 118.154 179.293 116.074 179.293ZM117.642 175.733C118.784 175.733 119.619 175.401 120.146 174.737C120.684 174.073 120.977 172.945 121.025 171.354V170.87C121.025 169.112 120.752 167.853 120.205 167.091C119.668 166.329 118.789 165.948 117.568 165.948C116.572 165.948 115.796 166.373 115.239 167.223C114.692 168.062 114.419 169.288 114.419 170.899C114.419 172.511 114.697 173.722 115.254 174.532C115.811 175.333 116.606 175.733 117.642 175.733ZM136.655 165.494C135.708 165.494 134.966 165.797 134.429 166.402C133.892 166.998 133.584 167.848 133.506 168.951H139.775C139.756 167.848 139.468 166.998 138.911 166.402C138.354 165.797 137.603 165.494 136.655 165.494ZM137.285 179.293C134.648 179.293 132.588 178.565 131.104 177.11C129.619 175.655 128.877 173.595 128.877 170.929C128.877 168.185 129.561 166.065 130.928 164.571C132.305 163.067 134.204 162.315 136.626 162.315C138.94 162.315 140.742 162.975 142.031 164.293C143.32 165.611 143.965 167.433 143.965 169.757V171.925H133.403C133.452 173.194 133.828 174.186 134.531 174.898C135.234 175.611 136.221 175.968 137.49 175.968C138.477 175.968 139.409 175.865 140.288 175.66C141.167 175.455 142.085 175.128 143.042 174.679V178.136C142.261 178.526 141.426 178.814 140.537 179C139.648 179.195 138.564 179.293 137.285 179.293ZM159.023 174.137C159.023 175.816 158.438 177.096 157.266 177.975C156.104 178.854 154.36 179.293 152.036 179.293C150.845 179.293 149.829 179.21 148.989 179.044C148.149 178.888 147.363 178.653 146.631 178.341V174.649C147.461 175.04 148.394 175.367 149.429 175.631C150.474 175.895 151.392 176.026 152.183 176.026C153.804 176.026 154.614 175.558 154.614 174.62C154.614 174.269 154.507 173.985 154.292 173.771C154.077 173.546 153.706 173.297 153.179 173.023C152.651 172.74 151.948 172.413 151.069 172.042C149.81 171.515 148.882 171.026 148.286 170.577C147.7 170.128 147.271 169.615 146.997 169.039C146.733 168.453 146.602 167.735 146.602 166.886C146.602 165.431 147.163 164.308 148.286 163.517C149.419 162.716 151.021 162.315 153.091 162.315C155.063 162.315 156.982 162.745 158.848 163.604L157.5 166.827C156.68 166.476 155.913 166.188 155.2 165.963C154.487 165.738 153.76 165.626 153.018 165.626C151.699 165.626 151.04 165.982 151.04 166.695C151.04 167.096 151.25 167.442 151.67 167.735C152.1 168.028 153.032 168.463 154.468 169.039C155.747 169.557 156.685 170.04 157.28 170.489C157.876 170.938 158.315 171.456 158.599 172.042C158.882 172.628 159.023 173.326 159.023 174.137ZM169.292 165.494C168.345 165.494 167.603 165.797 167.065 166.402C166.528 166.998 166.221 167.848 166.143 168.951H172.412C172.393 167.848 172.104 166.998 171.548 166.402C170.991 165.797 170.239 165.494 169.292 165.494ZM169.922 179.293C167.285 179.293 165.225 178.565 163.74 177.11C162.256 175.655 161.514 173.595 161.514 170.929C161.514 168.185 162.197 166.065 163.564 164.571C164.941 163.067 166.841 162.315 169.263 162.315C171.577 162.315 173.379 162.975 174.668 164.293C175.957 165.611 176.602 167.433 176.602 169.757V171.925H166.04C166.089 173.194 166.465 174.186 167.168 174.898C167.871 175.611 168.857 175.968 170.127 175.968C171.113 175.968 172.046 175.865 172.925 175.66C173.804 175.455 174.722 175.128 175.679 174.679V178.136C174.897 178.526 174.062 178.814 173.174 179C172.285 179.195 171.201 179.293 169.922 179.293ZM178.916 186.207C177.773 186.207 176.792 186.085 175.972 185.841V182.325C176.655 182.511 177.354 182.604 178.066 182.604C178.818 182.604 179.365 182.394 179.707 181.974C180.059 181.554 180.234 180.934 180.234 180.113V162.623H184.702V180.772C184.702 182.511 184.199 183.849 183.193 184.786C182.188 185.733 180.762 186.207 178.916 186.207ZM180.044 158.39C180.044 156.935 180.854 156.207 182.476 156.207C184.097 156.207 184.907 156.935 184.907 158.39C184.907 159.083 184.702 159.625 184.292 160.016C183.892 160.396 183.286 160.587 182.476 160.587C180.854 160.587 180.044 159.854 180.044 158.39ZM199.805 179L198.94 176.773H198.823C198.071 177.721 197.295 178.38 196.494 178.751C195.703 179.112 194.668 179.293 193.389 179.293C191.816 179.293 190.576 178.844 189.668 177.945C188.77 177.047 188.32 175.768 188.32 174.107C188.32 172.369 188.926 171.09 190.137 170.27C191.357 169.439 193.193 168.98 195.645 168.893L198.486 168.805V168.087C198.486 166.427 197.637 165.597 195.938 165.597C194.629 165.597 193.091 165.992 191.323 166.783L189.844 163.766C191.729 162.779 193.818 162.286 196.113 162.286C198.311 162.286 199.995 162.765 201.167 163.722C202.339 164.679 202.925 166.134 202.925 168.087V179H199.805ZM198.486 171.412L196.758 171.471C195.459 171.51 194.492 171.744 193.857 172.174C193.223 172.604 192.905 173.258 192.905 174.137C192.905 175.396 193.628 176.026 195.073 176.026C196.108 176.026 196.934 175.729 197.549 175.133C198.174 174.537 198.486 173.746 198.486 172.76V171.412ZM226.758 174.137C226.758 175.816 226.172 177.096 225 177.975C223.838 178.854 222.095 179.293 219.771 179.293C218.579 179.293 217.563 179.21 216.724 179.044C215.884 178.888 215.098 178.653 214.365 178.341V174.649C215.195 175.04 216.128 175.367 217.163 175.631C218.208 175.895 219.126 176.026 219.917 176.026C221.538 176.026 222.349 175.558 222.349 174.62C222.349 174.269 222.241 173.985 222.026 173.771C221.812 173.546 221.44 173.297 220.913 173.023C220.386 172.74 219.683 172.413 218.804 172.042C217.544 171.515 216.616 171.026 216.021 170.577C215.435 170.128 215.005 169.615 214.731 169.039C214.468 168.453 214.336 167.735 214.336 166.886C214.336 165.431 214.897 164.308 216.021 163.517C217.153 162.716 218.755 162.315 220.825 162.315C222.798 162.315 224.717 162.745 226.582 163.604L225.234 166.827C224.414 166.476 223.647 166.188 222.935 165.963C222.222 165.738 221.494 165.626 220.752 165.626C219.434 165.626 218.774 165.982 218.774 166.695C218.774 167.096 218.984 167.442 219.404 167.735C219.834 168.028 220.767 168.463 222.202 169.039C223.481 169.557 224.419 170.04 225.015 170.489C225.61 170.938 226.05 171.456 226.333 172.042C226.616 172.628 226.758 173.326 226.758 174.137ZM237.026 165.494C236.079 165.494 235.337 165.797 234.8 166.402C234.263 166.998 233.955 167.848 233.877 168.951H240.146C240.127 167.848 239.839 166.998 239.282 166.402C238.726 165.797 237.974 165.494 237.026 165.494ZM237.656 179.293C235.02 179.293 232.959 178.565 231.475 177.11C229.99 175.655 229.248 173.595 229.248 170.929C229.248 168.185 229.932 166.065 231.299 164.571C232.676 163.067 234.575 162.315 236.997 162.315C239.312 162.315 241.113 162.975 242.402 164.293C243.691 165.611 244.336 167.433 244.336 169.757V171.925H233.774C233.823 173.194 234.199 174.186 234.902 174.898C235.605 175.611 236.592 175.968 237.861 175.968C238.848 175.968 239.78 175.865 240.659 175.66C241.538 175.455 242.456 175.128 243.413 174.679V178.136C242.632 178.526 241.797 178.814 240.908 179C240.02 179.195 238.936 179.293 237.656 179.293ZM257.109 162.315C257.715 162.315 258.218 162.359 258.618 162.447L258.281 166.637C257.92 166.539 257.48 166.49 256.963 166.49C255.537 166.49 254.424 166.856 253.623 167.589C252.832 168.321 252.437 169.347 252.437 170.665V179H247.969V162.623H251.353L252.012 165.377H252.231C252.739 164.459 253.423 163.722 254.282 163.165C255.151 162.599 256.094 162.315 257.109 162.315ZM23.9941 226.293C18.8965 226.293 16.3477 223.495 16.3477 217.899C16.3477 215.116 17.041 212.992 18.4277 211.527C19.8145 210.053 21.8018 209.315 24.3896 209.315C26.2842 209.315 27.9834 209.687 29.4873 210.429L28.1689 213.886C27.4658 213.603 26.8115 213.373 26.2061 213.197C25.6006 213.012 24.9951 212.919 24.3896 212.919C22.0654 212.919 20.9033 214.569 20.9033 217.87C20.9033 221.073 22.0654 222.675 24.3896 222.675C25.249 222.675 26.0449 222.562 26.7773 222.338C27.5098 222.104 28.2422 221.742 28.9746 221.254V225.077C28.252 225.536 27.5195 225.854 26.7773 226.029C26.0449 226.205 25.1172 226.293 23.9941 226.293ZM47.9004 226H43.4326V216.435C43.4326 214.071 42.5537 212.89 40.7959 212.89C39.5459 212.89 38.6426 213.314 38.0859 214.164C37.5293 215.014 37.251 216.391 37.251 218.295V226H32.7832V203.207H37.251V207.851C37.251 208.212 37.2168 209.062 37.1484 210.399L37.0459 211.718H37.2803C38.2764 210.116 39.8584 209.315 42.0264 209.315C43.9502 209.315 45.4102 209.833 46.4062 210.868C47.4023 211.903 47.9004 213.388 47.9004 215.321V226ZM62.9004 226L62.0361 223.773H61.9189C61.167 224.721 60.3906 225.38 59.5898 225.751C58.7988 226.112 57.7637 226.293 56.4844 226.293C54.9121 226.293 53.6719 225.844 52.7637 224.945C51.8652 224.047 51.416 222.768 51.416 221.107C51.416 219.369 52.0215 218.09 53.2324 217.27C54.4531 216.439 56.2891 215.98 58.7402 215.893L61.582 215.805V215.087C61.582 213.427 60.7324 212.597 59.0332 212.597C57.7246 212.597 56.1865 212.992 54.4189 213.783L52.9395 210.766C54.8242 209.779 56.9141 209.286 59.209 209.286C61.4062 209.286 63.0908 209.765 64.2627 210.722C65.4346 211.679 66.0205 213.134 66.0205 215.087V226H62.9004ZM61.582 218.412L59.8535 218.471C58.5547 218.51 57.5879 218.744 56.9531 219.174C56.3184 219.604 56.001 220.258 56.001 221.137C56.001 222.396 56.7236 223.026 58.1689 223.026C59.2041 223.026 60.0293 222.729 60.6445 222.133C61.2695 221.537 61.582 220.746 61.582 219.76V218.412ZM85.2979 226H80.8301V216.435C80.8301 215.253 80.6299 214.369 80.2295 213.783C79.8389 213.188 79.2188 212.89 78.3691 212.89C77.2266 212.89 76.3965 213.31 75.8789 214.149C75.3613 214.989 75.1025 216.371 75.1025 218.295V226H70.6348V209.623H74.0479L74.6484 211.718H74.8975C75.3369 210.966 75.9717 210.38 76.8018 209.96C77.6318 209.53 78.584 209.315 79.6582 209.315C82.1094 209.315 83.7695 210.116 84.6387 211.718H85.0342C85.4736 210.956 86.1182 210.365 86.9678 209.945C87.8271 209.525 88.7939 209.315 89.8682 209.315C91.7236 209.315 93.125 209.794 94.0723 210.751C95.0293 211.698 95.5078 213.222 95.5078 215.321V226H91.0254V216.435C91.0254 215.253 90.8252 214.369 90.4248 213.783C90.0342 213.188 89.4141 212.89 88.5645 212.89C87.4707 212.89 86.6504 213.28 86.1035 214.062C85.5664 214.843 85.2979 216.083 85.2979 217.782V226ZM110.508 226L109.644 223.773H109.526C108.774 224.721 107.998 225.38 107.197 225.751C106.406 226.112 105.371 226.293 104.092 226.293C102.52 226.293 101.279 225.844 100.371 224.945C99.4727 224.047 99.0234 222.768 99.0234 221.107C99.0234 219.369 99.6289 218.09 100.84 217.27C102.061 216.439 103.896 215.98 106.348 215.893L109.189 215.805V215.087C109.189 213.427 108.34 212.597 106.641 212.597C105.332 212.597 103.794 212.992 102.026 213.783L100.547 210.766C102.432 209.779 104.521 209.286 106.816 209.286C109.014 209.286 110.698 209.765 111.87 210.722C113.042 211.679 113.628 213.134 113.628 215.087V226H110.508ZM109.189 218.412L107.461 218.471C106.162 218.51 105.195 218.744 104.561 219.174C103.926 219.604 103.608 220.258 103.608 221.137C103.608 222.396 104.331 223.026 105.776 223.026C106.812 223.026 107.637 222.729 108.252 222.133C108.877 221.537 109.189 220.746 109.189 219.76V218.412ZM123.428 226.293C121.504 226.293 119.99 225.546 118.887 224.052C117.793 222.558 117.246 220.487 117.246 217.841C117.246 215.155 117.803 213.065 118.916 211.571C120.039 210.067 121.582 209.315 123.545 209.315C125.605 209.315 127.178 210.116 128.262 211.718H128.408C128.184 210.497 128.071 209.408 128.071 208.451V203.207H132.554V226H129.126L128.262 223.876H128.071C127.056 225.487 125.508 226.293 123.428 226.293ZM124.995 222.733C126.138 222.733 126.973 222.401 127.5 221.737C128.037 221.073 128.33 219.945 128.379 218.354V217.87C128.379 216.112 128.105 214.853 127.559 214.091C127.021 213.329 126.143 212.948 124.922 212.948C123.926 212.948 123.149 213.373 122.593 214.223C122.046 215.062 121.772 216.288 121.772 217.899C121.772 219.511 122.051 220.722 122.607 221.532C123.164 222.333 123.96 222.733 124.995 222.733ZM140.786 217.782C140.786 219.403 141.05 220.629 141.577 221.459C142.114 222.289 142.983 222.704 144.185 222.704C145.376 222.704 146.23 222.294 146.748 221.474C147.275 220.644 147.539 219.413 147.539 217.782C147.539 216.161 147.275 214.945 146.748 214.135C146.221 213.324 145.356 212.919 144.155 212.919C142.964 212.919 142.104 213.324 141.577 214.135C141.05 214.936 140.786 216.151 140.786 217.782ZM152.109 217.782C152.109 220.448 151.406 222.533 150 224.037C148.594 225.541 146.636 226.293 144.126 226.293C142.554 226.293 141.167 225.951 139.966 225.268C138.765 224.574 137.842 223.583 137.197 222.294C136.553 221.005 136.23 219.501 136.23 217.782C136.23 215.106 136.929 213.026 138.325 211.542C139.722 210.058 141.685 209.315 144.214 209.315C145.786 209.315 147.173 209.657 148.374 210.341C149.575 211.024 150.498 212.006 151.143 213.285C151.787 214.564 152.109 216.063 152.109 217.782ZM154.658 217.782C154.658 215.194 155.034 212.772 155.786 210.517C156.548 208.261 157.642 206.283 159.067 204.584H162.729C161.353 206.469 160.312 208.539 159.609 210.795C158.906 213.051 158.555 215.37 158.555 217.753C158.555 220.146 158.911 222.46 159.624 224.696C160.347 226.923 161.372 228.939 162.7 230.746H159.067C157.632 229.086 156.538 227.147 155.786 224.931C155.034 222.714 154.658 220.331 154.658 217.782ZM176.367 226L175.503 223.773H175.386C174.634 224.721 173.857 225.38 173.057 225.751C172.266 226.112 171.23 226.293 169.951 226.293C168.379 226.293 167.139 225.844 166.23 224.945C165.332 224.047 164.883 222.768 164.883 221.107C164.883 219.369 165.488 218.09 166.699 217.27C167.92 216.439 169.756 215.98 172.207 215.893L175.049 215.805V215.087C175.049 213.427 174.199 212.597 172.5 212.597C171.191 212.597 169.653 212.992 167.886 213.783L166.406 210.766C168.291 209.779 170.381 209.286 172.676 209.286C174.873 209.286 176.558 209.765 177.729 210.722C178.901 211.679 179.487 213.134 179.487 215.087V226H176.367ZM175.049 218.412L173.32 218.471C172.021 218.51 171.055 218.744 170.42 219.174C169.785 219.604 169.468 220.258 169.468 221.137C169.468 222.396 170.19 223.026 171.636 223.026C172.671 223.026 173.496 222.729 174.111 222.133C174.736 221.537 175.049 220.746 175.049 219.76V218.412ZM190.723 217.782C190.723 220.351 190.342 222.743 189.58 224.96C188.828 227.177 187.739 229.105 186.313 230.746H182.681C183.999 228.949 185.02 226.938 185.742 224.711C186.465 222.475 186.826 220.155 186.826 217.753C186.826 215.37 186.475 213.051 185.771 210.795C185.068 208.539 184.028 206.469 182.651 204.584H186.313C187.749 206.293 188.843 208.28 189.595 210.546C190.347 212.802 190.723 215.214 190.723 217.782ZM195.967 218.896V217.812C195.967 216.874 196.167 216.059 196.567 215.365C196.968 214.672 197.7 213.935 198.765 213.153C199.79 212.421 200.464 211.825 200.786 211.366C201.118 210.907 201.284 210.395 201.284 209.828C201.284 209.193 201.05 208.71 200.581 208.378C200.112 208.046 199.458 207.88 198.618 207.88C197.153 207.88 195.483 208.358 193.608 209.315L192.012 206.107C194.189 204.887 196.499 204.276 198.94 204.276C200.952 204.276 202.549 204.76 203.73 205.727C204.922 206.693 205.518 207.982 205.518 209.594C205.518 210.668 205.273 211.596 204.785 212.377C204.297 213.158 203.369 214.037 202.002 215.014C201.064 215.707 200.469 216.234 200.215 216.596C199.971 216.957 199.849 217.431 199.849 218.017V218.896H195.967ZM195.498 223.905C195.498 223.085 195.718 222.465 196.157 222.045C196.597 221.625 197.236 221.415 198.076 221.415C198.887 221.415 199.512 221.63 199.951 222.06C200.4 222.489 200.625 223.104 200.625 223.905C200.625 224.677 200.4 225.287 199.951 225.736C199.502 226.176 198.877 226.396 198.076 226.396C197.256 226.396 196.621 226.181 196.172 225.751C195.723 225.312 195.498 224.696 195.498 223.905Z" fill="#2E3E4B"/>
<rect x="15" y="700" width="398" height="56" rx="5" fill="#14C871"/>
<path d="M186.406 723.078C187.88 723.078 188.956 723.38 189.633 723.984C190.31 724.589 190.648 725.435 190.648 726.523C190.648 727.018 190.57 727.49 190.414 727.938C190.263 728.38 190.013 728.773 189.664 729.117C189.315 729.456 188.854 729.724 188.281 729.922C187.714 730.12 187.013 730.219 186.18 730.219H184.961V734.5H183.086V723.078H186.406ZM186.281 724.633H184.961V728.656H185.984C186.573 728.656 187.073 728.589 187.484 728.453C187.896 728.312 188.208 728.091 188.422 727.789C188.635 727.487 188.742 727.089 188.742 726.594C188.742 725.932 188.542 725.44 188.141 725.117C187.745 724.794 187.125 724.633 186.281 724.633ZM197.125 725.688C197.271 725.688 197.43 725.695 197.602 725.711C197.773 725.727 197.922 725.747 198.047 725.773L197.875 727.492C197.766 727.461 197.63 727.438 197.469 727.422C197.312 727.406 197.172 727.398 197.047 727.398C196.719 727.398 196.406 727.453 196.109 727.562C195.812 727.667 195.549 727.828 195.32 728.047C195.091 728.26 194.911 728.529 194.781 728.852C194.651 729.174 194.586 729.549 194.586 729.977V734.5H192.742V725.852H194.18L194.43 727.375H194.516C194.688 727.068 194.901 726.786 195.156 726.531C195.411 726.276 195.703 726.073 196.031 725.922C196.365 725.766 196.729 725.688 197.125 725.688ZM207.305 730.156C207.305 730.875 207.211 731.513 207.023 732.07C206.836 732.628 206.562 733.099 206.203 733.484C205.844 733.865 205.411 734.156 204.906 734.359C204.401 734.557 203.831 734.656 203.195 734.656C202.602 734.656 202.057 734.557 201.562 734.359C201.068 734.156 200.638 733.865 200.273 733.484C199.914 733.099 199.635 732.628 199.438 732.07C199.24 731.513 199.141 730.875 199.141 730.156C199.141 729.203 199.305 728.396 199.633 727.734C199.966 727.068 200.44 726.56 201.055 726.211C201.669 725.862 202.401 725.688 203.25 725.688C204.047 725.688 204.75 725.862 205.359 726.211C205.969 726.56 206.445 727.068 206.789 727.734C207.133 728.401 207.305 729.208 207.305 730.156ZM201.031 730.156C201.031 730.786 201.107 731.326 201.258 731.773C201.414 732.221 201.654 732.565 201.977 732.805C202.299 733.039 202.716 733.156 203.227 733.156C203.737 733.156 204.154 733.039 204.477 732.805C204.799 732.565 205.036 732.221 205.188 731.773C205.339 731.326 205.414 730.786 205.414 730.156C205.414 729.526 205.339 728.992 205.188 728.555C205.036 728.112 204.799 727.776 204.477 727.547C204.154 727.312 203.734 727.195 203.219 727.195C202.458 727.195 201.904 727.451 201.555 727.961C201.206 728.471 201.031 729.203 201.031 730.156ZM205.898 722.242V722.398C205.773 722.549 205.604 722.732 205.391 722.945C205.177 723.154 204.945 723.375 204.695 723.609C204.445 723.839 204.198 724.06 203.953 724.273C203.708 724.482 203.487 724.659 203.289 724.805H202.062V724.602C202.234 724.404 202.424 724.167 202.633 723.891C202.846 723.615 203.055 723.331 203.258 723.039C203.466 722.747 203.641 722.482 203.781 722.242H205.898ZM211.328 730.078L208.438 725.852H210.531L212.508 728.891L214.492 725.852H216.578L213.672 730.078L216.727 734.5H214.625L212.508 731.258L210.383 734.5H208.297L211.328 730.078ZM220.062 725.852V734.5H218.227V725.852H220.062ZM219.156 722.539C219.438 722.539 219.68 722.615 219.883 722.766C220.091 722.917 220.195 723.177 220.195 723.547C220.195 723.911 220.091 724.172 219.883 724.328C219.68 724.479 219.438 724.555 219.156 724.555C218.865 724.555 218.617 724.479 218.414 724.328C218.216 724.172 218.117 723.911 218.117 723.547C218.117 723.177 218.216 722.917 218.414 722.766C218.617 722.615 218.865 722.539 219.156 722.539ZM232.469 725.688C233.438 725.688 234.167 725.938 234.656 726.438C235.151 726.938 235.398 727.74 235.398 728.844V734.5H233.562V729.172C233.562 728.516 233.435 728.021 233.18 727.688C232.924 727.354 232.536 727.188 232.016 727.188C231.286 727.188 230.76 727.422 230.438 727.891C230.12 728.354 229.961 729.029 229.961 729.914V734.5H228.125V729.172C228.125 728.734 228.068 728.37 227.953 728.078C227.844 727.781 227.674 727.56 227.445 727.414C227.216 727.263 226.927 727.188 226.578 727.188C226.073 727.188 225.669 727.302 225.367 727.531C225.07 727.76 224.857 728.099 224.727 728.547C224.596 728.99 224.531 729.534 224.531 730.18V734.5H222.695V725.852H224.125L224.383 727.016H224.484C224.661 726.714 224.88 726.466 225.141 726.273C225.406 726.076 225.701 725.93 226.023 725.836C226.346 725.737 226.682 725.688 227.031 725.688C227.677 725.688 228.221 725.802 228.664 726.031C229.107 726.255 229.438 726.599 229.656 727.062H229.797C230.068 726.594 230.445 726.247 230.93 726.023C231.414 725.799 231.927 725.688 232.469 725.688ZM245.617 730.156C245.617 730.875 245.523 731.513 245.336 732.07C245.148 732.628 244.875 733.099 244.516 733.484C244.156 733.865 243.724 734.156 243.219 734.359C242.714 734.557 242.143 734.656 241.508 734.656C240.914 734.656 240.37 734.557 239.875 734.359C239.38 734.156 238.951 733.865 238.586 733.484C238.227 733.099 237.948 732.628 237.75 732.07C237.552 731.513 237.453 730.875 237.453 730.156C237.453 729.203 237.617 728.396 237.945 727.734C238.279 727.068 238.753 726.56 239.367 726.211C239.982 725.862 240.714 725.688 241.562 725.688C242.359 725.688 243.062 725.862 243.672 726.211C244.281 726.56 244.758 727.068 245.102 727.734C245.445 728.401 245.617 729.208 245.617 730.156ZM239.344 730.156C239.344 730.786 239.419 731.326 239.57 731.773C239.727 732.221 239.966 732.565 240.289 732.805C240.612 733.039 241.029 733.156 241.539 733.156C242.049 733.156 242.466 733.039 242.789 732.805C243.112 732.565 243.349 732.221 243.5 731.773C243.651 731.326 243.727 730.786 243.727 730.156C243.727 729.526 243.651 728.992 243.5 728.555C243.349 728.112 243.112 727.776 242.789 727.547C242.466 727.312 242.047 727.195 241.531 727.195C240.771 727.195 240.216 727.451 239.867 727.961C239.518 728.471 239.344 729.203 239.344 730.156Z" fill="white"/>
<path d="M22.8691 306H21.7324L17.0508 298.811H17.0039C17.0664 299.654 17.0977 300.428 17.0977 301.131V306H16.1777V297.434H17.3027L21.9727 304.594H22.0195C22.0117 304.488 21.9941 304.15 21.9668 303.58C21.9395 303.006 21.9297 302.596 21.9375 302.35V297.434H22.8691V306ZM30.6211 302.783C30.6211 303.83 30.3574 304.648 29.8301 305.238C29.3027 305.824 28.5742 306.117 27.6445 306.117C27.0703 306.117 26.5605 305.982 26.1152 305.713C25.6699 305.443 25.3262 305.057 25.084 304.553C24.8418 304.049 24.7207 303.459 24.7207 302.783C24.7207 301.736 24.9824 300.922 25.5059 300.34C26.0293 299.754 26.7559 299.461 27.6855 299.461C28.584 299.461 29.2969 299.76 29.8242 300.357C30.3555 300.955 30.6211 301.764 30.6211 302.783ZM25.7285 302.783C25.7285 303.604 25.8926 304.229 26.2207 304.658C26.5488 305.088 27.0312 305.303 27.668 305.303C28.3047 305.303 28.7871 305.09 29.1152 304.664C29.4473 304.234 29.6133 303.607 29.6133 302.783C29.6133 301.967 29.4473 301.348 29.1152 300.926C28.7871 300.5 28.3008 300.287 27.6562 300.287C27.0195 300.287 26.5391 300.496 26.2148 300.914C25.8906 301.332 25.7285 301.955 25.7285 302.783ZM40.5176 306V301.822C40.5176 301.311 40.4082 300.928 40.1895 300.674C39.9707 300.416 39.6309 300.287 39.1699 300.287C38.5645 300.287 38.1172 300.461 37.8281 300.809C37.5391 301.156 37.3945 301.691 37.3945 302.414V306H36.4219V301.822C36.4219 301.311 36.3125 300.928 36.0938 300.674C35.875 300.416 35.5332 300.287 35.0684 300.287C34.459 300.287 34.0117 300.471 33.7266 300.838C33.4453 301.201 33.3047 301.799 33.3047 302.631V306H32.332V299.578H33.123L33.2812 300.457H33.3281C33.5117 300.145 33.7695 299.9 34.1016 299.725C34.4375 299.549 34.8125 299.461 35.2266 299.461C36.2305 299.461 36.8867 299.824 37.1953 300.551H37.2422C37.4336 300.215 37.7109 299.949 38.0742 299.754C38.4375 299.559 38.8516 299.461 39.3164 299.461C40.043 299.461 40.5859 299.648 40.9453 300.023C41.3086 300.395 41.4902 300.99 41.4902 301.811V306H40.5176ZM46.2129 306.117C45.2637 306.117 44.5137 305.828 43.9629 305.25C43.416 304.672 43.1426 303.869 43.1426 302.842C43.1426 301.807 43.3965 300.984 43.9043 300.375C44.416 299.766 45.1016 299.461 45.9609 299.461C46.7656 299.461 47.4023 299.727 47.8711 300.258C48.3398 300.785 48.5742 301.482 48.5742 302.35V302.965H44.1504C44.1699 303.719 44.3594 304.291 44.7188 304.682C45.082 305.072 45.5918 305.268 46.248 305.268C46.9395 305.268 47.623 305.123 48.2988 304.834V305.701C47.9551 305.85 47.6289 305.955 47.3203 306.018C47.0156 306.084 46.6465 306.117 46.2129 306.117ZM45.9492 300.275C45.4336 300.275 45.0215 300.443 44.7129 300.779C44.4082 301.115 44.2285 301.58 44.1738 302.174H47.5312C47.5312 301.561 47.3945 301.092 47.1211 300.768C46.8477 300.439 46.457 300.275 45.9492 300.275Z" fill="black"/>
<rect x="15" y="317" width="398" height="70" rx="5" fill="#DCDFE8"/>
<path d="M36.7734 353.18C36.7734 354.466 36.5339 355.542 36.0547 356.406C35.5755 357.266 34.8802 357.914 33.9688 358.352C33.0573 358.784 31.9583 359 30.6719 359H27.5V347.578H31.0156C32.1979 347.578 33.2188 347.792 34.0781 348.219C34.9375 348.641 35.6016 349.268 36.0703 350.102C36.5391 350.93 36.7734 351.956 36.7734 353.18ZM34.8203 353.234C34.8203 352.297 34.6719 351.526 34.375 350.922C34.0833 350.318 33.651 349.87 33.0781 349.578C32.5104 349.281 31.8099 349.133 30.9766 349.133H29.375V357.43H30.7031C32.0833 357.43 33.1146 357.078 33.7969 356.375C34.4792 355.672 34.8203 354.625 34.8203 353.234ZM40.8828 350.352V359H39.0469V350.352H40.8828ZM39.9766 347.039C40.2578 347.039 40.5 347.115 40.7031 347.266C40.9115 347.417 41.0156 347.677 41.0156 348.047C41.0156 348.411 40.9115 348.672 40.7031 348.828C40.5 348.979 40.2578 349.055 39.9766 349.055C39.6849 349.055 39.4375 348.979 39.2344 348.828C39.0365 348.672 38.9375 348.411 38.9375 348.047C38.9375 347.677 39.0365 347.417 39.2344 347.266C39.4375 347.115 39.6849 347.039 39.9766 347.039ZM45.9844 362.844C44.8125 362.844 43.9141 362.633 43.2891 362.211C42.6641 361.789 42.3516 361.198 42.3516 360.438C42.3516 359.906 42.5182 359.456 42.8516 359.086C43.1849 358.721 43.6615 358.469 44.2812 358.328C44.0469 358.224 43.8438 358.062 43.6719 357.844C43.5052 357.62 43.4219 357.372 43.4219 357.102C43.4219 356.779 43.513 356.503 43.6953 356.273C43.8776 356.044 44.151 355.823 44.5156 355.609C44.0625 355.417 43.6979 355.104 43.4219 354.672C43.151 354.234 43.0156 353.721 43.0156 353.133C43.0156 352.508 43.1484 351.977 43.4141 351.539C43.6797 351.096 44.0677 350.76 44.5781 350.531C45.0885 350.297 45.7057 350.18 46.4297 350.18C46.5859 350.18 46.7552 350.19 46.9375 350.211C47.125 350.227 47.2969 350.247 47.4531 350.273C47.6146 350.294 47.737 350.318 47.8203 350.344H50.8125V351.367L49.3438 351.641C49.4844 351.839 49.5964 352.065 49.6797 352.32C49.763 352.57 49.8047 352.844 49.8047 353.141C49.8047 354.036 49.4948 354.742 48.875 355.258C48.2604 355.768 47.4115 356.023 46.3281 356.023C46.0677 356.013 45.8151 355.992 45.5703 355.961C45.3828 356.076 45.2396 356.203 45.1406 356.344C45.0417 356.479 44.9922 356.633 44.9922 356.805C44.9922 356.945 45.0417 357.06 45.1406 357.148C45.2396 357.232 45.3854 357.294 45.5781 357.336C45.776 357.378 46.0156 357.398 46.2969 357.398H47.7891C48.737 357.398 49.4609 357.599 49.9609 358C50.4609 358.401 50.7109 358.99 50.7109 359.766C50.7109 360.75 50.3047 361.508 49.4922 362.039C48.6797 362.576 47.5104 362.844 45.9844 362.844ZM46.0547 361.555C46.6953 361.555 47.2344 361.492 47.6719 361.367C48.1094 361.242 48.4401 361.062 48.6641 360.828C48.888 360.599 49 360.326 49 360.008C49 359.727 48.9297 359.51 48.7891 359.359C48.6484 359.208 48.4375 359.104 48.1562 359.047C47.875 358.99 47.526 358.961 47.1094 358.961H45.75C45.4115 358.961 45.112 359.013 44.8516 359.117C44.5911 359.227 44.388 359.383 44.2422 359.586C44.1016 359.789 44.0312 360.034 44.0312 360.32C44.0312 360.716 44.2057 361.021 44.5547 361.234C44.9089 361.448 45.4089 361.555 46.0547 361.555ZM46.4141 354.82C46.9505 354.82 47.349 354.674 47.6094 354.383C47.8698 354.086 48 353.669 48 353.133C48 352.549 47.8646 352.112 47.5938 351.82C47.3281 351.529 46.9323 351.383 46.4062 351.383C45.8906 351.383 45.4974 351.531 45.2266 351.828C44.9609 352.125 44.8281 352.565 44.8281 353.148C44.8281 353.674 44.9609 354.086 45.2266 354.383C45.4974 354.674 45.8932 354.82 46.4141 354.82ZM54.2266 350.352V359H52.3906V350.352H54.2266ZM53.3203 347.039C53.6016 347.039 53.8438 347.115 54.0469 347.266C54.2552 347.417 54.3594 347.677 54.3594 348.047C54.3594 348.411 54.2552 348.672 54.0469 348.828C53.8438 348.979 53.6016 349.055 53.3203 349.055C53.0286 349.055 52.7812 348.979 52.5781 348.828C52.3802 348.672 52.2812 348.411 52.2812 348.047C52.2812 347.677 52.3802 347.417 52.5781 347.266C52.7812 347.115 53.0286 347.039 53.3203 347.039ZM60.0781 357.672C60.3177 357.672 60.5547 357.651 60.7891 357.609C61.0234 357.562 61.237 357.508 61.4297 357.445V358.836C61.2266 358.924 60.9635 359 60.6406 359.062C60.3177 359.125 59.9818 359.156 59.6328 359.156C59.1432 359.156 58.7031 359.076 58.3125 358.914C57.9219 358.747 57.612 358.464 57.3828 358.062C57.1536 357.661 57.0391 357.107 57.0391 356.398V351.75H55.8594V350.93L57.125 350.281L57.7266 348.43H58.8828V350.352H61.3594V351.75H58.8828V356.375C58.8828 356.812 58.9922 357.138 59.2109 357.352C59.4297 357.565 59.7188 357.672 60.0781 357.672ZM66.6328 350.188C67.4036 350.188 68.0651 350.346 68.6172 350.664C69.1693 350.982 69.5938 351.432 69.8906 352.016C70.1875 352.599 70.3359 353.297 70.3359 354.109V355.094H64.5625C64.5833 355.932 64.8073 356.578 65.2344 357.031C65.6667 357.484 66.2708 357.711 67.0469 357.711C67.599 357.711 68.0938 357.659 68.5312 357.555C68.974 357.445 69.4297 357.286 69.8984 357.078V358.57C69.4661 358.773 69.026 358.922 68.5781 359.016C68.1302 359.109 67.5938 359.156 66.9688 359.156C66.1198 359.156 65.3724 358.992 64.7266 358.664C64.0859 358.331 63.5833 357.836 63.2188 357.18C62.8594 356.523 62.6797 355.708 62.6797 354.734C62.6797 353.766 62.8438 352.943 63.1719 352.266C63.5 351.589 63.9609 351.073 64.5547 350.719C65.1484 350.365 65.8411 350.188 66.6328 350.188ZM66.6328 351.57C66.0547 351.57 65.5859 351.758 65.2266 352.133C64.8724 352.508 64.6641 353.057 64.6016 353.781H68.5391C68.5339 353.349 68.4609 352.966 68.3203 352.633C68.1849 352.299 67.9766 352.039 67.6953 351.852C67.4193 351.664 67.0651 351.57 66.6328 351.57ZM82.375 356.531C82.375 357.099 82.237 357.578 81.9609 357.969C81.6849 358.359 81.2812 358.656 80.75 358.859C80.224 359.057 79.5781 359.156 78.8125 359.156C78.2083 359.156 77.6875 359.112 77.25 359.023C76.8177 358.94 76.4089 358.81 76.0234 358.633V357.047C76.4349 357.24 76.8958 357.406 77.4062 357.547C77.9219 357.688 78.4089 357.758 78.8672 357.758C79.4714 357.758 79.9062 357.664 80.1719 357.477C80.4375 357.284 80.5703 357.029 80.5703 356.711C80.5703 356.523 80.5156 356.357 80.4062 356.211C80.3021 356.06 80.1042 355.906 79.8125 355.75C79.526 355.589 79.1042 355.396 78.5469 355.172C78 354.953 77.5391 354.734 77.1641 354.516C76.7891 354.297 76.5052 354.034 76.3125 353.727C76.1198 353.414 76.0234 353.016 76.0234 352.531C76.0234 351.766 76.3255 351.185 76.9297 350.789C77.5391 350.388 78.3438 350.188 79.3438 350.188C79.875 350.188 80.375 350.242 80.8438 350.352C81.3177 350.456 81.7812 350.609 82.2344 350.812L81.6562 352.195C81.2656 352.023 80.8724 351.883 80.4766 351.773C80.0859 351.659 79.6875 351.602 79.2812 351.602C78.8073 351.602 78.4453 351.674 78.1953 351.82C77.9505 351.966 77.8281 352.174 77.8281 352.445C77.8281 352.648 77.888 352.82 78.0078 352.961C78.1276 353.102 78.3333 353.242 78.625 353.383C78.9219 353.523 79.3333 353.698 79.8594 353.906C80.375 354.104 80.8203 354.312 81.1953 354.531C81.5755 354.745 81.8672 355.008 82.0703 355.32C82.2734 355.633 82.375 356.036 82.375 356.531ZM87.8047 350.188C88.5755 350.188 89.237 350.346 89.7891 350.664C90.3411 350.982 90.7656 351.432 91.0625 352.016C91.3594 352.599 91.5078 353.297 91.5078 354.109V355.094H85.7344C85.7552 355.932 85.9792 356.578 86.4062 357.031C86.8385 357.484 87.4427 357.711 88.2188 357.711C88.7708 357.711 89.2656 357.659 89.7031 357.555C90.1458 357.445 90.6016 357.286 91.0703 357.078V358.57C90.638 358.773 90.1979 358.922 89.75 359.016C89.3021 359.109 88.7656 359.156 88.1406 359.156C87.2917 359.156 86.5443 358.992 85.8984 358.664C85.2578 358.331 84.7552 357.836 84.3906 357.18C84.0312 356.523 83.8516 355.708 83.8516 354.734C83.8516 353.766 84.0156 352.943 84.3438 352.266C84.6719 351.589 85.1328 351.073 85.7266 350.719C86.3203 350.365 87.013 350.188 87.8047 350.188ZM87.8047 351.57C87.2266 351.57 86.7578 351.758 86.3984 352.133C86.0443 352.508 85.8359 353.057 85.7734 353.781H89.7109C89.7057 353.349 89.6328 352.966 89.4922 352.633C89.3568 352.299 89.1484 352.039 88.8672 351.852C88.5911 351.664 88.237 351.57 87.8047 351.57ZM101.117 350.352V359H99.6719L99.4219 357.836H99.3203C99.138 358.133 98.9062 358.38 98.625 358.578C98.3438 358.771 98.0312 358.914 97.6875 359.008C97.3438 359.107 96.9818 359.156 96.6016 359.156C95.9505 359.156 95.3932 359.047 94.9297 358.828C94.4714 358.604 94.1198 358.26 93.875 357.797C93.6302 357.333 93.5078 356.734 93.5078 356V350.352H95.3516V355.656C95.3516 356.328 95.487 356.831 95.7578 357.164C96.0339 357.497 96.4609 357.664 97.0391 357.664C97.5964 357.664 98.0391 357.549 98.3672 357.32C98.6953 357.091 98.9271 356.753 99.0625 356.305C99.2031 355.857 99.2734 355.307 99.2734 354.656V350.352H101.117ZM112.414 350.188C113.388 350.188 114.146 350.44 114.688 350.945C115.234 351.445 115.508 352.25 115.508 353.359V359H113.672V353.703C113.672 353.031 113.534 352.529 113.258 352.195C112.982 351.857 112.555 351.688 111.977 351.688C111.138 351.688 110.555 351.945 110.227 352.461C109.904 352.977 109.742 353.724 109.742 354.703V359H107.906V350.352H109.336L109.594 351.523H109.695C109.883 351.221 110.115 350.974 110.391 350.781C110.672 350.583 110.984 350.435 111.328 350.336C111.677 350.237 112.039 350.188 112.414 350.188ZM125.734 354.656C125.734 355.375 125.641 356.013 125.453 356.57C125.266 357.128 124.992 357.599 124.633 357.984C124.273 358.365 123.841 358.656 123.336 358.859C122.831 359.057 122.26 359.156 121.625 359.156C121.031 359.156 120.487 359.057 119.992 358.859C119.497 358.656 119.068 358.365 118.703 357.984C118.344 357.599 118.065 357.128 117.867 356.57C117.669 356.013 117.57 355.375 117.57 354.656C117.57 353.703 117.734 352.896 118.062 352.234C118.396 351.568 118.87 351.06 119.484 350.711C120.099 350.362 120.831 350.188 121.68 350.188C122.477 350.188 123.18 350.362 123.789 350.711C124.398 351.06 124.875 351.568 125.219 352.234C125.562 352.901 125.734 353.708 125.734 354.656ZM119.461 354.656C119.461 355.286 119.536 355.826 119.688 356.273C119.844 356.721 120.083 357.065 120.406 357.305C120.729 357.539 121.146 357.656 121.656 357.656C122.167 357.656 122.583 357.539 122.906 357.305C123.229 357.065 123.466 356.721 123.617 356.273C123.768 355.826 123.844 355.286 123.844 354.656C123.844 354.026 123.768 353.492 123.617 353.055C123.466 352.612 123.229 352.276 122.906 352.047C122.583 351.812 122.164 351.695 121.648 351.695C120.888 351.695 120.333 351.951 119.984 352.461C119.635 352.971 119.461 353.703 119.461 354.656ZM137.617 350.188C138.586 350.188 139.315 350.438 139.805 350.938C140.299 351.438 140.547 352.24 140.547 353.344V359H138.711V353.672C138.711 353.016 138.583 352.521 138.328 352.188C138.073 351.854 137.685 351.688 137.164 351.688C136.435 351.688 135.909 351.922 135.586 352.391C135.268 352.854 135.109 353.529 135.109 354.414V359H133.273V353.672C133.273 353.234 133.216 352.87 133.102 352.578C132.992 352.281 132.823 352.06 132.594 351.914C132.365 351.763 132.076 351.688 131.727 351.688C131.221 351.688 130.818 351.802 130.516 352.031C130.219 352.26 130.005 352.599 129.875 353.047C129.745 353.49 129.68 354.034 129.68 354.68V359H127.844V350.352H129.273L129.531 351.516H129.633C129.81 351.214 130.029 350.966 130.289 350.773C130.555 350.576 130.849 350.43 131.172 350.336C131.495 350.237 131.831 350.188 132.18 350.188C132.826 350.188 133.37 350.302 133.812 350.531C134.255 350.755 134.586 351.099 134.805 351.562H134.945C135.216 351.094 135.594 350.747 136.078 350.523C136.562 350.299 137.076 350.188 137.617 350.188ZM146.555 350.188C147.326 350.188 147.987 350.346 148.539 350.664C149.091 350.982 149.516 351.432 149.812 352.016C150.109 352.599 150.258 353.297 150.258 354.109V355.094H144.484C144.505 355.932 144.729 356.578 145.156 357.031C145.589 357.484 146.193 357.711 146.969 357.711C147.521 357.711 148.016 357.659 148.453 357.555C148.896 357.445 149.352 357.286 149.82 357.078V358.57C149.388 358.773 148.948 358.922 148.5 359.016C148.052 359.109 147.516 359.156 146.891 359.156C146.042 359.156 145.294 358.992 144.648 358.664C144.008 358.331 143.505 357.836 143.141 357.18C142.781 356.523 142.602 355.708 142.602 354.734C142.602 353.766 142.766 352.943 143.094 352.266C143.422 351.589 143.883 351.073 144.477 350.719C145.07 350.365 145.763 350.188 146.555 350.188ZM146.555 351.57C145.977 351.57 145.508 351.758 145.148 352.133C144.794 352.508 144.586 353.057 144.523 353.781H148.461C148.456 353.349 148.383 352.966 148.242 352.633C148.107 352.299 147.898 352.039 147.617 351.852C147.341 351.664 146.987 351.57 146.555 351.57Z" fill="#9FA6AC"/>
<rect width="428" height="44" fill="#12B667"/>
<path d="M0 0H428V44H0V0Z" fill="black" fill-opacity="0.15"/>
<rect opacity="0.35" x="389.833" y="17.8334" width="21" height="10.3333" rx="2.16667" stroke="white"/>
<path opacity="0.4" d="M412.333 21V25C413.138 24.6612 413.662 23.8731 413.662 23C413.662 22.1269 413.138 21.3388 412.333 21Z" fill="white"/>
<rect x="391.333" y="19.3334" width="18" height="7.33333" rx="1.33333" fill="white"/>
<path fill-rule="evenodd" clip-rule="evenodd" d="M376.667 19.6152C378.892 19.6153 381.031 20.4694 382.644 22.001C382.765 22.1192 382.959 22.1177 383.079 21.9976L384.239 20.8273C384.3 20.7664 384.334 20.6839 384.333 20.598C384.333 20.5122 384.298 20.4301 384.237 20.3699C380.005 16.3176 373.329 16.3176 369.097 20.3699C369.035 20.43 369.001 20.5121 369 20.598C368.999 20.6838 369.033 20.7663 369.094 20.8273L370.255 21.9976C370.374 22.1179 370.568 22.1194 370.69 22.001C372.302 20.4693 374.442 19.6152 376.667 19.6152ZM376.667 23.4227C377.889 23.4227 379.068 23.8766 379.974 24.6964C380.097 24.8127 380.29 24.8102 380.409 24.6907L381.569 23.5204C381.63 23.459 381.663 23.3757 381.663 23.2892C381.662 23.2027 381.626 23.1201 381.564 23.0599C378.805 20.4955 374.532 20.4955 371.773 23.0599C371.71 23.1201 371.675 23.2027 371.674 23.2893C371.673 23.3758 371.707 23.4591 371.768 23.5204L372.927 24.6907C373.047 24.8102 373.24 24.8127 373.362 24.6964C374.268 23.8772 375.446 23.4233 376.667 23.4227ZM378.989 25.9846C378.991 26.0714 378.957 26.155 378.895 26.2158L376.89 28.2378C376.831 28.2972 376.751 28.3307 376.667 28.3307C376.583 28.3307 376.503 28.2972 376.445 28.2378L374.439 26.2158C374.377 26.155 374.343 26.0713 374.345 25.9845C374.347 25.8977 374.384 25.8156 374.449 25.7574C375.729 24.6751 377.605 24.6751 378.886 25.7574C378.95 25.8156 378.988 25.8978 378.989 25.9846Z" fill="white"/>
<path fill-rule="evenodd" clip-rule="evenodd" d="M363 17.6666H362C361.448 17.6666 361 18.1143 361 18.6666V27.3333C361 27.8856 361.448 28.3333 362 28.3333H363C363.552 28.3333 364 27.8856 364 27.3333V18.6666C364 18.1143 363.552 17.6666 363 17.6666ZM357.333 20H358.333C358.886 20 359.333 20.4477 359.333 21V27.3333C359.333 27.8856 358.886 28.3333 358.333 28.3333H357.333C356.781 28.3333 356.333 27.8856 356.333 27.3333V21C356.333 20.4477 356.781 20 357.333 20ZM353.667 22.3333H352.667C352.114 22.3333 351.667 22.781 351.667 23.3333V27.3333C351.667 27.8856 352.114 28.3333 352.667 28.3333H353.667C354.219 28.3333 354.667 27.8856 354.667 27.3333V23.3333C354.667 22.781 354.219 22.3333 353.667 22.3333ZM349 24.3333H348C347.448 24.3333 347 24.781 347 25.3333V27.3333C347 27.8856 347.448 28.3333 348 28.3333H349C349.552 28.3333 350 27.8856 350 27.3333V25.3333C350 24.781 349.552 24.3333 349 24.3333Z" fill="white"/>
<path d="M37.1613 17.1675C34.8688 17.1675 33.2355 18.7349 33.2355 20.8809V20.8955C33.2355 22.9023 34.6564 24.3818 36.6852 24.3818C38.1354 24.3818 39.0582 23.6421 39.4464 22.8071H39.5929C39.5929 22.8877 39.5856 22.9683 39.5856 23.0488C39.505 25.0703 38.7946 26.7109 37.1173 26.7109C36.1871 26.7109 35.5353 26.2275 35.257 25.4878L35.235 25.4146H33.3746L33.3893 25.4951C33.7262 27.1138 35.1764 28.2637 37.1173 28.2637C39.776 28.2637 41.38 26.1543 41.38 22.5947V22.5801C41.38 18.7715 39.4171 17.1675 37.1613 17.1675ZM37.1539 22.9316C35.9528 22.9316 35.0812 22.0527 35.0812 20.8296V20.8149C35.0812 19.6357 36.0114 18.7056 37.1759 18.7056C38.3478 18.7056 39.2633 19.6504 39.2633 20.8589V20.8735C39.2633 22.0674 38.3478 22.9316 37.1539 22.9316ZM44.5385 22.7046C45.2123 22.7046 45.703 22.1992 45.703 21.5547C45.703 20.9028 45.2123 20.3975 44.5385 20.3975C43.872 20.3975 43.3739 20.9028 43.3739 21.5547C43.3739 22.1992 43.872 22.7046 44.5385 22.7046ZM44.5385 28.1465C45.2123 28.1465 45.703 27.6338 45.703 26.9893C45.703 26.3374 45.2123 25.832 44.5385 25.832C43.872 25.832 43.3739 26.3374 43.3739 26.9893C43.3739 27.6338 43.872 28.1465 44.5385 28.1465ZM52.6041 28H54.4132V25.9712H55.8341V24.4111H54.4132V17.4312H51.7399C50.3043 19.6138 48.8029 22.0454 47.4332 24.4258V25.9712H52.6041V28ZM49.191 24.4551V24.3452C50.2164 22.5508 51.4396 20.5952 52.5236 18.9399H52.6334V24.4551H49.191ZM59.974 28H61.8636V17.4312H59.9813L57.2201 19.3721V21.1519L59.8495 19.2915H59.974V28Z" fill="white"/>
</svg>
