<svg width="428" height="926" viewBox="0 0 428 926" fill="none" xmlns="http://www.w3.org/2000/svg">
<rect width="428" height="926" fill="white"/>
<path d="M394.828 107L397.364 109.535L395.95 110.95L391 106L395.95 101.05L397.364 102.465L394.828 105H402C404.122 105 406.157 105.843 407.657 107.343C409.157 108.843 410 110.878 410 113C410 115.122 409.157 117.157 407.657 118.657C406.157 120.157 404.122 121 402 121H393V119H402C403.591 119 405.117 118.368 406.243 117.243C407.368 116.117 408 114.591 408 113C408 111.409 407.368 109.883 406.243 108.757C405.117 107.632 403.591 107 402 107H394.828Z" fill="#14C871"/>
<path d="M37.1338 168.263C37.1338 170.782 36.6846 172.896 35.7861 174.605C34.8975 176.305 33.5889 177.55 31.8604 178.341L37.0166 184.098H31.2012L27.2754 179.293H26.9385C23.6572 179.293 21.1377 178.341 19.3799 176.437C17.6221 174.532 16.7432 171.798 16.7432 168.233C16.7432 164.669 17.6221 161.949 19.3799 160.074C21.1475 158.189 23.6768 157.247 26.9678 157.247C30.2588 157.247 32.7734 158.194 34.5117 160.089C36.2598 161.983 37.1338 164.708 37.1338 168.263ZM21.5039 168.263C21.5039 170.655 21.958 172.457 22.8662 173.668C23.7744 174.879 25.1318 175.484 26.9385 175.484C30.5615 175.484 32.373 173.077 32.373 168.263C32.373 163.438 30.5713 161.026 26.9678 161.026C25.1611 161.026 23.7988 161.637 22.8809 162.857C21.9629 164.068 21.5039 165.87 21.5039 168.263ZM52.8223 179L52.2217 176.905H51.9873C51.5088 177.667 50.8301 178.258 49.9512 178.678C49.0723 179.088 48.0713 179.293 46.9482 179.293C45.0244 179.293 43.5742 178.78 42.5977 177.755C41.6211 176.72 41.1328 175.235 41.1328 173.302V162.623H45.6006V172.188C45.6006 173.37 45.8105 174.259 46.2305 174.854C46.6504 175.44 47.3193 175.733 48.2373 175.733C49.4873 175.733 50.3906 175.318 50.9473 174.488C51.5039 173.648 51.7822 172.262 51.7822 170.328V162.623H56.25V179H52.8223ZM71.3379 179L70.4736 176.773H70.3564C69.6045 177.721 68.8281 178.38 68.0273 178.751C67.2363 179.112 66.2012 179.293 64.9219 179.293C63.3496 179.293 62.1094 178.844 61.2012 177.945C60.3027 177.047 59.8535 175.768 59.8535 174.107C59.8535 172.369 60.459 171.09 61.6699 170.27C62.8906 169.439 64.7266 168.98 67.1777 168.893L70.0195 168.805V168.087C70.0195 166.427 69.1699 165.597 67.4707 165.597C66.1621 165.597 64.624 165.992 62.8564 166.783L61.377 163.766C63.2617 162.779 65.3516 162.286 67.6465 162.286C69.8438 162.286 71.5283 162.765 72.7002 163.722C73.8721 164.679 74.458 166.134 74.458 168.087V179H71.3379ZM70.0195 171.412L68.291 171.471C66.9922 171.51 66.0254 171.744 65.3906 172.174C64.7559 172.604 64.4385 173.258 64.4385 174.137C64.4385 175.396 65.1611 176.026 66.6064 176.026C67.6416 176.026 68.4668 175.729 69.082 175.133C69.707 174.537 70.0195 173.746 70.0195 172.76V171.412ZM83.54 179H79.0723V156.207H83.54V179ZM99.5947 170.782C99.5947 172.403 99.8584 173.629 100.386 174.459C100.923 175.289 101.792 175.704 102.993 175.704C104.185 175.704 105.039 175.294 105.557 174.474C106.084 173.644 106.348 172.413 106.348 170.782C106.348 169.161 106.084 167.945 105.557 167.135C105.029 166.324 104.165 165.919 102.964 165.919C101.772 165.919 100.913 166.324 100.386 167.135C99.8584 167.936 99.5947 169.151 99.5947 170.782ZM110.918 170.782C110.918 173.448 110.215 175.533 108.809 177.037C107.402 178.541 105.444 179.293 102.935 179.293C101.362 179.293 99.9756 178.951 98.7744 178.268C97.5732 177.574 96.6504 176.583 96.0059 175.294C95.3613 174.005 95.0391 172.501 95.0391 170.782C95.0391 168.106 95.7373 166.026 97.1338 164.542C98.5303 163.058 100.493 162.315 103.022 162.315C104.595 162.315 105.981 162.657 107.183 163.341C108.384 164.024 109.307 165.006 109.951 166.285C110.596 167.564 110.918 169.063 110.918 170.782ZM133.828 174.137C133.828 175.816 133.242 177.096 132.07 177.975C130.908 178.854 129.165 179.293 126.841 179.293C125.649 179.293 124.634 179.21 123.794 179.044C122.954 178.888 122.168 178.653 121.436 178.341V174.649C122.266 175.04 123.198 175.367 124.233 175.631C125.278 175.895 126.196 176.026 126.987 176.026C128.608 176.026 129.419 175.558 129.419 174.62C129.419 174.269 129.312 173.985 129.097 173.771C128.882 173.546 128.511 173.297 127.983 173.023C127.456 172.74 126.753 172.413 125.874 172.042C124.614 171.515 123.687 171.026 123.091 170.577C122.505 170.128 122.075 169.615 121.802 169.039C121.538 168.453 121.406 167.735 121.406 166.886C121.406 165.431 121.968 164.308 123.091 163.517C124.224 162.716 125.825 162.315 127.896 162.315C129.868 162.315 131.787 162.745 133.652 163.604L132.305 166.827C131.484 166.476 130.718 166.188 130.005 165.963C129.292 165.738 128.564 165.626 127.822 165.626C126.504 165.626 125.845 165.982 125.845 166.695C125.845 167.096 126.055 167.442 126.475 167.735C126.904 168.028 127.837 168.463 129.272 169.039C130.552 169.557 131.489 170.04 132.085 170.489C132.681 170.938 133.12 171.456 133.403 172.042C133.687 172.628 133.828 173.326 133.828 174.137ZM144.097 165.494C143.149 165.494 142.407 165.797 141.87 166.402C141.333 166.998 141.025 167.848 140.947 168.951H147.217C147.197 167.848 146.909 166.998 146.353 166.402C145.796 165.797 145.044 165.494 144.097 165.494ZM144.727 179.293C142.09 179.293 140.029 178.565 138.545 177.11C137.061 175.655 136.318 173.595 136.318 170.929C136.318 168.185 137.002 166.065 138.369 164.571C139.746 163.067 141.646 162.315 144.067 162.315C146.382 162.315 148.184 162.975 149.473 164.293C150.762 165.611 151.406 167.433 151.406 169.757V171.925H140.845C140.894 173.194 141.27 174.186 141.973 174.898C142.676 175.611 143.662 175.968 144.932 175.968C145.918 175.968 146.851 175.865 147.729 175.66C148.608 175.455 149.526 175.128 150.483 174.679V178.136C149.702 178.526 148.867 178.814 147.979 179C147.09 179.195 146.006 179.293 144.727 179.293ZM166.641 179L166.04 176.905H165.806C165.327 177.667 164.648 178.258 163.77 178.678C162.891 179.088 161.89 179.293 160.767 179.293C158.843 179.293 157.393 178.78 156.416 177.755C155.439 176.72 154.951 175.235 154.951 173.302V162.623H159.419V172.188C159.419 173.37 159.629 174.259 160.049 174.854C160.469 175.44 161.138 175.733 162.056 175.733C163.306 175.733 164.209 175.318 164.766 174.488C165.322 173.648 165.601 172.262 165.601 170.328V162.623H170.068V179H166.641ZM196.802 162.623V164.894L194.238 165.553C194.707 166.285 194.941 167.105 194.941 168.014C194.941 169.771 194.326 171.144 193.096 172.13C191.875 173.106 190.176 173.595 187.998 173.595L187.192 173.551L186.533 173.478C186.074 173.829 185.845 174.22 185.845 174.649C185.845 175.294 186.665 175.616 188.306 175.616H191.089C192.886 175.616 194.253 176.002 195.19 176.773C196.138 177.545 196.611 178.678 196.611 180.172C196.611 182.086 195.811 183.57 194.209 184.625C192.617 185.68 190.327 186.207 187.339 186.207C185.054 186.207 183.306 185.807 182.095 185.006C180.894 184.215 180.293 183.102 180.293 181.666C180.293 180.68 180.601 179.854 181.216 179.19C181.831 178.526 182.734 178.053 183.926 177.77C183.467 177.574 183.066 177.257 182.725 176.817C182.383 176.368 182.212 175.895 182.212 175.396C182.212 174.771 182.393 174.254 182.754 173.844C183.115 173.424 183.638 173.014 184.321 172.613C183.462 172.242 182.778 171.646 182.271 170.826C181.772 170.006 181.523 169.039 181.523 167.926C181.523 166.139 182.104 164.757 183.267 163.78C184.429 162.804 186.089 162.315 188.247 162.315C188.706 162.315 189.248 162.359 189.873 162.447C190.508 162.525 190.913 162.584 191.089 162.623H196.802ZM184.16 181.314C184.16 181.93 184.453 182.413 185.039 182.765C185.635 183.116 186.465 183.292 187.529 183.292C189.131 183.292 190.386 183.072 191.294 182.633C192.202 182.193 192.656 181.593 192.656 180.831C192.656 180.216 192.388 179.791 191.851 179.557C191.313 179.322 190.483 179.205 189.36 179.205H187.046C186.226 179.205 185.537 179.396 184.98 179.776C184.434 180.167 184.16 180.68 184.16 181.314ZM185.786 167.984C185.786 168.873 185.986 169.576 186.387 170.094C186.797 170.611 187.417 170.87 188.247 170.87C189.087 170.87 189.702 170.611 190.093 170.094C190.483 169.576 190.679 168.873 190.679 167.984C190.679 166.012 189.868 165.025 188.247 165.025C186.606 165.025 185.786 166.012 185.786 167.984ZM206.294 165.494C205.347 165.494 204.604 165.797 204.067 166.402C203.53 166.998 203.223 167.848 203.145 168.951H209.414C209.395 167.848 209.106 166.998 208.55 166.402C207.993 165.797 207.241 165.494 206.294 165.494ZM206.924 179.293C204.287 179.293 202.227 178.565 200.742 177.11C199.258 175.655 198.516 173.595 198.516 170.929C198.516 168.185 199.199 166.065 200.566 164.571C201.943 163.067 203.843 162.315 206.265 162.315C208.579 162.315 210.381 162.975 211.67 164.293C212.959 165.611 213.604 167.433 213.604 169.757V171.925H203.042C203.091 173.194 203.467 174.186 204.17 174.898C204.873 175.611 205.859 175.968 207.129 175.968C208.115 175.968 209.048 175.865 209.927 175.66C210.806 175.455 211.724 175.128 212.681 174.679V178.136C211.899 178.526 211.064 178.814 210.176 179C209.287 179.195 208.203 179.293 206.924 179.293ZM209.766 160.821C208.232 159.913 207.09 159.054 206.338 158.243C205.576 159.034 204.458 159.894 202.983 160.821H200.01V160.426C201.855 158.58 203.105 157.11 203.76 156.017H208.989C209.292 156.524 209.814 157.218 210.557 158.097C211.309 158.966 212.036 159.742 212.739 160.426V160.821H209.766ZM232.354 179H227.886V169.435C227.886 168.253 227.676 167.369 227.256 166.783C226.836 166.188 226.167 165.89 225.249 165.89C223.999 165.89 223.096 166.31 222.539 167.149C221.982 167.979 221.704 169.361 221.704 171.295V179H217.236V162.623H220.649L221.25 164.718H221.499C221.997 163.927 222.681 163.331 223.55 162.931C224.429 162.521 225.425 162.315 226.538 162.315C228.442 162.315 229.888 162.833 230.874 163.868C231.86 164.894 232.354 166.378 232.354 168.321V179ZM243.735 165.494C242.788 165.494 242.046 165.797 241.509 166.402C240.972 166.998 240.664 167.848 240.586 168.951H246.855C246.836 167.848 246.548 166.998 245.991 166.402C245.435 165.797 244.683 165.494 243.735 165.494ZM244.365 179.293C241.729 179.293 239.668 178.565 238.184 177.11C236.699 175.655 235.957 173.595 235.957 170.929C235.957 168.185 236.641 166.065 238.008 164.571C239.385 163.067 241.284 162.315 243.706 162.315C246.021 162.315 247.822 162.975 249.111 164.293C250.4 165.611 251.045 167.433 251.045 169.757V171.925H240.483C240.532 173.194 240.908 174.186 241.611 174.898C242.314 175.611 243.301 175.968 244.57 175.968C245.557 175.968 246.489 175.865 247.368 175.66C248.247 175.455 249.165 175.128 250.122 174.679V178.136C249.341 178.526 248.506 178.814 247.617 179C246.729 179.195 245.645 179.293 244.365 179.293ZM263.818 162.315C264.424 162.315 264.927 162.359 265.327 162.447L264.99 166.637C264.629 166.539 264.189 166.49 263.672 166.49C262.246 166.49 261.133 166.856 260.332 167.589C259.541 168.321 259.146 169.347 259.146 170.665V179H254.678V162.623H258.062L258.721 165.377H258.94C259.448 164.459 260.132 163.722 260.991 163.165C261.86 162.599 262.803 162.315 263.818 162.315ZM271.86 170.782C271.86 172.403 272.124 173.629 272.651 174.459C273.188 175.289 274.058 175.704 275.259 175.704C276.45 175.704 277.305 175.294 277.822 174.474C278.35 173.644 278.613 172.413 278.613 170.782C278.613 169.161 278.35 167.945 277.822 167.135C277.295 166.324 276.431 165.919 275.229 165.919C274.038 165.919 273.179 166.324 272.651 167.135C272.124 167.936 271.86 169.151 271.86 170.782ZM283.184 170.782C283.184 173.448 282.48 175.533 281.074 177.037C279.668 178.541 277.71 179.293 275.2 179.293C273.628 179.293 272.241 178.951 271.04 178.268C269.839 177.574 268.916 176.583 268.271 175.294C267.627 174.005 267.305 172.501 267.305 170.782C267.305 168.106 268.003 166.026 269.399 164.542C270.796 163.058 272.759 162.315 275.288 162.315C276.86 162.315 278.247 162.657 279.448 163.341C280.649 164.024 281.572 165.006 282.217 166.285C282.861 167.564 283.184 169.063 283.184 170.782ZM288.574 171.896V170.812C288.574 169.874 288.774 169.059 289.175 168.365C289.575 167.672 290.308 166.935 291.372 166.153C292.397 165.421 293.071 164.825 293.394 164.366C293.726 163.907 293.892 163.395 293.892 162.828C293.892 162.193 293.657 161.71 293.188 161.378C292.72 161.046 292.065 160.88 291.226 160.88C289.761 160.88 288.091 161.358 286.216 162.315L284.619 159.107C286.797 157.887 289.106 157.276 291.548 157.276C293.56 157.276 295.156 157.76 296.338 158.727C297.529 159.693 298.125 160.982 298.125 162.594C298.125 163.668 297.881 164.596 297.393 165.377C296.904 166.158 295.977 167.037 294.609 168.014C293.672 168.707 293.076 169.234 292.822 169.596C292.578 169.957 292.456 170.431 292.456 171.017V171.896H288.574ZM288.105 176.905C288.105 176.085 288.325 175.465 288.765 175.045C289.204 174.625 289.844 174.415 290.684 174.415C291.494 174.415 292.119 174.63 292.559 175.06C293.008 175.489 293.232 176.104 293.232 176.905C293.232 177.677 293.008 178.287 292.559 178.736C292.109 179.176 291.484 179.396 290.684 179.396C289.863 179.396 289.229 179.181 288.779 178.751C288.33 178.312 288.105 177.696 288.105 176.905Z" fill="#2E3E4B"/>
<rect x="15" y="700" width="398" height="56" rx="5" fill="#14C871"/>
<path d="M186.406 723.078C187.88 723.078 188.956 723.38 189.633 723.984C190.31 724.589 190.648 725.435 190.648 726.523C190.648 727.018 190.57 727.49 190.414 727.938C190.263 728.38 190.013 728.773 189.664 729.117C189.315 729.456 188.854 729.724 188.281 729.922C187.714 730.12 187.013 730.219 186.18 730.219H184.961V734.5H183.086V723.078H186.406ZM186.281 724.633H184.961V728.656H185.984C186.573 728.656 187.073 728.589 187.484 728.453C187.896 728.312 188.208 728.091 188.422 727.789C188.635 727.487 188.742 727.089 188.742 726.594C188.742 725.932 188.542 725.44 188.141 725.117C187.745 724.794 187.125 724.633 186.281 724.633ZM197.125 725.688C197.271 725.688 197.43 725.695 197.602 725.711C197.773 725.727 197.922 725.747 198.047 725.773L197.875 727.492C197.766 727.461 197.63 727.438 197.469 727.422C197.312 727.406 197.172 727.398 197.047 727.398C196.719 727.398 196.406 727.453 196.109 727.562C195.812 727.667 195.549 727.828 195.32 728.047C195.091 728.26 194.911 728.529 194.781 728.852C194.651 729.174 194.586 729.549 194.586 729.977V734.5H192.742V725.852H194.18L194.43 727.375H194.516C194.688 727.068 194.901 726.786 195.156 726.531C195.411 726.276 195.703 726.073 196.031 725.922C196.365 725.766 196.729 725.688 197.125 725.688ZM207.305 730.156C207.305 730.875 207.211 731.513 207.023 732.07C206.836 732.628 206.562 733.099 206.203 733.484C205.844 733.865 205.411 734.156 204.906 734.359C204.401 734.557 203.831 734.656 203.195 734.656C202.602 734.656 202.057 734.557 201.562 734.359C201.068 734.156 200.638 733.865 200.273 733.484C199.914 733.099 199.635 732.628 199.438 732.07C199.24 731.513 199.141 730.875 199.141 730.156C199.141 729.203 199.305 728.396 199.633 727.734C199.966 727.068 200.44 726.56 201.055 726.211C201.669 725.862 202.401 725.688 203.25 725.688C204.047 725.688 204.75 725.862 205.359 726.211C205.969 726.56 206.445 727.068 206.789 727.734C207.133 728.401 207.305 729.208 207.305 730.156ZM201.031 730.156C201.031 730.786 201.107 731.326 201.258 731.773C201.414 732.221 201.654 732.565 201.977 732.805C202.299 733.039 202.716 733.156 203.227 733.156C203.737 733.156 204.154 733.039 204.477 732.805C204.799 732.565 205.036 732.221 205.188 731.773C205.339 731.326 205.414 730.786 205.414 730.156C205.414 729.526 205.339 728.992 205.188 728.555C205.036 728.112 204.799 727.776 204.477 727.547C204.154 727.312 203.734 727.195 203.219 727.195C202.458 727.195 201.904 727.451 201.555 727.961C201.206 728.471 201.031 729.203 201.031 730.156ZM205.898 722.242V722.398C205.773 722.549 205.604 722.732 205.391 722.945C205.177 723.154 204.945 723.375 204.695 723.609C204.445 723.839 204.198 724.06 203.953 724.273C203.708 724.482 203.487 724.659 203.289 724.805H202.062V724.602C202.234 724.404 202.424 724.167 202.633 723.891C202.846 723.615 203.055 723.331 203.258 723.039C203.466 722.747 203.641 722.482 203.781 722.242H205.898ZM211.328 730.078L208.438 725.852H210.531L212.508 728.891L214.492 725.852H216.578L213.672 730.078L216.727 734.5H214.625L212.508 731.258L210.383 734.5H208.297L211.328 730.078ZM220.062 725.852V734.5H218.227V725.852H220.062ZM219.156 722.539C219.438 722.539 219.68 722.615 219.883 722.766C220.091 722.917 220.195 723.177 220.195 723.547C220.195 723.911 220.091 724.172 219.883 724.328C219.68 724.479 219.438 724.555 219.156 724.555C218.865 724.555 218.617 724.479 218.414 724.328C218.216 724.172 218.117 723.911 218.117 723.547C218.117 723.177 218.216 722.917 218.414 722.766C218.617 722.615 218.865 722.539 219.156 722.539ZM232.469 725.688C233.438 725.688 234.167 725.938 234.656 726.438C235.151 726.938 235.398 727.74 235.398 728.844V734.5H233.562V729.172C233.562 728.516 233.435 728.021 233.18 727.688C232.924 727.354 232.536 727.188 232.016 727.188C231.286 727.188 230.76 727.422 230.438 727.891C230.12 728.354 229.961 729.029 229.961 729.914V734.5H228.125V729.172C228.125 728.734 228.068 728.37 227.953 728.078C227.844 727.781 227.674 727.56 227.445 727.414C227.216 727.263 226.927 727.188 226.578 727.188C226.073 727.188 225.669 727.302 225.367 727.531C225.07 727.76 224.857 728.099 224.727 728.547C224.596 728.99 224.531 729.534 224.531 730.18V734.5H222.695V725.852H224.125L224.383 727.016H224.484C224.661 726.714 224.88 726.466 225.141 726.273C225.406 726.076 225.701 725.93 226.023 725.836C226.346 725.737 226.682 725.688 227.031 725.688C227.677 725.688 228.221 725.802 228.664 726.031C229.107 726.255 229.438 726.599 229.656 727.062H229.797C230.068 726.594 230.445 726.247 230.93 726.023C231.414 725.799 231.927 725.688 232.469 725.688ZM245.617 730.156C245.617 730.875 245.523 731.513 245.336 732.07C245.148 732.628 244.875 733.099 244.516 733.484C244.156 733.865 243.724 734.156 243.219 734.359C242.714 734.557 242.143 734.656 241.508 734.656C240.914 734.656 240.37 734.557 239.875 734.359C239.38 734.156 238.951 733.865 238.586 733.484C238.227 733.099 237.948 732.628 237.75 732.07C237.552 731.513 237.453 730.875 237.453 730.156C237.453 729.203 237.617 728.396 237.945 727.734C238.279 727.068 238.753 726.56 239.367 726.211C239.982 725.862 240.714 725.688 241.562 725.688C242.359 725.688 243.062 725.862 243.672 726.211C244.281 726.56 244.758 727.068 245.102 727.734C245.445 728.401 245.617 729.208 245.617 730.156ZM239.344 730.156C239.344 730.786 239.419 731.326 239.57 731.773C239.727 732.221 239.966 732.565 240.289 732.805C240.612 733.039 241.029 733.156 241.539 733.156C242.049 733.156 242.466 733.039 242.789 732.805C243.112 732.565 243.349 732.221 243.5 731.773C243.651 731.326 243.727 730.786 243.727 730.156C243.727 729.526 243.651 728.992 243.5 728.555C243.349 728.112 243.112 727.776 242.789 727.547C242.466 727.312 242.047 727.195 241.531 727.195C240.771 727.195 240.216 727.451 239.867 727.961C239.518 728.471 239.344 729.203 239.344 730.156Z" fill="white"/>
<rect x="15" y="317" width="398" height="70" rx="5" fill="#DCDFE8"/>
<path d="M34.0938 355.891C34.0938 356.568 33.9271 357.151 33.5938 357.641C33.2656 358.13 32.7917 358.505 32.1719 358.766C31.5573 359.026 30.8229 359.156 29.9688 359.156C29.5521 359.156 29.1536 359.133 28.7734 359.086C28.3932 359.039 28.0339 358.971 27.6953 358.883C27.362 358.789 27.0573 358.677 26.7812 358.547V356.781C27.2448 356.984 27.763 357.169 28.3359 357.336C28.9089 357.497 29.4922 357.578 30.0859 357.578C30.5703 357.578 30.9714 357.516 31.2891 357.391C31.612 357.26 31.8516 357.078 32.0078 356.844C32.1641 356.604 32.2422 356.326 32.2422 356.008C32.2422 355.669 32.151 355.383 31.9688 355.148C31.7865 354.914 31.5104 354.701 31.1406 354.508C30.776 354.31 30.3177 354.099 29.7656 353.875C29.3906 353.724 29.0312 353.552 28.6875 353.359C28.349 353.167 28.0469 352.94 27.7812 352.68C27.5156 352.419 27.3047 352.112 27.1484 351.758C26.9974 351.398 26.9219 350.977 26.9219 350.492C26.9219 349.846 27.0755 349.294 27.3828 348.836C27.6953 348.378 28.1328 348.026 28.6953 347.781C29.263 347.536 29.9245 347.414 30.6797 347.414C31.2786 347.414 31.8411 347.477 32.3672 347.602C32.8984 347.727 33.4193 347.904 33.9297 348.133L33.3359 349.641C32.8672 349.448 32.4115 349.294 31.9688 349.18C31.5312 349.065 31.0833 349.008 30.625 349.008C30.2292 349.008 29.8932 349.068 29.6172 349.188C29.3411 349.307 29.1302 349.477 28.9844 349.695C28.8438 349.909 28.7734 350.164 28.7734 350.461C28.7734 350.794 28.8542 351.076 29.0156 351.305C29.1823 351.529 29.4375 351.734 29.7812 351.922C30.1302 352.109 30.5781 352.318 31.125 352.547C31.7552 352.807 32.2891 353.081 32.7266 353.367C33.1693 353.654 33.5078 353.997 33.7422 354.398C33.9766 354.794 34.0938 355.292 34.0938 355.891ZM39.5547 350.188C40.3255 350.188 40.987 350.346 41.5391 350.664C42.0911 350.982 42.5156 351.432 42.8125 352.016C43.1094 352.599 43.2578 353.297 43.2578 354.109V355.094H37.4844C37.5052 355.932 37.7292 356.578 38.1562 357.031C38.5885 357.484 39.1927 357.711 39.9688 357.711C40.5208 357.711 41.0156 357.659 41.4531 357.555C41.8958 357.445 42.3516 357.286 42.8203 357.078V358.57C42.388 358.773 41.9479 358.922 41.5 359.016C41.0521 359.109 40.5156 359.156 39.8906 359.156C39.0417 359.156 38.2943 358.992 37.6484 358.664C37.0078 358.331 36.5052 357.836 36.1406 357.18C35.7812 356.523 35.6016 355.708 35.6016 354.734C35.6016 353.766 35.7656 352.943 36.0938 352.266C36.4219 351.589 36.8828 351.073 37.4766 350.719C38.0703 350.365 38.763 350.188 39.5547 350.188ZM39.5547 351.57C38.9766 351.57 38.5078 351.758 38.1484 352.133C37.7943 352.508 37.5859 353.057 37.5234 353.781H41.4609C41.4557 353.349 41.3828 352.966 41.2422 352.633C41.1068 352.299 40.8984 352.039 40.6172 351.852C40.3411 351.664 39.987 351.57 39.5547 351.57ZM47.1719 359H45.3281V346.844H47.1719V359ZM53.2422 350.188C54.013 350.188 54.6745 350.346 55.2266 350.664C55.7786 350.982 56.2031 351.432 56.5 352.016C56.7969 352.599 56.9453 353.297 56.9453 354.109V355.094H51.1719C51.1927 355.932 51.4167 356.578 51.8438 357.031C52.276 357.484 52.8802 357.711 53.6562 357.711C54.2083 357.711 54.7031 357.659 55.1406 357.555C55.5833 357.445 56.0391 357.286 56.5078 357.078V358.57C56.0755 358.773 55.6354 358.922 55.1875 359.016C54.7396 359.109 54.2031 359.156 53.5781 359.156C52.7292 359.156 51.9818 358.992 51.3359 358.664C50.6953 358.331 50.1927 357.836 49.8281 357.18C49.4688 356.523 49.2891 355.708 49.2891 354.734C49.2891 353.766 49.4531 352.943 49.7812 352.266C50.1094 351.589 50.5703 351.073 51.1641 350.719C51.7578 350.365 52.4505 350.188 53.2422 350.188ZM53.2422 351.57C52.6641 351.57 52.1953 351.758 51.8359 352.133C51.4818 352.508 51.2734 353.057 51.2109 353.781H55.1484C55.1432 353.349 55.0703 352.966 54.9297 352.633C54.7943 352.299 54.5859 352.039 54.3047 351.852C54.0286 351.664 53.6745 351.57 53.2422 351.57ZM62.5 359.156C61.6823 359.156 60.974 358.997 60.375 358.68C59.776 358.362 59.3151 357.875 58.9922 357.219C58.6693 356.562 58.5078 355.729 58.5078 354.719C58.5078 353.667 58.6849 352.807 59.0391 352.141C59.3932 351.474 59.8828 350.982 60.5078 350.664C61.138 350.346 61.8594 350.188 62.6719 350.188C63.1875 350.188 63.6536 350.24 64.0703 350.344C64.4922 350.443 64.849 350.565 65.1406 350.711L64.5938 352.18C64.276 352.049 63.9505 351.94 63.6172 351.852C63.2839 351.763 62.9635 351.719 62.6562 351.719C62.151 351.719 61.7292 351.831 61.3906 352.055C61.0573 352.279 60.8073 352.612 60.6406 353.055C60.4792 353.497 60.3984 354.047 60.3984 354.703C60.3984 355.339 60.4818 355.875 60.6484 356.312C60.8151 356.745 61.0625 357.073 61.3906 357.297C61.7188 357.516 62.1224 357.625 62.6016 357.625C63.0755 357.625 63.5 357.568 63.875 357.453C64.25 357.339 64.6042 357.19 64.9375 357.008V358.602C64.6094 358.789 64.2578 358.927 63.8828 359.016C63.5078 359.109 63.0469 359.156 62.5 359.156ZM68.8047 350.352V359H66.9688V350.352H68.8047ZM67.8984 347.039C68.1797 347.039 68.4219 347.115 68.625 347.266C68.8333 347.417 68.9375 347.677 68.9375 348.047C68.9375 348.411 68.8333 348.672 68.625 348.828C68.4219 348.979 68.1797 349.055 67.8984 349.055C67.6068 349.055 67.3594 348.979 67.1562 348.828C66.9583 348.672 66.8594 348.411 66.8594 348.047C66.8594 347.677 66.9583 347.417 67.1562 347.266C67.3594 347.115 67.6068 347.039 67.8984 347.039ZM79.0938 354.656C79.0938 355.375 79 356.013 78.8125 356.57C78.625 357.128 78.3516 357.599 77.9922 357.984C77.6328 358.365 77.2005 358.656 76.6953 358.859C76.1901 359.057 75.6198 359.156 74.9844 359.156C74.3906 359.156 73.8464 359.057 73.3516 358.859C72.8568 358.656 72.4271 358.365 72.0625 357.984C71.7031 357.599 71.4245 357.128 71.2266 356.57C71.0286 356.013 70.9297 355.375 70.9297 354.656C70.9297 353.703 71.0938 352.896 71.4219 352.234C71.7552 351.568 72.2292 351.06 72.8438 350.711C73.4583 350.362 74.1901 350.188 75.0391 350.188C75.8359 350.188 76.5391 350.362 77.1484 350.711C77.7578 351.06 78.2344 351.568 78.5781 352.234C78.9219 352.901 79.0938 353.708 79.0938 354.656ZM72.8203 354.656C72.8203 355.286 72.8958 355.826 73.0469 356.273C73.2031 356.721 73.4427 357.065 73.7656 357.305C74.0885 357.539 74.5052 357.656 75.0156 357.656C75.526 357.656 75.9427 357.539 76.2656 357.305C76.5885 357.065 76.8255 356.721 76.9766 356.273C77.1276 355.826 77.2031 355.286 77.2031 354.656C77.2031 354.026 77.1276 353.492 76.9766 353.055C76.8255 352.612 76.5885 352.276 76.2656 352.047C75.9427 351.812 75.5234 351.695 75.0078 351.695C74.2474 351.695 73.6927 351.951 73.3438 352.461C72.9948 352.971 72.8203 353.703 72.8203 354.656ZM85.7109 350.188C86.6849 350.188 87.4427 350.44 87.9844 350.945C88.5312 351.445 88.8047 352.25 88.8047 353.359V359H86.9688V353.703C86.9688 353.031 86.8307 352.529 86.5547 352.195C86.2786 351.857 85.8516 351.688 85.2734 351.688C84.4349 351.688 83.8516 351.945 83.5234 352.461C83.2005 352.977 83.0391 353.724 83.0391 354.703V359H81.2031V350.352H82.6328L82.8906 351.523H82.9922C83.1797 351.221 83.4115 350.974 83.6875 350.781C83.9688 350.583 84.2812 350.435 84.625 350.336C84.974 350.237 85.3359 350.188 85.7109 350.188ZM94.8203 350.188C95.5911 350.188 96.2526 350.346 96.8047 350.664C97.3568 350.982 97.7812 351.432 98.0781 352.016C98.375 352.599 98.5234 353.297 98.5234 354.109V355.094H92.75C92.7708 355.932 92.9948 356.578 93.4219 357.031C93.8542 357.484 94.4583 357.711 95.2344 357.711C95.7865 357.711 96.2812 357.659 96.7188 357.555C97.1615 357.445 97.6172 357.286 98.0859 357.078V358.57C97.6536 358.773 97.2135 358.922 96.7656 359.016C96.3177 359.109 95.7812 359.156 95.1562 359.156C94.3073 359.156 93.5599 358.992 92.9141 358.664C92.2734 358.331 91.7708 357.836 91.4062 357.18C91.0469 356.523 90.8672 355.708 90.8672 354.734C90.8672 353.766 91.0312 352.943 91.3594 352.266C91.6875 351.589 92.1484 351.073 92.7422 350.719C93.3359 350.365 94.0286 350.188 94.8203 350.188ZM94.8203 351.57C94.2422 351.57 93.7734 351.758 93.4141 352.133C93.0599 352.508 92.8516 353.057 92.7891 353.781H96.7266C96.7214 353.349 96.6484 352.966 96.5078 352.633C96.3724 352.299 96.1641 352.039 95.8828 351.852C95.6068 351.664 95.2526 351.57 94.8203 351.57ZM110.562 356.531C110.562 357.099 110.424 357.578 110.148 357.969C109.872 358.359 109.469 358.656 108.938 358.859C108.411 359.057 107.766 359.156 107 359.156C106.396 359.156 105.875 359.112 105.438 359.023C105.005 358.94 104.596 358.81 104.211 358.633V357.047C104.622 357.24 105.083 357.406 105.594 357.547C106.109 357.688 106.596 357.758 107.055 357.758C107.659 357.758 108.094 357.664 108.359 357.477C108.625 357.284 108.758 357.029 108.758 356.711C108.758 356.523 108.703 356.357 108.594 356.211C108.49 356.06 108.292 355.906 108 355.75C107.714 355.589 107.292 355.396 106.734 355.172C106.188 354.953 105.727 354.734 105.352 354.516C104.977 354.297 104.693 354.034 104.5 353.727C104.307 353.414 104.211 353.016 104.211 352.531C104.211 351.766 104.513 351.185 105.117 350.789C105.727 350.388 106.531 350.188 107.531 350.188C108.062 350.188 108.562 350.242 109.031 350.352C109.505 350.456 109.969 350.609 110.422 350.812L109.844 352.195C109.453 352.023 109.06 351.883 108.664 351.773C108.273 351.659 107.875 351.602 107.469 351.602C106.995 351.602 106.633 351.674 106.383 351.82C106.138 351.966 106.016 352.174 106.016 352.445C106.016 352.648 106.076 352.82 106.195 352.961C106.315 353.102 106.521 353.242 106.812 353.383C107.109 353.523 107.521 353.698 108.047 353.906C108.562 354.104 109.008 354.312 109.383 354.531C109.763 354.745 110.055 355.008 110.258 355.32C110.461 355.633 110.562 356.036 110.562 356.531ZM115.992 350.188C116.763 350.188 117.424 350.346 117.977 350.664C118.529 350.982 118.953 351.432 119.25 352.016C119.547 352.599 119.695 353.297 119.695 354.109V355.094H113.922C113.943 355.932 114.167 356.578 114.594 357.031C115.026 357.484 115.63 357.711 116.406 357.711C116.958 357.711 117.453 357.659 117.891 357.555C118.333 357.445 118.789 357.286 119.258 357.078V358.57C118.826 358.773 118.385 358.922 117.938 359.016C117.49 359.109 116.953 359.156 116.328 359.156C115.479 359.156 114.732 358.992 114.086 358.664C113.445 358.331 112.943 357.836 112.578 357.18C112.219 356.523 112.039 355.708 112.039 354.734C112.039 353.766 112.203 352.943 112.531 352.266C112.859 351.589 113.32 351.073 113.914 350.719C114.508 350.365 115.201 350.188 115.992 350.188ZM115.992 351.57C115.414 351.57 114.945 351.758 114.586 352.133C114.232 352.508 114.023 353.057 113.961 353.781H117.898C117.893 353.349 117.82 352.966 117.68 352.633C117.544 352.299 117.336 352.039 117.055 351.852C116.779 351.664 116.424 351.57 115.992 351.57ZM129.305 350.352V359H127.859L127.609 357.836H127.508C127.326 358.133 127.094 358.38 126.812 358.578C126.531 358.771 126.219 358.914 125.875 359.008C125.531 359.107 125.169 359.156 124.789 359.156C124.138 359.156 123.581 359.047 123.117 358.828C122.659 358.604 122.307 358.26 122.062 357.797C121.818 357.333 121.695 356.734 121.695 356V350.352H123.539V355.656C123.539 356.328 123.674 356.831 123.945 357.164C124.221 357.497 124.648 357.664 125.227 357.664C125.784 357.664 126.227 357.549 126.555 357.32C126.883 357.091 127.115 356.753 127.25 356.305C127.391 355.857 127.461 355.307 127.461 354.656V350.352H129.305ZM138.562 362.844C137.391 362.844 136.492 362.633 135.867 362.211C135.242 361.789 134.93 361.198 134.93 360.438C134.93 359.906 135.096 359.456 135.43 359.086C135.763 358.721 136.24 358.469 136.859 358.328C136.625 358.224 136.422 358.062 136.25 357.844C136.083 357.62 136 357.372 136 357.102C136 356.779 136.091 356.503 136.273 356.273C136.456 356.044 136.729 355.823 137.094 355.609C136.641 355.417 136.276 355.104 136 354.672C135.729 354.234 135.594 353.721 135.594 353.133C135.594 352.508 135.727 351.977 135.992 351.539C136.258 351.096 136.646 350.76 137.156 350.531C137.667 350.297 138.284 350.18 139.008 350.18C139.164 350.18 139.333 350.19 139.516 350.211C139.703 350.227 139.875 350.247 140.031 350.273C140.193 350.294 140.315 350.318 140.398 350.344H143.391V351.367L141.922 351.641C142.062 351.839 142.174 352.065 142.258 352.32C142.341 352.57 142.383 352.844 142.383 353.141C142.383 354.036 142.073 354.742 141.453 355.258C140.839 355.768 139.99 356.023 138.906 356.023C138.646 356.013 138.393 355.992 138.148 355.961C137.961 356.076 137.818 356.203 137.719 356.344C137.62 356.479 137.57 356.633 137.57 356.805C137.57 356.945 137.62 357.06 137.719 357.148C137.818 357.232 137.964 357.294 138.156 357.336C138.354 357.378 138.594 357.398 138.875 357.398H140.367C141.315 357.398 142.039 357.599 142.539 358C143.039 358.401 143.289 358.99 143.289 359.766C143.289 360.75 142.883 361.508 142.07 362.039C141.258 362.576 140.089 362.844 138.562 362.844ZM138.633 361.555C139.273 361.555 139.812 361.492 140.25 361.367C140.688 361.242 141.018 361.062 141.242 360.828C141.466 360.599 141.578 360.326 141.578 360.008C141.578 359.727 141.508 359.51 141.367 359.359C141.227 359.208 141.016 359.104 140.734 359.047C140.453 358.99 140.104 358.961 139.688 358.961H138.328C137.99 358.961 137.69 359.013 137.43 359.117C137.169 359.227 136.966 359.383 136.82 359.586C136.68 359.789 136.609 360.034 136.609 360.32C136.609 360.716 136.784 361.021 137.133 361.234C137.487 361.448 137.987 361.555 138.633 361.555ZM138.992 354.82C139.529 354.82 139.927 354.674 140.188 354.383C140.448 354.086 140.578 353.669 140.578 353.133C140.578 352.549 140.443 352.112 140.172 351.82C139.906 351.529 139.51 351.383 138.984 351.383C138.469 351.383 138.076 351.531 137.805 351.828C137.539 352.125 137.406 352.565 137.406 353.148C137.406 353.674 137.539 354.086 137.805 354.383C138.076 354.674 138.471 354.82 138.992 354.82ZM148.414 350.188C149.185 350.188 149.846 350.346 150.398 350.664C150.951 350.982 151.375 351.432 151.672 352.016C151.969 352.599 152.117 353.297 152.117 354.109V355.094H146.344C146.365 355.932 146.589 356.578 147.016 357.031C147.448 357.484 148.052 357.711 148.828 357.711C149.38 357.711 149.875 357.659 150.312 357.555C150.755 357.445 151.211 357.286 151.68 357.078V358.57C151.247 358.773 150.807 358.922 150.359 359.016C149.911 359.109 149.375 359.156 148.75 359.156C147.901 359.156 147.154 358.992 146.508 358.664C145.867 358.331 145.365 357.836 145 357.18C144.641 356.523 144.461 355.708 144.461 354.734C144.461 353.766 144.625 352.943 144.953 352.266C145.281 351.589 145.742 351.073 146.336 350.719C146.93 350.365 147.622 350.188 148.414 350.188ZM148.414 351.57C147.836 351.57 147.367 351.758 147.008 352.133C146.654 352.508 146.445 353.057 146.383 353.781H150.32C150.315 353.349 150.242 352.966 150.102 352.633C149.966 352.299 149.758 352.039 149.477 351.852C149.201 351.664 148.846 351.57 148.414 351.57ZM149.344 346.742C149.484 346.982 149.672 347.247 149.906 347.539C150.146 347.831 150.393 348.117 150.648 348.398C150.909 348.674 151.138 348.911 151.336 349.109V349.305H150.086C149.805 349.128 149.505 348.917 149.188 348.672C148.875 348.422 148.581 348.154 148.305 347.867C148.023 348.154 147.729 348.419 147.422 348.664C147.12 348.909 146.831 349.122 146.555 349.305H145.312V349.109C145.51 348.906 145.737 348.667 145.992 348.391C146.247 348.115 146.492 347.831 146.727 347.539C146.961 347.247 147.148 346.982 147.289 346.742H149.344ZM158.695 350.188C159.669 350.188 160.427 350.44 160.969 350.945C161.516 351.445 161.789 352.25 161.789 353.359V359H159.953V353.703C159.953 353.031 159.815 352.529 159.539 352.195C159.263 351.857 158.836 351.688 158.258 351.688C157.419 351.688 156.836 351.945 156.508 352.461C156.185 352.977 156.023 353.724 156.023 354.703V359H154.188V350.352H155.617L155.875 351.523H155.977C156.164 351.221 156.396 350.974 156.672 350.781C156.953 350.583 157.266 350.435 157.609 350.336C157.958 350.237 158.32 350.188 158.695 350.188ZM167.805 350.188C168.576 350.188 169.237 350.346 169.789 350.664C170.341 350.982 170.766 351.432 171.062 352.016C171.359 352.599 171.508 353.297 171.508 354.109V355.094H165.734C165.755 355.932 165.979 356.578 166.406 357.031C166.839 357.484 167.443 357.711 168.219 357.711C168.771 357.711 169.266 357.659 169.703 357.555C170.146 357.445 170.602 357.286 171.07 357.078V358.57C170.638 358.773 170.198 358.922 169.75 359.016C169.302 359.109 168.766 359.156 168.141 359.156C167.292 359.156 166.544 358.992 165.898 358.664C165.258 358.331 164.755 357.836 164.391 357.18C164.031 356.523 163.852 355.708 163.852 354.734C163.852 353.766 164.016 352.943 164.344 352.266C164.672 351.589 165.133 351.073 165.727 350.719C166.32 350.365 167.013 350.188 167.805 350.188ZM167.805 351.57C167.227 351.57 166.758 351.758 166.398 352.133C166.044 352.508 165.836 353.057 165.773 353.781H169.711C169.706 353.349 169.633 352.966 169.492 352.633C169.357 352.299 169.148 352.039 168.867 351.852C168.591 351.664 168.237 351.57 167.805 351.57ZM177.961 350.188C178.107 350.188 178.266 350.195 178.438 350.211C178.609 350.227 178.758 350.247 178.883 350.273L178.711 351.992C178.602 351.961 178.466 351.938 178.305 351.922C178.148 351.906 178.008 351.898 177.883 351.898C177.555 351.898 177.242 351.953 176.945 352.062C176.648 352.167 176.385 352.328 176.156 352.547C175.927 352.76 175.747 353.029 175.617 353.352C175.487 353.674 175.422 354.049 175.422 354.477V359H173.578V350.352H175.016L175.266 351.875H175.352C175.523 351.568 175.737 351.286 175.992 351.031C176.247 350.776 176.539 350.573 176.867 350.422C177.201 350.266 177.565 350.188 177.961 350.188ZM188.141 354.656C188.141 355.375 188.047 356.013 187.859 356.57C187.672 357.128 187.398 357.599 187.039 357.984C186.68 358.365 186.247 358.656 185.742 358.859C185.237 359.057 184.667 359.156 184.031 359.156C183.438 359.156 182.893 359.057 182.398 358.859C181.904 358.656 181.474 358.365 181.109 357.984C180.75 357.599 180.471 357.128 180.273 356.57C180.076 356.013 179.977 355.375 179.977 354.656C179.977 353.703 180.141 352.896 180.469 352.234C180.802 351.568 181.276 351.06 181.891 350.711C182.505 350.362 183.237 350.188 184.086 350.188C184.883 350.188 185.586 350.362 186.195 350.711C186.805 351.06 187.281 351.568 187.625 352.234C187.969 352.901 188.141 353.708 188.141 354.656ZM181.867 354.656C181.867 355.286 181.943 355.826 182.094 356.273C182.25 356.721 182.49 357.065 182.812 357.305C183.135 357.539 183.552 357.656 184.062 357.656C184.573 357.656 184.99 357.539 185.312 357.305C185.635 357.065 185.872 356.721 186.023 356.273C186.174 355.826 186.25 355.286 186.25 354.656C186.25 354.026 186.174 353.492 186.023 353.055C185.872 352.612 185.635 352.276 185.312 352.047C184.99 351.812 184.57 351.695 184.055 351.695C183.294 351.695 182.74 351.951 182.391 352.461C182.042 352.971 181.867 353.703 181.867 354.656Z" fill="#2E3E4B"/>
<path d="M376 350L381 355L386 350" stroke="#14C871" stroke-width="2.5" stroke-linecap="round" stroke-linejoin="round"/>
<path d="M19.9453 301.512H22.8574V305.678C22.4043 305.822 21.9434 305.932 21.4746 306.006C21.0059 306.08 20.4629 306.117 19.8457 306.117C18.5488 306.117 17.5391 305.732 16.8164 304.963C16.0938 304.189 15.7324 303.107 15.7324 301.717C15.7324 300.826 15.9102 300.047 16.2656 299.379C16.625 298.707 17.1406 298.195 17.8125 297.844C18.4844 297.488 19.2715 297.311 20.1738 297.311C21.0879 297.311 21.9395 297.479 22.7285 297.814L22.3418 298.693C21.5684 298.365 20.8242 298.201 20.1094 298.201C19.0664 298.201 18.252 298.512 17.666 299.133C17.0801 299.754 16.7871 300.615 16.7871 301.717C16.7871 302.873 17.0684 303.75 17.6309 304.348C18.1973 304.945 19.0273 305.244 20.1211 305.244C20.7148 305.244 21.2949 305.176 21.8613 305.039V302.402H19.9453V301.512ZM27.4863 306.117C26.5371 306.117 25.7871 305.828 25.2363 305.25C24.6895 304.672 24.416 303.869 24.416 302.842C24.416 301.807 24.6699 300.984 25.1777 300.375C25.6895 299.766 26.375 299.461 27.2344 299.461C28.0391 299.461 28.6758 299.727 29.1445 300.258C29.6133 300.785 29.8477 301.482 29.8477 302.35V302.965H25.4238C25.4434 303.719 25.6328 304.291 25.9922 304.682C26.3555 305.072 26.8652 305.268 27.5215 305.268C28.2129 305.268 28.8965 305.123 29.5723 304.834V305.701C29.2285 305.85 28.9023 305.955 28.5938 306.018C28.2891 306.084 27.9199 306.117 27.4863 306.117ZM27.2227 300.275C26.707 300.275 26.2949 300.443 25.9863 300.779C25.6816 301.115 25.502 301.58 25.4473 302.174H28.8047C28.8047 301.561 28.668 301.092 28.3945 300.768C28.1211 300.439 27.7305 300.275 27.2227 300.275ZM25.2598 298.594C25.7559 298.062 26.1035 297.672 26.3027 297.422C26.502 297.172 26.6465 296.967 26.7363 296.807H27.709C27.7949 296.971 27.9434 297.184 28.1543 297.445C28.3691 297.703 28.7207 298.086 29.209 298.594V298.729H28.5117C28.168 298.514 27.7363 298.15 27.2168 297.639C26.6855 298.162 26.2578 298.525 25.9336 298.729H25.2598V298.594ZM35.9062 306V301.846C35.9062 301.322 35.7871 300.932 35.5488 300.674C35.3105 300.416 34.9375 300.287 34.4297 300.287C33.7578 300.287 33.2656 300.469 32.9531 300.832C32.6406 301.195 32.4844 301.795 32.4844 302.631V306H31.5117V299.578H32.3027L32.4609 300.457H32.5078C32.707 300.141 32.9863 299.896 33.3457 299.725C33.7051 299.549 34.1055 299.461 34.5469 299.461C35.3203 299.461 35.9023 299.648 36.293 300.023C36.6836 300.395 36.8789 300.99 36.8789 301.811V306H35.9062ZM41.5957 306.117C40.6465 306.117 39.8965 305.828 39.3457 305.25C38.7988 304.672 38.5254 303.869 38.5254 302.842C38.5254 301.807 38.7793 300.984 39.2871 300.375C39.7988 299.766 40.4844 299.461 41.3438 299.461C42.1484 299.461 42.7852 299.727 43.2539 300.258C43.7227 300.785 43.957 301.482 43.957 302.35V302.965H39.5332C39.5527 303.719 39.7422 304.291 40.1016 304.682C40.4648 305.072 40.9746 305.268 41.6309 305.268C42.3223 305.268 43.0059 305.123 43.6816 304.834V305.701C43.3379 305.85 43.0117 305.955 42.7031 306.018C42.3984 306.084 42.0293 306.117 41.5957 306.117ZM41.332 300.275C40.8164 300.275 40.4043 300.443 40.0957 300.779C39.791 301.115 39.6113 301.58 39.5566 302.174H42.9141C42.9141 301.561 42.7773 301.092 42.5039 300.768C42.2305 300.439 41.8398 300.275 41.332 300.275ZM48.5508 299.461C48.8359 299.461 49.0918 299.484 49.3184 299.531L49.1836 300.434C48.918 300.375 48.6836 300.346 48.4805 300.346C47.9609 300.346 47.5156 300.557 47.1445 300.979C46.7773 301.4 46.5938 301.926 46.5938 302.555V306H45.6211V299.578H46.4238L46.5352 300.768H46.582C46.8203 300.35 47.1074 300.027 47.4434 299.801C47.7793 299.574 48.1484 299.461 48.5508 299.461ZM56.0625 302.783C56.0625 303.83 55.7988 304.648 55.2715 305.238C54.7441 305.824 54.0156 306.117 53.0859 306.117C52.5117 306.117 52.002 305.982 51.5566 305.713C51.1113 305.443 50.7676 305.057 50.5254 304.553C50.2832 304.049 50.1621 303.459 50.1621 302.783C50.1621 301.736 50.4238 300.922 50.9473 300.34C51.4707 299.754 52.1973 299.461 53.127 299.461C54.0254 299.461 54.7383 299.76 55.2656 300.357C55.7969 300.955 56.0625 301.764 56.0625 302.783ZM51.1699 302.783C51.1699 303.604 51.334 304.229 51.6621 304.658C51.9902 305.088 52.4727 305.303 53.1094 305.303C53.7461 305.303 54.2285 305.09 54.5566 304.664C54.8887 304.234 55.0547 303.607 55.0547 302.783C55.0547 301.967 54.8887 301.348 54.5566 300.926C54.2285 300.5 53.7422 300.287 53.0977 300.287C52.4609 300.287 51.9805 300.496 51.6562 300.914C51.332 301.332 51.1699 301.955 51.1699 302.783Z" fill="black"/>
<rect width="428" height="44" fill="#12B667"/>
<path d="M0 0H428V44H0V0Z" fill="black" fill-opacity="0.15"/>
<rect opacity="0.35" x="389.833" y="17.8334" width="21" height="10.3333" rx="2.16667" stroke="white"/>
<path opacity="0.4" d="M412.333 21V25C413.138 24.6612 413.662 23.8731 413.662 23C413.662 22.1269 413.138 21.3388 412.333 21Z" fill="white"/>
<rect x="391.333" y="19.3334" width="18" height="7.33333" rx="1.33333" fill="white"/>
<path fill-rule="evenodd" clip-rule="evenodd" d="M376.667 19.6152C378.892 19.6153 381.031 20.4694 382.644 22.001C382.765 22.1192 382.959 22.1177 383.079 21.9976L384.239 20.8273C384.3 20.7664 384.334 20.6839 384.333 20.598C384.333 20.5122 384.298 20.4301 384.237 20.3699C380.005 16.3176 373.329 16.3176 369.097 20.3699C369.035 20.43 369.001 20.5121 369 20.598C368.999 20.6838 369.033 20.7663 369.094 20.8273L370.255 21.9976C370.374 22.1179 370.568 22.1194 370.69 22.001C372.302 20.4693 374.442 19.6152 376.667 19.6152ZM376.667 23.4227C377.889 23.4227 379.068 23.8766 379.974 24.6964C380.097 24.8127 380.29 24.8102 380.409 24.6907L381.569 23.5204C381.63 23.459 381.663 23.3757 381.663 23.2892C381.662 23.2027 381.626 23.1201 381.564 23.0599C378.805 20.4955 374.532 20.4955 371.773 23.0599C371.71 23.1201 371.675 23.2027 371.674 23.2893C371.673 23.3758 371.707 23.4591 371.768 23.5204L372.927 24.6907C373.047 24.8102 373.24 24.8127 373.362 24.6964C374.268 23.8772 375.446 23.4233 376.667 23.4227ZM378.989 25.9846C378.991 26.0714 378.957 26.155 378.895 26.2158L376.89 28.2378C376.831 28.2972 376.751 28.3307 376.667 28.3307C376.583 28.3307 376.503 28.2972 376.445 28.2378L374.439 26.2158C374.377 26.155 374.343 26.0713 374.345 25.9845C374.347 25.8977 374.384 25.8156 374.449 25.7574C375.729 24.6751 377.605 24.6751 378.886 25.7574C378.95 25.8156 378.988 25.8978 378.989 25.9846Z" fill="white"/>
<path fill-rule="evenodd" clip-rule="evenodd" d="M363 17.6666H362C361.448 17.6666 361 18.1143 361 18.6666V27.3333C361 27.8856 361.448 28.3333 362 28.3333H363C363.552 28.3333 364 27.8856 364 27.3333V18.6666C364 18.1143 363.552 17.6666 363 17.6666ZM357.333 20H358.333C358.886 20 359.333 20.4477 359.333 21V27.3333C359.333 27.8856 358.886 28.3333 358.333 28.3333H357.333C356.781 28.3333 356.333 27.8856 356.333 27.3333V21C356.333 20.4477 356.781 20 357.333 20ZM353.667 22.3333H352.667C352.114 22.3333 351.667 22.781 351.667 23.3333V27.3333C351.667 27.8856 352.114 28.3333 352.667 28.3333H353.667C354.219 28.3333 354.667 27.8856 354.667 27.3333V23.3333C354.667 22.781 354.219 22.3333 353.667 22.3333ZM349 24.3333H348C347.448 24.3333 347 24.781 347 25.3333V27.3333C347 27.8856 347.448 28.3333 348 28.3333H349C349.552 28.3333 350 27.8856 350 27.3333V25.3333C350 24.781 349.552 24.3333 349 24.3333Z" fill="white"/>
<path d="M37.1613 17.1675C34.8688 17.1675 33.2355 18.7349 33.2355 20.8809V20.8955C33.2355 22.9023 34.6564 24.3818 36.6852 24.3818C38.1354 24.3818 39.0582 23.6421 39.4464 22.8071H39.5929C39.5929 22.8877 39.5856 22.9683 39.5856 23.0488C39.505 25.0703 38.7946 26.7109 37.1173 26.7109C36.1871 26.7109 35.5353 26.2275 35.257 25.4878L35.235 25.4146H33.3746L33.3893 25.4951C33.7262 27.1138 35.1764 28.2637 37.1173 28.2637C39.776 28.2637 41.38 26.1543 41.38 22.5947V22.5801C41.38 18.7715 39.4171 17.1675 37.1613 17.1675ZM37.1539 22.9316C35.9528 22.9316 35.0812 22.0527 35.0812 20.8296V20.8149C35.0812 19.6357 36.0114 18.7056 37.1759 18.7056C38.3478 18.7056 39.2633 19.6504 39.2633 20.8589V20.8735C39.2633 22.0674 38.3478 22.9316 37.1539 22.9316ZM44.5385 22.7046C45.2123 22.7046 45.703 22.1992 45.703 21.5547C45.703 20.9028 45.2123 20.3975 44.5385 20.3975C43.872 20.3975 43.3739 20.9028 43.3739 21.5547C43.3739 22.1992 43.872 22.7046 44.5385 22.7046ZM44.5385 28.1465C45.2123 28.1465 45.703 27.6338 45.703 26.9893C45.703 26.3374 45.2123 25.832 44.5385 25.832C43.872 25.832 43.3739 26.3374 43.3739 26.9893C43.3739 27.6338 43.872 28.1465 44.5385 28.1465ZM52.6041 28H54.4132V25.9712H55.8341V24.4111H54.4132V17.4312H51.7399C50.3043 19.6138 48.8029 22.0454 47.4332 24.4258V25.9712H52.6041V28ZM49.191 24.4551V24.3452C50.2164 22.5508 51.4396 20.5952 52.5236 18.9399H52.6334V24.4551H49.191ZM59.974 28H61.8636V17.4312H59.9813L57.2201 19.3721V21.1519L59.8495 19.2915H59.974V28Z" fill="white"/>
</svg>
