<svg width="428" height="926" viewBox="0 0 428 926" fill="none" xmlns="http://www.w3.org/2000/svg">
<rect width="428" height="926" fill="white"/>
<path d="M394.828 107L397.364 109.535L395.95 110.95L391 106L395.95 101.05L397.364 102.465L394.828 105H402C404.122 105 406.157 105.843 407.657 107.343C409.157 108.843 410 110.878 410 113C410 115.122 409.157 117.157 407.657 118.657C406.157 120.157 404.122 121 402 121H393V119H402C403.591 119 405.117 118.368 406.243 117.243C407.368 116.117 408 114.591 408 113C408 111.409 407.368 109.883 406.243 108.757C405.117 107.632 403.591 107 402 107H394.828Z" fill="#14C871"/>
<path d="M30.8057 179L29.2529 173.902H21.4453L19.8926 179H15L22.5586 157.496H28.1104L35.6982 179H30.8057ZM28.1689 170.094C26.7334 165.475 25.9229 162.862 25.7373 162.257C25.5615 161.651 25.4346 161.173 25.3564 160.821C25.0342 162.071 24.1113 165.162 22.5879 170.094H28.1689ZM43.2422 179.293C41.3184 179.293 39.8047 178.546 38.7012 177.052C37.6074 175.558 37.0605 173.487 37.0605 170.841C37.0605 168.155 37.6172 166.065 38.7305 164.571C39.8535 163.067 41.3965 162.315 43.3594 162.315C45.4199 162.315 46.9922 163.116 48.0762 164.718H48.2227C47.998 163.497 47.8857 162.408 47.8857 161.451V156.207H52.3682V179H48.9404L48.0762 176.876H47.8857C46.8701 178.487 45.3223 179.293 43.2422 179.293ZM44.8096 175.733C45.9521 175.733 46.7871 175.401 47.3145 174.737C47.8516 174.073 48.1445 172.945 48.1934 171.354V170.87C48.1934 169.112 47.9199 167.853 47.373 167.091C46.8359 166.329 45.957 165.948 44.7363 165.948C43.7402 165.948 42.9639 166.373 42.4072 167.223C41.8604 168.062 41.5869 169.288 41.5869 170.899C41.5869 172.511 41.8652 173.722 42.4219 174.532C42.9785 175.333 43.7744 175.733 44.8096 175.733ZM56.8506 158.39C56.8506 156.935 57.6611 156.207 59.2822 156.207C60.9033 156.207 61.7139 156.935 61.7139 158.39C61.7139 159.083 61.5088 159.625 61.0986 160.016C60.6982 160.396 60.0928 160.587 59.2822 160.587C57.6611 160.587 56.8506 159.854 56.8506 158.39ZM61.5088 179H57.041V162.623H61.5088V179ZM72.8613 179.293C67.7637 179.293 65.2148 176.495 65.2148 170.899C65.2148 168.116 65.9082 165.992 67.2949 164.527C68.6816 163.053 70.6689 162.315 73.2568 162.315C75.1514 162.315 76.8506 162.687 78.3545 163.429L77.0361 166.886C76.333 166.603 75.6787 166.373 75.0732 166.197C74.4678 166.012 73.8623 165.919 73.2568 165.919C70.9326 165.919 69.7705 167.569 69.7705 170.87C69.7705 174.073 70.9326 175.675 73.2568 175.675C74.1162 175.675 74.9121 175.562 75.6445 175.338C76.377 175.104 77.1094 174.742 77.8418 174.254V178.077C77.1191 178.536 76.3867 178.854 75.6445 179.029C74.9121 179.205 73.9844 179.293 72.8613 179.293ZM81.46 158.39C81.46 156.935 82.2705 156.207 83.8916 156.207C85.5127 156.207 86.3232 156.935 86.3232 158.39C86.3232 159.083 86.1182 159.625 85.708 160.016C85.3076 160.396 84.7021 160.587 83.8916 160.587C82.2705 160.587 81.46 159.854 81.46 158.39ZM86.1182 179H81.6504V162.623H86.1182V179ZM94.3799 170.782C94.3799 172.403 94.6436 173.629 95.1709 174.459C95.708 175.289 96.5771 175.704 97.7783 175.704C98.9697 175.704 99.8242 175.294 100.342 174.474C100.869 173.644 101.133 172.413 101.133 170.782C101.133 169.161 100.869 167.945 100.342 167.135C99.8145 166.324 98.9502 165.919 97.749 165.919C96.5576 165.919 95.6982 166.324 95.1709 167.135C94.6436 167.936 94.3799 169.151 94.3799 170.782ZM105.703 170.782C105.703 173.448 105 175.533 103.594 177.037C102.188 178.541 100.229 179.293 97.7197 179.293C96.1475 179.293 94.7607 178.951 93.5596 178.268C92.3584 177.574 91.4355 176.583 90.791 175.294C90.1465 174.005 89.8242 172.501 89.8242 170.782C89.8242 168.106 90.5225 166.026 91.9189 164.542C93.3154 163.058 95.2783 162.315 97.8076 162.315C99.3799 162.315 100.767 162.657 101.968 163.341C103.169 164.024 104.092 165.006 104.736 166.285C105.381 167.564 105.703 169.063 105.703 170.782ZM124.512 179H120.044V169.435C120.044 168.253 119.834 167.369 119.414 166.783C118.994 166.188 118.325 165.89 117.407 165.89C116.157 165.89 115.254 166.31 114.697 167.149C114.141 167.979 113.862 169.361 113.862 171.295V179H109.395V162.623H112.808L113.408 164.718H113.657C114.155 163.927 114.839 163.331 115.708 162.931C116.587 162.521 117.583 162.315 118.696 162.315C120.601 162.315 122.046 162.833 123.032 163.868C124.019 164.894 124.512 166.378 124.512 168.321V179ZM135.894 165.494C134.946 165.494 134.204 165.797 133.667 166.402C133.13 166.998 132.822 167.848 132.744 168.951H139.014C138.994 167.848 138.706 166.998 138.149 166.402C137.593 165.797 136.841 165.494 135.894 165.494ZM136.523 179.293C133.887 179.293 131.826 178.565 130.342 177.11C128.857 175.655 128.115 173.595 128.115 170.929C128.115 168.185 128.799 166.065 130.166 164.571C131.543 163.067 133.442 162.315 135.864 162.315C138.179 162.315 139.98 162.975 141.27 164.293C142.559 165.611 143.203 167.433 143.203 169.757V171.925H132.642C132.69 173.194 133.066 174.186 133.77 174.898C134.473 175.611 135.459 175.968 136.729 175.968C137.715 175.968 138.647 175.865 139.526 175.66C140.405 175.455 141.323 175.128 142.28 174.679V178.136C141.499 178.526 140.664 178.814 139.775 179C138.887 179.195 137.803 179.293 136.523 179.293ZM166.23 179L165.63 176.905H165.396C164.917 177.667 164.238 178.258 163.359 178.678C162.48 179.088 161.479 179.293 160.356 179.293C158.433 179.293 156.982 178.78 156.006 177.755C155.029 176.72 154.541 175.235 154.541 173.302V162.623H159.009V172.188C159.009 173.37 159.219 174.259 159.639 174.854C160.059 175.44 160.728 175.733 161.646 175.733C162.896 175.733 163.799 175.318 164.355 174.488C164.912 173.648 165.19 172.262 165.19 170.328V162.623H169.658V179H166.23ZM189.009 179H184.541V169.435C184.541 168.253 184.341 167.369 183.94 166.783C183.55 166.188 182.93 165.89 182.08 165.89C180.938 165.89 180.107 166.31 179.59 167.149C179.072 167.989 178.813 169.371 178.813 171.295V179H174.346V162.623H177.759L178.359 164.718H178.608C179.048 163.966 179.683 163.38 180.513 162.96C181.343 162.53 182.295 162.315 183.369 162.315C185.82 162.315 187.48 163.116 188.35 164.718H188.745C189.185 163.956 189.829 163.365 190.679 162.945C191.538 162.525 192.505 162.315 193.579 162.315C195.435 162.315 196.836 162.794 197.783 163.751C198.74 164.698 199.219 166.222 199.219 168.321V179H194.736V169.435C194.736 168.253 194.536 167.369 194.136 166.783C193.745 166.188 193.125 165.89 192.275 165.89C191.182 165.89 190.361 166.28 189.814 167.062C189.277 167.843 189.009 169.083 189.009 170.782V179ZM214.219 179L213.354 176.773H213.237C212.485 177.721 211.709 178.38 210.908 178.751C210.117 179.112 209.082 179.293 207.803 179.293C206.23 179.293 204.99 178.844 204.082 177.945C203.184 177.047 202.734 175.768 202.734 174.107C202.734 172.369 203.34 171.09 204.551 170.27C205.771 169.439 207.607 168.98 210.059 168.893L212.9 168.805V168.087C212.9 166.427 212.051 165.597 210.352 165.597C209.043 165.597 207.505 165.992 205.737 166.783L204.258 163.766C206.143 162.779 208.232 162.286 210.527 162.286C212.725 162.286 214.409 162.765 215.581 163.722C216.753 164.679 217.339 166.134 217.339 168.087V179H214.219ZM212.9 171.412L211.172 171.471C209.873 171.51 208.906 171.744 208.271 172.174C207.637 172.604 207.319 173.258 207.319 174.137C207.319 175.396 208.042 176.026 209.487 176.026C210.522 176.026 211.348 175.729 211.963 175.133C212.588 174.537 212.9 173.746 212.9 172.76V171.412ZM26.3965 212.978H22.5293V226H18.0615V212.978H15.6006V210.824L18.0615 209.623V208.422C18.0615 206.557 18.5205 205.194 19.4385 204.335C20.3564 203.476 21.8262 203.046 23.8477 203.046C25.3906 203.046 26.7627 203.275 27.9639 203.734L26.8213 207.016C25.9229 206.732 25.0928 206.591 24.3311 206.591C23.6963 206.591 23.2373 206.781 22.9541 207.162C22.6709 207.533 22.5293 208.012 22.5293 208.598V209.623H26.3965V212.978ZM32.5342 217.782C32.5342 219.403 32.7979 220.629 33.3252 221.459C33.8623 222.289 34.7314 222.704 35.9326 222.704C37.124 222.704 37.9785 222.294 38.4961 221.474C39.0234 220.644 39.2871 219.413 39.2871 217.782C39.2871 216.161 39.0234 214.945 38.4961 214.135C37.9688 213.324 37.1045 212.919 35.9033 212.919C34.7119 212.919 33.8525 213.324 33.3252 214.135C32.7979 214.936 32.5342 216.151 32.5342 217.782ZM43.8574 217.782C43.8574 220.448 43.1543 222.533 41.748 224.037C40.3418 225.541 38.3838 226.293 35.874 226.293C34.3018 226.293 32.915 225.951 31.7139 225.268C30.5127 224.574 29.5898 223.583 28.9453 222.294C28.3008 221.005 27.9785 219.501 27.9785 217.782C27.9785 215.106 28.6768 213.026 30.0732 211.542C31.4697 210.058 33.4326 209.315 35.9619 209.315C37.5342 209.315 38.9209 209.657 40.1221 210.341C41.3232 211.024 42.2461 212.006 42.8906 213.285C43.5352 214.564 43.8574 216.063 43.8574 217.782ZM54.4482 222.733C55.2295 222.733 56.167 222.562 57.2607 222.221V225.546C56.1475 226.044 54.7803 226.293 53.1592 226.293C51.3721 226.293 50.0684 225.844 49.248 224.945C48.4375 224.037 48.0322 222.68 48.0322 220.873V212.978H45.8936V211.088L48.3545 209.594L49.6436 206.137H52.5V209.623H57.085V212.978H52.5V220.873C52.5 221.508 52.6758 221.977 53.0273 222.279C53.3887 222.582 53.8623 222.733 54.4482 222.733ZM64.1455 217.782C64.1455 219.403 64.4092 220.629 64.9365 221.459C65.4736 222.289 66.3428 222.704 67.5439 222.704C68.7354 222.704 69.5898 222.294 70.1074 221.474C70.6348 220.644 70.8984 219.413 70.8984 217.782C70.8984 216.161 70.6348 214.945 70.1074 214.135C69.5801 213.324 68.7158 212.919 67.5146 212.919C66.3232 212.919 65.4639 213.324 64.9365 214.135C64.4092 214.936 64.1455 216.151 64.1455 217.782ZM75.4688 217.782C75.4688 220.448 74.7656 222.533 73.3594 224.037C71.9531 225.541 69.9951 226.293 67.4854 226.293C65.9131 226.293 64.5264 225.951 63.3252 225.268C62.124 224.574 61.2012 223.583 60.5566 222.294C59.9121 221.005 59.5898 219.501 59.5898 217.782C59.5898 215.106 60.2881 213.026 61.6846 211.542C63.0811 210.058 65.0439 209.315 67.5732 209.315C69.1455 209.315 70.5322 209.657 71.7334 210.341C72.9346 211.024 73.8574 212.006 74.502 213.285C75.1465 214.564 75.4688 216.063 75.4688 217.782ZM92.1387 226.293C90.2148 226.293 88.7012 225.546 87.5977 224.052C86.5039 222.558 85.957 220.487 85.957 217.841C85.957 215.155 86.5137 213.065 87.627 211.571C88.75 210.067 90.293 209.315 92.2559 209.315C94.3164 209.315 95.8887 210.116 96.9727 211.718H97.1191C96.8945 210.497 96.7822 209.408 96.7822 208.451V203.207H101.265V226H97.8369L96.9727 223.876H96.7822C95.7666 225.487 94.2188 226.293 92.1387 226.293ZM93.7061 222.733C94.8486 222.733 95.6836 222.401 96.2109 221.737C96.748 221.073 97.041 219.945 97.0898 218.354V217.87C97.0898 216.112 96.8164 214.853 96.2695 214.091C95.7324 213.329 94.8535 212.948 93.6328 212.948C92.6367 212.948 91.8604 213.373 91.3037 214.223C90.7568 215.062 90.4834 216.288 90.4834 217.899C90.4834 219.511 90.7617 220.722 91.3184 221.532C91.875 222.333 92.6709 222.733 93.7061 222.733ZM112.72 212.494C111.772 212.494 111.03 212.797 110.493 213.402C109.956 213.998 109.648 214.848 109.57 215.951H115.84C115.82 214.848 115.532 213.998 114.976 213.402C114.419 212.797 113.667 212.494 112.72 212.494ZM113.35 226.293C110.713 226.293 108.652 225.565 107.168 224.11C105.684 222.655 104.941 220.595 104.941 217.929C104.941 215.185 105.625 213.065 106.992 211.571C108.369 210.067 110.269 209.315 112.69 209.315C115.005 209.315 116.807 209.975 118.096 211.293C119.385 212.611 120.029 214.433 120.029 216.757V218.925H109.468C109.517 220.194 109.893 221.186 110.596 221.898C111.299 222.611 112.285 222.968 113.555 222.968C114.541 222.968 115.474 222.865 116.353 222.66C117.231 222.455 118.149 222.128 119.106 221.679V225.136C118.325 225.526 117.49 225.814 116.602 226C115.713 226.195 114.629 226.293 113.35 226.293ZM140.449 226.293C138.525 226.293 137.017 225.595 135.923 224.198H135.688C135.845 225.565 135.923 226.356 135.923 226.571V233.207H131.455V209.623H135.088L135.718 211.747H135.923C136.968 210.126 138.516 209.315 140.566 209.315C142.5 209.315 144.014 210.062 145.107 211.557C146.201 213.051 146.748 215.126 146.748 217.782C146.748 219.53 146.489 221.049 145.972 222.338C145.464 223.627 144.736 224.608 143.789 225.282C142.842 225.956 141.729 226.293 140.449 226.293ZM139.131 212.89C138.027 212.89 137.222 213.231 136.714 213.915C136.206 214.589 135.942 215.707 135.923 217.27V217.753C135.923 219.511 136.182 220.771 136.699 221.532C137.227 222.294 138.057 222.675 139.189 222.675C141.191 222.675 142.192 221.024 142.192 217.724C142.192 216.112 141.943 214.906 141.445 214.105C140.957 213.295 140.186 212.89 139.131 212.89ZM157.222 212.494C156.274 212.494 155.532 212.797 154.995 213.402C154.458 213.998 154.15 214.848 154.072 215.951H160.342C160.322 214.848 160.034 213.998 159.478 213.402C158.921 212.797 158.169 212.494 157.222 212.494ZM157.852 226.293C155.215 226.293 153.154 225.565 151.67 224.11C150.186 222.655 149.443 220.595 149.443 217.929C149.443 215.185 150.127 213.065 151.494 211.571C152.871 210.067 154.771 209.315 157.192 209.315C159.507 209.315 161.309 209.975 162.598 211.293C163.887 212.611 164.531 214.433 164.531 216.757V218.925H153.97C154.019 220.194 154.395 221.186 155.098 221.898C155.801 222.611 156.787 222.968 158.057 222.968C159.043 222.968 159.976 222.865 160.854 222.66C161.733 222.455 162.651 222.128 163.608 221.679V225.136C162.827 225.526 161.992 225.814 161.104 226C160.215 226.195 159.131 226.293 157.852 226.293ZM177.305 209.315C177.91 209.315 178.413 209.359 178.813 209.447L178.477 213.637C178.115 213.539 177.676 213.49 177.158 213.49C175.732 213.49 174.619 213.856 173.818 214.589C173.027 215.321 172.632 216.347 172.632 217.665V226H168.164V209.623H171.548L172.207 212.377H172.427C172.935 211.459 173.618 210.722 174.478 210.165C175.347 209.599 176.289 209.315 177.305 209.315ZM190.84 212.978H186.973V226H182.505V212.978H180.044V210.824L182.505 209.623V208.422C182.505 206.557 182.964 205.194 183.882 204.335C184.8 203.476 186.27 203.046 188.291 203.046C189.834 203.046 191.206 203.275 192.407 203.734L191.265 207.016C190.366 206.732 189.536 206.591 188.774 206.591C188.14 206.591 187.681 206.781 187.397 207.162C187.114 207.533 186.973 208.012 186.973 208.598V209.623H190.84V212.978ZM193.213 205.39C193.213 203.935 194.023 203.207 195.645 203.207C197.266 203.207 198.076 203.935 198.076 205.39C198.076 206.083 197.871 206.625 197.461 207.016C197.061 207.396 196.455 207.587 195.645 207.587C194.023 207.587 193.213 206.854 193.213 205.39ZM197.871 226H193.403V209.623H197.871V226ZM207.026 226H202.559V203.207H207.026V226Z" fill="#2E3E4B"/>
<rect x="15" y="700" width="398" height="56" rx="5" fill="#14C871"/>
<path d="M186.406 723.078C187.88 723.078 188.956 723.38 189.633 723.984C190.31 724.589 190.648 725.435 190.648 726.523C190.648 727.018 190.57 727.49 190.414 727.938C190.263 728.38 190.013 728.773 189.664 729.117C189.315 729.456 188.854 729.724 188.281 729.922C187.714 730.12 187.013 730.219 186.18 730.219H184.961V734.5H183.086V723.078H186.406ZM186.281 724.633H184.961V728.656H185.984C186.573 728.656 187.073 728.589 187.484 728.453C187.896 728.312 188.208 728.091 188.422 727.789C188.635 727.487 188.742 727.089 188.742 726.594C188.742 725.932 188.542 725.44 188.141 725.117C187.745 724.794 187.125 724.633 186.281 724.633ZM197.125 725.688C197.271 725.688 197.43 725.695 197.602 725.711C197.773 725.727 197.922 725.747 198.047 725.773L197.875 727.492C197.766 727.461 197.63 727.438 197.469 727.422C197.312 727.406 197.172 727.398 197.047 727.398C196.719 727.398 196.406 727.453 196.109 727.562C195.812 727.667 195.549 727.828 195.32 728.047C195.091 728.26 194.911 728.529 194.781 728.852C194.651 729.174 194.586 729.549 194.586 729.977V734.5H192.742V725.852H194.18L194.43 727.375H194.516C194.688 727.068 194.901 726.786 195.156 726.531C195.411 726.276 195.703 726.073 196.031 725.922C196.365 725.766 196.729 725.688 197.125 725.688ZM207.305 730.156C207.305 730.875 207.211 731.513 207.023 732.07C206.836 732.628 206.562 733.099 206.203 733.484C205.844 733.865 205.411 734.156 204.906 734.359C204.401 734.557 203.831 734.656 203.195 734.656C202.602 734.656 202.057 734.557 201.562 734.359C201.068 734.156 200.638 733.865 200.273 733.484C199.914 733.099 199.635 732.628 199.438 732.07C199.24 731.513 199.141 730.875 199.141 730.156C199.141 729.203 199.305 728.396 199.633 727.734C199.966 727.068 200.44 726.56 201.055 726.211C201.669 725.862 202.401 725.688 203.25 725.688C204.047 725.688 204.75 725.862 205.359 726.211C205.969 726.56 206.445 727.068 206.789 727.734C207.133 728.401 207.305 729.208 207.305 730.156ZM201.031 730.156C201.031 730.786 201.107 731.326 201.258 731.773C201.414 732.221 201.654 732.565 201.977 732.805C202.299 733.039 202.716 733.156 203.227 733.156C203.737 733.156 204.154 733.039 204.477 732.805C204.799 732.565 205.036 732.221 205.188 731.773C205.339 731.326 205.414 730.786 205.414 730.156C205.414 729.526 205.339 728.992 205.188 728.555C205.036 728.112 204.799 727.776 204.477 727.547C204.154 727.312 203.734 727.195 203.219 727.195C202.458 727.195 201.904 727.451 201.555 727.961C201.206 728.471 201.031 729.203 201.031 730.156ZM205.898 722.242V722.398C205.773 722.549 205.604 722.732 205.391 722.945C205.177 723.154 204.945 723.375 204.695 723.609C204.445 723.839 204.198 724.06 203.953 724.273C203.708 724.482 203.487 724.659 203.289 724.805H202.062V724.602C202.234 724.404 202.424 724.167 202.633 723.891C202.846 723.615 203.055 723.331 203.258 723.039C203.466 722.747 203.641 722.482 203.781 722.242H205.898ZM211.328 730.078L208.438 725.852H210.531L212.508 728.891L214.492 725.852H216.578L213.672 730.078L216.727 734.5H214.625L212.508 731.258L210.383 734.5H208.297L211.328 730.078ZM220.062 725.852V734.5H218.227V725.852H220.062ZM219.156 722.539C219.438 722.539 219.68 722.615 219.883 722.766C220.091 722.917 220.195 723.177 220.195 723.547C220.195 723.911 220.091 724.172 219.883 724.328C219.68 724.479 219.438 724.555 219.156 724.555C218.865 724.555 218.617 724.479 218.414 724.328C218.216 724.172 218.117 723.911 218.117 723.547C218.117 723.177 218.216 722.917 218.414 722.766C218.617 722.615 218.865 722.539 219.156 722.539ZM232.469 725.688C233.438 725.688 234.167 725.938 234.656 726.438C235.151 726.938 235.398 727.74 235.398 728.844V734.5H233.562V729.172C233.562 728.516 233.435 728.021 233.18 727.688C232.924 727.354 232.536 727.188 232.016 727.188C231.286 727.188 230.76 727.422 230.438 727.891C230.12 728.354 229.961 729.029 229.961 729.914V734.5H228.125V729.172C228.125 728.734 228.068 728.37 227.953 728.078C227.844 727.781 227.674 727.56 227.445 727.414C227.216 727.263 226.927 727.188 226.578 727.188C226.073 727.188 225.669 727.302 225.367 727.531C225.07 727.76 224.857 728.099 224.727 728.547C224.596 728.99 224.531 729.534 224.531 730.18V734.5H222.695V725.852H224.125L224.383 727.016H224.484C224.661 726.714 224.88 726.466 225.141 726.273C225.406 726.076 225.701 725.93 226.023 725.836C226.346 725.737 226.682 725.688 227.031 725.688C227.677 725.688 228.221 725.802 228.664 726.031C229.107 726.255 229.438 726.599 229.656 727.062H229.797C230.068 726.594 230.445 726.247 230.93 726.023C231.414 725.799 231.927 725.688 232.469 725.688ZM245.617 730.156C245.617 730.875 245.523 731.513 245.336 732.07C245.148 732.628 244.875 733.099 244.516 733.484C244.156 733.865 243.724 734.156 243.219 734.359C242.714 734.557 242.143 734.656 241.508 734.656C240.914 734.656 240.37 734.557 239.875 734.359C239.38 734.156 238.951 733.865 238.586 733.484C238.227 733.099 237.948 732.628 237.75 732.07C237.552 731.513 237.453 730.875 237.453 730.156C237.453 729.203 237.617 728.396 237.945 727.734C238.279 727.068 238.753 726.56 239.367 726.211C239.982 725.862 240.714 725.688 241.562 725.688C242.359 725.688 243.062 725.862 243.672 726.211C244.281 726.56 244.758 727.068 245.102 727.734C245.445 728.401 245.617 729.208 245.617 730.156ZM239.344 730.156C239.344 730.786 239.419 731.326 239.57 731.773C239.727 732.221 239.966 732.565 240.289 732.805C240.612 733.039 241.029 733.156 241.539 733.156C242.049 733.156 242.466 733.039 242.789 732.805C243.112 732.565 243.349 732.221 243.5 731.773C243.651 731.326 243.727 730.786 243.727 730.156C243.727 729.526 243.651 728.992 243.5 728.555C243.349 728.112 243.112 727.776 242.789 727.547C242.466 727.312 242.047 727.195 241.531 727.195C240.771 727.195 240.216 727.451 239.867 727.961C239.518 728.471 239.344 729.203 239.344 730.156Z" fill="white"/>
<rect x="224.5" y="320.5" width="188" height="55" rx="4.5" fill="white"/>
<rect x="224.5" y="320.5" width="188" height="55" rx="4.5" stroke="#CBCBCB"/>
<path d="M296.992 348.297H301.258V354.031C300.659 354.229 300.039 354.383 299.398 354.492C298.758 354.602 298.039 354.656 297.242 354.656C296.081 354.656 295.096 354.427 294.289 353.969C293.487 353.505 292.878 352.836 292.461 351.961C292.044 351.081 291.836 350.021 291.836 348.781C291.836 347.589 292.068 346.555 292.531 345.68C292.995 344.799 293.669 344.12 294.555 343.641C295.44 343.156 296.513 342.914 297.773 342.914C298.393 342.914 298.992 342.977 299.57 343.102C300.154 343.221 300.688 343.388 301.172 343.602L300.516 345.148C300.13 344.966 299.698 344.812 299.219 344.688C298.74 344.562 298.242 344.5 297.727 344.5C296.909 344.5 296.203 344.677 295.609 345.031C295.021 345.385 294.568 345.885 294.25 346.531C293.932 347.172 293.773 347.93 293.773 348.805C293.773 349.654 293.901 350.398 294.156 351.039C294.411 351.68 294.81 352.18 295.352 352.539C295.898 352.893 296.604 353.07 297.469 353.07C297.901 353.07 298.268 353.047 298.57 353C298.872 352.953 299.151 352.901 299.406 352.844V349.898H296.992V348.297ZM307.195 345.688C308.289 345.688 309.115 345.93 309.672 346.414C310.234 346.898 310.516 347.654 310.516 348.68V354.5H309.211L308.859 353.273H308.797C308.552 353.586 308.299 353.844 308.039 354.047C307.779 354.25 307.477 354.401 307.133 354.5C306.794 354.604 306.38 354.656 305.891 354.656C305.375 354.656 304.914 354.562 304.508 354.375C304.102 354.182 303.781 353.891 303.547 353.5C303.312 353.109 303.195 352.615 303.195 352.016C303.195 351.125 303.526 350.456 304.188 350.008C304.854 349.56 305.859 349.312 307.203 349.266L308.703 349.211V348.758C308.703 348.159 308.562 347.732 308.281 347.477C308.005 347.221 307.615 347.094 307.109 347.094C306.677 347.094 306.258 347.156 305.852 347.281C305.445 347.406 305.049 347.56 304.664 347.742L304.07 346.445C304.492 346.221 304.971 346.039 305.508 345.898C306.049 345.758 306.612 345.688 307.195 345.688ZM308.695 350.367L307.578 350.406C306.661 350.438 306.018 350.594 305.648 350.875C305.279 351.156 305.094 351.542 305.094 352.031C305.094 352.458 305.221 352.771 305.477 352.969C305.732 353.161 306.068 353.258 306.484 353.258C307.12 353.258 307.646 353.078 308.062 352.719C308.484 352.354 308.695 351.82 308.695 351.117V350.367ZM314.93 354.5H313.086V342.344H314.93V354.5ZM321 345.688C321.771 345.688 322.432 345.846 322.984 346.164C323.536 346.482 323.961 346.932 324.258 347.516C324.555 348.099 324.703 348.797 324.703 349.609V350.594H318.93C318.951 351.432 319.174 352.078 319.602 352.531C320.034 352.984 320.638 353.211 321.414 353.211C321.966 353.211 322.461 353.159 322.898 353.055C323.341 352.945 323.797 352.786 324.266 352.578V354.07C323.833 354.273 323.393 354.422 322.945 354.516C322.497 354.609 321.961 354.656 321.336 354.656C320.487 354.656 319.74 354.492 319.094 354.164C318.453 353.831 317.951 353.336 317.586 352.68C317.227 352.023 317.047 351.208 317.047 350.234C317.047 349.266 317.211 348.443 317.539 347.766C317.867 347.089 318.328 346.573 318.922 346.219C319.516 345.865 320.208 345.688 321 345.688ZM321 347.07C320.422 347.07 319.953 347.258 319.594 347.633C319.24 348.008 319.031 348.557 318.969 349.281H322.906C322.901 348.849 322.828 348.466 322.688 348.133C322.552 347.799 322.344 347.539 322.062 347.352C321.786 347.164 321.432 347.07 321 347.07ZM331.156 345.688C331.302 345.688 331.461 345.695 331.633 345.711C331.805 345.727 331.953 345.747 332.078 345.773L331.906 347.492C331.797 347.461 331.661 347.438 331.5 347.422C331.344 347.406 331.203 347.398 331.078 347.398C330.75 347.398 330.438 347.453 330.141 347.562C329.844 347.667 329.581 347.828 329.352 348.047C329.122 348.26 328.943 348.529 328.812 348.852C328.682 349.174 328.617 349.549 328.617 349.977V354.5H326.773V345.852H328.211L328.461 347.375H328.547C328.719 347.068 328.932 346.786 329.188 346.531C329.443 346.276 329.734 346.073 330.062 345.922C330.396 345.766 330.76 345.688 331.156 345.688ZM335.516 345.852V354.5H333.68V345.852H335.516ZM334.609 342.539C334.891 342.539 335.133 342.615 335.336 342.766C335.544 342.917 335.648 343.177 335.648 343.547C335.648 343.911 335.544 344.172 335.336 344.328C335.133 344.479 334.891 344.555 334.609 344.555C334.318 344.555 334.07 344.479 333.867 344.328C333.669 344.172 333.57 343.911 333.57 343.547C333.57 343.177 333.669 342.917 333.867 342.766C334.07 342.615 334.318 342.539 334.609 342.539ZM341.539 345.688C342.633 345.688 343.458 345.93 344.016 346.414C344.578 346.898 344.859 347.654 344.859 348.68V354.5H343.555L343.203 353.273H343.141C342.896 353.586 342.643 353.844 342.383 354.047C342.122 354.25 341.82 354.401 341.477 354.5C341.138 354.604 340.724 354.656 340.234 354.656C339.719 354.656 339.258 354.562 338.852 354.375C338.445 354.182 338.125 353.891 337.891 353.5C337.656 353.109 337.539 352.615 337.539 352.016C337.539 351.125 337.87 350.456 338.531 350.008C339.198 349.56 340.203 349.312 341.547 349.266L343.047 349.211V348.758C343.047 348.159 342.906 347.732 342.625 347.477C342.349 347.221 341.958 347.094 341.453 347.094C341.021 347.094 340.602 347.156 340.195 347.281C339.789 347.406 339.393 347.56 339.008 347.742L338.414 346.445C338.836 346.221 339.315 346.039 339.852 345.898C340.393 345.758 340.956 345.688 341.539 345.688ZM343.039 350.367L341.922 350.406C341.005 350.438 340.362 350.594 339.992 350.875C339.622 351.156 339.438 351.542 339.438 352.031C339.438 352.458 339.565 352.771 339.82 352.969C340.076 353.161 340.411 353.258 340.828 353.258C341.464 353.258 341.99 353.078 342.406 352.719C342.828 352.354 343.039 351.82 343.039 351.117V350.367Z" fill="#2E3E4B"/>
<rect x="15" y="320" width="189" height="56" rx="5" fill="#14C871"/>
<path d="M71 340H67.83L66 338H60L58.17 340H55C54.4696 340 53.9609 340.211 53.5858 340.586C53.2107 340.961 53 341.47 53 342V354C53 354.53 53.2107 355.039 53.5858 355.414C53.9609 355.789 54.4696 356 55 356H71C71.5304 356 72.0391 355.789 72.4142 355.414C72.7893 355.039 73 354.53 73 354V342C73 341.47 72.7893 340.961 72.4142 340.586C72.0391 340.211 71.5304 340 71 340ZM71 354H55V342H59.05L60.88 340H65.12L66.95 342H71V354ZM63 343C61.6739 343 60.4021 343.527 59.4645 344.464C58.5268 345.402 58 346.674 58 348C58 349.326 58.5268 350.598 59.4645 351.536C60.4021 352.473 61.6739 353 63 353C64.3261 353 65.5979 352.473 66.5355 351.536C67.4732 350.598 68 349.326 68 348C68 346.674 67.4732 345.402 66.5355 344.464C65.5979 343.527 64.3261 343 63 343ZM63 351C62.2044 351 61.4413 350.684 60.8787 350.121C60.3161 349.559 60 348.796 60 348C60 347.204 60.3161 346.441 60.8787 345.879C61.4413 345.316 62.2044 345 63 345C63.7956 345 64.5587 345.316 65.1213 345.879C65.6839 346.441 66 347.204 66 348C66 348.796 65.6839 349.559 65.1213 350.121C64.5587 350.684 63.7956 351 63 351Z" fill="white"/>
<path d="M100.75 354.5H98.8672V344.672H95.5234V343.078H104.086V344.672H100.75V354.5ZM107.484 345.852V354.5H105.648V345.852H107.484ZM106.578 342.539C106.859 342.539 107.102 342.615 107.305 342.766C107.513 342.917 107.617 343.177 107.617 343.547C107.617 343.911 107.513 344.172 107.305 344.328C107.102 344.479 106.859 344.555 106.578 344.555C106.286 344.555 106.039 344.479 105.836 344.328C105.638 344.172 105.539 343.911 105.539 343.547C105.539 343.177 105.638 342.917 105.836 342.766C106.039 342.615 106.286 342.539 106.578 342.539ZM114.5 345.688C114.646 345.688 114.805 345.695 114.977 345.711C115.148 345.727 115.297 345.747 115.422 345.773L115.25 347.492C115.141 347.461 115.005 347.438 114.844 347.422C114.688 347.406 114.547 347.398 114.422 347.398C114.094 347.398 113.781 347.453 113.484 347.562C113.188 347.667 112.924 347.828 112.695 348.047C112.466 348.26 112.286 348.529 112.156 348.852C112.026 349.174 111.961 349.549 111.961 349.977V354.5H110.117V345.852H111.555L111.805 347.375H111.891C112.062 347.068 112.276 346.786 112.531 346.531C112.786 346.276 113.078 346.073 113.406 345.922C113.74 345.766 114.104 345.688 114.5 345.688ZM120.414 345.688C121.508 345.688 122.333 345.93 122.891 346.414C123.453 346.898 123.734 347.654 123.734 348.68V354.5H122.43L122.078 353.273H122.016C121.771 353.586 121.518 353.844 121.258 354.047C120.997 354.25 120.695 354.401 120.352 354.5C120.013 354.604 119.599 354.656 119.109 354.656C118.594 354.656 118.133 354.562 117.727 354.375C117.32 354.182 117 353.891 116.766 353.5C116.531 353.109 116.414 352.615 116.414 352.016C116.414 351.125 116.745 350.456 117.406 350.008C118.073 349.56 119.078 349.312 120.422 349.266L121.922 349.211V348.758C121.922 348.159 121.781 347.732 121.5 347.477C121.224 347.221 120.833 347.094 120.328 347.094C119.896 347.094 119.477 347.156 119.07 347.281C118.664 347.406 118.268 347.56 117.883 347.742L117.289 346.445C117.711 346.221 118.19 346.039 118.727 345.898C119.268 345.758 119.831 345.688 120.414 345.688ZM121.914 350.367L120.797 350.406C119.88 350.438 119.237 350.594 118.867 350.875C118.497 351.156 118.312 351.542 118.312 352.031C118.312 352.458 118.44 352.771 118.695 352.969C118.951 353.161 119.286 353.258 119.703 353.258C120.339 353.258 120.865 353.078 121.281 352.719C121.703 352.354 121.914 351.82 121.914 351.117V350.367ZM130.688 345.688C130.833 345.688 130.992 345.695 131.164 345.711C131.336 345.727 131.484 345.747 131.609 345.773L131.438 347.492C131.328 347.461 131.193 347.438 131.031 347.422C130.875 347.406 130.734 347.398 130.609 347.398C130.281 347.398 129.969 347.453 129.672 347.562C129.375 347.667 129.112 347.828 128.883 348.047C128.654 348.26 128.474 348.529 128.344 348.852C128.214 349.174 128.148 349.549 128.148 349.977V354.5H126.305V345.852H127.742L127.992 347.375H128.078C128.25 347.068 128.464 346.786 128.719 346.531C128.974 346.276 129.266 346.073 129.594 345.922C129.927 345.766 130.292 345.688 130.688 345.688ZM141.688 347.25H139.586V354.5H137.75V347.25H136.336V346.367L137.75 345.828V345.227C137.75 344.492 137.865 343.909 138.094 343.477C138.328 343.044 138.661 342.734 139.094 342.547C139.531 342.354 140.052 342.258 140.656 342.258C141.052 342.258 141.414 342.292 141.742 342.359C142.07 342.422 142.346 342.495 142.57 342.578L142.094 343.969C141.917 343.911 141.719 343.859 141.5 343.812C141.281 343.76 141.047 343.734 140.797 343.734C140.38 343.734 140.073 343.865 139.875 344.125C139.682 344.385 139.586 344.766 139.586 345.266V345.852H141.688V347.25ZM150.82 350.156C150.82 350.875 150.727 351.513 150.539 352.07C150.352 352.628 150.078 353.099 149.719 353.484C149.359 353.865 148.927 354.156 148.422 354.359C147.917 354.557 147.346 354.656 146.711 354.656C146.117 354.656 145.573 354.557 145.078 354.359C144.583 354.156 144.154 353.865 143.789 353.484C143.43 353.099 143.151 352.628 142.953 352.07C142.755 351.513 142.656 350.875 142.656 350.156C142.656 349.203 142.82 348.396 143.148 347.734C143.482 347.068 143.956 346.56 144.57 346.211C145.185 345.862 145.917 345.688 146.766 345.688C147.562 345.688 148.266 345.862 148.875 346.211C149.484 346.56 149.961 347.068 150.305 347.734C150.648 348.401 150.82 349.208 150.82 350.156ZM144.547 350.156C144.547 350.786 144.622 351.326 144.773 351.773C144.93 352.221 145.169 352.565 145.492 352.805C145.815 353.039 146.232 353.156 146.742 353.156C147.253 353.156 147.669 353.039 147.992 352.805C148.315 352.565 148.552 352.221 148.703 351.773C148.854 351.326 148.93 350.786 148.93 350.156C148.93 349.526 148.854 348.992 148.703 348.555C148.552 348.112 148.315 347.776 147.992 347.547C147.669 347.312 147.25 347.195 146.734 347.195C145.974 347.195 145.419 347.451 145.07 347.961C144.721 348.471 144.547 349.203 144.547 350.156ZM156.148 353.172C156.388 353.172 156.625 353.151 156.859 353.109C157.094 353.062 157.307 353.008 157.5 352.945V354.336C157.297 354.424 157.034 354.5 156.711 354.562C156.388 354.625 156.052 354.656 155.703 354.656C155.214 354.656 154.773 354.576 154.383 354.414C153.992 354.247 153.682 353.964 153.453 353.562C153.224 353.161 153.109 352.607 153.109 351.898V347.25H151.93V346.43L153.195 345.781L153.797 343.93H154.953V345.852H157.43V347.25H154.953V351.875C154.953 352.312 155.062 352.638 155.281 352.852C155.5 353.065 155.789 353.172 156.148 353.172ZM166.914 350.156C166.914 350.875 166.82 351.513 166.633 352.07C166.445 352.628 166.172 353.099 165.812 353.484C165.453 353.865 165.021 354.156 164.516 354.359C164.01 354.557 163.44 354.656 162.805 354.656C162.211 354.656 161.667 354.557 161.172 354.359C160.677 354.156 160.247 353.865 159.883 353.484C159.523 353.099 159.245 352.628 159.047 352.07C158.849 351.513 158.75 350.875 158.75 350.156C158.75 349.203 158.914 348.396 159.242 347.734C159.576 347.068 160.049 346.56 160.664 346.211C161.279 345.862 162.01 345.688 162.859 345.688C163.656 345.688 164.359 345.862 164.969 346.211C165.578 346.56 166.055 347.068 166.398 347.734C166.742 348.401 166.914 349.208 166.914 350.156ZM160.641 350.156C160.641 350.786 160.716 351.326 160.867 351.773C161.023 352.221 161.263 352.565 161.586 352.805C161.909 353.039 162.326 353.156 162.836 353.156C163.346 353.156 163.763 353.039 164.086 352.805C164.409 352.565 164.646 352.221 164.797 351.773C164.948 351.326 165.023 350.786 165.023 350.156C165.023 349.526 164.948 348.992 164.797 348.555C164.646 348.112 164.409 347.776 164.086 347.547C163.763 347.312 163.344 347.195 162.828 347.195C162.068 347.195 161.513 347.451 161.164 347.961C160.815 348.471 160.641 349.203 160.641 350.156Z" fill="white"/>
<circle cx="214" cy="543" r="122.5" fill="#14C871" stroke="#DCDFE8" stroke-width="5"/>
<path d="M258 499H240.565L230.5 488H197.5L187.435 499H170C167.083 499 164.285 500.159 162.222 502.222C160.159 504.285 159 507.083 159 510V576C159 578.917 160.159 581.715 162.222 583.778C164.285 585.841 167.083 587 170 587H258C260.917 587 263.715 585.841 265.778 583.778C267.841 581.715 269 578.917 269 576V510C269 507.083 267.841 504.285 265.778 502.222C263.715 500.159 260.917 499 258 499ZM258 576H170V510H192.275L202.34 499H225.66L235.725 510H258V576ZM214 515.5C206.707 515.5 199.712 518.397 194.555 523.555C189.397 528.712 186.5 535.707 186.5 543C186.5 550.293 189.397 557.288 194.555 562.445C199.712 567.603 206.707 570.5 214 570.5C221.293 570.5 228.288 567.603 233.445 562.445C238.603 557.288 241.5 550.293 241.5 543C241.5 535.707 238.603 528.712 233.445 523.555C228.288 518.397 221.293 515.5 214 515.5ZM214 559.5C209.624 559.5 205.427 557.762 202.333 554.667C199.238 551.573 197.5 547.376 197.5 543C197.5 538.624 199.238 534.427 202.333 531.333C205.427 528.238 209.624 526.5 214 526.5C218.376 526.5 222.573 528.238 225.667 531.333C228.762 534.427 230.5 538.624 230.5 543C230.5 547.376 228.762 551.573 225.667 554.667C222.573 557.762 218.376 559.5 214 559.5Z" fill="white"/>
<rect width="428" height="44" fill="#12B667"/>
<path d="M0 0H428V44H0V0Z" fill="black" fill-opacity="0.15"/>
<rect opacity="0.35" x="389.833" y="17.8334" width="21" height="10.3333" rx="2.16667" stroke="white"/>
<path opacity="0.4" d="M412.333 21V25C413.138 24.6612 413.662 23.8731 413.662 23C413.662 22.1269 413.138 21.3388 412.333 21Z" fill="white"/>
<rect x="391.333" y="19.3334" width="18" height="7.33333" rx="1.33333" fill="white"/>
<path fill-rule="evenodd" clip-rule="evenodd" d="M376.667 19.6152C378.892 19.6153 381.031 20.4694 382.644 22.001C382.765 22.1192 382.959 22.1177 383.079 21.9976L384.239 20.8273C384.3 20.7664 384.334 20.6839 384.333 20.598C384.333 20.5122 384.298 20.4301 384.237 20.3699C380.005 16.3176 373.329 16.3176 369.097 20.3699C369.035 20.43 369.001 20.5121 369 20.598C368.999 20.6838 369.033 20.7663 369.094 20.8273L370.255 21.9976C370.374 22.1179 370.568 22.1194 370.69 22.001C372.302 20.4693 374.442 19.6152 376.667 19.6152ZM376.667 23.4227C377.889 23.4227 379.068 23.8766 379.974 24.6964C380.097 24.8127 380.29 24.8102 380.409 24.6907L381.569 23.5204C381.63 23.459 381.663 23.3757 381.663 23.2892C381.662 23.2027 381.626 23.1201 381.564 23.0599C378.805 20.4955 374.532 20.4955 371.773 23.0599C371.71 23.1201 371.675 23.2027 371.674 23.2893C371.673 23.3758 371.707 23.4591 371.768 23.5204L372.927 24.6907C373.047 24.8102 373.24 24.8127 373.362 24.6964C374.268 23.8772 375.446 23.4233 376.667 23.4227ZM378.989 25.9846C378.991 26.0714 378.957 26.155 378.895 26.2158L376.89 28.2378C376.831 28.2972 376.751 28.3307 376.667 28.3307C376.583 28.3307 376.503 28.2972 376.445 28.2378L374.439 26.2158C374.377 26.155 374.343 26.0713 374.345 25.9845C374.347 25.8977 374.384 25.8156 374.449 25.7574C375.729 24.6751 377.605 24.6751 378.886 25.7574C378.95 25.8156 378.988 25.8978 378.989 25.9846Z" fill="white"/>
<path fill-rule="evenodd" clip-rule="evenodd" d="M363 17.6666H362C361.448 17.6666 361 18.1143 361 18.6666V27.3333C361 27.8856 361.448 28.3333 362 28.3333H363C363.552 28.3333 364 27.8856 364 27.3333V18.6666C364 18.1143 363.552 17.6666 363 17.6666ZM357.333 20H358.333C358.886 20 359.333 20.4477 359.333 21V27.3333C359.333 27.8856 358.886 28.3333 358.333 28.3333H357.333C356.781 28.3333 356.333 27.8856 356.333 27.3333V21C356.333 20.4477 356.781 20 357.333 20ZM353.667 22.3333H352.667C352.114 22.3333 351.667 22.781 351.667 23.3333V27.3333C351.667 27.8856 352.114 28.3333 352.667 28.3333H353.667C354.219 28.3333 354.667 27.8856 354.667 27.3333V23.3333C354.667 22.781 354.219 22.3333 353.667 22.3333ZM349 24.3333H348C347.448 24.3333 347 24.781 347 25.3333V27.3333C347 27.8856 347.448 28.3333 348 28.3333H349C349.552 28.3333 350 27.8856 350 27.3333V25.3333C350 24.781 349.552 24.3333 349 24.3333Z" fill="white"/>
<path d="M37.1613 17.1675C34.8688 17.1675 33.2355 18.7349 33.2355 20.8809V20.8955C33.2355 22.9023 34.6564 24.3818 36.6852 24.3818C38.1354 24.3818 39.0582 23.6421 39.4464 22.8071H39.5929C39.5929 22.8877 39.5856 22.9683 39.5856 23.0488C39.505 25.0703 38.7946 26.7109 37.1173 26.7109C36.1871 26.7109 35.5353 26.2275 35.257 25.4878L35.235 25.4146H33.3746L33.3893 25.4951C33.7262 27.1138 35.1764 28.2637 37.1173 28.2637C39.776 28.2637 41.38 26.1543 41.38 22.5947V22.5801C41.38 18.7715 39.4171 17.1675 37.1613 17.1675ZM37.1539 22.9316C35.9528 22.9316 35.0812 22.0527 35.0812 20.8296V20.8149C35.0812 19.6357 36.0114 18.7056 37.1759 18.7056C38.3478 18.7056 39.2633 19.6504 39.2633 20.8589V20.8735C39.2633 22.0674 38.3478 22.9316 37.1539 22.9316ZM44.5385 22.7046C45.2123 22.7046 45.703 22.1992 45.703 21.5547C45.703 20.9028 45.2123 20.3975 44.5385 20.3975C43.872 20.3975 43.3739 20.9028 43.3739 21.5547C43.3739 22.1992 43.872 22.7046 44.5385 22.7046ZM44.5385 28.1465C45.2123 28.1465 45.703 27.6338 45.703 26.9893C45.703 26.3374 45.2123 25.832 44.5385 25.832C43.872 25.832 43.3739 26.3374 43.3739 26.9893C43.3739 27.6338 43.872 28.1465 44.5385 28.1465ZM52.6041 28H54.4132V25.9712H55.8341V24.4111H54.4132V17.4312H51.7399C50.3043 19.6138 48.8029 22.0454 47.4332 24.4258V25.9712H52.6041V28ZM49.191 24.4551V24.3452C50.2164 22.5508 51.4396 20.5952 52.5236 18.9399H52.6334V24.4551H49.191ZM59.974 28H61.8636V17.4312H59.9813L57.2201 19.3721V21.1519L59.8495 19.2915H59.974V28Z" fill="white"/>
</svg>
