<svg width="428" height="926" viewBox="0 0 428 926" fill="none" xmlns="http://www.w3.org/2000/svg">
<rect width="428" height="926" fill="white"/>
<path d="M394.828 107L397.364 109.535L395.95 110.95L391 106L395.95 101.05L397.364 102.465L394.828 105H402C404.122 105 406.157 105.843 407.657 107.343C409.157 108.843 410 110.878 410 113C410 115.122 409.157 117.157 407.657 118.657C406.157 120.157 404.122 121 402 121H393V119H402C403.591 119 405.117 118.368 406.243 117.243C407.368 116.117 408 114.591 408 113C408 111.409 407.368 109.883 406.243 108.757C405.117 107.632 403.591 107 402 107H394.828Z" fill="#14C871"/>
<path d="M17.6953 179V157.584H22.2363V179H17.6953ZM42.3926 179H37.9248V169.435C37.9248 168.253 37.7148 167.369 37.2949 166.783C36.875 166.188 36.2061 165.89 35.2881 165.89C34.0381 165.89 33.1348 166.31 32.5781 167.149C32.0215 167.979 31.7432 169.361 31.7432 171.295V179H27.2754V162.623H30.6885L31.2891 164.718H31.5381C32.0361 163.927 32.7197 163.331 33.5889 162.931C34.4678 162.521 35.4639 162.315 36.5771 162.315C38.4814 162.315 39.9268 162.833 40.9131 163.868C41.8994 164.894 42.3926 166.378 42.3926 168.321V179ZM56.0449 165.978H52.1777V179H47.71V165.978H45.249V163.824L47.71 162.623V161.422C47.71 159.557 48.1689 158.194 49.0869 157.335C50.0049 156.476 51.4746 156.046 53.4961 156.046C55.0391 156.046 56.4111 156.275 57.6123 156.734L56.4697 160.016C55.5713 159.732 54.7412 159.591 53.9795 159.591C53.3447 159.591 52.8857 159.781 52.6025 160.162C52.3193 160.533 52.1777 161.012 52.1777 161.598V162.623H56.0449V165.978ZM62.1826 170.782C62.1826 172.403 62.4463 173.629 62.9736 174.459C63.5107 175.289 64.3799 175.704 65.5811 175.704C66.7725 175.704 67.627 175.294 68.1445 174.474C68.6719 173.644 68.9355 172.413 68.9355 170.782C68.9355 169.161 68.6719 167.945 68.1445 167.135C67.6172 166.324 66.7529 165.919 65.5518 165.919C64.3604 165.919 63.501 166.324 62.9736 167.135C62.4463 167.936 62.1826 169.151 62.1826 170.782ZM73.5059 170.782C73.5059 173.448 72.8027 175.533 71.3965 177.037C69.9902 178.541 68.0322 179.293 65.5225 179.293C63.9502 179.293 62.5635 178.951 61.3623 178.268C60.1611 177.574 59.2383 176.583 58.5938 175.294C57.9492 174.005 57.627 172.501 57.627 170.782C57.627 168.106 58.3252 166.026 59.7217 164.542C61.1182 163.058 63.0811 162.315 65.6104 162.315C67.1826 162.315 68.5693 162.657 69.7705 163.341C70.9717 164.024 71.8945 165.006 72.5391 166.285C73.1836 167.564 73.5059 169.063 73.5059 170.782ZM86.3379 162.315C86.9434 162.315 87.4463 162.359 87.8467 162.447L87.5098 166.637C87.1484 166.539 86.709 166.49 86.1914 166.49C84.7656 166.49 83.6523 166.856 82.8516 167.589C82.0605 168.321 81.665 169.347 81.665 170.665V179H77.1973V162.623H80.5811L81.2402 165.377H81.46C81.9678 164.459 82.6514 163.722 83.5107 163.165C84.3799 162.599 85.3223 162.315 86.3379 162.315ZM105.483 179H101.016V169.435C101.016 168.253 100.815 167.369 100.415 166.783C100.024 166.188 99.4043 165.89 98.5547 165.89C97.4121 165.89 96.582 166.31 96.0645 167.149C95.5469 167.989 95.2881 169.371 95.2881 171.295V179H90.8203V162.623H94.2334L94.834 164.718H95.083C95.5225 163.966 96.1572 163.38 96.9873 162.96C97.8174 162.53 98.7695 162.315 99.8438 162.315C102.295 162.315 103.955 163.116 104.824 164.718H105.22C105.659 163.956 106.304 163.365 107.153 162.945C108.013 162.525 108.979 162.315 110.054 162.315C111.909 162.315 113.311 162.794 114.258 163.751C115.215 164.698 115.693 166.222 115.693 168.321V179H111.211V169.435C111.211 168.253 111.011 167.369 110.61 166.783C110.22 166.188 109.6 165.89 108.75 165.89C107.656 165.89 106.836 166.28 106.289 167.062C105.752 167.843 105.483 169.083 105.483 170.782V179ZM127.075 165.494C126.128 165.494 125.386 165.797 124.849 166.402C124.312 166.998 124.004 167.848 123.926 168.951H130.195C130.176 167.848 129.888 166.998 129.331 166.402C128.774 165.797 128.022 165.494 127.075 165.494ZM127.705 179.293C125.068 179.293 123.008 178.565 121.523 177.11C120.039 175.655 119.297 173.595 119.297 170.929C119.297 168.185 119.98 166.065 121.348 164.571C122.725 163.067 124.624 162.315 127.046 162.315C129.36 162.315 131.162 162.975 132.451 164.293C133.74 165.611 134.385 167.433 134.385 169.757V171.925H123.823C123.872 173.194 124.248 174.186 124.951 174.898C125.654 175.611 126.641 175.968 127.91 175.968C128.896 175.968 129.829 175.865 130.708 175.66C131.587 175.455 132.505 175.128 133.462 174.679V178.136C132.681 178.526 131.846 178.814 130.957 179C130.068 179.195 128.984 179.293 127.705 179.293ZM157.236 174.137C157.236 175.816 156.65 177.096 155.479 177.975C154.316 178.854 152.573 179.293 150.249 179.293C149.058 179.293 148.042 179.21 147.202 179.044C146.362 178.888 145.576 178.653 144.844 178.341V174.649C145.674 175.04 146.606 175.367 147.642 175.631C148.687 175.895 149.604 176.026 150.396 176.026C152.017 176.026 152.827 175.558 152.827 174.62C152.827 174.269 152.72 173.985 152.505 173.771C152.29 173.546 151.919 173.297 151.392 173.023C150.864 172.74 150.161 172.413 149.282 172.042C148.022 171.515 147.095 171.026 146.499 170.577C145.913 170.128 145.483 169.615 145.21 169.039C144.946 168.453 144.814 167.735 144.814 166.886C144.814 165.431 145.376 164.308 146.499 163.517C147.632 162.716 149.233 162.315 151.304 162.315C153.276 162.315 155.195 162.745 157.061 163.604L155.713 166.827C154.893 166.476 154.126 166.188 153.413 165.963C152.7 165.738 151.973 165.626 151.23 165.626C149.912 165.626 149.253 165.982 149.253 166.695C149.253 167.096 149.463 167.442 149.883 167.735C150.312 168.028 151.245 168.463 152.681 169.039C153.96 169.557 154.897 170.04 155.493 170.489C156.089 170.938 156.528 171.456 156.812 172.042C157.095 172.628 157.236 173.326 157.236 174.137ZM167.505 165.494C166.558 165.494 165.815 165.797 165.278 166.402C164.741 166.998 164.434 167.848 164.355 168.951H170.625C170.605 167.848 170.317 166.998 169.761 166.402C169.204 165.797 168.452 165.494 167.505 165.494ZM168.135 179.293C165.498 179.293 163.438 178.565 161.953 177.11C160.469 175.655 159.727 173.595 159.727 170.929C159.727 168.185 160.41 166.065 161.777 164.571C163.154 163.067 165.054 162.315 167.476 162.315C169.79 162.315 171.592 162.975 172.881 164.293C174.17 165.611 174.814 167.433 174.814 169.757V171.925H164.253C164.302 173.194 164.678 174.186 165.381 174.898C166.084 175.611 167.07 175.968 168.34 175.968C169.326 175.968 170.259 175.865 171.138 175.66C172.017 175.455 172.935 175.128 173.892 174.679V178.136C173.11 178.526 172.275 178.814 171.387 179C170.498 179.195 169.414 179.293 168.135 179.293ZM190.049 179L189.448 176.905H189.214C188.735 177.667 188.057 178.258 187.178 178.678C186.299 179.088 185.298 179.293 184.175 179.293C182.251 179.293 180.801 178.78 179.824 177.755C178.848 176.72 178.359 175.235 178.359 173.302V162.623H182.827V172.188C182.827 173.37 183.037 174.259 183.457 174.854C183.877 175.44 184.546 175.733 185.464 175.733C186.714 175.733 187.617 175.318 188.174 174.488C188.73 173.648 189.009 172.262 189.009 170.328V162.623H193.477V179H190.049ZM215.405 161.056C213.696 161.056 212.373 161.7 211.436 162.989C210.498 164.269 210.029 166.056 210.029 168.351C210.029 173.126 211.821 175.514 215.405 175.514C216.909 175.514 218.73 175.138 220.869 174.386V178.194C219.111 178.927 217.148 179.293 214.98 179.293C211.865 179.293 209.482 178.351 207.832 176.466C206.182 174.571 205.356 171.856 205.356 168.321C205.356 166.095 205.762 164.146 206.572 162.477C207.383 160.797 208.545 159.513 210.059 158.624C211.582 157.726 213.364 157.276 215.405 157.276C217.485 157.276 219.575 157.779 221.675 158.785L220.21 162.477C219.409 162.096 218.604 161.764 217.793 161.48C216.982 161.197 216.187 161.056 215.405 161.056ZM237.773 179H225.439V157.584H237.773V161.305H229.98V166.007H237.231V169.728H229.98V175.25H237.773V179ZM246.797 167.662H248.291C249.688 167.662 250.732 167.389 251.426 166.842C252.119 166.285 252.466 165.479 252.466 164.425C252.466 163.36 252.173 162.574 251.587 162.066C251.011 161.559 250.103 161.305 248.862 161.305H246.797V167.662ZM257.051 164.264C257.051 166.568 256.328 168.331 254.883 169.552C253.447 170.772 251.401 171.383 248.745 171.383H246.797V179H242.256V157.584H249.097C251.694 157.584 253.667 158.146 255.015 159.269C256.372 160.382 257.051 162.047 257.051 164.264Z" fill="#2E3E4B"/>
<rect x="15" y="700" width="398" height="56" rx="5" fill="#14C871"/>
<path d="M186.406 723.078C187.88 723.078 188.956 723.38 189.633 723.984C190.31 724.589 190.648 725.435 190.648 726.523C190.648 727.018 190.57 727.49 190.414 727.938C190.263 728.38 190.013 728.773 189.664 729.117C189.315 729.456 188.854 729.724 188.281 729.922C187.714 730.12 187.013 730.219 186.18 730.219H184.961V734.5H183.086V723.078H186.406ZM186.281 724.633H184.961V728.656H185.984C186.573 728.656 187.073 728.589 187.484 728.453C187.896 728.312 188.208 728.091 188.422 727.789C188.635 727.487 188.742 727.089 188.742 726.594C188.742 725.932 188.542 725.44 188.141 725.117C187.745 724.794 187.125 724.633 186.281 724.633ZM197.125 725.688C197.271 725.688 197.43 725.695 197.602 725.711C197.773 725.727 197.922 725.747 198.047 725.773L197.875 727.492C197.766 727.461 197.63 727.438 197.469 727.422C197.312 727.406 197.172 727.398 197.047 727.398C196.719 727.398 196.406 727.453 196.109 727.562C195.812 727.667 195.549 727.828 195.32 728.047C195.091 728.26 194.911 728.529 194.781 728.852C194.651 729.174 194.586 729.549 194.586 729.977V734.5H192.742V725.852H194.18L194.43 727.375H194.516C194.688 727.068 194.901 726.786 195.156 726.531C195.411 726.276 195.703 726.073 196.031 725.922C196.365 725.766 196.729 725.688 197.125 725.688ZM207.305 730.156C207.305 730.875 207.211 731.513 207.023 732.07C206.836 732.628 206.562 733.099 206.203 733.484C205.844 733.865 205.411 734.156 204.906 734.359C204.401 734.557 203.831 734.656 203.195 734.656C202.602 734.656 202.057 734.557 201.562 734.359C201.068 734.156 200.638 733.865 200.273 733.484C199.914 733.099 199.635 732.628 199.438 732.07C199.24 731.513 199.141 730.875 199.141 730.156C199.141 729.203 199.305 728.396 199.633 727.734C199.966 727.068 200.44 726.56 201.055 726.211C201.669 725.862 202.401 725.688 203.25 725.688C204.047 725.688 204.75 725.862 205.359 726.211C205.969 726.56 206.445 727.068 206.789 727.734C207.133 728.401 207.305 729.208 207.305 730.156ZM201.031 730.156C201.031 730.786 201.107 731.326 201.258 731.773C201.414 732.221 201.654 732.565 201.977 732.805C202.299 733.039 202.716 733.156 203.227 733.156C203.737 733.156 204.154 733.039 204.477 732.805C204.799 732.565 205.036 732.221 205.188 731.773C205.339 731.326 205.414 730.786 205.414 730.156C205.414 729.526 205.339 728.992 205.188 728.555C205.036 728.112 204.799 727.776 204.477 727.547C204.154 727.312 203.734 727.195 203.219 727.195C202.458 727.195 201.904 727.451 201.555 727.961C201.206 728.471 201.031 729.203 201.031 730.156ZM205.898 722.242V722.398C205.773 722.549 205.604 722.732 205.391 722.945C205.177 723.154 204.945 723.375 204.695 723.609C204.445 723.839 204.198 724.06 203.953 724.273C203.708 724.482 203.487 724.659 203.289 724.805H202.062V724.602C202.234 724.404 202.424 724.167 202.633 723.891C202.846 723.615 203.055 723.331 203.258 723.039C203.466 722.747 203.641 722.482 203.781 722.242H205.898ZM211.328 730.078L208.438 725.852H210.531L212.508 728.891L214.492 725.852H216.578L213.672 730.078L216.727 734.5H214.625L212.508 731.258L210.383 734.5H208.297L211.328 730.078ZM220.062 725.852V734.5H218.227V725.852H220.062ZM219.156 722.539C219.438 722.539 219.68 722.615 219.883 722.766C220.091 722.917 220.195 723.177 220.195 723.547C220.195 723.911 220.091 724.172 219.883 724.328C219.68 724.479 219.438 724.555 219.156 724.555C218.865 724.555 218.617 724.479 218.414 724.328C218.216 724.172 218.117 723.911 218.117 723.547C218.117 723.177 218.216 722.917 218.414 722.766C218.617 722.615 218.865 722.539 219.156 722.539ZM232.469 725.688C233.438 725.688 234.167 725.938 234.656 726.438C235.151 726.938 235.398 727.74 235.398 728.844V734.5H233.562V729.172C233.562 728.516 233.435 728.021 233.18 727.688C232.924 727.354 232.536 727.188 232.016 727.188C231.286 727.188 230.76 727.422 230.438 727.891C230.12 728.354 229.961 729.029 229.961 729.914V734.5H228.125V729.172C228.125 728.734 228.068 728.37 227.953 728.078C227.844 727.781 227.674 727.56 227.445 727.414C227.216 727.263 226.927 727.188 226.578 727.188C226.073 727.188 225.669 727.302 225.367 727.531C225.07 727.76 224.857 728.099 224.727 728.547C224.596 728.99 224.531 729.534 224.531 730.18V734.5H222.695V725.852H224.125L224.383 727.016H224.484C224.661 726.714 224.88 726.466 225.141 726.273C225.406 726.076 225.701 725.93 226.023 725.836C226.346 725.737 226.682 725.688 227.031 725.688C227.677 725.688 228.221 725.802 228.664 726.031C229.107 726.255 229.438 726.599 229.656 727.062H229.797C230.068 726.594 230.445 726.247 230.93 726.023C231.414 725.799 231.927 725.688 232.469 725.688ZM245.617 730.156C245.617 730.875 245.523 731.513 245.336 732.07C245.148 732.628 244.875 733.099 244.516 733.484C244.156 733.865 243.724 734.156 243.219 734.359C242.714 734.557 242.143 734.656 241.508 734.656C240.914 734.656 240.37 734.557 239.875 734.359C239.38 734.156 238.951 733.865 238.586 733.484C238.227 733.099 237.948 732.628 237.75 732.07C237.552 731.513 237.453 730.875 237.453 730.156C237.453 729.203 237.617 728.396 237.945 727.734C238.279 727.068 238.753 726.56 239.367 726.211C239.982 725.862 240.714 725.688 241.562 725.688C242.359 725.688 243.062 725.862 243.672 726.211C244.281 726.56 244.758 727.068 245.102 727.734C245.445 728.401 245.617 729.208 245.617 730.156ZM239.344 730.156C239.344 730.786 239.419 731.326 239.57 731.773C239.727 732.221 239.966 732.565 240.289 732.805C240.612 733.039 241.029 733.156 241.539 733.156C242.049 733.156 242.466 733.039 242.789 732.805C243.112 732.565 243.349 732.221 243.5 731.773C243.651 731.326 243.727 730.786 243.727 730.156C243.727 729.526 243.651 728.992 243.5 728.555C243.349 728.112 243.112 727.776 242.789 727.547C242.466 727.312 242.047 727.195 241.531 727.195C240.771 727.195 240.216 727.451 239.867 727.961C239.518 728.471 239.344 729.203 239.344 730.156Z" fill="white"/>
<path d="M19.8457 298.201C18.9043 298.201 18.1602 298.516 17.6133 299.145C17.0703 299.77 16.7988 300.627 16.7988 301.717C16.7988 302.838 17.0605 303.705 17.584 304.318C18.1113 304.928 18.8613 305.232 19.834 305.232C20.4316 305.232 21.1133 305.125 21.8789 304.91V305.783C21.2852 306.006 20.5527 306.117 19.6816 306.117C18.4199 306.117 17.4453 305.734 16.7578 304.969C16.0742 304.203 15.7324 303.115 15.7324 301.705C15.7324 300.822 15.8965 300.049 16.2246 299.385C16.5566 298.721 17.0332 298.209 17.6543 297.85C18.2793 297.49 19.0137 297.311 19.8574 297.311C20.7559 297.311 21.541 297.475 22.2129 297.803L21.791 298.658C21.1426 298.354 20.4941 298.201 19.8457 298.201ZM28.5234 306H23.748V297.434H28.5234V298.318H24.7441V301.078H28.2949V301.957H24.7441V305.109H28.5234V306ZM35.8594 299.93C35.8594 300.797 35.5625 301.465 34.9688 301.934C34.3789 302.398 33.5332 302.631 32.4316 302.631H31.4238V306H30.4277V297.434H32.6484C34.7891 297.434 35.8594 298.266 35.8594 299.93ZM31.4238 301.775H32.3203C33.2031 301.775 33.8418 301.633 34.2363 301.348C34.6309 301.062 34.8281 300.605 34.8281 299.977C34.8281 299.41 34.6426 298.988 34.2715 298.711C33.9004 298.434 33.3223 298.295 32.5371 298.295H31.4238V301.775Z" fill="black"/>
<rect x="15" y="317" width="398" height="70" rx="5" fill="#DCDFE8"/>
<path d="M34.4531 353.281C34.4531 354.203 34.3802 355.029 34.2344 355.758C34.0938 356.482 33.8698 357.096 33.5625 357.602C33.2552 358.107 32.8542 358.492 32.3594 358.758C31.8646 359.023 31.2656 359.156 30.5625 359.156C29.6823 359.156 28.9557 358.924 28.3828 358.461C27.8099 357.992 27.3854 357.32 27.1094 356.445C26.8333 355.565 26.6953 354.51 26.6953 353.281C26.6953 352.052 26.8203 351 27.0703 350.125C27.3255 349.245 27.737 348.57 28.3047 348.102C28.8724 347.633 29.625 347.398 30.5625 347.398C31.4479 347.398 32.1771 347.633 32.75 348.102C33.3281 348.565 33.7552 349.237 34.0312 350.117C34.3125 350.992 34.4531 352.047 34.4531 353.281ZM28.5469 353.281C28.5469 354.245 28.6094 355.049 28.7344 355.695C28.8646 356.341 29.0781 356.826 29.375 357.148C29.6719 357.466 30.0677 357.625 30.5625 357.625C31.0573 357.625 31.4531 357.466 31.75 357.148C32.0469 356.831 32.2604 356.349 32.3906 355.703C32.526 355.057 32.5938 354.25 32.5938 353.281C32.5938 352.323 32.5286 351.521 32.3984 350.875C32.2682 350.229 32.0547 349.745 31.7578 349.422C31.4609 349.094 31.0625 348.93 30.5625 348.93C30.0625 348.93 29.6641 349.094 29.3672 349.422C29.0755 349.745 28.8646 350.229 28.7344 350.875C28.6094 351.521 28.5469 352.323 28.5469 353.281ZM43.6094 353.281C43.6094 354.203 43.5365 355.029 43.3906 355.758C43.25 356.482 43.026 357.096 42.7188 357.602C42.4115 358.107 42.0104 358.492 41.5156 358.758C41.0208 359.023 40.4219 359.156 39.7188 359.156C38.8385 359.156 38.112 358.924 37.5391 358.461C36.9661 357.992 36.5417 357.32 36.2656 356.445C35.9896 355.565 35.8516 354.51 35.8516 353.281C35.8516 352.052 35.9766 351 36.2266 350.125C36.4818 349.245 36.8932 348.57 37.4609 348.102C38.0286 347.633 38.7812 347.398 39.7188 347.398C40.6042 347.398 41.3333 347.633 41.9062 348.102C42.4844 348.565 42.9115 349.237 43.1875 350.117C43.4688 350.992 43.6094 352.047 43.6094 353.281ZM37.7031 353.281C37.7031 354.245 37.7656 355.049 37.8906 355.695C38.0208 356.341 38.2344 356.826 38.5312 357.148C38.8281 357.466 39.224 357.625 39.7188 357.625C40.2135 357.625 40.6094 357.466 40.9062 357.148C41.2031 356.831 41.4167 356.349 41.5469 355.703C41.6823 355.057 41.75 354.25 41.75 353.281C41.75 352.323 41.6849 351.521 41.5547 350.875C41.4245 350.229 41.2109 349.745 40.9141 349.422C40.6172 349.094 40.2188 348.93 39.7188 348.93C39.2188 348.93 38.8203 349.094 38.5234 349.422C38.2318 349.745 38.0208 350.229 37.8906 350.875C37.7656 351.521 37.7031 352.323 37.7031 353.281ZM52.7656 353.281C52.7656 354.203 52.6927 355.029 52.5469 355.758C52.4062 356.482 52.1823 357.096 51.875 357.602C51.5677 358.107 51.1667 358.492 50.6719 358.758C50.1771 359.023 49.5781 359.156 48.875 359.156C47.9948 359.156 47.2682 358.924 46.6953 358.461C46.1224 357.992 45.6979 357.32 45.4219 356.445C45.1458 355.565 45.0078 354.51 45.0078 353.281C45.0078 352.052 45.1328 351 45.3828 350.125C45.638 349.245 46.0495 348.57 46.6172 348.102C47.1849 347.633 47.9375 347.398 48.875 347.398C49.7604 347.398 50.4896 347.633 51.0625 348.102C51.6406 348.565 52.0677 349.237 52.3438 350.117C52.625 350.992 52.7656 352.047 52.7656 353.281ZM46.8594 353.281C46.8594 354.245 46.9219 355.049 47.0469 355.695C47.1771 356.341 47.3906 356.826 47.6875 357.148C47.9844 357.466 48.3802 357.625 48.875 357.625C49.3698 357.625 49.7656 357.466 50.0625 357.148C50.3594 356.831 50.5729 356.349 50.7031 355.703C50.8385 355.057 50.9062 354.25 50.9062 353.281C50.9062 352.323 50.8411 351.521 50.7109 350.875C50.5807 350.229 50.3672 349.745 50.0703 349.422C49.7734 349.094 49.375 348.93 48.875 348.93C48.375 348.93 47.9766 349.094 47.6797 349.422C47.388 349.745 47.1771 350.229 47.0469 350.875C46.9219 351.521 46.8594 352.323 46.8594 353.281ZM61.9219 353.281C61.9219 354.203 61.849 355.029 61.7031 355.758C61.5625 356.482 61.3385 357.096 61.0312 357.602C60.724 358.107 60.3229 358.492 59.8281 358.758C59.3333 359.023 58.7344 359.156 58.0312 359.156C57.151 359.156 56.4245 358.924 55.8516 358.461C55.2786 357.992 54.8542 357.32 54.5781 356.445C54.3021 355.565 54.1641 354.51 54.1641 353.281C54.1641 352.052 54.2891 351 54.5391 350.125C54.7943 349.245 55.2057 348.57 55.7734 348.102C56.3411 347.633 57.0938 347.398 58.0312 347.398C58.9167 347.398 59.6458 347.633 60.2188 348.102C60.7969 348.565 61.224 349.237 61.5 350.117C61.7812 350.992 61.9219 352.047 61.9219 353.281ZM56.0156 353.281C56.0156 354.245 56.0781 355.049 56.2031 355.695C56.3333 356.341 56.5469 356.826 56.8438 357.148C57.1406 357.466 57.5365 357.625 58.0312 357.625C58.526 357.625 58.9219 357.466 59.2188 357.148C59.5156 356.831 59.7292 356.349 59.8594 355.703C59.9948 355.057 60.0625 354.25 60.0625 353.281C60.0625 352.323 59.9974 351.521 59.8672 350.875C59.737 350.229 59.5234 349.745 59.2266 349.422C58.9297 349.094 58.5312 348.93 58.0312 348.93C57.5312 348.93 57.1328 349.094 56.8359 349.422C56.5443 349.745 56.3333 350.229 56.2031 350.875C56.0781 351.521 56.0156 352.323 56.0156 353.281ZM71.0781 353.281C71.0781 354.203 71.0052 355.029 70.8594 355.758C70.7188 356.482 70.4948 357.096 70.1875 357.602C69.8802 358.107 69.4792 358.492 68.9844 358.758C68.4896 359.023 67.8906 359.156 67.1875 359.156C66.3073 359.156 65.5807 358.924 65.0078 358.461C64.4349 357.992 64.0104 357.32 63.7344 356.445C63.4583 355.565 63.3203 354.51 63.3203 353.281C63.3203 352.052 63.4453 351 63.6953 350.125C63.9505 349.245 64.362 348.57 64.9297 348.102C65.4974 347.633 66.25 347.398 67.1875 347.398C68.0729 347.398 68.8021 347.633 69.375 348.102C69.9531 348.565 70.3802 349.237 70.6562 350.117C70.9375 350.992 71.0781 352.047 71.0781 353.281ZM65.1719 353.281C65.1719 354.245 65.2344 355.049 65.3594 355.695C65.4896 356.341 65.7031 356.826 66 357.148C66.2969 357.466 66.6927 357.625 67.1875 357.625C67.6823 357.625 68.0781 357.466 68.375 357.148C68.6719 356.831 68.8854 356.349 69.0156 355.703C69.151 355.057 69.2188 354.25 69.2188 353.281C69.2188 352.323 69.1536 351.521 69.0234 350.875C68.8932 350.229 68.6797 349.745 68.3828 349.422C68.0859 349.094 67.6875 348.93 67.1875 348.93C66.6875 348.93 66.2891 349.094 65.9922 349.422C65.7005 349.745 65.4896 350.229 65.3594 350.875C65.2344 351.521 65.1719 352.323 65.1719 353.281ZM72.3438 355.484V353.93H76.375V355.484H72.3438ZM85.3906 353.281C85.3906 354.203 85.3177 355.029 85.1719 355.758C85.0312 356.482 84.8073 357.096 84.5 357.602C84.1927 358.107 83.7917 358.492 83.2969 358.758C82.8021 359.023 82.2031 359.156 81.5 359.156C80.6198 359.156 79.8932 358.924 79.3203 358.461C78.7474 357.992 78.3229 357.32 78.0469 356.445C77.7708 355.565 77.6328 354.51 77.6328 353.281C77.6328 352.052 77.7578 351 78.0078 350.125C78.263 349.245 78.6745 348.57 79.2422 348.102C79.8099 347.633 80.5625 347.398 81.5 347.398C82.3854 347.398 83.1146 347.633 83.6875 348.102C84.2656 348.565 84.6927 349.237 84.9688 350.117C85.25 350.992 85.3906 352.047 85.3906 353.281ZM79.4844 353.281C79.4844 354.245 79.5469 355.049 79.6719 355.695C79.8021 356.341 80.0156 356.826 80.3125 357.148C80.6094 357.466 81.0052 357.625 81.5 357.625C81.9948 357.625 82.3906 357.466 82.6875 357.148C82.9844 356.831 83.1979 356.349 83.3281 355.703C83.4635 355.057 83.5312 354.25 83.5312 353.281C83.5312 352.323 83.4661 351.521 83.3359 350.875C83.2057 350.229 82.9922 349.745 82.6953 349.422C82.3984 349.094 82 348.93 81.5 348.93C81 348.93 80.6016 349.094 80.3047 349.422C80.013 349.745 79.8021 350.229 79.6719 350.875C79.5469 351.521 79.4844 352.323 79.4844 353.281ZM94.5469 353.281C94.5469 354.203 94.474 355.029 94.3281 355.758C94.1875 356.482 93.9635 357.096 93.6562 357.602C93.349 358.107 92.9479 358.492 92.4531 358.758C91.9583 359.023 91.3594 359.156 90.6562 359.156C89.776 359.156 89.0495 358.924 88.4766 358.461C87.9036 357.992 87.4792 357.32 87.2031 356.445C86.9271 355.565 86.7891 354.51 86.7891 353.281C86.7891 352.052 86.9141 351 87.1641 350.125C87.4193 349.245 87.8307 348.57 88.3984 348.102C88.9661 347.633 89.7188 347.398 90.6562 347.398C91.5417 347.398 92.2708 347.633 92.8438 348.102C93.4219 348.565 93.849 349.237 94.125 350.117C94.4062 350.992 94.5469 352.047 94.5469 353.281ZM88.6406 353.281C88.6406 354.245 88.7031 355.049 88.8281 355.695C88.9583 356.341 89.1719 356.826 89.4688 357.148C89.7656 357.466 90.1615 357.625 90.6562 357.625C91.151 357.625 91.5469 357.466 91.8438 357.148C92.1406 356.831 92.3542 356.349 92.4844 355.703C92.6198 355.057 92.6875 354.25 92.6875 353.281C92.6875 352.323 92.6224 351.521 92.4922 350.875C92.362 350.229 92.1484 349.745 91.8516 349.422C91.5547 349.094 91.1562 348.93 90.6562 348.93C90.1562 348.93 89.7578 349.094 89.4609 349.422C89.1693 349.745 88.9583 350.229 88.8281 350.875C88.7031 351.521 88.6406 352.323 88.6406 353.281ZM103.703 353.281C103.703 354.203 103.63 355.029 103.484 355.758C103.344 356.482 103.12 357.096 102.812 357.602C102.505 358.107 102.104 358.492 101.609 358.758C101.115 359.023 100.516 359.156 99.8125 359.156C98.9323 359.156 98.2057 358.924 97.6328 358.461C97.0599 357.992 96.6354 357.32 96.3594 356.445C96.0833 355.565 95.9453 354.51 95.9453 353.281C95.9453 352.052 96.0703 351 96.3203 350.125C96.5755 349.245 96.987 348.57 97.5547 348.102C98.1224 347.633 98.875 347.398 99.8125 347.398C100.698 347.398 101.427 347.633 102 348.102C102.578 348.565 103.005 349.237 103.281 350.117C103.562 350.992 103.703 352.047 103.703 353.281ZM97.7969 353.281C97.7969 354.245 97.8594 355.049 97.9844 355.695C98.1146 356.341 98.3281 356.826 98.625 357.148C98.9219 357.466 99.3177 357.625 99.8125 357.625C100.307 357.625 100.703 357.466 101 357.148C101.297 356.831 101.51 356.349 101.641 355.703C101.776 355.057 101.844 354.25 101.844 353.281C101.844 352.323 101.779 351.521 101.648 350.875C101.518 350.229 101.305 349.745 101.008 349.422C100.711 349.094 100.312 348.93 99.8125 348.93C99.3125 348.93 98.9141 349.094 98.6172 349.422C98.3255 349.745 98.1146 350.229 97.9844 350.875C97.8594 351.521 97.7969 352.323 97.7969 353.281Z" fill="#9FA6AC"/>
<path d="M18.8203 220H16.9609V208.578H23.4141V210.156H18.8203V213.719H23.1172V215.289H18.8203V220ZM28.6953 211.188C29.7891 211.188 30.6146 211.43 31.1719 211.914C31.7344 212.398 32.0156 213.154 32.0156 214.18V220H30.7109L30.3594 218.773H30.2969C30.0521 219.086 29.7995 219.344 29.5391 219.547C29.2786 219.75 28.9766 219.901 28.6328 220C28.2943 220.104 27.8802 220.156 27.3906 220.156C26.875 220.156 26.4141 220.062 26.0078 219.875C25.6016 219.682 25.2812 219.391 25.0469 219C24.8125 218.609 24.6953 218.115 24.6953 217.516C24.6953 216.625 25.026 215.956 25.6875 215.508C26.3542 215.06 27.3594 214.812 28.7031 214.766L30.2031 214.711V214.258C30.2031 213.659 30.0625 213.232 29.7812 212.977C29.5052 212.721 29.1146 212.594 28.6094 212.594C28.1771 212.594 27.7578 212.656 27.3516 212.781C26.9453 212.906 26.5495 213.06 26.1641 213.242L25.5703 211.945C25.9922 211.721 26.4714 211.539 27.0078 211.398C27.5495 211.258 28.112 211.188 28.6953 211.188ZM30.1953 215.867L29.0781 215.906C28.1615 215.938 27.5182 216.094 27.1484 216.375C26.7786 216.656 26.5938 217.042 26.5938 217.531C26.5938 217.958 26.7214 218.271 26.9766 218.469C27.2318 218.661 27.5677 218.758 27.9844 218.758C28.6198 218.758 29.1458 218.578 29.5625 218.219C29.9844 217.854 30.1953 217.32 30.1953 216.617V215.867ZM36.4297 220H34.5859V207.844H36.4297V220ZM42.2734 218.672C42.513 218.672 42.75 218.651 42.9844 218.609C43.2188 218.562 43.4323 218.508 43.625 218.445V219.836C43.4219 219.924 43.1589 220 42.8359 220.062C42.513 220.125 42.1771 220.156 41.8281 220.156C41.3385 220.156 40.8984 220.076 40.5078 219.914C40.1172 219.747 39.8073 219.464 39.5781 219.062C39.349 218.661 39.2344 218.107 39.2344 217.398V212.75H38.0547V211.93L39.3203 211.281L39.9219 209.43H41.0781V211.352H43.5547V212.75H41.0781V217.375C41.0781 217.812 41.1875 218.138 41.4062 218.352C41.625 218.565 41.9141 218.672 42.2734 218.672ZM48.7734 211.188C49.8672 211.188 50.6927 211.43 51.25 211.914C51.8125 212.398 52.0938 213.154 52.0938 214.18V220H50.7891L50.4375 218.773H50.375C50.1302 219.086 49.8776 219.344 49.6172 219.547C49.3568 219.75 49.0547 219.901 48.7109 220C48.3724 220.104 47.9583 220.156 47.4688 220.156C46.9531 220.156 46.4922 220.062 46.0859 219.875C45.6797 219.682 45.3594 219.391 45.125 219C44.8906 218.609 44.7734 218.115 44.7734 217.516C44.7734 216.625 45.1042 215.956 45.7656 215.508C46.4323 215.06 47.4375 214.812 48.7812 214.766L50.2812 214.711V214.258C50.2812 213.659 50.1406 213.232 49.8594 212.977C49.5833 212.721 49.1927 212.594 48.6875 212.594C48.2552 212.594 47.8359 212.656 47.4297 212.781C47.0234 212.906 46.6276 213.06 46.2422 213.242L45.6484 211.945C46.0703 211.721 46.5495 211.539 47.0859 211.398C47.6276 211.258 48.1901 211.188 48.7734 211.188ZM50.2734 215.867L49.1562 215.906C48.2396 215.938 47.5964 216.094 47.2266 216.375C46.8568 216.656 46.6719 217.042 46.6719 217.531C46.6719 217.958 46.7995 218.271 47.0547 218.469C47.3099 218.661 47.6458 218.758 48.0625 218.758C48.6979 218.758 49.224 218.578 49.6406 218.219C50.0625 217.854 50.2734 217.32 50.2734 216.617V215.867ZM63.2578 211.188C64.2839 211.188 65.1068 211.562 65.7266 212.312C66.3516 213.062 66.6641 214.177 66.6641 215.656C66.6641 216.635 66.5182 217.461 66.2266 218.133C65.9401 218.799 65.5365 219.305 65.0156 219.648C64.5 219.987 63.8984 220.156 63.2109 220.156C62.7734 220.156 62.3932 220.099 62.0703 219.984C61.7474 219.87 61.4714 219.721 61.2422 219.539C61.013 219.352 60.8203 219.148 60.6641 218.93H60.5547C60.5807 219.138 60.6042 219.37 60.625 219.625C60.651 219.875 60.6641 220.104 60.6641 220.312V223.836H58.8203V211.352H60.3203L60.5781 212.547H60.6641C60.8255 212.302 61.0208 212.076 61.25 211.867C61.4844 211.659 61.7656 211.495 62.0938 211.375C62.4271 211.25 62.8151 211.188 63.2578 211.188ZM62.7656 212.688C62.2604 212.688 61.8542 212.789 61.5469 212.992C61.2448 213.19 61.0234 213.49 60.8828 213.891C60.7474 214.292 60.6745 214.794 60.6641 215.398V215.656C60.6641 216.297 60.7292 216.841 60.8594 217.289C60.9948 217.732 61.2161 218.07 61.5234 218.305C61.8359 218.534 62.2578 218.648 62.7891 218.648C63.237 218.648 63.6068 218.526 63.8984 218.281C64.1953 218.036 64.4167 217.688 64.5625 217.234C64.7083 216.781 64.7812 216.247 64.7812 215.633C64.7812 214.701 64.6146 213.977 64.2812 213.461C63.9531 212.945 63.4479 212.688 62.7656 212.688ZM76.4453 215.656C76.4453 216.375 76.3516 217.013 76.1641 217.57C75.9766 218.128 75.7031 218.599 75.3438 218.984C74.9844 219.365 74.5521 219.656 74.0469 219.859C73.5417 220.057 72.9714 220.156 72.3359 220.156C71.7422 220.156 71.1979 220.057 70.7031 219.859C70.2083 219.656 69.7786 219.365 69.4141 218.984C69.0547 218.599 68.776 218.128 68.5781 217.57C68.3802 217.013 68.2812 216.375 68.2812 215.656C68.2812 214.703 68.4453 213.896 68.7734 213.234C69.1068 212.568 69.5807 212.06 70.1953 211.711C70.8099 211.362 71.5417 211.188 72.3906 211.188C73.1875 211.188 73.8906 211.362 74.5 211.711C75.1094 212.06 75.5859 212.568 75.9297 213.234C76.2734 213.901 76.4453 214.708 76.4453 215.656ZM70.1719 215.656C70.1719 216.286 70.2474 216.826 70.3984 217.273C70.5547 217.721 70.7943 218.065 71.1172 218.305C71.4401 218.539 71.8568 218.656 72.3672 218.656C72.8776 218.656 73.2943 218.539 73.6172 218.305C73.9401 218.065 74.1771 217.721 74.3281 217.273C74.4792 216.826 74.5547 216.286 74.5547 215.656C74.5547 215.026 74.4792 214.492 74.3281 214.055C74.1771 213.612 73.9401 213.276 73.6172 213.047C73.2943 212.812 72.875 212.695 72.3594 212.695C71.599 212.695 71.0443 212.951 70.6953 213.461C70.3464 213.971 70.1719 214.703 70.1719 215.656ZM86.0938 211.352V220H84.6484L84.3984 218.836H84.2969C84.1146 219.133 83.8828 219.38 83.6016 219.578C83.3203 219.771 83.0078 219.914 82.6641 220.008C82.3203 220.107 81.9583 220.156 81.5781 220.156C80.9271 220.156 80.3698 220.047 79.9062 219.828C79.4479 219.604 79.0964 219.26 78.8516 218.797C78.6068 218.333 78.4844 217.734 78.4844 217V211.352H80.3281V216.656C80.3281 217.328 80.4635 217.831 80.7344 218.164C81.0104 218.497 81.4375 218.664 82.0156 218.664C82.5729 218.664 83.0156 218.549 83.3438 218.32C83.6719 218.091 83.9036 217.753 84.0391 217.305C84.1797 216.857 84.25 216.307 84.25 215.656V211.352H86.0938ZM92.2109 220.156C91.3932 220.156 90.6849 219.997 90.0859 219.68C89.487 219.362 89.026 218.875 88.7031 218.219C88.3802 217.562 88.2188 216.729 88.2188 215.719C88.2188 214.667 88.3958 213.807 88.75 213.141C89.1042 212.474 89.5938 211.982 90.2188 211.664C90.849 211.346 91.5703 211.188 92.3828 211.188C92.8984 211.188 93.3646 211.24 93.7812 211.344C94.2031 211.443 94.5599 211.565 94.8516 211.711L94.3047 213.18C93.987 213.049 93.6615 212.94 93.3281 212.852C92.9948 212.763 92.6745 212.719 92.3672 212.719C91.862 212.719 91.4401 212.831 91.1016 213.055C90.7682 213.279 90.5182 213.612 90.3516 214.055C90.1901 214.497 90.1094 215.047 90.1094 215.703C90.1094 216.339 90.1927 216.875 90.3594 217.312C90.526 217.745 90.7734 218.073 91.1016 218.297C91.4297 218.516 91.8333 218.625 92.3125 218.625C92.7865 218.625 93.2109 218.568 93.5859 218.453C93.9609 218.339 94.3151 218.19 94.6484 218.008V219.602C94.3203 219.789 93.9688 219.927 93.5938 220.016C93.2188 220.109 92.7578 220.156 92.2109 220.156ZM104.336 215.656C104.336 216.375 104.242 217.013 104.055 217.57C103.867 218.128 103.594 218.599 103.234 218.984C102.875 219.365 102.443 219.656 101.938 219.859C101.432 220.057 100.862 220.156 100.227 220.156C99.6328 220.156 99.0885 220.057 98.5938 219.859C98.099 219.656 97.6693 219.365 97.3047 218.984C96.9453 218.599 96.6667 218.128 96.4688 217.57C96.2708 217.013 96.1719 216.375 96.1719 215.656C96.1719 214.703 96.3359 213.896 96.6641 213.234C96.9974 212.568 97.4714 212.06 98.0859 211.711C98.7005 211.362 99.4323 211.188 100.281 211.188C101.078 211.188 101.781 211.362 102.391 211.711C103 212.06 103.477 212.568 103.82 213.234C104.164 213.901 104.336 214.708 104.336 215.656ZM98.0625 215.656C98.0625 216.286 98.138 216.826 98.2891 217.273C98.4453 217.721 98.6849 218.065 99.0078 218.305C99.3307 218.539 99.7474 218.656 100.258 218.656C100.768 218.656 101.185 218.539 101.508 218.305C101.831 218.065 102.068 217.721 102.219 217.273C102.37 216.826 102.445 216.286 102.445 215.656C102.445 215.026 102.37 214.492 102.219 214.055C102.068 213.612 101.831 213.276 101.508 213.047C101.185 212.812 100.766 212.695 100.25 212.695C99.4896 212.695 98.9349 212.951 98.5859 213.461C98.237 213.971 98.0625 214.703 98.0625 215.656ZM108.031 216.516H106.648L106.273 208.578H108.406L108.031 216.516ZM106.18 219.031C106.18 218.604 106.289 218.305 106.508 218.133C106.732 217.956 107.005 217.867 107.328 217.867C107.646 217.867 107.917 217.956 108.141 218.133C108.365 218.305 108.477 218.604 108.477 219.031C108.477 219.448 108.365 219.75 108.141 219.938C107.917 220.12 107.646 220.211 107.328 220.211C107.005 220.211 106.732 220.12 106.508 219.938C106.289 219.75 106.18 219.448 106.18 219.031Z" fill="black"/>
<rect width="428" height="44" fill="#12B667"/>
<path d="M0 0H428V44H0V0Z" fill="black" fill-opacity="0.15"/>
<rect opacity="0.35" x="389.833" y="17.8334" width="21" height="10.3333" rx="2.16667" stroke="white"/>
<path opacity="0.4" d="M412.333 21V25C413.138 24.6612 413.661 23.8731 413.661 23C413.661 22.1269 413.138 21.3388 412.333 21Z" fill="white"/>
<rect x="391.333" y="19.3334" width="18" height="7.33333" rx="1.33333" fill="white"/>
<path fill-rule="evenodd" clip-rule="evenodd" d="M376.667 19.6152C378.892 19.6153 381.031 20.4694 382.644 22.001C382.765 22.1192 382.959 22.1177 383.079 21.9976L384.239 20.8273C384.3 20.7664 384.334 20.6839 384.333 20.598C384.333 20.5122 384.298 20.4301 384.237 20.3699C380.005 16.3176 373.329 16.3176 369.097 20.3699C369.035 20.43 369.001 20.5121 369 20.598C368.999 20.6838 369.033 20.7663 369.094 20.8273L370.255 21.9976C370.374 22.1179 370.568 22.1194 370.69 22.001C372.302 20.4693 374.442 19.6152 376.667 19.6152ZM376.667 23.4227C377.889 23.4227 379.068 23.8766 379.974 24.6964C380.097 24.8127 380.29 24.8102 380.409 24.6907L381.569 23.5204C381.63 23.459 381.663 23.3757 381.663 23.2892C381.662 23.2027 381.626 23.1201 381.564 23.0599C378.805 20.4955 374.532 20.4955 371.773 23.0599C371.71 23.1201 371.675 23.2027 371.674 23.2893C371.673 23.3758 371.707 23.4591 371.768 23.5204L372.927 24.6907C373.047 24.8102 373.24 24.8127 373.362 24.6964C374.268 23.8772 375.446 23.4233 376.667 23.4227ZM378.989 25.9846C378.991 26.0714 378.957 26.155 378.895 26.2158L376.89 28.2378C376.831 28.2972 376.751 28.3307 376.667 28.3307C376.583 28.3307 376.503 28.2972 376.445 28.2378L374.439 26.2158C374.377 26.155 374.343 26.0713 374.345 25.9845C374.347 25.8977 374.384 25.8156 374.449 25.7574C375.729 24.6751 377.605 24.6751 378.886 25.7574C378.95 25.8156 378.988 25.8978 378.989 25.9846Z" fill="white"/>
<path fill-rule="evenodd" clip-rule="evenodd" d="M363 17.6666H362C361.448 17.6666 361 18.1143 361 18.6666V27.3333C361 27.8856 361.448 28.3333 362 28.3333H363C363.552 28.3333 364 27.8856 364 27.3333V18.6666C364 18.1143 363.552 17.6666 363 17.6666ZM357.333 20H358.333C358.886 20 359.333 20.4477 359.333 21V27.3333C359.333 27.8856 358.886 28.3333 358.333 28.3333H357.333C356.781 28.3333 356.333 27.8856 356.333 27.3333V21C356.333 20.4477 356.781 20 357.333 20ZM353.667 22.3333H352.667C352.114 22.3333 351.667 22.781 351.667 23.3333V27.3333C351.667 27.8856 352.114 28.3333 352.667 28.3333H353.667C354.219 28.3333 354.667 27.8856 354.667 27.3333V23.3333C354.667 22.781 354.219 22.3333 353.667 22.3333ZM349 24.3333H348C347.448 24.3333 347 24.781 347 25.3333V27.3333C347 27.8856 347.448 28.3333 348 28.3333H349C349.552 28.3333 350 27.8856 350 27.3333V25.3333C350 24.781 349.552 24.3333 349 24.3333Z" fill="white"/>
<path d="M37.1613 17.1675C34.8688 17.1675 33.2355 18.7349 33.2355 20.8809V20.8955C33.2355 22.9023 34.6564 24.3818 36.6852 24.3818C38.1354 24.3818 39.0582 23.6421 39.4464 22.8071H39.5929C39.5929 22.8877 39.5856 22.9683 39.5856 23.0488C39.505 25.0703 38.7946 26.7109 37.1173 26.7109C36.1871 26.7109 35.5353 26.2275 35.257 25.4878L35.235 25.4146H33.3746L33.3893 25.4951C33.7262 27.1138 35.1764 28.2637 37.1173 28.2637C39.776 28.2637 41.38 26.1543 41.38 22.5947V22.5801C41.38 18.7715 39.4171 17.1675 37.1613 17.1675ZM37.1539 22.9316C35.9528 22.9316 35.0812 22.0527 35.0812 20.8296V20.8149C35.0812 19.6357 36.0114 18.7056 37.1759 18.7056C38.3478 18.7056 39.2633 19.6504 39.2633 20.8589V20.8735C39.2633 22.0674 38.3478 22.9316 37.1539 22.9316ZM44.5385 22.7046C45.2123 22.7046 45.703 22.1992 45.703 21.5547C45.703 20.9028 45.2123 20.3975 44.5385 20.3975C43.872 20.3975 43.3739 20.9028 43.3739 21.5547C43.3739 22.1992 43.872 22.7046 44.5385 22.7046ZM44.5385 28.1465C45.2123 28.1465 45.703 27.6338 45.703 26.9893C45.703 26.3374 45.2123 25.832 44.5385 25.832C43.872 25.832 43.3739 26.3374 43.3739 26.9893C43.3739 27.6338 43.872 28.1465 44.5385 28.1465ZM52.6041 28H54.4132V25.9712H55.8341V24.4111H54.4132V17.4312H51.7399C50.3043 19.6138 48.8029 22.0454 47.4332 24.4258V25.9712H52.6041V28ZM49.191 24.4551V24.3452C50.2164 22.5508 51.4396 20.5952 52.5236 18.9399H52.6334V24.4551H49.191ZM59.974 28H61.8636V17.4312H59.9813L57.2201 19.3721V21.1519L59.8495 19.2915H59.974V28Z" fill="white"/>
</svg>
