<svg width="428" height="926" viewBox="0 0 428 926" fill="none" xmlns="http://www.w3.org/2000/svg">
<rect width="428" height="926" fill="#14C871"/>
<path d="M110.387 468.939V460.204H132.949V480.857C130.756 482.978 127.573 484.853 123.401 486.479C119.251 488.083 115.043 488.884 110.776 488.884C105.354 488.884 100.627 487.752 96.5952 485.489C92.5638 483.202 89.5343 479.949 87.5068 475.729C85.4794 471.485 84.4656 466.876 84.4656 461.902C84.4656 456.503 85.5972 451.705 87.8605 447.509C90.1237 443.313 93.4361 440.095 97.7976 437.855C101.122 436.134 105.259 435.273 110.21 435.273C116.646 435.273 121.668 436.629 125.275 439.34C128.905 442.028 131.239 445.753 132.277 450.515L121.88 452.46C121.149 449.914 119.77 447.91 117.742 446.448C115.739 444.963 113.228 444.22 110.21 444.22C105.636 444.22 101.994 445.67 99.2828 448.57C96.5952 451.47 95.2514 455.772 95.2514 461.478C95.2514 467.631 96.6188 472.252 99.3536 475.34C102.088 478.405 105.672 479.937 110.104 479.937C112.297 479.937 114.489 479.513 116.682 478.664C118.898 477.792 120.796 476.743 122.375 475.517V468.939H110.387ZM264.76 488H255.531V482.483C253.998 484.629 252.183 486.232 250.085 487.293C248.01 488.33 245.912 488.849 243.79 488.849C239.476 488.849 235.774 487.116 232.686 483.65C229.621 480.161 228.089 475.305 228.089 469.081C228.089 462.715 229.586 457.882 232.58 454.582C235.574 451.258 239.358 449.595 243.931 449.595C248.128 449.595 251.759 451.34 254.823 454.829V436.157H264.76V488ZM238.238 468.409C238.238 472.417 238.792 475.316 239.9 477.108C241.503 479.701 243.743 480.998 246.619 480.998C248.906 480.998 250.851 480.031 252.454 478.098C254.057 476.142 254.859 473.23 254.859 469.364C254.859 465.049 254.081 461.949 252.525 460.063C250.969 458.153 248.977 457.199 246.548 457.199C244.191 457.199 242.21 458.142 240.607 460.028C239.028 461.89 238.238 464.684 238.238 468.409ZM279.845 461.902L270.827 460.275C271.841 456.645 273.586 453.957 276.061 452.212C278.537 450.468 282.214 449.595 287.095 449.595C291.527 449.595 294.827 450.126 296.996 451.187C299.165 452.224 300.686 453.556 301.558 455.183C302.454 456.786 302.902 459.745 302.902 464.059L302.796 475.658C302.796 478.959 302.949 481.399 303.256 482.978C303.586 484.534 304.187 486.208 305.059 488H295.228C294.969 487.34 294.65 486.362 294.273 485.065C294.108 484.475 293.99 484.086 293.92 483.898C292.222 485.548 290.407 486.786 288.474 487.611C286.54 488.436 284.478 488.849 282.285 488.849C278.419 488.849 275.366 487.8 273.126 485.701C270.91 483.603 269.802 480.951 269.802 477.745C269.802 475.623 270.309 473.737 271.322 472.087C272.336 470.413 273.751 469.14 275.566 468.267C277.405 467.371 280.045 466.593 283.487 465.933C288.132 465.061 291.35 464.248 293.142 463.493V462.503C293.142 460.593 292.67 459.238 291.727 458.436C290.784 457.611 289.004 457.199 286.387 457.199C284.619 457.199 283.24 457.552 282.25 458.259C281.26 458.943 280.458 460.157 279.845 461.902ZM293.142 469.965C291.869 470.389 289.853 470.896 287.095 471.485C284.336 472.075 282.533 472.652 281.684 473.218C280.387 474.138 279.739 475.305 279.739 476.719C279.739 478.11 280.258 479.312 281.295 480.326C282.332 481.34 283.652 481.847 285.256 481.847C287.047 481.847 288.757 481.257 290.383 480.079C291.586 479.183 292.375 478.086 292.753 476.79C293.012 475.941 293.142 474.326 293.142 471.945V469.965ZM305.857 450.444H316.431L325.413 477.108L334.183 450.444H344.474L331.212 486.585L328.843 493.128C327.971 495.32 327.134 496.994 326.332 498.149C325.554 499.304 324.647 500.236 323.609 500.943C322.596 501.674 321.334 502.24 319.825 502.64C318.34 503.041 316.654 503.242 314.768 503.242C312.859 503.242 310.985 503.041 309.146 502.64L308.262 494.86C309.818 495.167 311.22 495.32 312.47 495.32C314.78 495.32 316.489 494.637 317.597 493.269C318.706 491.925 319.554 490.204 320.144 488.106L305.857 450.444Z" fill="white"/>
<path d="M135.783 467.896L135.795 468.413L135.802 468.41C136.131 475.648 139.49 481.278 144.47 484.548C149.564 487.893 156.324 488.749 163.203 486.376C169.872 484.076 175.273 478.631 180.22 473.643C180.288 473.574 180.356 473.506 180.424 473.437C180.439 473.422 180.453 473.409 180.464 473.398C180.473 473.406 180.482 473.415 180.492 473.425L180.737 473.183L180.492 473.425C184.905 477.918 188.669 481.604 193.036 484.279C210.457 494.95 230.811 478.842 223.722 459.383C221.601 453.56 217.449 449.686 211.493 447.93L211.396 448.261L211.493 447.93C204.426 445.847 198.368 447.488 193.231 450.509C188.391 453.354 184.35 457.435 181.035 460.783C180.841 460.978 180.65 461.171 180.461 461.362C176.086 456.921 171.98 452.815 167.133 450.038L166.961 450.337L167.133 450.038C152.321 441.554 135.421 452.412 135.783 467.896ZM144.966 467.582C144.943 459.228 153.364 452.968 162.345 457.248C164.679 458.36 166.783 460.002 168.794 461.829C169.799 462.741 170.777 463.696 171.749 464.652C171.856 464.757 171.964 464.863 172.071 464.968C172.906 465.791 173.739 466.61 174.576 467.393C174.522 467.449 174.468 467.504 174.413 467.56C172.26 469.774 169.944 472.155 167.427 474.165C164.807 476.257 161.992 477.927 158.952 478.584C155.43 479.345 152.042 478.721 149.486 476.858C146.936 475 145.18 471.883 144.966 467.582ZM186.347 467.368C186.414 467.298 186.482 467.228 186.55 467.158C188.632 465.019 190.898 462.69 193.362 460.704C195.94 458.625 198.711 456.941 201.679 456.245C205.455 455.36 208.955 456.053 211.54 457.978C214.12 459.899 215.822 463.074 215.958 467.226C215.969 472.971 211.91 477.811 206.35 478.747C202.178 479.45 198.53 477.881 195.226 475.473C192.871 473.758 190.728 471.646 188.707 469.655C187.903 468.863 187.118 468.089 186.347 467.368Z" fill="white" stroke="white" stroke-width="0.689024"/>
<rect width="428" height="44" fill="#12B667"/>
<path d="M0 0H428V44H0V0Z" fill="black" fill-opacity="0.15"/>
<rect opacity="0.35" x="389.833" y="17.8333" width="21" height="10.3333" rx="2.16667" stroke="white"/>
<path opacity="0.4" d="M412.333 21V25C413.138 24.6612 413.661 23.8731 413.661 23C413.661 22.1269 413.138 21.3388 412.333 21Z" fill="white"/>
<rect x="391.333" y="19.3333" width="18" height="7.33333" rx="1.33333" fill="white"/>
<path fill-rule="evenodd" clip-rule="evenodd" d="M376.667 19.615C378.892 19.6151 381.031 20.4693 382.644 22.0008C382.765 22.1191 382.959 22.1176 383.079 21.9975L384.239 20.8272C384.3 20.7663 384.334 20.6837 384.333 20.5979C384.333 20.5121 384.298 20.4299 384.237 20.3697C380.005 16.3175 373.329 16.3175 369.097 20.3697C369.035 20.4299 369.001 20.512 369 20.5978C368.999 20.6837 369.033 20.7662 369.094 20.8272L370.255 21.9975C370.374 22.1178 370.568 22.1193 370.69 22.0008C372.302 20.4692 374.442 19.615 376.667 19.615ZM376.667 23.4226C377.889 23.4226 379.068 23.8765 379.974 24.6963C380.097 24.8126 380.29 24.8101 380.409 24.6906L381.569 23.5203C381.63 23.4589 381.663 23.3756 381.663 23.2891C381.662 23.2025 381.626 23.12 381.564 23.0598C378.805 20.4954 374.532 20.4954 371.773 23.0598C371.71 23.12 371.675 23.2026 371.674 23.2891C371.673 23.3757 371.707 23.459 371.768 23.5203L372.927 24.6906C373.047 24.8101 373.24 24.8126 373.362 24.6963C374.268 23.877 375.446 23.4231 376.667 23.4226ZM378.989 25.9845C378.991 26.0712 378.957 26.1549 378.895 26.2157L376.89 28.2377C376.831 28.2971 376.751 28.3306 376.667 28.3306C376.583 28.3306 376.503 28.2971 376.445 28.2377L374.439 26.2157C374.377 26.1549 374.343 26.0712 374.345 25.9844C374.347 25.8976 374.384 25.8154 374.449 25.7573C375.729 24.675 377.605 24.675 378.886 25.7573C378.95 25.8155 378.988 25.8977 378.989 25.9845Z" fill="white"/>
<path fill-rule="evenodd" clip-rule="evenodd" d="M363 17.6667H362C361.448 17.6667 361 18.1145 361 18.6667V27.3334C361 27.8857 361.448 28.3334 362 28.3334H363C363.552 28.3334 364 27.8857 364 27.3334V18.6667C364 18.1145 363.552 17.6667 363 17.6667ZM357.333 20.0001H358.333C358.886 20.0001 359.333 20.4478 359.333 21.0001V27.3334C359.333 27.8857 358.886 28.3334 358.333 28.3334H357.333C356.781 28.3334 356.333 27.8857 356.333 27.3334V21.0001C356.333 20.4478 356.781 20.0001 357.333 20.0001ZM353.667 22.3334H352.667C352.114 22.3334 351.667 22.7811 351.667 23.3334V27.3334C351.667 27.8857 352.114 28.3334 352.667 28.3334H353.667C354.219 28.3334 354.667 27.8857 354.667 27.3334V23.3334C354.667 22.7811 354.219 22.3334 353.667 22.3334ZM349 24.3334H348C347.448 24.3334 347 24.7811 347 25.3334V27.3334C347 27.8857 347.448 28.3334 348 28.3334H349C349.552 28.3334 350 27.8857 350 27.3334V25.3334C350 24.7811 349.552 24.3334 349 24.3334Z" fill="white"/>
<path d="M37.1613 17.1675C34.8688 17.1675 33.2355 18.7349 33.2355 20.8809V20.8955C33.2355 22.9023 34.6564 24.3818 36.6852 24.3818C38.1354 24.3818 39.0582 23.6421 39.4464 22.8071H39.5929C39.5929 22.8877 39.5856 22.9683 39.5856 23.0488C39.505 25.0703 38.7946 26.7109 37.1173 26.7109C36.1871 26.7109 35.5353 26.2275 35.257 25.4878L35.235 25.4146H33.3746L33.3893 25.4951C33.7262 27.1138 35.1764 28.2637 37.1173 28.2637C39.776 28.2637 41.38 26.1543 41.38 22.5947V22.5801C41.38 18.7715 39.4171 17.1675 37.1613 17.1675ZM37.1539 22.9316C35.9528 22.9316 35.0812 22.0527 35.0812 20.8296V20.8149C35.0812 19.6357 36.0114 18.7056 37.1759 18.7056C38.3478 18.7056 39.2633 19.6504 39.2633 20.8589V20.8735C39.2633 22.0674 38.3478 22.9316 37.1539 22.9316ZM44.5385 22.7046C45.2123 22.7046 45.703 22.1992 45.703 21.5547C45.703 20.9028 45.2123 20.3975 44.5385 20.3975C43.872 20.3975 43.3739 20.9028 43.3739 21.5547C43.3739 22.1992 43.872 22.7046 44.5385 22.7046ZM44.5385 28.1465C45.2123 28.1465 45.703 27.6338 45.703 26.9893C45.703 26.3374 45.2123 25.832 44.5385 25.832C43.872 25.832 43.3739 26.3374 43.3739 26.9893C43.3739 27.6338 43.872 28.1465 44.5385 28.1465ZM52.6041 28H54.4132V25.9712H55.8341V24.4111H54.4132V17.4312H51.7399C50.3043 19.6138 48.8029 22.0454 47.4332 24.4258V25.9712H52.6041V28ZM49.191 24.4551V24.3452C50.2164 22.5508 51.4396 20.5952 52.5236 18.9399H52.6334V24.4551H49.191ZM59.974 28H61.8636V17.4312H59.9813L57.2201 19.3721V21.1519L59.8495 19.2915H59.974V28Z" fill="white"/>
</svg>
