<svg width="2070" height="125" viewBox="0 0 2070 125" fill="none" xmlns="http://www.w3.org/2000/svg">
<rect width="2070" height="125" rx="10" fill="#14C871"/>
<path d="M916.249 64.5361C916.249 72.762 913.902 79.0625 909.208 83.4375C904.537 87.8125 897.781 90 888.939 90H874.789V40.0293H890.478C898.635 40.0293 904.97 42.1826 909.481 46.4893C913.993 50.7959 916.249 56.8115 916.249 64.5361ZM905.243 64.8096C905.243 54.0771 900.504 48.7109 891.024 48.7109H885.385V81.25H889.931C900.139 81.25 905.243 75.7699 905.243 64.8096ZM941.61 58.4863C939.4 58.4863 937.668 59.1927 936.415 60.6055C935.162 61.9954 934.444 63.9779 934.262 66.5527H948.891C948.845 63.9779 948.173 61.9954 946.874 60.6055C945.575 59.1927 943.821 58.4863 941.61 58.4863ZM943.08 90.6836C936.928 90.6836 932.12 88.986 928.656 85.5908C925.193 82.1956 923.461 77.3877 923.461 71.167C923.461 64.764 925.056 59.8193 928.246 56.333C931.459 52.8239 935.891 51.0693 941.542 51.0693C946.942 51.0693 951.146 52.6074 954.154 55.6836C957.162 58.7598 958.666 63.0094 958.666 68.4326V73.4912H934.022C934.136 76.4535 935.014 78.7663 936.654 80.4297C938.295 82.0931 940.596 82.9248 943.559 82.9248C945.86 82.9248 948.036 82.6855 950.087 82.207C952.138 81.7285 954.28 80.9652 956.513 79.917V87.9834C954.69 88.8949 952.742 89.5671 950.668 90C948.594 90.4557 946.065 90.6836 943.08 90.6836ZM993.803 78.6523C993.803 82.5716 992.436 85.5566 989.701 87.6074C986.99 89.6582 982.922 90.6836 977.499 90.6836C974.719 90.6836 972.349 90.4899 970.39 90.1025C968.43 89.738 966.596 89.1911 964.887 88.4619V79.8486C966.824 80.7601 969 81.5234 971.415 82.1387C973.853 82.7539 975.995 83.0615 977.841 83.0615C981.623 83.0615 983.515 81.9678 983.515 79.7803C983.515 78.96 983.264 78.2992 982.763 77.7979C982.261 77.2738 981.396 76.6927 980.165 76.0547C978.935 75.3939 977.294 74.6305 975.243 73.7646C972.304 72.5342 970.139 71.3949 968.749 70.3467C967.382 69.2985 966.379 68.1022 965.741 66.7578C965.126 65.3906 964.818 63.7158 964.818 61.7334C964.818 58.3382 966.129 55.7178 968.749 53.8721C971.392 52.0036 975.129 51.0693 979.96 51.0693C984.563 51.0693 989.04 52.0719 993.393 54.0771L990.248 61.5967C988.334 60.7764 986.545 60.1042 984.882 59.5801C983.218 59.056 981.521 58.7939 979.789 58.7939C976.713 58.7939 975.175 59.6257 975.175 61.2891C975.175 62.2233 975.665 63.0322 976.645 63.7158C977.647 64.3994 979.823 65.4134 983.173 66.7578C986.158 67.9655 988.345 69.0934 989.735 70.1416C991.125 71.1898 992.151 72.3975 992.812 73.7646C993.472 75.1318 993.803 76.7611 993.803 78.6523ZM1018.04 82.3779C1019.86 82.3779 1022.05 81.9792 1024.6 81.1816V88.9404C1022 90.1025 1018.81 90.6836 1015.03 90.6836C1010.86 90.6836 1007.82 89.6354 1005.9 87.5391C1004.01 85.4199 1003.07 82.2526 1003.07 78.0371V59.6143H998.075V55.2051L1003.82 51.7188L1006.83 43.6523H1013.49V51.7871H1024.19V59.6143H1013.49V78.0371C1013.49 79.5182 1013.9 80.612 1014.72 81.3184C1015.56 82.0247 1016.67 82.3779 1018.04 82.3779ZM1056.62 90L1054.61 84.8047H1054.33C1052.58 87.015 1050.77 88.5531 1048.9 89.4189C1047.05 90.262 1044.64 90.6836 1041.65 90.6836C1037.99 90.6836 1035.09 89.6354 1032.97 87.5391C1030.88 85.4427 1029.83 82.4577 1029.83 78.584C1029.83 74.528 1031.24 71.543 1034.07 69.6289C1036.91 67.6921 1041.2 66.6211 1046.92 66.416L1053.55 66.2109V64.5361C1053.55 60.6624 1051.57 58.7256 1047.6 58.7256C1044.55 58.7256 1040.96 59.6484 1036.83 61.4941L1033.38 54.4531C1037.78 52.1517 1042.66 51.001 1048.01 51.001C1053.14 51.001 1057.07 52.1175 1059.8 54.3506C1062.54 56.5837 1063.91 59.9788 1063.91 64.5361V90H1056.62ZM1053.55 72.2949L1049.52 72.4316C1046.49 72.5228 1044.23 73.0697 1042.75 74.0723C1041.27 75.0749 1040.53 76.6016 1040.53 78.6523C1040.53 81.5918 1042.21 83.0615 1045.58 83.0615C1048 83.0615 1049.93 82.3665 1051.36 80.9766C1052.82 79.5866 1053.55 77.7409 1053.55 75.4395V72.2949ZM1090.5 82.5146C1093.14 82.5146 1095.08 81.7627 1096.31 80.2588C1097.54 78.7321 1098.21 76.0775 1098.32 72.2949V71.0303C1098.32 66.9287 1097.69 63.9893 1096.41 62.2119C1095.16 60.4346 1093.13 59.5459 1090.33 59.5459C1085.43 59.5459 1082.98 63.3968 1082.98 71.0986C1082.98 74.9268 1083.58 77.7865 1084.79 79.6777C1086.02 81.569 1087.92 82.5146 1090.5 82.5146ZM1086.77 90.6836C1082.26 90.6836 1078.73 88.9518 1076.18 85.4883C1073.62 82.002 1072.35 77.1598 1072.35 70.9619C1072.35 64.7184 1073.65 59.8421 1076.24 56.333C1078.86 52.8239 1082.44 51.0693 1086.98 51.0693C1089.39 51.0693 1091.5 51.5251 1093.3 52.4365C1095.1 53.348 1096.68 54.7607 1098.05 56.6748H1098.32L1099.25 51.7871H1108.07V106.816H1097.61V90.7861C1097.61 89.3962 1097.75 87.4821 1098.05 85.0439H1097.61C1096.49 86.8896 1095.01 88.291 1093.16 89.248C1091.32 90.2051 1089.19 90.6836 1086.77 90.6836ZM1146.04 90L1144.64 85.1123H1144.09C1142.97 86.8896 1141.39 88.2682 1139.34 89.248C1137.29 90.2051 1134.95 90.6836 1132.33 90.6836C1127.84 90.6836 1124.46 89.4873 1122.18 87.0947C1119.9 84.6794 1118.76 81.2158 1118.76 76.7041V51.7871H1129.19V74.1064C1129.19 76.8636 1129.68 78.9372 1130.66 80.3271C1131.64 81.6943 1133.2 82.3779 1135.34 82.3779C1138.26 82.3779 1140.37 81.4095 1141.66 79.4727C1142.96 77.513 1143.61 74.2773 1143.61 69.7656V51.7871H1154.04V90H1146.04ZM1180.8 58.4863C1178.59 58.4863 1176.86 59.1927 1175.6 60.6055C1174.35 61.9954 1173.63 63.9779 1173.45 66.5527H1188.08C1188.03 63.9779 1187.36 61.9954 1186.06 60.6055C1184.76 59.1927 1183.01 58.4863 1180.8 58.4863ZM1182.27 90.6836C1176.12 90.6836 1171.31 88.986 1167.85 85.5908C1164.38 82.1956 1162.65 77.3877 1162.65 71.167C1162.65 64.764 1164.25 59.8193 1167.44 56.333C1170.65 52.8239 1175.08 51.0693 1180.73 51.0693C1186.13 51.0693 1190.34 52.6074 1193.34 55.6836C1196.35 58.7598 1197.86 63.0094 1197.86 68.4326V73.4912H1173.21C1173.33 76.4535 1174.2 78.7663 1175.84 80.4297C1177.48 82.0931 1179.79 82.9248 1182.75 82.9248C1185.05 82.9248 1187.23 82.6855 1189.28 82.207C1191.33 81.7285 1193.47 80.9652 1195.7 79.917V87.9834C1193.88 88.8949 1191.93 89.5671 1189.86 90C1187.78 90.4557 1185.25 90.6836 1182.27 90.6836Z" fill="white"/>
</svg>
