<svg width="444" height="125" viewBox="0 0 444 125" fill="none" xmlns="http://www.w3.org/2000/svg">
<rect width="444" height="125" rx="10" fill="#14C871"/>
<path d="M55.1201 90H41.6533L19.915 52.1973H19.6074C20.0404 58.8737 20.2568 63.6361 20.2568 66.4844V90H10.7891V40.0293H24.1533L45.8574 77.4561H46.0967C45.7549 70.9619 45.584 66.3704 45.584 63.6816V40.0293H55.1201V90ZM75.2178 70.8252C75.2178 74.6077 75.833 77.4674 77.0635 79.4043C78.3167 81.3411 80.3447 82.3096 83.1475 82.3096C85.9274 82.3096 87.9212 81.3525 89.1289 79.4385C90.3594 77.5016 90.9746 74.6305 90.9746 70.8252C90.9746 67.0426 90.3594 64.2057 89.1289 62.3145C87.8984 60.4232 85.8818 59.4775 83.0791 59.4775C80.2992 59.4775 78.2939 60.4232 77.0635 62.3145C75.833 64.1829 75.2178 67.0199 75.2178 70.8252ZM101.639 70.8252C101.639 77.0459 99.998 81.9108 96.7168 85.4199C93.4355 88.929 88.8669 90.6836 83.0107 90.6836C79.3421 90.6836 76.1064 89.8861 73.3037 88.291C70.501 86.6732 68.3477 84.3604 66.8438 81.3525C65.3398 78.3447 64.5879 74.8356 64.5879 70.8252C64.5879 64.5817 66.2171 59.7282 69.4756 56.2646C72.734 52.8011 77.3141 51.0693 83.2158 51.0693C86.8844 51.0693 90.1201 51.8669 92.9229 53.4619C95.7256 55.057 97.8789 57.347 99.3828 60.332C100.887 63.3171 101.639 66.8148 101.639 70.8252ZM126.351 82.3779C128.174 82.3779 130.361 81.9792 132.913 81.1816V88.9404C130.315 90.1025 127.125 90.6836 123.343 90.6836C119.173 90.6836 116.131 89.6354 114.217 87.5391C112.326 85.4199 111.38 82.2526 111.38 78.0371V59.6143H106.39V55.2051L112.132 51.7188L115.14 43.6523H121.805V51.7871H132.503V59.6143H121.805V78.0371C121.805 79.5182 122.215 80.612 123.035 81.3184C123.878 82.0247 124.983 82.3779 126.351 82.3779ZM140.228 41.9092C140.228 38.514 142.119 36.8164 145.901 36.8164C149.684 36.8164 151.575 38.514 151.575 41.9092C151.575 43.527 151.097 44.7917 150.14 45.7031C149.205 46.5918 147.793 47.0361 145.901 47.0361C142.119 47.0361 140.228 45.3271 140.228 41.9092ZM151.097 90H140.672V51.7871H151.097V90ZM183.191 59.6143H174.168V90H163.743V59.6143H158.001V54.5898L163.743 51.7871V48.9844C163.743 44.6322 164.814 41.4535 166.956 39.4482C169.098 37.443 172.527 36.4404 177.244 36.4404C180.844 36.4404 184.046 36.9759 186.849 38.0469L184.183 45.7031C182.086 45.0423 180.149 44.7119 178.372 44.7119C176.891 44.7119 175.82 45.1562 175.159 46.0449C174.498 46.9108 174.168 48.0273 174.168 49.3945V51.7871H183.191V59.6143ZM188.729 41.9092C188.729 38.514 190.62 36.8164 194.402 36.8164C198.185 36.8164 200.076 38.514 200.076 41.9092C200.076 43.527 199.598 44.7917 198.641 45.7031C197.706 46.5918 196.294 47.0361 194.402 47.0361C190.62 47.0361 188.729 45.3271 188.729 41.9092ZM199.598 90H189.173V51.7871H199.598V90ZM226.053 90.6836C214.158 90.6836 208.211 84.1553 208.211 71.0986C208.211 64.6045 209.829 59.6484 213.064 56.2305C216.3 52.7897 220.937 51.0693 226.976 51.0693C231.396 51.0693 235.361 51.9352 238.87 53.667L235.794 61.7334C234.153 61.0726 232.627 60.5371 231.214 60.127C229.801 59.694 228.388 59.4775 226.976 59.4775C221.552 59.4775 218.841 63.3285 218.841 71.0303C218.841 78.5042 221.552 82.2412 226.976 82.2412C228.981 82.2412 230.838 81.9792 232.547 81.4551C234.256 80.9082 235.965 80.0651 237.674 78.9258V87.8467C235.988 88.9176 234.279 89.6582 232.547 90.0684C230.838 90.4785 228.673 90.6836 226.053 90.6836ZM270.828 90L268.812 84.8047H268.538C266.784 87.015 264.972 88.5531 263.104 89.4189C261.258 90.262 258.842 90.6836 255.857 90.6836C252.189 90.6836 249.295 89.6354 247.176 87.5391C245.079 85.4427 244.031 82.4577 244.031 78.584C244.031 74.528 245.444 71.543 248.27 69.6289C251.118 67.6921 255.402 66.6211 261.121 66.416L267.752 66.2109V64.5361C267.752 60.6624 265.77 58.7256 261.805 58.7256C258.751 58.7256 255.162 59.6484 251.038 61.4941L247.586 54.4531C251.984 52.1517 256.86 51.001 262.215 51.001C267.342 51.001 271.272 52.1175 274.007 54.3506C276.741 56.5837 278.108 59.9788 278.108 64.5361V90H270.828ZM267.752 72.2949L263.719 72.4316C260.688 72.5228 258.432 73.0697 256.951 74.0723C255.47 75.0749 254.729 76.6016 254.729 78.6523C254.729 81.5918 256.416 83.0615 259.788 83.0615C262.203 83.0615 264.129 82.3665 265.564 80.9766C267.023 79.5866 267.752 77.7409 267.752 75.4395V72.2949ZM304.393 90.6836C292.498 90.6836 286.551 84.1553 286.551 71.0986C286.551 64.6045 288.169 59.6484 291.404 56.2305C294.64 52.7897 299.277 51.0693 305.315 51.0693C309.736 51.0693 313.701 51.9352 317.21 53.667L314.134 61.7334C312.493 61.0726 310.966 60.5371 309.554 60.127C308.141 59.694 306.728 59.4775 305.315 59.4775C299.892 59.4775 297.181 63.3285 297.181 71.0303C297.181 78.5042 299.892 82.2412 305.315 82.2412C307.321 82.2412 309.178 81.9792 310.887 81.4551C312.596 80.9082 314.305 80.0651 316.014 78.9258V87.8467C314.327 88.9176 312.618 89.6582 310.887 90.0684C309.178 90.4785 307.013 90.6836 304.393 90.6836ZM310.921 98.5449C310.921 101.462 310.055 103.569 308.323 104.868C306.614 106.167 303.96 106.816 300.359 106.816C298.582 106.816 296.919 106.577 295.369 106.099V100.356C295.984 100.516 296.805 100.675 297.83 100.835C298.878 100.994 299.687 101.074 300.257 101.074C301.897 101.074 302.718 100.368 302.718 98.9551C302.718 97.0638 300.826 95.8333 297.044 95.2637L299.71 90H306.307L305.384 92.085C307.07 92.6318 308.414 93.4749 309.417 94.6143C310.42 95.7764 310.921 97.0866 310.921 98.5449ZM333.206 70.8252C333.206 74.6077 333.821 77.4674 335.052 79.4043C336.305 81.3411 338.333 82.3096 341.136 82.3096C343.916 82.3096 345.91 81.3525 347.117 79.4385C348.348 77.5016 348.963 74.6305 348.963 70.8252C348.963 67.0426 348.348 64.2057 347.117 62.3145C345.887 60.4232 343.87 59.4775 341.067 59.4775C338.287 59.4775 336.282 60.4232 335.052 62.3145C333.821 64.1829 333.206 67.0199 333.206 70.8252ZM359.627 70.8252C359.627 77.0459 357.986 81.9108 354.705 85.4199C351.424 88.929 346.855 90.6836 340.999 90.6836C337.33 90.6836 334.095 89.8861 331.292 88.291C328.489 86.6732 326.336 84.3604 324.832 81.3525C323.328 78.3447 322.576 74.8356 322.576 70.8252C322.576 64.5817 324.205 59.7282 327.464 56.2646C330.722 52.8011 335.302 51.0693 341.204 51.0693C344.873 51.0693 348.108 51.8669 350.911 53.4619C353.714 55.057 355.867 57.347 357.371 60.332C358.875 63.3171 359.627 66.8148 359.627 70.8252ZM335.462 43.9941C334.756 43.9941 334.072 44.3018 333.411 44.917C332.773 45.5094 332.306 46.4209 332.01 47.6514H326.917C327.168 44.3473 328.102 41.7611 329.72 39.8926C331.36 38.0241 333.525 37.0898 336.214 37.0898C337.148 37.0898 338.06 37.2835 338.948 37.6709C339.86 38.0355 340.748 38.4456 341.614 38.9014C342.503 39.3343 343.369 39.7331 344.212 40.0977C345.055 40.4622 345.887 40.6445 346.707 40.6445C347.413 40.6445 348.086 40.3483 348.724 39.7559C349.384 39.1634 349.863 38.252 350.159 37.0215H355.252C355.001 40.3255 354.044 42.9118 352.381 44.7803C350.74 46.6488 348.598 47.583 345.955 47.583C345.021 47.583 344.098 47.4007 343.187 47.0361C342.298 46.6488 341.409 46.2386 340.521 45.8057C339.655 45.3499 338.8 44.9398 337.957 44.5752C337.114 44.1878 336.282 43.9941 335.462 43.9941ZM384.065 58.4863C381.855 58.4863 380.123 59.1927 378.87 60.6055C377.617 61.9954 376.899 63.9779 376.717 66.5527H391.346C391.3 63.9779 390.628 61.9954 389.329 60.6055C388.03 59.1927 386.276 58.4863 384.065 58.4863ZM385.535 90.6836C379.383 90.6836 374.575 88.986 371.111 85.5908C367.648 82.1956 365.916 77.3877 365.916 71.167C365.916 64.764 367.511 59.8193 370.701 56.333C373.914 52.8239 378.346 51.0693 383.997 51.0693C389.397 51.0693 393.602 52.6074 396.609 55.6836C399.617 58.7598 401.121 63.0094 401.121 68.4326V73.4912H376.478C376.591 76.4535 377.469 78.7663 379.109 80.4297C380.75 82.0931 383.051 82.9248 386.014 82.9248C388.315 82.9248 390.491 82.6855 392.542 82.207C394.593 81.7285 396.735 80.9652 398.968 79.917V87.9834C397.145 88.8949 395.197 89.5671 393.123 90C391.049 90.4557 388.52 90.6836 385.535 90.6836ZM436.258 78.6523C436.258 82.5716 434.891 85.5566 432.156 87.6074C429.445 89.6582 425.377 90.6836 419.954 90.6836C417.174 90.6836 414.804 90.4899 412.845 90.1025C410.885 89.738 409.051 89.1911 407.342 88.4619V79.8486C409.279 80.7601 411.455 81.5234 413.87 82.1387C416.308 82.7539 418.45 83.0615 420.296 83.0615C424.078 83.0615 425.97 81.9678 425.97 79.7803C425.97 78.96 425.719 78.2992 425.218 77.7979C424.716 77.2738 423.851 76.6927 422.62 76.0547C421.39 75.3939 419.749 74.6305 417.698 73.7646C414.759 72.5342 412.594 71.3949 411.204 70.3467C409.837 69.2985 408.834 68.1022 408.196 66.7578C407.581 65.3906 407.273 63.7158 407.273 61.7334C407.273 58.3382 408.584 55.7178 411.204 53.8721C413.847 52.0036 417.584 51.0693 422.415 51.0693C427.018 51.0693 431.495 52.0719 435.848 54.0771L432.703 61.5967C430.789 60.7764 429 60.1042 427.337 59.5801C425.674 59.056 423.976 58.7939 422.244 58.7939C419.168 58.7939 417.63 59.6257 417.63 61.2891C417.63 62.2233 418.12 63.0322 419.1 63.7158C420.102 64.3994 422.278 65.4134 425.628 66.7578C428.613 67.9655 430.8 69.0934 432.19 70.1416C433.58 71.1898 434.606 72.3975 435.267 73.7646C435.927 75.1318 436.258 76.7611 436.258 78.6523Z" fill="white"/>
</svg>
