<svg width="2468" height="125" viewBox="0 0 2468 125" fill="none" xmlns="http://www.w3.org/2000/svg">
<rect width="2468" height="125" rx="10" fill="#14C871"/>
<path d="M1120.57 90H1109.97V48.8477H1096.4V40.0293H1134.14V48.8477H1120.57V90ZM1168.08 90L1166.67 85.1123H1166.13C1165.01 86.8896 1163.43 88.2682 1161.38 89.248C1159.33 90.2051 1156.99 90.6836 1154.37 90.6836C1149.88 90.6836 1146.5 89.4873 1144.22 87.0947C1141.94 84.6794 1140.8 81.2158 1140.8 76.7041V51.7871H1151.23V74.1064C1151.23 76.8636 1151.72 78.9372 1152.7 80.3271C1153.68 81.6943 1155.24 82.3779 1157.38 82.3779C1160.29 82.3779 1162.4 81.4095 1163.7 79.4727C1165 77.513 1165.65 74.2773 1165.65 69.7656V51.7871H1176.07V90H1168.08ZM1203.11 82.3779C1204.93 82.3779 1207.12 81.9792 1209.67 81.1816V88.9404C1207.08 90.1025 1203.89 90.6836 1200.1 90.6836C1195.93 90.6836 1192.89 89.6354 1190.98 87.5391C1189.09 85.4199 1188.14 82.2526 1188.14 78.0371V59.6143H1183.15V55.2051L1188.89 51.7188L1191.9 43.6523H1198.56V51.7871H1209.26V59.6143H1198.56V78.0371C1198.56 79.5182 1198.97 80.612 1199.79 81.3184C1200.64 82.0247 1201.74 82.3779 1203.11 82.3779ZM1225.74 70.8252C1225.74 74.6077 1226.35 77.4674 1227.58 79.4043C1228.84 81.3411 1230.86 82.3096 1233.67 82.3096C1236.45 82.3096 1238.44 81.3525 1239.65 79.4385C1240.88 77.5016 1241.49 74.6305 1241.49 70.8252C1241.49 67.0426 1240.88 64.2057 1239.65 62.3145C1238.42 60.4232 1236.4 59.4775 1233.6 59.4775C1230.82 59.4775 1228.81 60.4232 1227.58 62.3145C1226.35 64.1829 1225.74 67.0199 1225.74 70.8252ZM1252.16 70.8252C1252.16 77.0459 1250.52 81.9108 1247.24 85.4199C1243.96 88.929 1239.39 90.6836 1233.53 90.6836C1229.86 90.6836 1226.63 89.8861 1223.82 88.291C1221.02 86.6732 1218.87 84.3604 1217.36 81.3525C1215.86 78.3447 1215.11 74.8356 1215.11 70.8252C1215.11 64.5817 1216.74 59.7282 1220 56.2646C1223.25 52.8011 1227.83 51.0693 1233.74 51.0693C1237.4 51.0693 1240.64 51.8669 1243.44 53.4619C1246.25 55.057 1248.4 57.347 1249.9 60.332C1251.41 63.3171 1252.16 66.8148 1252.16 70.8252ZM1282.1 51.0693C1283.51 51.0693 1284.69 51.1719 1285.62 51.377L1284.83 61.1523C1283.99 60.9245 1282.97 60.8105 1281.76 60.8105C1278.43 60.8105 1275.83 61.665 1273.96 63.374C1272.12 65.083 1271.2 67.4756 1271.2 70.5518V90H1260.77V51.7871H1268.67L1270.21 58.2129H1270.72C1271.9 56.071 1273.5 54.3506 1275.5 53.0518C1277.53 51.7301 1279.73 51.0693 1282.1 51.0693ZM1292.11 41.9092C1292.11 38.514 1294.01 36.8164 1297.79 36.8164C1301.57 36.8164 1303.46 38.514 1303.46 41.9092C1303.46 43.527 1302.98 44.7917 1302.03 45.7031C1301.09 46.5918 1299.68 47.0361 1297.79 47.0361C1294.01 47.0361 1292.11 45.3271 1292.11 41.9092ZM1302.98 90H1292.56V51.7871H1302.98V90ZM1338.22 90L1336.21 84.8047H1335.93C1334.18 87.015 1332.37 88.5531 1330.5 89.4189C1328.65 90.262 1326.24 90.6836 1323.25 90.6836C1319.58 90.6836 1316.69 89.6354 1314.57 87.5391C1312.47 85.4427 1311.43 82.4577 1311.43 78.584C1311.43 74.528 1312.84 71.543 1315.66 69.6289C1318.51 67.6921 1322.8 66.6211 1328.52 66.416L1335.15 66.2109V64.5361C1335.15 60.6624 1333.16 58.7256 1329.2 58.7256C1326.15 58.7256 1322.56 59.6484 1318.43 61.4941L1314.98 54.4531C1319.38 52.1517 1324.25 51.001 1329.61 51.001C1334.74 51.001 1338.67 52.1175 1341.4 54.3506C1344.14 56.5837 1345.5 59.9788 1345.5 64.5361V90H1338.22ZM1335.15 72.2949L1331.11 72.4316C1328.08 72.5228 1325.83 73.0697 1324.35 74.0723C1322.86 75.0749 1322.12 76.6016 1322.12 78.6523C1322.12 81.5918 1323.81 83.0615 1327.18 83.0615C1329.6 83.0615 1331.52 82.3665 1332.96 80.9766C1334.42 79.5866 1335.15 77.7409 1335.15 75.4395V72.2949ZM1366.69 90H1356.27V36.8164H1366.69V90Z" fill="white"/>
</svg>
