<svg width="5094" height="125" viewBox="0 0 5094 125" fill="none" xmlns="http://www.w3.org/2000/svg">
<rect width="5094" height="125" rx="10" fill="#14C871"/>
<path d="M2201.71 90H2191.29V40.0293H2219.93V48.7109H2201.71V61.5967H2218.67V70.2441H2201.71V90ZM2239.31 90H2228.89V36.8164H2239.31V90ZM2277.35 90L2275.95 85.1123H2275.41C2274.29 86.8896 2272.71 88.2682 2270.65 89.248C2268.6 90.2051 2266.27 90.6836 2263.65 90.6836C2259.16 90.6836 2255.77 89.4873 2253.5 87.0947C2251.22 84.6794 2250.08 81.2158 2250.08 76.7041V51.7871H2260.5V74.1064C2260.5 76.8636 2260.99 78.9372 2261.97 80.3271C2262.95 81.6943 2264.51 82.3779 2266.66 82.3779C2269.57 82.3779 2271.68 81.4095 2272.98 79.4727C2274.28 77.513 2274.93 74.2773 2274.93 69.7656V51.7871H2285.35V90H2277.35ZM2304.12 70.4834L2291.81 51.7871H2303.64L2311.05 63.9551L2318.54 51.7871H2330.37L2317.92 70.4834L2330.95 90H2319.09L2311.05 76.9092L2302.99 90H2291.16L2304.12 70.4834ZM2345.06 70.8252C2345.06 74.6077 2345.68 77.4674 2346.91 79.4043C2348.16 81.3411 2350.19 82.3096 2352.99 82.3096C2355.77 82.3096 2357.77 81.3525 2358.97 79.4385C2360.21 77.5016 2360.82 74.6305 2360.82 70.8252C2360.82 67.0426 2360.21 64.2057 2358.97 62.3145C2357.74 60.4232 2355.73 59.4775 2352.92 59.4775C2350.14 59.4775 2348.14 60.4232 2346.91 62.3145C2345.68 64.1829 2345.06 67.0199 2345.06 70.8252ZM2371.48 70.8252C2371.48 77.0459 2369.84 81.9108 2366.56 85.4199C2363.28 88.929 2358.71 90.6836 2352.86 90.6836C2349.19 90.6836 2345.95 89.8861 2343.15 88.291C2340.35 86.6732 2338.19 84.3604 2336.69 81.3525C2335.19 78.3447 2334.43 74.8356 2334.43 70.8252C2334.43 64.5817 2336.06 59.7282 2339.32 56.2646C2342.58 52.8011 2347.16 51.0693 2353.06 51.0693C2356.73 51.0693 2359.97 51.8669 2362.77 53.4619C2365.57 55.057 2367.72 57.347 2369.23 60.332C2370.73 63.3171 2371.48 66.8148 2371.48 70.8252ZM2419.27 90.6836C2414.78 90.6836 2411.26 89.0544 2408.71 85.7959H2408.16C2408.52 88.986 2408.71 90.8317 2408.71 91.333V106.816H2398.28V51.7871H2406.76L2408.23 56.7432H2408.71C2411.14 52.9606 2414.76 51.0693 2419.54 51.0693C2424.05 51.0693 2427.58 52.8125 2430.14 56.2988C2432.69 59.7852 2433.96 64.6273 2433.96 70.8252C2433.96 74.904 2433.36 78.4473 2432.15 81.4551C2430.97 84.4629 2429.27 86.7529 2427.06 88.3252C2424.85 89.8975 2422.25 90.6836 2419.27 90.6836ZM2416.19 59.4092C2413.62 59.4092 2411.74 60.2067 2410.55 61.8018C2409.37 63.374 2408.75 65.9831 2408.71 69.6289V70.7568C2408.71 74.8584 2409.31 77.7979 2410.52 79.5752C2411.75 81.3525 2413.68 82.2412 2416.33 82.2412C2421 82.2412 2423.33 78.3903 2423.33 70.6885C2423.33 66.9287 2422.75 64.1146 2421.59 62.2461C2420.45 60.3548 2418.65 59.4092 2416.19 59.4092ZM2466.85 90L2464.83 84.8047H2464.56C2462.8 87.015 2460.99 88.5531 2459.12 89.4189C2457.28 90.262 2454.86 90.6836 2451.88 90.6836C2448.21 90.6836 2445.31 89.6354 2443.19 87.5391C2441.1 85.4427 2440.05 82.4577 2440.05 78.584C2440.05 74.528 2441.46 71.543 2444.29 69.6289C2447.14 67.6921 2451.42 66.6211 2457.14 66.416L2463.77 66.2109V64.5361C2463.77 60.6624 2461.79 58.7256 2457.82 58.7256C2454.77 58.7256 2451.18 59.6484 2447.06 61.4941L2443.6 54.4531C2448 52.1517 2452.88 51.001 2458.23 51.001C2463.36 51.001 2467.29 52.1175 2470.02 54.3506C2472.76 56.5837 2474.13 59.9788 2474.13 64.5361V90H2466.85ZM2463.77 72.2949L2459.74 72.4316C2456.71 72.5228 2454.45 73.0697 2452.97 74.0723C2451.49 75.0749 2450.75 76.6016 2450.75 78.6523C2450.75 81.5918 2452.43 83.0615 2455.81 83.0615C2458.22 83.0615 2460.15 82.3665 2461.58 80.9766C2463.04 79.5866 2463.77 77.7409 2463.77 75.4395V72.2949ZM2506.22 51.0693C2507.63 51.0693 2508.81 51.1719 2509.74 51.377L2508.96 61.1523C2508.11 60.9245 2507.09 60.8105 2505.88 60.8105C2502.55 60.8105 2499.95 61.665 2498.09 63.374C2496.24 65.083 2495.32 67.4756 2495.32 70.5518V90H2484.89V51.7871H2492.79L2494.33 58.2129H2494.84C2496.02 56.071 2497.62 54.3506 2499.62 53.0518C2501.65 51.7301 2503.85 51.0693 2506.22 51.0693ZM2540.95 90L2538.93 84.8047H2538.66C2536.9 87.015 2535.09 88.5531 2533.22 89.4189C2531.38 90.262 2528.96 90.6836 2525.98 90.6836C2522.31 90.6836 2519.41 89.6354 2517.29 87.5391C2515.2 85.4427 2514.15 82.4577 2514.15 78.584C2514.15 74.528 2515.56 71.543 2518.39 69.6289C2521.24 67.6921 2525.52 66.6211 2531.24 66.416L2537.87 66.2109V64.5361C2537.87 60.6624 2535.89 58.7256 2531.92 58.7256C2528.87 58.7256 2525.28 59.6484 2521.16 61.4941L2517.71 54.4531C2522.1 52.1517 2526.98 51.001 2532.33 51.001C2537.46 51.001 2541.39 52.1175 2544.13 54.3506C2546.86 56.5837 2548.23 59.9788 2548.23 64.5361V90H2540.95ZM2537.87 72.2949L2533.84 72.4316C2530.81 72.5228 2528.55 73.0697 2527.07 74.0723C2525.59 75.0749 2524.85 76.6016 2524.85 78.6523C2524.85 81.5918 2526.53 83.0615 2529.91 83.0615C2532.32 83.0615 2534.25 82.3665 2535.68 80.9766C2537.14 79.5866 2537.87 77.7409 2537.87 75.4395V72.2949ZM2608.59 90L2604.97 78.1055H2586.75L2583.12 90H2571.71L2589.35 39.8242H2602.3L2620 90H2608.59ZM2602.44 69.2188C2599.09 58.4408 2597.2 52.3454 2596.76 50.9326C2596.35 49.5199 2596.06 48.4033 2595.87 47.583C2595.12 50.4997 2592.97 57.7116 2589.41 69.2188H2602.44ZM2634.6 90L2620.04 51.7871H2630.94L2638.33 73.5596C2639.15 76.3167 2639.66 78.9258 2639.86 81.3867H2640.07C2640.18 79.1992 2640.69 76.5902 2641.61 73.5596L2648.96 51.7871H2659.86L2645.3 90H2634.6ZM2689.63 90L2687.61 84.8047H2687.34C2685.58 87.015 2683.77 88.5531 2681.9 89.4189C2680.06 90.262 2677.64 90.6836 2674.66 90.6836C2670.99 90.6836 2668.1 89.6354 2665.98 87.5391C2663.88 85.4427 2662.83 82.4577 2662.83 78.584C2662.83 74.528 2664.24 71.543 2667.07 69.6289C2669.92 67.6921 2674.2 66.6211 2679.92 66.416L2686.55 66.2109V64.5361C2686.55 60.6624 2684.57 58.7256 2680.61 58.7256C2677.55 58.7256 2673.96 59.6484 2669.84 61.4941L2666.39 54.4531C2670.78 52.1517 2675.66 51.001 2681.02 51.001C2686.14 51.001 2690.07 52.1175 2692.81 54.3506C2695.54 56.5837 2696.91 59.9788 2696.91 64.5361V90H2689.63ZM2686.55 72.2949L2682.52 72.4316C2679.49 72.5228 2677.23 73.0697 2675.75 74.0723C2674.27 75.0749 2673.53 76.6016 2673.53 78.6523C2673.53 81.5918 2675.22 83.0615 2678.59 83.0615C2681 83.0615 2682.93 82.3665 2684.37 80.9766C2685.82 79.5866 2686.55 77.7409 2686.55 75.4395V72.2949ZM2718.1 90H2707.68V36.8164H2718.1V90ZM2728.63 41.9092C2728.63 38.514 2730.52 36.8164 2734.3 36.8164C2738.08 36.8164 2739.98 38.514 2739.98 41.9092C2739.98 43.527 2739.5 44.7917 2738.54 45.7031C2737.61 46.5918 2736.19 47.0361 2734.3 47.0361C2730.52 47.0361 2728.63 45.3271 2728.63 41.9092ZM2739.5 90H2729.07V51.7871H2739.5V90ZM2774.74 90L2772.72 84.8047H2772.45C2770.69 87.015 2768.88 88.5531 2767.01 89.4189C2765.17 90.262 2762.75 90.6836 2759.77 90.6836C2756.1 90.6836 2753.2 89.6354 2751.08 87.5391C2748.99 85.4427 2747.94 82.4577 2747.94 78.584C2747.94 74.528 2749.35 71.543 2752.18 69.6289C2755.03 67.6921 2759.31 66.6211 2765.03 66.416L2771.66 66.2109V64.5361C2771.66 60.6624 2769.68 58.7256 2765.71 58.7256C2762.66 58.7256 2759.07 59.6484 2754.95 61.4941L2751.49 54.4531C2755.89 52.1517 2760.77 51.001 2766.12 51.001C2771.25 51.001 2775.18 52.1175 2777.92 54.3506C2780.65 56.5837 2782.02 59.9788 2782.02 64.5361V90H2774.74ZM2771.66 72.2949L2767.63 72.4316C2764.6 72.5228 2762.34 73.0697 2760.86 74.0723C2759.38 75.0749 2758.64 76.6016 2758.64 78.6523C2758.64 81.5918 2760.32 83.0615 2763.7 83.0615C2766.11 83.0615 2768.04 82.3665 2769.47 80.9766C2770.93 79.5866 2771.66 77.7409 2771.66 75.4395V72.2949ZM2808.3 90.6836C2796.41 90.6836 2790.46 84.1553 2790.46 71.0986C2790.46 64.6045 2792.08 59.6484 2795.31 56.2305C2798.55 52.7897 2803.19 51.0693 2809.22 51.0693C2813.64 51.0693 2817.61 51.9352 2821.12 53.667L2818.04 61.7334C2816.4 61.0726 2814.87 60.5371 2813.46 60.127C2812.05 59.694 2810.64 59.4775 2809.22 59.4775C2803.8 59.4775 2801.09 63.3285 2801.09 71.0303C2801.09 78.5042 2803.8 82.2412 2809.22 82.2412C2811.23 82.2412 2813.09 81.9792 2814.79 81.4551C2816.5 80.9082 2818.21 80.0651 2819.92 78.9258V87.8467C2818.24 88.9176 2816.53 89.6582 2814.79 90.0684C2813.09 90.4785 2810.92 90.6836 2808.3 90.6836ZM2814.83 98.5449C2814.83 101.462 2813.96 103.569 2812.23 104.868C2810.52 106.167 2807.87 106.816 2804.27 106.816C2802.49 106.816 2800.83 106.577 2799.28 106.099V100.356C2799.89 100.516 2800.71 100.675 2801.74 100.835C2802.79 100.994 2803.6 101.074 2804.17 101.074C2805.81 101.074 2806.63 100.368 2806.63 98.9551C2806.63 97.0638 2804.73 95.8333 2800.95 95.2637L2803.62 90H2810.21L2809.29 92.085C2810.98 92.6318 2812.32 93.4749 2813.33 94.6143C2814.33 95.7764 2814.83 97.0866 2814.83 98.5449ZM2853.08 90L2851.06 84.8047H2850.79C2849.03 87.015 2847.22 88.5531 2845.35 89.4189C2843.51 90.262 2841.09 90.6836 2838.11 90.6836C2834.44 90.6836 2831.54 89.6354 2829.42 87.5391C2827.33 85.4427 2826.28 82.4577 2826.28 78.584C2826.28 74.528 2827.69 71.543 2830.52 69.6289C2833.37 67.6921 2837.65 66.6211 2843.37 66.416L2850 66.2109V64.5361C2850 60.6624 2848.02 58.7256 2844.05 58.7256C2841 58.7256 2837.41 59.6484 2833.29 61.4941L2829.83 54.4531C2834.23 52.1517 2839.11 51.001 2844.46 51.001C2849.59 51.001 2853.52 52.1175 2856.25 54.3506C2858.99 56.5837 2860.36 59.9788 2860.36 64.5361V90H2853.08ZM2850 72.2949L2845.97 72.4316C2842.94 72.5228 2840.68 73.0697 2839.2 74.0723C2837.72 75.0749 2836.98 76.6016 2836.98 78.6523C2836.98 81.5918 2838.66 83.0615 2842.04 83.0615C2844.45 83.0615 2846.38 82.3665 2847.81 80.9766C2849.27 79.5866 2850 77.7409 2850 75.4395V72.2949ZM2839.3 43.9941C2838.6 43.9941 2837.91 44.3018 2837.25 44.917C2836.61 45.5094 2836.15 46.4209 2835.85 47.6514H2830.76C2831.01 44.3473 2831.94 41.7611 2833.56 39.8926C2835.2 38.0241 2837.36 37.0898 2840.05 37.0898C2840.99 37.0898 2841.9 37.2835 2842.79 37.6709C2843.7 38.0355 2844.59 38.4456 2845.45 38.9014C2846.34 39.3343 2847.21 39.7331 2848.05 40.0977C2848.89 40.4622 2849.73 40.6445 2850.55 40.6445C2851.25 40.6445 2851.93 40.3483 2852.56 39.7559C2853.22 39.1634 2853.7 38.252 2854 37.0215H2859.09C2858.84 40.3255 2857.88 42.9118 2856.22 44.7803C2854.58 46.6488 2852.44 47.583 2849.79 47.583C2848.86 47.583 2847.94 47.4007 2847.03 47.0361C2846.14 46.6488 2845.25 46.2386 2844.36 45.8057C2843.49 45.3499 2842.64 44.9398 2841.8 44.5752C2840.95 44.1878 2840.12 43.9941 2839.3 43.9941ZM2879.43 70.8252C2879.43 74.6077 2880.04 77.4674 2881.27 79.4043C2882.53 81.3411 2884.56 82.3096 2887.36 82.3096C2890.14 82.3096 2892.13 81.3525 2893.34 79.4385C2894.57 77.5016 2895.19 74.6305 2895.19 70.8252C2895.19 67.0426 2894.57 64.2057 2893.34 62.3145C2892.11 60.4232 2890.09 59.4775 2887.29 59.4775C2884.51 59.4775 2882.5 60.4232 2881.27 62.3145C2880.04 64.1829 2879.43 67.0199 2879.43 70.8252ZM2905.85 70.8252C2905.85 77.0459 2904.21 81.9108 2900.93 85.4199C2897.65 88.929 2893.08 90.6836 2887.22 90.6836C2883.55 90.6836 2880.32 89.8861 2877.51 88.291C2874.71 86.6732 2872.56 84.3604 2871.05 81.3525C2869.55 78.3447 2868.8 74.8356 2868.8 70.8252C2868.8 64.5817 2870.43 59.7282 2873.69 56.2646C2876.94 52.8011 2881.53 51.0693 2887.43 51.0693C2891.1 51.0693 2894.33 51.8669 2897.13 53.4619C2899.94 55.057 2902.09 57.347 2903.59 60.332C2905.1 63.3171 2905.85 66.8148 2905.85 70.8252Z" fill="white"/>
</svg>
