<svg width="428" height="926" viewBox="0 0 428 926" fill="none" xmlns="http://www.w3.org/2000/svg">
<rect width="428" height="926" fill="white"/>
<path d="M394.828 107L397.364 109.535L395.95 110.95L391 106L395.95 101.05L397.364 102.465L394.828 105H402C404.122 105 406.157 105.843 407.657 107.343C409.157 108.843 410 110.878 410 113C410 115.122 409.157 117.157 407.657 118.657C406.157 120.157 404.122 121 402 121H393V119H402C403.591 119 405.117 118.368 406.243 117.243C407.368 116.117 408 114.591 408 113C408 111.409 407.368 109.883 406.243 108.757C405.117 107.632 403.591 107 402 107H394.828Z" fill="#14C871"/>
<path d="M37.1338 168.263C37.1338 170.782 36.6846 172.896 35.7861 174.605C34.8975 176.305 33.5889 177.55 31.8604 178.341L37.0166 184.098H31.2012L27.2754 179.293H26.9385C23.6572 179.293 21.1377 178.341 19.3799 176.437C17.6221 174.532 16.7432 171.798 16.7432 168.233C16.7432 164.669 17.6221 161.949 19.3799 160.074C21.1475 158.189 23.6768 157.247 26.9678 157.247C30.2588 157.247 32.7734 158.194 34.5117 160.089C36.2598 161.983 37.1338 164.708 37.1338 168.263ZM21.5039 168.263C21.5039 170.655 21.958 172.457 22.8662 173.668C23.7744 174.879 25.1318 175.484 26.9385 175.484C30.5615 175.484 32.373 173.077 32.373 168.263C32.373 163.438 30.5713 161.026 26.9678 161.026C25.1611 161.026 23.7988 161.637 22.8809 162.857C21.9629 164.068 21.5039 165.87 21.5039 168.263ZM52.8223 179L52.2217 176.905H51.9873C51.5088 177.667 50.8301 178.258 49.9512 178.678C49.0723 179.088 48.0713 179.293 46.9482 179.293C45.0244 179.293 43.5742 178.78 42.5977 177.755C41.6211 176.72 41.1328 175.235 41.1328 173.302V162.623H45.6006V172.188C45.6006 173.37 45.8105 174.259 46.2305 174.854C46.6504 175.44 47.3193 175.733 48.2373 175.733C49.4873 175.733 50.3906 175.318 50.9473 174.488C51.5039 173.648 51.7822 172.262 51.7822 170.328V162.623H56.25V179H52.8223ZM71.3379 179L70.4736 176.773H70.3564C69.6045 177.721 68.8281 178.38 68.0273 178.751C67.2363 179.112 66.2012 179.293 64.9219 179.293C63.3496 179.293 62.1094 178.844 61.2012 177.945C60.3027 177.047 59.8535 175.768 59.8535 174.107C59.8535 172.369 60.459 171.09 61.6699 170.27C62.8906 169.439 64.7266 168.98 67.1777 168.893L70.0195 168.805V168.087C70.0195 166.427 69.1699 165.597 67.4707 165.597C66.1621 165.597 64.624 165.992 62.8564 166.783L61.377 163.766C63.2617 162.779 65.3516 162.286 67.6465 162.286C69.8438 162.286 71.5283 162.765 72.7002 163.722C73.8721 164.679 74.458 166.134 74.458 168.087V179H71.3379ZM70.0195 171.412L68.291 171.471C66.9922 171.51 66.0254 171.744 65.3906 172.174C64.7559 172.604 64.4385 173.258 64.4385 174.137C64.4385 175.396 65.1611 176.026 66.6064 176.026C67.6416 176.026 68.4668 175.729 69.082 175.133C69.707 174.537 70.0195 173.746 70.0195 172.76V171.412ZM83.54 179H79.0723V156.207H83.54V179ZM106.436 179L105.571 176.773H105.454C104.702 177.721 103.926 178.38 103.125 178.751C102.334 179.112 101.299 179.293 100.02 179.293C98.4473 179.293 97.207 178.844 96.2988 177.945C95.4004 177.047 94.9512 175.768 94.9512 174.107C94.9512 172.369 95.5566 171.09 96.7676 170.27C97.9883 169.439 99.8242 168.98 102.275 168.893L105.117 168.805V168.087C105.117 166.427 104.268 165.597 102.568 165.597C101.26 165.597 99.7217 165.992 97.9541 166.783L96.4746 163.766C98.3594 162.779 100.449 162.286 102.744 162.286C104.941 162.286 106.626 162.765 107.798 163.722C108.97 164.679 109.556 166.134 109.556 168.087V179H106.436ZM105.117 171.412L103.389 171.471C102.09 171.51 101.123 171.744 100.488 172.174C99.8535 172.604 99.5361 173.258 99.5361 174.137C99.5361 175.396 100.259 176.026 101.704 176.026C102.739 176.026 103.564 175.729 104.18 175.133C104.805 174.537 105.117 173.746 105.117 172.76V171.412ZM133.389 174.137C133.389 175.816 132.803 177.096 131.631 177.975C130.469 178.854 128.726 179.293 126.401 179.293C125.21 179.293 124.194 179.21 123.354 179.044C122.515 178.888 121.729 178.653 120.996 178.341V174.649C121.826 175.04 122.759 175.367 123.794 175.631C124.839 175.895 125.757 176.026 126.548 176.026C128.169 176.026 128.979 175.558 128.979 174.62C128.979 174.269 128.872 173.985 128.657 173.771C128.442 173.546 128.071 173.297 127.544 173.023C127.017 172.74 126.313 172.413 125.435 172.042C124.175 171.515 123.247 171.026 122.651 170.577C122.065 170.128 121.636 169.615 121.362 169.039C121.099 168.453 120.967 167.735 120.967 166.886C120.967 165.431 121.528 164.308 122.651 163.517C123.784 162.716 125.386 162.315 127.456 162.315C129.429 162.315 131.348 162.745 133.213 163.604L131.865 166.827C131.045 166.476 130.278 166.188 129.565 165.963C128.853 165.738 128.125 165.626 127.383 165.626C126.064 165.626 125.405 165.982 125.405 166.695C125.405 167.096 125.615 167.442 126.035 167.735C126.465 168.028 127.397 168.463 128.833 169.039C130.112 169.557 131.05 170.04 131.646 170.489C132.241 170.938 132.681 171.456 132.964 172.042C133.247 172.628 133.389 173.326 133.389 174.137ZM148.477 179L147.876 176.905H147.642C147.163 177.667 146.484 178.258 145.605 178.678C144.727 179.088 143.726 179.293 142.603 179.293C140.679 179.293 139.229 178.78 138.252 177.755C137.275 176.72 136.787 175.235 136.787 173.302V162.623H141.255V172.188C141.255 173.37 141.465 174.259 141.885 174.854C142.305 175.44 142.974 175.733 143.892 175.733C145.142 175.733 146.045 175.318 146.602 174.488C147.158 173.648 147.437 172.262 147.437 170.328V162.623H151.904V179H148.477ZM166.992 179L166.128 176.773H166.011C165.259 177.721 164.482 178.38 163.682 178.751C162.891 179.112 161.855 179.293 160.576 179.293C159.004 179.293 157.764 178.844 156.855 177.945C155.957 177.047 155.508 175.768 155.508 174.107C155.508 172.369 156.113 171.09 157.324 170.27C158.545 169.439 160.381 168.98 162.832 168.893L165.674 168.805V168.087C165.674 166.427 164.824 165.597 163.125 165.597C161.816 165.597 160.278 165.992 158.511 166.783L157.031 163.766C158.916 162.779 161.006 162.286 163.301 162.286C165.498 162.286 167.183 162.765 168.354 163.722C169.526 164.679 170.112 166.134 170.112 168.087V179H166.992ZM165.674 171.412L163.945 171.471C162.646 171.51 161.68 171.744 161.045 172.174C160.41 172.604 160.093 173.258 160.093 174.137C160.093 175.396 160.815 176.026 162.261 176.026C163.296 176.026 164.121 175.729 164.736 175.133C165.361 174.537 165.674 173.746 165.674 172.76V171.412ZM187.705 179.293C185.781 179.293 184.268 178.546 183.164 177.052C182.07 175.558 181.523 173.487 181.523 170.841C181.523 168.155 182.08 166.065 183.193 164.571C184.316 163.067 185.859 162.315 187.822 162.315C189.883 162.315 191.455 163.116 192.539 164.718H192.686C192.461 163.497 192.349 162.408 192.349 161.451V156.207H196.831V179H193.403L192.539 176.876H192.349C191.333 178.487 189.785 179.293 187.705 179.293ZM189.272 175.733C190.415 175.733 191.25 175.401 191.777 174.737C192.314 174.073 192.607 172.945 192.656 171.354V170.87C192.656 169.112 192.383 167.853 191.836 167.091C191.299 166.329 190.42 165.948 189.199 165.948C188.203 165.948 187.427 166.373 186.87 167.223C186.323 168.062 186.05 169.288 186.05 170.899C186.05 172.511 186.328 173.722 186.885 174.532C187.441 175.333 188.237 175.733 189.272 175.733ZM211.904 179L211.04 176.773H210.923C210.171 177.721 209.395 178.38 208.594 178.751C207.803 179.112 206.768 179.293 205.488 179.293C203.916 179.293 202.676 178.844 201.768 177.945C200.869 177.047 200.42 175.768 200.42 174.107C200.42 172.369 201.025 171.09 202.236 170.27C203.457 169.439 205.293 168.98 207.744 168.893L210.586 168.805V168.087C210.586 166.427 209.736 165.597 208.037 165.597C206.729 165.597 205.19 165.992 203.423 166.783L201.943 163.766C203.828 162.779 205.918 162.286 208.213 162.286C210.41 162.286 212.095 162.765 213.267 163.722C214.438 164.679 215.024 166.134 215.024 168.087V179H211.904ZM210.586 171.412L208.857 171.471C207.559 171.51 206.592 171.744 205.957 172.174C205.322 172.604 205.005 173.258 205.005 174.137C205.005 175.396 205.728 176.026 207.173 176.026C208.208 176.026 209.033 175.729 209.648 175.133C210.273 174.537 210.586 173.746 210.586 172.76V171.412ZM226.538 175.733C227.319 175.733 228.257 175.562 229.351 175.221V178.546C228.237 179.044 226.87 179.293 225.249 179.293C223.462 179.293 222.158 178.844 221.338 177.945C220.527 177.037 220.122 175.68 220.122 173.873V165.978H217.983V164.088L220.444 162.594L221.733 159.137H224.59V162.623H229.175V165.978H224.59V173.873C224.59 174.508 224.766 174.977 225.117 175.279C225.479 175.582 225.952 175.733 226.538 175.733ZM243.076 179L242.212 176.773H242.095C241.343 177.721 240.566 178.38 239.766 178.751C238.975 179.112 237.939 179.293 236.66 179.293C235.088 179.293 233.848 178.844 232.939 177.945C232.041 177.047 231.592 175.768 231.592 174.107C231.592 172.369 232.197 171.09 233.408 170.27C234.629 169.439 236.465 168.98 238.916 168.893L241.758 168.805V168.087C241.758 166.427 240.908 165.597 239.209 165.597C237.9 165.597 236.362 165.992 234.595 166.783L233.115 163.766C235 162.779 237.09 162.286 239.385 162.286C241.582 162.286 243.267 162.765 244.438 163.722C245.61 164.679 246.196 166.134 246.196 168.087V179H243.076ZM241.758 171.412L240.029 171.471C238.73 171.51 237.764 171.744 237.129 172.174C236.494 172.604 236.177 173.258 236.177 174.137C236.177 175.396 236.899 176.026 238.345 176.026C239.38 176.026 240.205 175.729 240.82 175.133C241.445 174.537 241.758 173.746 241.758 172.76V171.412ZM22.5293 226.293C20.6055 226.293 19.0918 225.546 17.9883 224.052C16.8945 222.558 16.3477 220.487 16.3477 217.841C16.3477 215.155 16.9043 213.065 18.0176 211.571C19.1406 210.067 20.6836 209.315 22.6465 209.315C24.707 209.315 26.2793 210.116 27.3633 211.718H27.5098C27.2852 210.497 27.1729 209.408 27.1729 208.451V203.207H31.6553V226H28.2275L27.3633 223.876H27.1729C26.1572 225.487 24.6094 226.293 22.5293 226.293ZM24.0967 222.733C25.2393 222.733 26.0742 222.401 26.6016 221.737C27.1387 221.073 27.4316 219.945 27.4805 218.354V217.87C27.4805 216.112 27.207 214.853 26.6602 214.091C26.123 213.329 25.2441 212.948 24.0234 212.948C23.0273 212.948 22.251 213.373 21.6943 214.223C21.1475 215.062 20.874 216.288 20.874 217.899C20.874 219.511 21.1523 220.722 21.709 221.532C22.2656 222.333 23.0615 222.733 24.0967 222.733ZM43.1104 212.494C42.1631 212.494 41.4209 212.797 40.8838 213.402C40.3467 213.998 40.0391 214.848 39.9609 215.951H46.2305C46.2109 214.848 45.9229 213.998 45.3662 213.402C44.8096 212.797 44.0576 212.494 43.1104 212.494ZM43.7402 226.293C41.1035 226.293 39.043 225.565 37.5586 224.11C36.0742 222.655 35.332 220.595 35.332 217.929C35.332 215.185 36.0156 213.065 37.3828 211.571C38.7598 210.067 40.6592 209.315 43.0811 209.315C45.3955 209.315 47.1973 209.975 48.4863 211.293C49.7754 212.611 50.4199 214.433 50.4199 216.757V218.925H39.8584C39.9072 220.194 40.2832 221.186 40.9863 221.898C41.6895 222.611 42.6758 222.968 43.9453 222.968C44.9316 222.968 45.8643 222.865 46.7432 222.66C47.6221 222.455 48.54 222.128 49.4971 221.679V225.136C48.7158 225.526 47.8809 225.814 46.9922 226C46.1035 226.195 45.0195 226.293 43.7402 226.293ZM76.9629 226H72.4951V216.435C72.4951 215.253 72.2852 214.369 71.8652 213.783C71.4453 213.188 70.7764 212.89 69.8584 212.89C68.6084 212.89 67.7051 213.31 67.1484 214.149C66.5918 214.979 66.3135 216.361 66.3135 218.295V226H61.8457V209.623H65.2588L65.8594 211.718H66.1084C66.6064 210.927 67.29 210.331 68.1592 209.931C69.0381 209.521 70.0342 209.315 71.1475 209.315C73.0518 209.315 74.4971 209.833 75.4834 210.868C76.4697 211.894 76.9629 213.378 76.9629 215.321V226ZM91.9629 226L91.0986 223.773H90.9814C90.2295 224.721 89.4531 225.38 88.6523 225.751C87.8613 226.112 86.8262 226.293 85.5469 226.293C83.9746 226.293 82.7344 225.844 81.8262 224.945C80.9277 224.047 80.4785 222.768 80.4785 221.107C80.4785 219.369 81.084 218.09 82.2949 217.27C83.5156 216.439 85.3516 215.98 87.8027 215.893L90.6445 215.805V215.087C90.6445 213.427 89.7949 212.597 88.0957 212.597C86.7871 212.597 85.249 212.992 83.4814 213.783L82.002 210.766C83.8867 209.779 85.9766 209.286 88.2715 209.286C90.4688 209.286 92.1533 209.765 93.3252 210.722C94.4971 211.679 95.083 213.134 95.083 215.087V226H91.9629ZM90.6445 218.412L88.916 218.471C87.6172 218.51 86.6504 218.744 86.0156 219.174C85.3809 219.604 85.0635 220.258 85.0635 221.137C85.0635 222.396 85.7861 223.026 87.2314 223.026C88.2666 223.026 89.0918 222.729 89.707 222.133C90.332 221.537 90.6445 220.746 90.6445 219.76V218.412ZM111.123 221.137C111.123 222.816 110.537 224.096 109.365 224.975C108.203 225.854 106.46 226.293 104.136 226.293C102.944 226.293 101.929 226.21 101.089 226.044C100.249 225.888 99.4629 225.653 98.7305 225.341V221.649C99.5605 222.04 100.493 222.367 101.528 222.631C102.573 222.895 103.491 223.026 104.282 223.026C105.903 223.026 106.714 222.558 106.714 221.62C106.714 221.269 106.606 220.985 106.392 220.771C106.177 220.546 105.806 220.297 105.278 220.023C104.751 219.74 104.048 219.413 103.169 219.042C101.909 218.515 100.981 218.026 100.386 217.577C99.7998 217.128 99.3701 216.615 99.0967 216.039C98.833 215.453 98.7012 214.735 98.7012 213.886C98.7012 212.431 99.2627 211.308 100.386 210.517C101.519 209.716 103.12 209.315 105.19 209.315C107.163 209.315 109.082 209.745 110.947 210.604L109.6 213.827C108.779 213.476 108.013 213.188 107.3 212.963C106.587 212.738 105.859 212.626 105.117 212.626C103.799 212.626 103.14 212.982 103.14 213.695C103.14 214.096 103.35 214.442 103.77 214.735C104.199 215.028 105.132 215.463 106.567 216.039C107.847 216.557 108.784 217.04 109.38 217.489C109.976 217.938 110.415 218.456 110.698 219.042C110.981 219.628 111.123 220.326 111.123 221.137ZM121.26 226.293C116.162 226.293 113.613 223.495 113.613 217.899C113.613 215.116 114.307 212.992 115.693 211.527C117.08 210.053 119.067 209.315 121.655 209.315C123.55 209.315 125.249 209.687 126.753 210.429L125.435 213.886C124.731 213.603 124.077 213.373 123.472 213.197C122.866 213.012 122.261 212.919 121.655 212.919C119.331 212.919 118.169 214.569 118.169 217.87C118.169 221.073 119.331 222.675 121.655 222.675C122.515 222.675 123.311 222.562 124.043 222.338C124.775 222.104 125.508 221.742 126.24 221.254V225.077C125.518 225.536 124.785 225.854 124.043 226.029C123.311 226.205 122.383 226.293 121.26 226.293ZM129.858 205.39C129.858 203.935 130.669 203.207 132.29 203.207C133.911 203.207 134.722 203.935 134.722 205.39C134.722 206.083 134.517 206.625 134.106 207.016C133.706 207.396 133.101 207.587 132.29 207.587C130.669 207.587 129.858 206.854 129.858 205.39ZM134.517 226H130.049V209.623H134.517V226ZM153.882 226H149.414V216.435C149.414 215.253 149.214 214.369 148.813 213.783C148.423 213.188 147.803 212.89 146.953 212.89C145.811 212.89 144.98 213.31 144.463 214.149C143.945 214.989 143.687 216.371 143.687 218.295V226H139.219V209.623H142.632L143.232 211.718H143.481C143.921 210.966 144.556 210.38 145.386 209.96C146.216 209.53 147.168 209.315 148.242 209.315C150.693 209.315 152.354 210.116 153.223 211.718H153.618C154.058 210.956 154.702 210.365 155.552 209.945C156.411 209.525 157.378 209.315 158.452 209.315C160.308 209.315 161.709 209.794 162.656 210.751C163.613 211.698 164.092 213.222 164.092 215.321V226H159.609V216.435C159.609 215.253 159.409 214.369 159.009 213.783C158.618 213.188 157.998 212.89 157.148 212.89C156.055 212.89 155.234 213.28 154.688 214.062C154.15 214.843 153.882 216.083 153.882 217.782V226ZM175.474 212.494C174.526 212.494 173.784 212.797 173.247 213.402C172.71 213.998 172.402 214.848 172.324 215.951H178.594C178.574 214.848 178.286 213.998 177.729 213.402C177.173 212.797 176.421 212.494 175.474 212.494ZM176.104 226.293C173.467 226.293 171.406 225.565 169.922 224.11C168.438 222.655 167.695 220.595 167.695 217.929C167.695 215.185 168.379 213.065 169.746 211.571C171.123 210.067 173.022 209.315 175.444 209.315C177.759 209.315 179.561 209.975 180.85 211.293C182.139 212.611 182.783 214.433 182.783 216.757V218.925H172.222C172.271 220.194 172.646 221.186 173.35 221.898C174.053 222.611 175.039 222.968 176.309 222.968C177.295 222.968 178.228 222.865 179.106 222.66C179.985 222.455 180.903 222.128 181.86 221.679V225.136C181.079 225.526 180.244 225.814 179.355 226C178.467 226.195 177.383 226.293 176.104 226.293ZM201.533 226H197.065V216.435C197.065 215.253 196.855 214.369 196.436 213.783C196.016 213.188 195.347 212.89 194.429 212.89C193.179 212.89 192.275 213.31 191.719 214.149C191.162 214.979 190.884 216.361 190.884 218.295V226H186.416V209.623H189.829L190.43 211.718H190.679C191.177 210.927 191.86 210.331 192.729 209.931C193.608 209.521 194.604 209.315 195.718 209.315C197.622 209.315 199.067 209.833 200.054 210.868C201.04 211.894 201.533 213.378 201.533 215.321V226ZM213.032 222.733C213.813 222.733 214.751 222.562 215.845 222.221V225.546C214.731 226.044 213.364 226.293 211.743 226.293C209.956 226.293 208.652 225.844 207.832 224.945C207.021 224.037 206.616 222.68 206.616 220.873V212.978H204.478V211.088L206.938 209.594L208.228 206.137H211.084V209.623H215.669V212.978H211.084V220.873C211.084 221.508 211.26 221.977 211.611 222.279C211.973 222.582 212.446 222.733 213.032 222.733ZM222.729 217.782C222.729 219.403 222.993 220.629 223.521 221.459C224.058 222.289 224.927 222.704 226.128 222.704C227.319 222.704 228.174 222.294 228.691 221.474C229.219 220.644 229.482 219.413 229.482 217.782C229.482 216.161 229.219 214.945 228.691 214.135C228.164 213.324 227.3 212.919 226.099 212.919C224.907 212.919 224.048 213.324 223.521 214.135C222.993 214.936 222.729 216.151 222.729 217.782ZM234.053 217.782C234.053 220.448 233.35 222.533 231.943 224.037C230.537 225.541 228.579 226.293 226.069 226.293C224.497 226.293 223.11 225.951 221.909 225.268C220.708 224.574 219.785 223.583 219.141 222.294C218.496 221.005 218.174 219.501 218.174 217.782C218.174 215.106 218.872 213.026 220.269 211.542C221.665 210.058 223.628 209.315 226.157 209.315C227.729 209.315 229.116 209.657 230.317 210.341C231.519 211.024 232.441 212.006 233.086 213.285C233.73 214.564 234.053 216.063 234.053 217.782ZM239.443 218.896V217.812C239.443 216.874 239.644 216.059 240.044 215.365C240.444 214.672 241.177 213.935 242.241 213.153C243.267 212.421 243.94 211.825 244.263 211.366C244.595 210.907 244.761 210.395 244.761 209.828C244.761 209.193 244.526 208.71 244.058 208.378C243.589 208.046 242.935 207.88 242.095 207.88C240.63 207.88 238.96 208.358 237.085 209.315L235.488 206.107C237.666 204.887 239.976 204.276 242.417 204.276C244.429 204.276 246.025 204.76 247.207 205.727C248.398 206.693 248.994 207.982 248.994 209.594C248.994 210.668 248.75 211.596 248.262 212.377C247.773 213.158 246.846 214.037 245.479 215.014C244.541 215.707 243.945 216.234 243.691 216.596C243.447 216.957 243.325 217.431 243.325 218.017V218.896H239.443ZM238.975 223.905C238.975 223.085 239.194 222.465 239.634 222.045C240.073 221.625 240.713 221.415 241.553 221.415C242.363 221.415 242.988 221.63 243.428 222.06C243.877 222.489 244.102 223.104 244.102 223.905C244.102 224.677 243.877 225.287 243.428 225.736C242.979 226.176 242.354 226.396 241.553 226.396C240.732 226.396 240.098 226.181 239.648 225.751C239.199 225.312 238.975 224.696 238.975 223.905Z" fill="#2E3E4B"/>
<rect x="15" y="700" width="398" height="56" rx="5" fill="#14C871"/>
<path d="M186.406 723.078C187.88 723.078 188.956 723.38 189.633 723.984C190.31 724.589 190.648 725.435 190.648 726.523C190.648 727.018 190.57 727.49 190.414 727.938C190.263 728.38 190.013 728.773 189.664 729.117C189.315 729.456 188.854 729.724 188.281 729.922C187.714 730.12 187.013 730.219 186.18 730.219H184.961V734.5H183.086V723.078H186.406ZM186.281 724.633H184.961V728.656H185.984C186.573 728.656 187.073 728.589 187.484 728.453C187.896 728.312 188.208 728.091 188.422 727.789C188.635 727.487 188.742 727.089 188.742 726.594C188.742 725.932 188.542 725.44 188.141 725.117C187.745 724.794 187.125 724.633 186.281 724.633ZM197.125 725.688C197.271 725.688 197.43 725.695 197.602 725.711C197.773 725.727 197.922 725.747 198.047 725.773L197.875 727.492C197.766 727.461 197.63 727.438 197.469 727.422C197.312 727.406 197.172 727.398 197.047 727.398C196.719 727.398 196.406 727.453 196.109 727.562C195.812 727.667 195.549 727.828 195.32 728.047C195.091 728.26 194.911 728.529 194.781 728.852C194.651 729.174 194.586 729.549 194.586 729.977V734.5H192.742V725.852H194.18L194.43 727.375H194.516C194.688 727.068 194.901 726.786 195.156 726.531C195.411 726.276 195.703 726.073 196.031 725.922C196.365 725.766 196.729 725.688 197.125 725.688ZM207.305 730.156C207.305 730.875 207.211 731.513 207.023 732.07C206.836 732.628 206.562 733.099 206.203 733.484C205.844 733.865 205.411 734.156 204.906 734.359C204.401 734.557 203.831 734.656 203.195 734.656C202.602 734.656 202.057 734.557 201.562 734.359C201.068 734.156 200.638 733.865 200.273 733.484C199.914 733.099 199.635 732.628 199.438 732.07C199.24 731.513 199.141 730.875 199.141 730.156C199.141 729.203 199.305 728.396 199.633 727.734C199.966 727.068 200.44 726.56 201.055 726.211C201.669 725.862 202.401 725.688 203.25 725.688C204.047 725.688 204.75 725.862 205.359 726.211C205.969 726.56 206.445 727.068 206.789 727.734C207.133 728.401 207.305 729.208 207.305 730.156ZM201.031 730.156C201.031 730.786 201.107 731.326 201.258 731.773C201.414 732.221 201.654 732.565 201.977 732.805C202.299 733.039 202.716 733.156 203.227 733.156C203.737 733.156 204.154 733.039 204.477 732.805C204.799 732.565 205.036 732.221 205.188 731.773C205.339 731.326 205.414 730.786 205.414 730.156C205.414 729.526 205.339 728.992 205.188 728.555C205.036 728.112 204.799 727.776 204.477 727.547C204.154 727.312 203.734 727.195 203.219 727.195C202.458 727.195 201.904 727.451 201.555 727.961C201.206 728.471 201.031 729.203 201.031 730.156ZM205.898 722.242V722.398C205.773 722.549 205.604 722.732 205.391 722.945C205.177 723.154 204.945 723.375 204.695 723.609C204.445 723.839 204.198 724.06 203.953 724.273C203.708 724.482 203.487 724.659 203.289 724.805H202.062V724.602C202.234 724.404 202.424 724.167 202.633 723.891C202.846 723.615 203.055 723.331 203.258 723.039C203.466 722.747 203.641 722.482 203.781 722.242H205.898ZM211.328 730.078L208.438 725.852H210.531L212.508 728.891L214.492 725.852H216.578L213.672 730.078L216.727 734.5H214.625L212.508 731.258L210.383 734.5H208.297L211.328 730.078ZM220.062 725.852V734.5H218.227V725.852H220.062ZM219.156 722.539C219.438 722.539 219.68 722.615 219.883 722.766C220.091 722.917 220.195 723.177 220.195 723.547C220.195 723.911 220.091 724.172 219.883 724.328C219.68 724.479 219.438 724.555 219.156 724.555C218.865 724.555 218.617 724.479 218.414 724.328C218.216 724.172 218.117 723.911 218.117 723.547C218.117 723.177 218.216 722.917 218.414 722.766C218.617 722.615 218.865 722.539 219.156 722.539ZM232.469 725.688C233.438 725.688 234.167 725.938 234.656 726.438C235.151 726.938 235.398 727.74 235.398 728.844V734.5H233.562V729.172C233.562 728.516 233.435 728.021 233.18 727.688C232.924 727.354 232.536 727.188 232.016 727.188C231.286 727.188 230.76 727.422 230.438 727.891C230.12 728.354 229.961 729.029 229.961 729.914V734.5H228.125V729.172C228.125 728.734 228.068 728.37 227.953 728.078C227.844 727.781 227.674 727.56 227.445 727.414C227.216 727.263 226.927 727.188 226.578 727.188C226.073 727.188 225.669 727.302 225.367 727.531C225.07 727.76 224.857 728.099 224.727 728.547C224.596 728.99 224.531 729.534 224.531 730.18V734.5H222.695V725.852H224.125L224.383 727.016H224.484C224.661 726.714 224.88 726.466 225.141 726.273C225.406 726.076 225.701 725.93 226.023 725.836C226.346 725.737 226.682 725.688 227.031 725.688C227.677 725.688 228.221 725.802 228.664 726.031C229.107 726.255 229.438 726.599 229.656 727.062H229.797C230.068 726.594 230.445 726.247 230.93 726.023C231.414 725.799 231.927 725.688 232.469 725.688ZM245.617 730.156C245.617 730.875 245.523 731.513 245.336 732.07C245.148 732.628 244.875 733.099 244.516 733.484C244.156 733.865 243.724 734.156 243.219 734.359C242.714 734.557 242.143 734.656 241.508 734.656C240.914 734.656 240.37 734.557 239.875 734.359C239.38 734.156 238.951 733.865 238.586 733.484C238.227 733.099 237.948 732.628 237.75 732.07C237.552 731.513 237.453 730.875 237.453 730.156C237.453 729.203 237.617 728.396 237.945 727.734C238.279 727.068 238.753 726.56 239.367 726.211C239.982 725.862 240.714 725.688 241.562 725.688C242.359 725.688 243.062 725.862 243.672 726.211C244.281 726.56 244.758 727.068 245.102 727.734C245.445 728.401 245.617 729.208 245.617 730.156ZM239.344 730.156C239.344 730.786 239.419 731.326 239.57 731.773C239.727 732.221 239.966 732.565 240.289 732.805C240.612 733.039 241.029 733.156 241.539 733.156C242.049 733.156 242.466 733.039 242.789 732.805C243.112 732.565 243.349 732.221 243.5 731.773C243.651 731.326 243.727 730.786 243.727 730.156C243.727 729.526 243.651 728.992 243.5 728.555C243.349 728.112 243.112 727.776 242.789 727.547C242.466 727.312 242.047 727.195 241.531 727.195C240.771 727.195 240.216 727.451 239.867 727.961C239.518 728.471 239.344 729.203 239.344 730.156Z" fill="white"/>
<path d="M23.0156 301.635C23.0156 303.049 22.6309 304.131 21.8613 304.881C21.0957 305.627 19.9922 306 18.5508 306H16.1777V297.434H18.8027C20.1348 297.434 21.1699 297.803 21.9082 298.541C22.6465 299.279 23.0156 300.311 23.0156 301.635ZM21.9609 301.67C21.9609 300.553 21.6797 299.711 21.1172 299.145C20.5586 298.578 19.7266 298.295 18.6211 298.295H17.1738V305.139H18.3867C19.5742 305.139 20.4668 304.848 21.0645 304.266C21.6621 303.68 21.9609 302.814 21.9609 301.67ZM28.7344 306L28.541 305.086H28.4941C28.1738 305.488 27.8535 305.762 27.5332 305.906C27.2168 306.047 26.8203 306.117 26.3438 306.117C25.707 306.117 25.207 305.953 24.8438 305.625C24.4844 305.297 24.3047 304.83 24.3047 304.225C24.3047 302.928 25.3418 302.248 27.416 302.186L28.5059 302.15V301.752C28.5059 301.248 28.3965 300.877 28.1777 300.639C27.9629 300.396 27.6172 300.275 27.1406 300.275C26.6055 300.275 26 300.439 25.3242 300.768L25.0254 300.023C25.3418 299.852 25.6875 299.717 26.0625 299.619C26.4414 299.521 26.8203 299.473 27.1992 299.473C27.9648 299.473 28.5312 299.643 28.8984 299.982C29.2695 300.322 29.4551 300.867 29.4551 301.617V306H28.7344ZM26.5371 305.314C27.1426 305.314 27.6172 305.148 27.9609 304.816C28.3086 304.484 28.4824 304.02 28.4824 303.422V302.842L27.5098 302.883C26.7363 302.91 26.1777 303.031 25.834 303.246C25.4941 303.457 25.3242 303.787 25.3242 304.236C25.3242 304.588 25.4297 304.855 25.6406 305.039C25.8555 305.223 26.1543 305.314 26.5371 305.314ZM33.5391 305.314C33.7109 305.314 33.877 305.303 34.0371 305.279C34.1973 305.252 34.3242 305.225 34.418 305.197V305.941C34.3125 305.992 34.1562 306.033 33.9492 306.064C33.7461 306.1 33.5625 306.117 33.3984 306.117C32.1562 306.117 31.5352 305.463 31.5352 304.154V300.334H30.6152V299.865L31.5352 299.461L31.9453 298.09H32.5078V299.578H34.3711V300.334H32.5078V304.113C32.5078 304.5 32.5996 304.797 32.7832 305.004C32.9668 305.211 33.2188 305.314 33.5391 305.314ZM39.6562 306L39.4629 305.086H39.416C39.0957 305.488 38.7754 305.762 38.4551 305.906C38.1387 306.047 37.7422 306.117 37.2656 306.117C36.6289 306.117 36.1289 305.953 35.7656 305.625C35.4062 305.297 35.2266 304.83 35.2266 304.225C35.2266 302.928 36.2637 302.248 38.3379 302.186L39.4277 302.15V301.752C39.4277 301.248 39.3184 300.877 39.0996 300.639C38.8848 300.396 38.5391 300.275 38.0625 300.275C37.5273 300.275 36.9219 300.439 36.2461 300.768L35.9473 300.023C36.2637 299.852 36.6094 299.717 36.9844 299.619C37.3633 299.521 37.7422 299.473 38.1211 299.473C38.8867 299.473 39.4531 299.643 39.8203 299.982C40.1914 300.322 40.377 300.867 40.377 301.617V306H39.6562ZM37.459 305.314C38.0645 305.314 38.5391 305.148 38.8828 304.816C39.2305 304.484 39.4043 304.02 39.4043 303.422V302.842L38.4316 302.883C37.6582 302.91 37.0996 303.031 36.7559 303.246C36.416 303.457 36.2461 303.787 36.2461 304.236C36.2461 304.588 36.3516 304.855 36.5625 305.039C36.7773 305.223 37.0762 305.314 37.459 305.314ZM49.875 305.139H49.8223C49.373 305.791 48.7012 306.117 47.8066 306.117C46.9668 306.117 46.3125 305.83 45.8438 305.256C45.3789 304.682 45.1465 303.865 45.1465 302.807C45.1465 301.748 45.3809 300.926 45.8496 300.34C46.3184 299.754 46.9707 299.461 47.8066 299.461C48.6777 299.461 49.3457 299.777 49.8105 300.41H49.8867L49.8457 299.947L49.8223 299.496V296.883H50.7949V306H50.0039L49.875 305.139ZM47.9297 305.303C48.5938 305.303 49.0742 305.123 49.3711 304.764C49.6719 304.4 49.8223 303.816 49.8223 303.012V302.807C49.8223 301.896 49.6699 301.248 49.3652 300.861C49.0645 300.471 48.582 300.275 47.918 300.275C47.3477 300.275 46.9102 300.498 46.6055 300.943C46.3047 301.385 46.1543 302.01 46.1543 302.818C46.1543 303.639 46.3047 304.258 46.6055 304.676C46.9062 305.094 47.3477 305.303 47.9297 305.303ZM55.5762 306.117C54.627 306.117 53.877 305.828 53.3262 305.25C52.7793 304.672 52.5059 303.869 52.5059 302.842C52.5059 301.807 52.7598 300.984 53.2676 300.375C53.7793 299.766 54.4648 299.461 55.3242 299.461C56.1289 299.461 56.7656 299.727 57.2344 300.258C57.7031 300.785 57.9375 301.482 57.9375 302.35V302.965H53.5137C53.5332 303.719 53.7227 304.291 54.082 304.682C54.4453 305.072 54.9551 305.268 55.6113 305.268C56.3027 305.268 56.9863 305.123 57.6621 304.834V305.701C57.3184 305.85 56.9922 305.955 56.6836 306.018C56.3789 306.084 56.0098 306.117 55.5762 306.117ZM55.3125 300.275C54.7969 300.275 54.3848 300.443 54.0762 300.779C53.7715 301.115 53.5918 301.58 53.5371 302.174H56.8945C56.8945 301.561 56.7578 301.092 56.4844 300.768C56.2109 300.439 55.8203 300.275 55.3125 300.275ZM69.5566 306H68.4199L63.7383 298.811H63.6914C63.7539 299.654 63.7852 300.428 63.7852 301.131V306H62.8652V297.434H63.9902L68.6602 304.594H68.707C68.6992 304.488 68.6816 304.15 68.6543 303.58C68.627 303.006 68.6172 302.596 68.625 302.35V297.434H69.5566V306ZM75.7148 306L75.5215 305.086H75.4746C75.1543 305.488 74.834 305.762 74.5137 305.906C74.1973 306.047 73.8008 306.117 73.3242 306.117C72.6875 306.117 72.1875 305.953 71.8242 305.625C71.4648 305.297 71.2852 304.83 71.2852 304.225C71.2852 302.928 72.3223 302.248 74.3965 302.186L75.4863 302.15V301.752C75.4863 301.248 75.377 300.877 75.1582 300.639C74.9434 300.396 74.5977 300.275 74.1211 300.275C73.5859 300.275 72.9805 300.439 72.3047 300.768L72.0059 300.023C72.3223 299.852 72.668 299.717 73.043 299.619C73.4219 299.521 73.8008 299.473 74.1797 299.473C74.9453 299.473 75.5117 299.643 75.8789 299.982C76.25 300.322 76.4355 300.867 76.4355 301.617V306H75.7148ZM73.5176 305.314C74.123 305.314 74.5977 305.148 74.9414 304.816C75.2891 304.484 75.4629 304.02 75.4629 303.422V302.842L74.4902 302.883C73.7168 302.91 73.1582 303.031 72.8145 303.246C72.4746 303.457 72.3047 303.787 72.3047 304.236C72.3047 304.588 72.4102 304.855 72.6211 305.039C72.8359 305.223 73.1348 305.314 73.5176 305.314ZM82.5879 304.248C82.5879 304.846 82.3652 305.307 81.9199 305.631C81.4746 305.955 80.8496 306.117 80.0449 306.117C79.1934 306.117 78.5293 305.982 78.0527 305.713V304.811C78.3613 304.967 78.6914 305.09 79.043 305.18C79.3984 305.27 79.7402 305.314 80.0684 305.314C80.5762 305.314 80.9668 305.234 81.2402 305.074C81.5137 304.91 81.6504 304.662 81.6504 304.33C81.6504 304.08 81.541 303.867 81.3223 303.691C81.1074 303.512 80.6855 303.301 80.0566 303.059C79.459 302.836 79.0332 302.643 78.7793 302.479C78.5293 302.311 78.3418 302.121 78.2168 301.91C78.0957 301.699 78.0352 301.447 78.0352 301.154C78.0352 300.631 78.248 300.219 78.6738 299.918C79.0996 299.613 79.6836 299.461 80.4258 299.461C81.1172 299.461 81.793 299.602 82.4531 299.883L82.1074 300.674C81.4629 300.408 80.8789 300.275 80.3555 300.275C79.8945 300.275 79.5469 300.348 79.3125 300.492C79.0781 300.637 78.9609 300.836 78.9609 301.09C78.9609 301.262 79.0039 301.408 79.0898 301.529C79.1797 301.65 79.3223 301.766 79.5176 301.875C79.7129 301.984 80.0879 302.143 80.6426 302.35C81.4043 302.627 81.918 302.906 82.1836 303.188C82.4531 303.469 82.5879 303.822 82.5879 304.248ZM86.7422 306.117C85.8125 306.117 85.0918 305.832 84.5801 305.262C84.0723 304.688 83.8184 303.877 83.8184 302.83C83.8184 301.756 84.0762 300.926 84.5918 300.34C85.1113 299.754 85.8496 299.461 86.8066 299.461C87.1152 299.461 87.4238 299.494 87.7324 299.561C88.041 299.627 88.2832 299.705 88.459 299.795L88.1602 300.621C87.9453 300.535 87.7109 300.465 87.457 300.41C87.2031 300.352 86.9785 300.322 86.7832 300.322C85.4785 300.322 84.8262 301.154 84.8262 302.818C84.8262 303.607 84.9844 304.213 85.3008 304.635C85.6211 305.057 86.0938 305.268 86.7188 305.268C87.2539 305.268 87.8027 305.152 88.3652 304.922V305.783C87.9355 306.006 87.3945 306.117 86.7422 306.117ZM90.8672 306H89.8945V299.578H90.8672V306ZM89.8125 297.838C89.8125 297.615 89.8672 297.453 89.9766 297.352C90.0859 297.246 90.2227 297.193 90.3867 297.193C90.543 297.193 90.6777 297.246 90.791 297.352C90.9043 297.457 90.9609 297.619 90.9609 297.838C90.9609 298.057 90.9043 298.221 90.791 298.33C90.6777 298.436 90.543 298.488 90.3867 298.488C90.2227 298.488 90.0859 298.436 89.9766 298.33C89.8672 298.221 89.8125 298.057 89.8125 297.838ZM101.115 306V301.822C101.115 301.311 101.006 300.928 100.787 300.674C100.568 300.416 100.229 300.287 99.7676 300.287C99.1621 300.287 98.7148 300.461 98.4258 300.809C98.1367 301.156 97.9922 301.691 97.9922 302.414V306H97.0195V301.822C97.0195 301.311 96.9102 300.928 96.6914 300.674C96.4727 300.416 96.1309 300.287 95.666 300.287C95.0566 300.287 94.6094 300.471 94.3242 300.838C94.043 301.201 93.9023 301.799 93.9023 302.631V306H92.9297V299.578H93.7207L93.8789 300.457H93.9258C94.1094 300.145 94.3672 299.9 94.6992 299.725C95.0352 299.549 95.4102 299.461 95.8242 299.461C96.8281 299.461 97.4844 299.824 97.793 300.551H97.8398C98.0312 300.215 98.3086 299.949 98.6719 299.754C99.0352 299.559 99.4492 299.461 99.9141 299.461C100.641 299.461 101.184 299.648 101.543 300.023C101.906 300.395 102.088 300.99 102.088 301.811V306H101.115ZM106.811 306.117C105.861 306.117 105.111 305.828 104.561 305.25C104.014 304.672 103.74 303.869 103.74 302.842C103.74 301.807 103.994 300.984 104.502 300.375C105.014 299.766 105.699 299.461 106.559 299.461C107.363 299.461 108 299.727 108.469 300.258C108.938 300.785 109.172 301.482 109.172 302.35V302.965H104.748C104.768 303.719 104.957 304.291 105.316 304.682C105.68 305.072 106.189 305.268 106.846 305.268C107.537 305.268 108.221 305.123 108.896 304.834V305.701C108.553 305.85 108.227 305.955 107.918 306.018C107.613 306.084 107.244 306.117 106.811 306.117ZM106.547 300.275C106.031 300.275 105.619 300.443 105.311 300.779C105.006 301.115 104.826 301.58 104.771 302.174H108.129C108.129 301.561 107.992 301.092 107.719 300.768C107.445 300.439 107.055 300.275 106.547 300.275ZM115.23 306V301.846C115.23 301.322 115.111 300.932 114.873 300.674C114.635 300.416 114.262 300.287 113.754 300.287C113.082 300.287 112.59 300.469 112.277 300.832C111.965 301.195 111.809 301.795 111.809 302.631V306H110.836V299.578H111.627L111.785 300.457H111.832C112.031 300.141 112.311 299.896 112.67 299.725C113.029 299.549 113.43 299.461 113.871 299.461C114.645 299.461 115.227 299.648 115.617 300.023C116.008 300.395 116.203 300.99 116.203 301.811V306H115.23ZM120.281 305.314C120.453 305.314 120.619 305.303 120.779 305.279C120.939 305.252 121.066 305.225 121.16 305.197V305.941C121.055 305.992 120.898 306.033 120.691 306.064C120.488 306.1 120.305 306.117 120.141 306.117C118.898 306.117 118.277 305.463 118.277 304.154V300.334H117.357V299.865L118.277 299.461L118.688 298.09H119.25V299.578H121.113V300.334H119.25V304.113C119.25 304.5 119.342 304.797 119.525 305.004C119.709 305.211 119.961 305.314 120.281 305.314ZM127.992 302.783C127.992 303.83 127.729 304.648 127.201 305.238C126.674 305.824 125.945 306.117 125.016 306.117C124.441 306.117 123.932 305.982 123.486 305.713C123.041 305.443 122.697 305.057 122.455 304.553C122.213 304.049 122.092 303.459 122.092 302.783C122.092 301.736 122.354 300.922 122.877 300.34C123.4 299.754 124.127 299.461 125.057 299.461C125.955 299.461 126.668 299.76 127.195 300.357C127.727 300.955 127.992 301.764 127.992 302.783ZM123.1 302.783C123.1 303.604 123.264 304.229 123.592 304.658C123.92 305.088 124.402 305.303 125.039 305.303C125.676 305.303 126.158 305.09 126.486 304.664C126.818 304.234 126.984 303.607 126.984 302.783C126.984 301.967 126.818 301.348 126.486 300.926C126.158 300.5 125.672 300.287 125.027 300.287C124.391 300.287 123.91 300.496 123.586 300.914C123.262 301.332 123.1 301.955 123.1 302.783Z" fill="black"/>
<rect x="15" y="317" width="398" height="70" rx="5" fill="#DCDFE8"/>
<path d="M36.7734 353.18C36.7734 354.466 36.5339 355.542 36.0547 356.406C35.5755 357.266 34.8802 357.914 33.9688 358.352C33.0573 358.784 31.9583 359 30.6719 359H27.5V347.578H31.0156C32.1979 347.578 33.2188 347.792 34.0781 348.219C34.9375 348.641 35.6016 349.268 36.0703 350.102C36.5391 350.93 36.7734 351.956 36.7734 353.18ZM34.8203 353.234C34.8203 352.297 34.6719 351.526 34.375 350.922C34.0833 350.318 33.651 349.87 33.0781 349.578C32.5104 349.281 31.8099 349.133 30.9766 349.133H29.375V357.43H30.7031C32.0833 357.43 33.1146 357.078 33.7969 356.375C34.4792 355.672 34.8203 354.625 34.8203 353.234ZM48.5078 353.18C48.5078 354.466 48.2682 355.542 47.7891 356.406C47.3099 357.266 46.6146 357.914 45.7031 358.352C44.7917 358.784 43.6927 359 42.4062 359H39.2344V347.578H42.75C43.9323 347.578 44.9531 347.792 45.8125 348.219C46.6719 348.641 47.3359 349.268 47.8047 350.102C48.2734 350.93 48.5078 351.956 48.5078 353.18ZM46.5547 353.234C46.5547 352.297 46.4062 351.526 46.1094 350.922C45.8177 350.318 45.3854 349.87 44.8125 349.578C44.2448 349.281 43.5443 349.133 42.7109 349.133H41.1094V357.43H42.4375C43.8177 357.43 44.849 357.078 45.5312 356.375C46.2135 355.672 46.5547 354.625 46.5547 353.234ZM55.5859 347.578L51.3281 359H49.6094L53.8672 347.578H55.5859ZM62.1484 359L58.8594 349.461H58.7891C58.8047 349.674 58.8229 349.966 58.8438 350.336C58.8646 350.706 58.8828 351.102 58.8984 351.523C58.9141 351.945 58.9219 352.349 58.9219 352.734V359H57.2188V347.578H59.8516L63.0156 356.695H63.0625L66.3359 347.578H68.9609V359H67.1719V352.641C67.1719 352.292 67.1771 351.914 67.1875 351.508C67.2031 351.102 67.2188 350.716 67.2344 350.352C67.2552 349.987 67.2708 349.695 67.2812 349.477H67.2188L63.8047 359H62.1484ZM76.8984 359L73.6094 349.461H73.5391C73.5547 349.674 73.5729 349.966 73.5938 350.336C73.6146 350.706 73.6328 351.102 73.6484 351.523C73.6641 351.945 73.6719 352.349 73.6719 352.734V359H71.9688V347.578H74.6016L77.7656 356.695H77.8125L81.0859 347.578H83.7109V359H81.9219V352.641C81.9219 352.292 81.9271 351.914 81.9375 351.508C81.9531 351.102 81.9688 350.716 81.9844 350.352C82.0052 349.987 82.0208 349.695 82.0312 349.477H81.9688L78.5547 359H76.8984ZM91.3359 347.578L87.0781 359H85.3594L89.6172 347.578H91.3359ZM100.047 359L98.9297 355.828H94.5625L93.4453 359H91.4688L95.7188 347.531H97.7969L102.039 359H100.047ZM98.4453 354.219L97.3594 351.094C97.3177 350.958 97.2578 350.768 97.1797 350.523C97.1016 350.273 97.0234 350.021 96.9453 349.766C96.8672 349.505 96.8021 349.286 96.75 349.109C96.6979 349.323 96.6328 349.562 96.5547 349.828C96.4818 350.089 96.4089 350.333 96.3359 350.562C96.2682 350.792 96.2161 350.969 96.1797 351.094L95.0859 354.219H98.4453ZM110.625 359L109.508 355.828H105.141L104.023 359H102.047L106.297 347.531H108.375L112.617 359H110.625ZM109.023 354.219L107.938 351.094C107.896 350.958 107.836 350.768 107.758 350.523C107.68 350.273 107.602 350.021 107.523 349.766C107.445 349.505 107.38 349.286 107.328 349.109C107.276 349.323 107.211 349.562 107.133 349.828C107.06 350.089 106.987 350.333 106.914 350.562C106.846 350.792 106.794 350.969 106.758 351.094L105.664 354.219H109.023ZM121.203 359L120.086 355.828H115.719L114.602 359H112.625L116.875 347.531H118.953L123.195 359H121.203ZM119.602 354.219L118.516 351.094C118.474 350.958 118.414 350.768 118.336 350.523C118.258 350.273 118.18 350.021 118.102 349.766C118.023 349.505 117.958 349.286 117.906 349.109C117.854 349.323 117.789 349.562 117.711 349.828C117.638 350.089 117.565 350.333 117.492 350.562C117.424 350.792 117.372 350.969 117.336 351.094L116.242 354.219H119.602ZM131.781 359L130.664 355.828H126.297L125.18 359H123.203L127.453 347.531H129.531L133.773 359H131.781ZM130.18 354.219L129.094 351.094C129.052 350.958 128.992 350.768 128.914 350.523C128.836 350.273 128.758 350.021 128.68 349.766C128.602 349.505 128.536 349.286 128.484 349.109C128.432 349.323 128.367 349.562 128.289 349.828C128.216 350.089 128.143 350.333 128.07 350.562C128.003 350.792 127.951 350.969 127.914 351.094L126.82 354.219H130.18Z" fill="#9FA6AC"/>
<rect width="428" height="44" fill="#12B667"/>
<path d="M0 0H428V44H0V0Z" fill="black" fill-opacity="0.15"/>
<rect opacity="0.35" x="389.833" y="17.8334" width="21" height="10.3333" rx="2.16667" stroke="white"/>
<path opacity="0.4" d="M412.333 21V25C413.138 24.6612 413.662 23.8731 413.662 23C413.662 22.1269 413.138 21.3388 412.333 21Z" fill="white"/>
<rect x="391.333" y="19.3334" width="18" height="7.33333" rx="1.33333" fill="white"/>
<path fill-rule="evenodd" clip-rule="evenodd" d="M376.667 19.6152C378.892 19.6153 381.031 20.4694 382.644 22.001C382.765 22.1192 382.959 22.1177 383.079 21.9976L384.239 20.8273C384.3 20.7664 384.334 20.6839 384.333 20.598C384.333 20.5122 384.298 20.4301 384.237 20.3699C380.005 16.3176 373.329 16.3176 369.097 20.3699C369.035 20.43 369.001 20.5121 369 20.598C368.999 20.6838 369.033 20.7663 369.094 20.8273L370.255 21.9976C370.374 22.1179 370.568 22.1194 370.69 22.001C372.302 20.4693 374.442 19.6152 376.667 19.6152ZM376.667 23.4227C377.889 23.4227 379.068 23.8766 379.974 24.6964C380.097 24.8127 380.29 24.8102 380.409 24.6907L381.569 23.5204C381.63 23.459 381.663 23.3757 381.663 23.2892C381.662 23.2027 381.626 23.1201 381.564 23.0599C378.805 20.4955 374.532 20.4955 371.773 23.0599C371.71 23.1201 371.675 23.2027 371.674 23.2893C371.673 23.3758 371.707 23.4591 371.768 23.5204L372.927 24.6907C373.047 24.8102 373.24 24.8127 373.362 24.6964C374.268 23.8772 375.446 23.4233 376.667 23.4227ZM378.989 25.9846C378.991 26.0714 378.957 26.155 378.895 26.2158L376.89 28.2378C376.831 28.2972 376.751 28.3307 376.667 28.3307C376.583 28.3307 376.503 28.2972 376.445 28.2378L374.439 26.2158C374.377 26.155 374.343 26.0713 374.345 25.9845C374.347 25.8977 374.384 25.8156 374.449 25.7574C375.729 24.6751 377.605 24.6751 378.886 25.7574C378.95 25.8156 378.988 25.8978 378.989 25.9846Z" fill="white"/>
<path fill-rule="evenodd" clip-rule="evenodd" d="M363 17.6666H362C361.448 17.6666 361 18.1143 361 18.6666V27.3333C361 27.8856 361.448 28.3333 362 28.3333H363C363.552 28.3333 364 27.8856 364 27.3333V18.6666C364 18.1143 363.552 17.6666 363 17.6666ZM357.333 20H358.333C358.886 20 359.333 20.4477 359.333 21V27.3333C359.333 27.8856 358.886 28.3333 358.333 28.3333H357.333C356.781 28.3333 356.333 27.8856 356.333 27.3333V21C356.333 20.4477 356.781 20 357.333 20ZM353.667 22.3333H352.667C352.114 22.3333 351.667 22.781 351.667 23.3333V27.3333C351.667 27.8856 352.114 28.3333 352.667 28.3333H353.667C354.219 28.3333 354.667 27.8856 354.667 27.3333V23.3333C354.667 22.781 354.219 22.3333 353.667 22.3333ZM349 24.3333H348C347.448 24.3333 347 24.781 347 25.3333V27.3333C347 27.8856 347.448 28.3333 348 28.3333H349C349.552 28.3333 350 27.8856 350 27.3333V25.3333C350 24.781 349.552 24.3333 349 24.3333Z" fill="white"/>
<path d="M37.1613 17.1675C34.8688 17.1675 33.2355 18.7349 33.2355 20.8809V20.8955C33.2355 22.9023 34.6564 24.3818 36.6852 24.3818C38.1354 24.3818 39.0582 23.6421 39.4464 22.8071H39.5929C39.5929 22.8877 39.5856 22.9683 39.5856 23.0488C39.505 25.0703 38.7946 26.7109 37.1173 26.7109C36.1871 26.7109 35.5353 26.2275 35.257 25.4878L35.235 25.4146H33.3746L33.3893 25.4951C33.7262 27.1138 35.1764 28.2637 37.1173 28.2637C39.776 28.2637 41.38 26.1543 41.38 22.5947V22.5801C41.38 18.7715 39.4171 17.1675 37.1613 17.1675ZM37.1539 22.9316C35.9528 22.9316 35.0812 22.0527 35.0812 20.8296V20.8149C35.0812 19.6357 36.0114 18.7056 37.1759 18.7056C38.3478 18.7056 39.2633 19.6504 39.2633 20.8589V20.8735C39.2633 22.0674 38.3478 22.9316 37.1539 22.9316ZM44.5385 22.7046C45.2123 22.7046 45.703 22.1992 45.703 21.5547C45.703 20.9028 45.2123 20.3975 44.5385 20.3975C43.872 20.3975 43.3739 20.9028 43.3739 21.5547C43.3739 22.1992 43.872 22.7046 44.5385 22.7046ZM44.5385 28.1465C45.2123 28.1465 45.703 27.6338 45.703 26.9893C45.703 26.3374 45.2123 25.832 44.5385 25.832C43.872 25.832 43.3739 26.3374 43.3739 26.9893C43.3739 27.6338 43.872 28.1465 44.5385 28.1465ZM52.6041 28H54.4132V25.9712H55.8341V24.4111H54.4132V17.4312H51.7399C50.3043 19.6138 48.8029 22.0454 47.4332 24.4258V25.9712H52.6041V28ZM49.191 24.4551V24.3452C50.2164 22.5508 51.4396 20.5952 52.5236 18.9399H52.6334V24.4551H49.191ZM59.974 28H61.8636V17.4312H59.9813L57.2201 19.3721V21.1519L59.8495 19.2915H59.974V28Z" fill="white"/>
</svg>
