<svg width="428" height="926" viewBox="0 0 428 926" fill="none" xmlns="http://www.w3.org/2000/svg">
<rect width="428" height="926" fill="white"/>
<path d="M394.828 107L397.364 109.535L395.95 110.95L391 106L395.95 101.05L397.364 102.465L394.828 105H402C404.122 105 406.157 105.843 407.657 107.343C409.157 108.843 410 110.878 410 113C410 115.122 409.157 117.156 407.657 118.657C406.157 120.157 404.122 121 402 121H393V119H402C403.591 119 405.117 118.368 406.243 117.242C407.368 116.117 408 114.591 408 113C408 111.409 407.368 109.882 406.243 108.757C405.117 107.632 403.591 107 402 107H394.828Z" fill="#14C871"/>
<path d="M17.6953 179V157.584H22.2363V179H17.6953ZM42.3926 179H37.9248V169.435C37.9248 168.253 37.7148 167.369 37.2949 166.783C36.875 166.188 36.2061 165.89 35.2881 165.89C34.0381 165.89 33.1348 166.31 32.5781 167.149C32.0215 167.979 31.7432 169.361 31.7432 171.295V179H27.2754V162.623H30.6885L31.2891 164.718H31.5381C32.0361 163.927 32.7197 163.331 33.5889 162.931C34.4678 162.521 35.4639 162.315 36.5771 162.315C38.4814 162.315 39.9268 162.833 40.9131 163.868C41.8994 164.894 42.3926 166.378 42.3926 168.321V179ZM56.0449 165.978H52.1777V179H47.71V165.978H45.249V163.824L47.71 162.623V161.422C47.71 159.557 48.1689 158.194 49.0869 157.335C50.0049 156.476 51.4746 156.046 53.4961 156.046C55.0391 156.046 56.4111 156.275 57.6123 156.734L56.4697 160.016C55.5713 159.732 54.7412 159.591 53.9795 159.591C53.3447 159.591 52.8857 159.781 52.6025 160.162C52.3193 160.533 52.1777 161.012 52.1777 161.598V162.623H56.0449V165.978ZM62.1826 170.782C62.1826 172.403 62.4463 173.629 62.9736 174.459C63.5107 175.289 64.3799 175.704 65.5811 175.704C66.7725 175.704 67.627 175.294 68.1445 174.474C68.6719 173.644 68.9355 172.413 68.9355 170.782C68.9355 169.161 68.6719 167.945 68.1445 167.135C67.6172 166.324 66.7529 165.919 65.5518 165.919C64.3604 165.919 63.501 166.324 62.9736 167.135C62.4463 167.936 62.1826 169.151 62.1826 170.782ZM73.5059 170.782C73.5059 173.448 72.8027 175.533 71.3965 177.037C69.9902 178.541 68.0322 179.293 65.5225 179.293C63.9502 179.293 62.5635 178.951 61.3623 178.268C60.1611 177.574 59.2383 176.583 58.5938 175.294C57.9492 174.005 57.627 172.501 57.627 170.782C57.627 168.106 58.3252 166.026 59.7217 164.542C61.1182 163.058 63.0811 162.315 65.6104 162.315C67.1826 162.315 68.5693 162.657 69.7705 163.341C70.9717 164.024 71.8945 165.006 72.5391 166.285C73.1836 167.564 73.5059 169.063 73.5059 170.782ZM86.3379 162.315C86.9434 162.315 87.4463 162.359 87.8467 162.447L87.5098 166.637C87.1484 166.539 86.709 166.49 86.1914 166.49C84.7656 166.49 83.6523 166.856 82.8516 167.589C82.0605 168.321 81.665 169.347 81.665 170.665V179H77.1973V162.623H80.5811L81.2402 165.377H81.46C81.9678 164.459 82.6514 163.722 83.5107 163.165C84.3799 162.599 85.3223 162.315 86.3379 162.315ZM105.483 179H101.016V169.435C101.016 168.253 100.815 167.369 100.415 166.783C100.024 166.188 99.4043 165.89 98.5547 165.89C97.4121 165.89 96.582 166.31 96.0645 167.149C95.5469 167.989 95.2881 169.371 95.2881 171.295V179H90.8203V162.623H94.2334L94.834 164.718H95.083C95.5225 163.966 96.1572 163.38 96.9873 162.96C97.8174 162.53 98.7695 162.315 99.8438 162.315C102.295 162.315 103.955 163.116 104.824 164.718H105.22C105.659 163.956 106.304 163.365 107.153 162.945C108.013 162.525 108.979 162.315 110.054 162.315C111.909 162.315 113.311 162.794 114.258 163.751C115.215 164.698 115.693 166.222 115.693 168.321V179H111.211V169.435C111.211 168.253 111.011 167.369 110.61 166.783C110.22 166.188 109.6 165.89 108.75 165.89C107.656 165.89 106.836 166.28 106.289 167.062C105.752 167.843 105.483 169.083 105.483 170.782V179ZM127.075 165.494C126.128 165.494 125.386 165.797 124.849 166.402C124.312 166.998 124.004 167.848 123.926 168.951H130.195C130.176 167.848 129.888 166.998 129.331 166.402C128.774 165.797 128.022 165.494 127.075 165.494ZM127.705 179.293C125.068 179.293 123.008 178.565 121.523 177.11C120.039 175.655 119.297 173.595 119.297 170.929C119.297 168.185 119.98 166.065 121.348 164.571C122.725 163.067 124.624 162.315 127.046 162.315C129.36 162.315 131.162 162.975 132.451 164.293C133.74 165.611 134.385 167.433 134.385 169.757V171.925H123.823C123.872 173.194 124.248 174.186 124.951 174.898C125.654 175.611 126.641 175.968 127.91 175.968C128.896 175.968 129.829 175.865 130.708 175.66C131.587 175.455 132.505 175.128 133.462 174.679V178.136C132.681 178.526 131.846 178.814 130.957 179C130.068 179.195 128.984 179.293 127.705 179.293ZM157.236 174.137C157.236 175.816 156.65 177.096 155.479 177.975C154.316 178.854 152.573 179.293 150.249 179.293C149.058 179.293 148.042 179.21 147.202 179.044C146.362 178.888 145.576 178.653 144.844 178.341V174.649C145.674 175.04 146.606 175.367 147.642 175.631C148.687 175.895 149.604 176.026 150.396 176.026C152.017 176.026 152.827 175.558 152.827 174.62C152.827 174.269 152.72 173.985 152.505 173.771C152.29 173.546 151.919 173.297 151.392 173.023C150.864 172.74 150.161 172.413 149.282 172.042C148.022 171.515 147.095 171.026 146.499 170.577C145.913 170.128 145.483 169.615 145.21 169.039C144.946 168.453 144.814 167.735 144.814 166.886C144.814 165.431 145.376 164.308 146.499 163.517C147.632 162.716 149.233 162.315 151.304 162.315C153.276 162.315 155.195 162.745 157.061 163.604L155.713 166.827C154.893 166.476 154.126 166.188 153.413 165.963C152.7 165.738 151.973 165.626 151.23 165.626C149.912 165.626 149.253 165.982 149.253 166.695C149.253 167.096 149.463 167.442 149.883 167.735C150.312 168.028 151.245 168.463 152.681 169.039C153.96 169.557 154.897 170.04 155.493 170.489C156.089 170.938 156.528 171.456 156.812 172.042C157.095 172.628 157.236 173.326 157.236 174.137ZM167.505 165.494C166.558 165.494 165.815 165.797 165.278 166.402C164.741 166.998 164.434 167.848 164.355 168.951H170.625C170.605 167.848 170.317 166.998 169.761 166.402C169.204 165.797 168.452 165.494 167.505 165.494ZM168.135 179.293C165.498 179.293 163.438 178.565 161.953 177.11C160.469 175.655 159.727 173.595 159.727 170.929C159.727 168.185 160.41 166.065 161.777 164.571C163.154 163.067 165.054 162.315 167.476 162.315C169.79 162.315 171.592 162.975 172.881 164.293C174.17 165.611 174.814 167.433 174.814 169.757V171.925H164.253C164.302 173.194 164.678 174.186 165.381 174.898C166.084 175.611 167.07 175.968 168.34 175.968C169.326 175.968 170.259 175.865 171.138 175.66C172.017 175.455 172.935 175.128 173.892 174.679V178.136C173.11 178.526 172.275 178.814 171.387 179C170.498 179.195 169.414 179.293 168.135 179.293ZM190.049 179L189.448 176.905H189.214C188.735 177.667 188.057 178.258 187.178 178.678C186.299 179.088 185.298 179.293 184.175 179.293C182.251 179.293 180.801 178.78 179.824 177.755C178.848 176.72 178.359 175.235 178.359 173.302V162.623H182.827V172.188C182.827 173.37 183.037 174.259 183.457 174.854C183.877 175.44 184.546 175.733 185.464 175.733C186.714 175.733 187.617 175.318 188.174 174.488C188.73 173.648 189.009 172.262 189.009 170.328V162.623H193.477V179H190.049ZM215.405 161.056C213.696 161.056 212.373 161.7 211.436 162.989C210.498 164.269 210.029 166.056 210.029 168.351C210.029 173.126 211.821 175.514 215.405 175.514C216.909 175.514 218.73 175.138 220.869 174.386V178.194C219.111 178.927 217.148 179.293 214.98 179.293C211.865 179.293 209.482 178.351 207.832 176.466C206.182 174.571 205.356 171.856 205.356 168.321C205.356 166.095 205.762 164.146 206.572 162.477C207.383 160.797 208.545 159.513 210.059 158.624C211.582 157.726 213.364 157.276 215.405 157.276C217.485 157.276 219.575 157.779 221.675 158.785L220.21 162.477C219.409 162.096 218.604 161.764 217.793 161.48C216.982 161.197 216.187 161.056 215.405 161.056ZM237.773 179H225.439V157.584H237.773V161.305H229.98V166.007H237.231V169.728H229.98V175.25H237.773V179ZM246.797 167.662H248.291C249.688 167.662 250.732 167.389 251.426 166.842C252.119 166.285 252.466 165.479 252.466 164.425C252.466 163.36 252.173 162.574 251.587 162.066C251.011 161.559 250.103 161.305 248.862 161.305H246.797V167.662ZM257.051 164.264C257.051 166.568 256.328 168.331 254.883 169.552C253.447 170.772 251.401 171.383 248.745 171.383H246.797V179H242.256V157.584H249.097C251.694 157.584 253.667 158.146 255.015 159.269C256.372 160.382 257.051 162.047 257.051 164.264Z" fill="#2E3E4B"/>
<rect x="15" y="668" width="398" height="56" rx="5" fill="#14C871"/>
<path d="M186.406 691.078C187.88 691.078 188.956 691.38 189.633 691.984C190.31 692.589 190.648 693.435 190.648 694.523C190.648 695.018 190.57 695.49 190.414 695.938C190.263 696.38 190.013 696.773 189.664 697.117C189.315 697.456 188.854 697.724 188.281 697.922C187.714 698.12 187.013 698.219 186.18 698.219H184.961V702.5H183.086V691.078H186.406ZM186.281 692.633H184.961V696.656H185.984C186.573 696.656 187.073 696.589 187.484 696.453C187.896 696.312 188.208 696.091 188.422 695.789C188.635 695.487 188.742 695.089 188.742 694.594C188.742 693.932 188.542 693.44 188.141 693.117C187.745 692.794 187.125 692.633 186.281 692.633ZM197.125 693.688C197.271 693.688 197.43 693.695 197.602 693.711C197.773 693.727 197.922 693.747 198.047 693.773L197.875 695.492C197.766 695.461 197.63 695.438 197.469 695.422C197.312 695.406 197.172 695.398 197.047 695.398C196.719 695.398 196.406 695.453 196.109 695.562C195.812 695.667 195.549 695.828 195.32 696.047C195.091 696.26 194.911 696.529 194.781 696.852C194.651 697.174 194.586 697.549 194.586 697.977V702.5H192.742V693.852H194.18L194.43 695.375H194.516C194.688 695.068 194.901 694.786 195.156 694.531C195.411 694.276 195.703 694.073 196.031 693.922C196.365 693.766 196.729 693.688 197.125 693.688ZM207.305 698.156C207.305 698.875 207.211 699.513 207.023 700.07C206.836 700.628 206.562 701.099 206.203 701.484C205.844 701.865 205.411 702.156 204.906 702.359C204.401 702.557 203.831 702.656 203.195 702.656C202.602 702.656 202.057 702.557 201.562 702.359C201.068 702.156 200.638 701.865 200.273 701.484C199.914 701.099 199.635 700.628 199.438 700.07C199.24 699.513 199.141 698.875 199.141 698.156C199.141 697.203 199.305 696.396 199.633 695.734C199.966 695.068 200.44 694.56 201.055 694.211C201.669 693.862 202.401 693.688 203.25 693.688C204.047 693.688 204.75 693.862 205.359 694.211C205.969 694.56 206.445 695.068 206.789 695.734C207.133 696.401 207.305 697.208 207.305 698.156ZM201.031 698.156C201.031 698.786 201.107 699.326 201.258 699.773C201.414 700.221 201.654 700.565 201.977 700.805C202.299 701.039 202.716 701.156 203.227 701.156C203.737 701.156 204.154 701.039 204.477 700.805C204.799 700.565 205.036 700.221 205.188 699.773C205.339 699.326 205.414 698.786 205.414 698.156C205.414 697.526 205.339 696.992 205.188 696.555C205.036 696.112 204.799 695.776 204.477 695.547C204.154 695.312 203.734 695.195 203.219 695.195C202.458 695.195 201.904 695.451 201.555 695.961C201.206 696.471 201.031 697.203 201.031 698.156ZM205.898 690.242V690.398C205.773 690.549 205.604 690.732 205.391 690.945C205.177 691.154 204.945 691.375 204.695 691.609C204.445 691.839 204.198 692.06 203.953 692.273C203.708 692.482 203.487 692.659 203.289 692.805H202.062V692.602C202.234 692.404 202.424 692.167 202.633 691.891C202.846 691.615 203.055 691.331 203.258 691.039C203.466 690.747 203.641 690.482 203.781 690.242H205.898ZM211.328 698.078L208.438 693.852H210.531L212.508 696.891L214.492 693.852H216.578L213.672 698.078L216.727 702.5H214.625L212.508 699.258L210.383 702.5H208.297L211.328 698.078ZM220.062 693.852V702.5H218.227V693.852H220.062ZM219.156 690.539C219.438 690.539 219.68 690.615 219.883 690.766C220.091 690.917 220.195 691.177 220.195 691.547C220.195 691.911 220.091 692.172 219.883 692.328C219.68 692.479 219.438 692.555 219.156 692.555C218.865 692.555 218.617 692.479 218.414 692.328C218.216 692.172 218.117 691.911 218.117 691.547C218.117 691.177 218.216 690.917 218.414 690.766C218.617 690.615 218.865 690.539 219.156 690.539ZM232.469 693.688C233.438 693.688 234.167 693.938 234.656 694.438C235.151 694.938 235.398 695.74 235.398 696.844V702.5H233.562V697.172C233.562 696.516 233.435 696.021 233.18 695.688C232.924 695.354 232.536 695.188 232.016 695.188C231.286 695.188 230.76 695.422 230.438 695.891C230.12 696.354 229.961 697.029 229.961 697.914V702.5H228.125V697.172C228.125 696.734 228.068 696.37 227.953 696.078C227.844 695.781 227.674 695.56 227.445 695.414C227.216 695.263 226.927 695.188 226.578 695.188C226.073 695.188 225.669 695.302 225.367 695.531C225.07 695.76 224.857 696.099 224.727 696.547C224.596 696.99 224.531 697.534 224.531 698.18V702.5H222.695V693.852H224.125L224.383 695.016H224.484C224.661 694.714 224.88 694.466 225.141 694.273C225.406 694.076 225.701 693.93 226.023 693.836C226.346 693.737 226.682 693.688 227.031 693.688C227.677 693.688 228.221 693.802 228.664 694.031C229.107 694.255 229.438 694.599 229.656 695.062H229.797C230.068 694.594 230.445 694.247 230.93 694.023C231.414 693.799 231.927 693.688 232.469 693.688ZM245.617 698.156C245.617 698.875 245.523 699.513 245.336 700.07C245.148 700.628 244.875 701.099 244.516 701.484C244.156 701.865 243.724 702.156 243.219 702.359C242.714 702.557 242.143 702.656 241.508 702.656C240.914 702.656 240.37 702.557 239.875 702.359C239.38 702.156 238.951 701.865 238.586 701.484C238.227 701.099 237.948 700.628 237.75 700.07C237.552 699.513 237.453 698.875 237.453 698.156C237.453 697.203 237.617 696.396 237.945 695.734C238.279 695.068 238.753 694.56 239.367 694.211C239.982 693.862 240.714 693.688 241.562 693.688C242.359 693.688 243.062 693.862 243.672 694.211C244.281 694.56 244.758 695.068 245.102 695.734C245.445 696.401 245.617 697.208 245.617 698.156ZM239.344 698.156C239.344 698.786 239.419 699.326 239.57 699.773C239.727 700.221 239.966 700.565 240.289 700.805C240.612 701.039 241.029 701.156 241.539 701.156C242.049 701.156 242.466 701.039 242.789 700.805C243.112 700.565 243.349 700.221 243.5 699.773C243.651 699.326 243.727 698.786 243.727 698.156C243.727 697.526 243.651 696.992 243.5 696.555C243.349 696.112 243.112 695.776 242.789 695.547C242.466 695.312 242.047 695.195 241.531 695.195C240.771 695.195 240.216 695.451 239.867 695.961C239.518 696.471 239.344 697.203 239.344 698.156Z" fill="white"/>
<path d="M19.8457 266.201C18.9043 266.201 18.1602 266.516 17.6133 267.145C17.0703 267.77 16.7988 268.627 16.7988 269.717C16.7988 270.838 17.0605 271.705 17.584 272.318C18.1113 272.928 18.8613 273.232 19.834 273.232C20.4316 273.232 21.1133 273.125 21.8789 272.91V273.783C21.2852 274.006 20.5527 274.117 19.6816 274.117C18.4199 274.117 17.4453 273.734 16.7578 272.969C16.0742 272.203 15.7324 271.115 15.7324 269.705C15.7324 268.822 15.8965 268.049 16.2246 267.385C16.5566 266.721 17.0332 266.209 17.6543 265.85C18.2793 265.49 19.0137 265.311 19.8574 265.311C20.7559 265.311 21.541 265.475 22.2129 265.803L21.791 266.658C21.1426 266.354 20.4941 266.201 19.8457 266.201ZM28.5234 274H23.748V265.434H28.5234V266.318H24.7441V269.078H28.2949V269.957H24.7441V273.109H28.5234V274ZM35.8594 267.93C35.8594 268.797 35.5625 269.465 34.9688 269.934C34.3789 270.398 33.5332 270.631 32.4316 270.631H31.4238V274H30.4277V265.434H32.6484C34.7891 265.434 35.8594 266.266 35.8594 267.93ZM31.4238 269.775H32.3203C33.2031 269.775 33.8418 269.633 34.2363 269.348C34.6309 269.062 34.8281 268.605 34.8281 267.977C34.8281 267.41 34.6426 266.988 34.2715 266.711C33.9004 266.434 33.3223 266.295 32.5371 266.295H31.4238V269.775Z" fill="black"/>
<rect x="15" y="285" width="398" height="70" rx="5" fill="#DCDFE8"/>
<path d="M34.4531 321.281C34.4531 322.203 34.3802 323.029 34.2344 323.758C34.0938 324.482 33.8698 325.096 33.5625 325.602C33.2552 326.107 32.8542 326.492 32.3594 326.758C31.8646 327.023 31.2656 327.156 30.5625 327.156C29.6823 327.156 28.9557 326.924 28.3828 326.461C27.8099 325.992 27.3854 325.32 27.1094 324.445C26.8333 323.565 26.6953 322.51 26.6953 321.281C26.6953 320.052 26.8203 319 27.0703 318.125C27.3255 317.245 27.737 316.57 28.3047 316.102C28.8724 315.633 29.625 315.398 30.5625 315.398C31.4479 315.398 32.1771 315.633 32.75 316.102C33.3281 316.565 33.7552 317.237 34.0312 318.117C34.3125 318.992 34.4531 320.047 34.4531 321.281ZM28.5469 321.281C28.5469 322.245 28.6094 323.049 28.7344 323.695C28.8646 324.341 29.0781 324.826 29.375 325.148C29.6719 325.466 30.0677 325.625 30.5625 325.625C31.0573 325.625 31.4531 325.466 31.75 325.148C32.0469 324.831 32.2604 324.349 32.3906 323.703C32.526 323.057 32.5938 322.25 32.5938 321.281C32.5938 320.323 32.5286 319.521 32.3984 318.875C32.2682 318.229 32.0547 317.745 31.7578 317.422C31.4609 317.094 31.0625 316.93 30.5625 316.93C30.0625 316.93 29.6641 317.094 29.3672 317.422C29.0755 317.745 28.8646 318.229 28.7344 318.875C28.6094 319.521 28.5469 320.323 28.5469 321.281ZM43.6094 321.281C43.6094 322.203 43.5365 323.029 43.3906 323.758C43.25 324.482 43.026 325.096 42.7188 325.602C42.4115 326.107 42.0104 326.492 41.5156 326.758C41.0208 327.023 40.4219 327.156 39.7188 327.156C38.8385 327.156 38.112 326.924 37.5391 326.461C36.9661 325.992 36.5417 325.32 36.2656 324.445C35.9896 323.565 35.8516 322.51 35.8516 321.281C35.8516 320.052 35.9766 319 36.2266 318.125C36.4818 317.245 36.8932 316.57 37.4609 316.102C38.0286 315.633 38.7812 315.398 39.7188 315.398C40.6042 315.398 41.3333 315.633 41.9062 316.102C42.4844 316.565 42.9115 317.237 43.1875 318.117C43.4688 318.992 43.6094 320.047 43.6094 321.281ZM37.7031 321.281C37.7031 322.245 37.7656 323.049 37.8906 323.695C38.0208 324.341 38.2344 324.826 38.5312 325.148C38.8281 325.466 39.224 325.625 39.7188 325.625C40.2135 325.625 40.6094 325.466 40.9062 325.148C41.2031 324.831 41.4167 324.349 41.5469 323.703C41.6823 323.057 41.75 322.25 41.75 321.281C41.75 320.323 41.6849 319.521 41.5547 318.875C41.4245 318.229 41.2109 317.745 40.9141 317.422C40.6172 317.094 40.2188 316.93 39.7188 316.93C39.2188 316.93 38.8203 317.094 38.5234 317.422C38.2318 317.745 38.0208 318.229 37.8906 318.875C37.7656 319.521 37.7031 320.323 37.7031 321.281ZM52.7656 321.281C52.7656 322.203 52.6927 323.029 52.5469 323.758C52.4062 324.482 52.1823 325.096 51.875 325.602C51.5677 326.107 51.1667 326.492 50.6719 326.758C50.1771 327.023 49.5781 327.156 48.875 327.156C47.9948 327.156 47.2682 326.924 46.6953 326.461C46.1224 325.992 45.6979 325.32 45.4219 324.445C45.1458 323.565 45.0078 322.51 45.0078 321.281C45.0078 320.052 45.1328 319 45.3828 318.125C45.638 317.245 46.0495 316.57 46.6172 316.102C47.1849 315.633 47.9375 315.398 48.875 315.398C49.7604 315.398 50.4896 315.633 51.0625 316.102C51.6406 316.565 52.0677 317.237 52.3438 318.117C52.625 318.992 52.7656 320.047 52.7656 321.281ZM46.8594 321.281C46.8594 322.245 46.9219 323.049 47.0469 323.695C47.1771 324.341 47.3906 324.826 47.6875 325.148C47.9844 325.466 48.3802 325.625 48.875 325.625C49.3698 325.625 49.7656 325.466 50.0625 325.148C50.3594 324.831 50.5729 324.349 50.7031 323.703C50.8385 323.057 50.9062 322.25 50.9062 321.281C50.9062 320.323 50.8411 319.521 50.7109 318.875C50.5807 318.229 50.3672 317.745 50.0703 317.422C49.7734 317.094 49.375 316.93 48.875 316.93C48.375 316.93 47.9766 317.094 47.6797 317.422C47.388 317.745 47.1771 318.229 47.0469 318.875C46.9219 319.521 46.8594 320.323 46.8594 321.281ZM61.9219 321.281C61.9219 322.203 61.849 323.029 61.7031 323.758C61.5625 324.482 61.3385 325.096 61.0312 325.602C60.724 326.107 60.3229 326.492 59.8281 326.758C59.3333 327.023 58.7344 327.156 58.0312 327.156C57.151 327.156 56.4245 326.924 55.8516 326.461C55.2786 325.992 54.8542 325.32 54.5781 324.445C54.3021 323.565 54.1641 322.51 54.1641 321.281C54.1641 320.052 54.2891 319 54.5391 318.125C54.7943 317.245 55.2057 316.57 55.7734 316.102C56.3411 315.633 57.0938 315.398 58.0312 315.398C58.9167 315.398 59.6458 315.633 60.2188 316.102C60.7969 316.565 61.224 317.237 61.5 318.117C61.7812 318.992 61.9219 320.047 61.9219 321.281ZM56.0156 321.281C56.0156 322.245 56.0781 323.049 56.2031 323.695C56.3333 324.341 56.5469 324.826 56.8438 325.148C57.1406 325.466 57.5365 325.625 58.0312 325.625C58.526 325.625 58.9219 325.466 59.2188 325.148C59.5156 324.831 59.7292 324.349 59.8594 323.703C59.9948 323.057 60.0625 322.25 60.0625 321.281C60.0625 320.323 59.9974 319.521 59.8672 318.875C59.737 318.229 59.5234 317.745 59.2266 317.422C58.9297 317.094 58.5312 316.93 58.0312 316.93C57.5312 316.93 57.1328 317.094 56.8359 317.422C56.5443 317.745 56.3333 318.229 56.2031 318.875C56.0781 319.521 56.0156 320.323 56.0156 321.281ZM71.0781 321.281C71.0781 322.203 71.0052 323.029 70.8594 323.758C70.7188 324.482 70.4948 325.096 70.1875 325.602C69.8802 326.107 69.4792 326.492 68.9844 326.758C68.4896 327.023 67.8906 327.156 67.1875 327.156C66.3073 327.156 65.5807 326.924 65.0078 326.461C64.4349 325.992 64.0104 325.32 63.7344 324.445C63.4583 323.565 63.3203 322.51 63.3203 321.281C63.3203 320.052 63.4453 319 63.6953 318.125C63.9505 317.245 64.362 316.57 64.9297 316.102C65.4974 315.633 66.25 315.398 67.1875 315.398C68.0729 315.398 68.8021 315.633 69.375 316.102C69.9531 316.565 70.3802 317.237 70.6562 318.117C70.9375 318.992 71.0781 320.047 71.0781 321.281ZM65.1719 321.281C65.1719 322.245 65.2344 323.049 65.3594 323.695C65.4896 324.341 65.7031 324.826 66 325.148C66.2969 325.466 66.6927 325.625 67.1875 325.625C67.6823 325.625 68.0781 325.466 68.375 325.148C68.6719 324.831 68.8854 324.349 69.0156 323.703C69.151 323.057 69.2188 322.25 69.2188 321.281C69.2188 320.323 69.1536 319.521 69.0234 318.875C68.8932 318.229 68.6797 317.745 68.3828 317.422C68.0859 317.094 67.6875 316.93 67.1875 316.93C66.6875 316.93 66.2891 317.094 65.9922 317.422C65.7005 317.745 65.4896 318.229 65.3594 318.875C65.2344 319.521 65.1719 320.323 65.1719 321.281ZM72.3438 323.484V321.93H76.375V323.484H72.3438ZM85.3906 321.281C85.3906 322.203 85.3177 323.029 85.1719 323.758C85.0312 324.482 84.8073 325.096 84.5 325.602C84.1927 326.107 83.7917 326.492 83.2969 326.758C82.8021 327.023 82.2031 327.156 81.5 327.156C80.6198 327.156 79.8932 326.924 79.3203 326.461C78.7474 325.992 78.3229 325.32 78.0469 324.445C77.7708 323.565 77.6328 322.51 77.6328 321.281C77.6328 320.052 77.7578 319 78.0078 318.125C78.263 317.245 78.6745 316.57 79.2422 316.102C79.8099 315.633 80.5625 315.398 81.5 315.398C82.3854 315.398 83.1146 315.633 83.6875 316.102C84.2656 316.565 84.6927 317.237 84.9688 318.117C85.25 318.992 85.3906 320.047 85.3906 321.281ZM79.4844 321.281C79.4844 322.245 79.5469 323.049 79.6719 323.695C79.8021 324.341 80.0156 324.826 80.3125 325.148C80.6094 325.466 81.0052 325.625 81.5 325.625C81.9948 325.625 82.3906 325.466 82.6875 325.148C82.9844 324.831 83.1979 324.349 83.3281 323.703C83.4635 323.057 83.5312 322.25 83.5312 321.281C83.5312 320.323 83.4661 319.521 83.3359 318.875C83.2057 318.229 82.9922 317.745 82.6953 317.422C82.3984 317.094 82 316.93 81.5 316.93C81 316.93 80.6016 317.094 80.3047 317.422C80.013 317.745 79.8021 318.229 79.6719 318.875C79.5469 319.521 79.4844 320.323 79.4844 321.281ZM94.5469 321.281C94.5469 322.203 94.474 323.029 94.3281 323.758C94.1875 324.482 93.9635 325.096 93.6562 325.602C93.349 326.107 92.9479 326.492 92.4531 326.758C91.9583 327.023 91.3594 327.156 90.6562 327.156C89.776 327.156 89.0495 326.924 88.4766 326.461C87.9036 325.992 87.4792 325.32 87.2031 324.445C86.9271 323.565 86.7891 322.51 86.7891 321.281C86.7891 320.052 86.9141 319 87.1641 318.125C87.4193 317.245 87.8307 316.57 88.3984 316.102C88.9661 315.633 89.7188 315.398 90.6562 315.398C91.5417 315.398 92.2708 315.633 92.8438 316.102C93.4219 316.565 93.849 317.237 94.125 318.117C94.4062 318.992 94.5469 320.047 94.5469 321.281ZM88.6406 321.281C88.6406 322.245 88.7031 323.049 88.8281 323.695C88.9583 324.341 89.1719 324.826 89.4688 325.148C89.7656 325.466 90.1615 325.625 90.6562 325.625C91.151 325.625 91.5469 325.466 91.8438 325.148C92.1406 324.831 92.3542 324.349 92.4844 323.703C92.6198 323.057 92.6875 322.25 92.6875 321.281C92.6875 320.323 92.6224 319.521 92.4922 318.875C92.362 318.229 92.1484 317.745 91.8516 317.422C91.5547 317.094 91.1562 316.93 90.6562 316.93C90.1562 316.93 89.7578 317.094 89.4609 317.422C89.1693 317.745 88.9583 318.229 88.8281 318.875C88.7031 319.521 88.6406 320.323 88.6406 321.281ZM103.703 321.281C103.703 322.203 103.63 323.029 103.484 323.758C103.344 324.482 103.12 325.096 102.812 325.602C102.505 326.107 102.104 326.492 101.609 326.758C101.115 327.023 100.516 327.156 99.8125 327.156C98.9323 327.156 98.2057 326.924 97.6328 326.461C97.0599 325.992 96.6354 325.32 96.3594 324.445C96.0833 323.565 95.9453 322.51 95.9453 321.281C95.9453 320.052 96.0703 319 96.3203 318.125C96.5755 317.245 96.987 316.57 97.5547 316.102C98.1224 315.633 98.875 315.398 99.8125 315.398C100.698 315.398 101.427 315.633 102 316.102C102.578 316.565 103.005 317.237 103.281 318.117C103.562 318.992 103.703 320.047 103.703 321.281ZM97.7969 321.281C97.7969 322.245 97.8594 323.049 97.9844 323.695C98.1146 324.341 98.3281 324.826 98.625 325.148C98.9219 325.466 99.3177 325.625 99.8125 325.625C100.307 325.625 100.703 325.466 101 325.148C101.297 324.831 101.51 324.349 101.641 323.703C101.776 323.057 101.844 322.25 101.844 321.281C101.844 320.323 101.779 319.521 101.648 318.875C101.518 318.229 101.305 317.745 101.008 317.422C100.711 317.094 100.312 316.93 99.8125 316.93C99.3125 316.93 98.9141 317.094 98.6172 317.422C98.3255 317.745 98.1146 318.229 97.9844 318.875C97.8594 319.521 97.7969 320.323 97.7969 321.281Z" fill="#9FA6AC"/>
<rect width="428" height="44" fill="#12B667"/>
<path d="M0 0H428V44H0V0Z" fill="black" fill-opacity="0.15"/>
<rect opacity="0.35" x="389.833" y="17.8335" width="21" height="10.3333" rx="2.16667" stroke="white"/>
<path opacity="0.4" d="M412.333 21V25C413.138 24.6612 413.662 23.8731 413.662 23C413.662 22.1269 413.138 21.3388 412.333 21Z" fill="white"/>
<rect x="391.333" y="19.3335" width="18" height="7.33333" rx="1.33333" fill="white"/>
<path fill-rule="evenodd" clip-rule="evenodd" d="M376.667 19.615C378.892 19.6151 381.031 20.4693 382.644 22.0008C382.765 22.1191 382.959 22.1176 383.079 21.9975L384.239 20.8272C384.3 20.7663 384.334 20.6837 384.333 20.5979C384.333 20.5121 384.298 20.4299 384.237 20.3697C380.005 16.3175 373.329 16.3175 369.097 20.3697C369.035 20.4299 369.001 20.512 369 20.5978C368.999 20.6837 369.033 20.7662 369.094 20.8272L370.255 21.9975C370.374 22.1178 370.568 22.1193 370.69 22.0008C372.302 20.4692 374.442 19.615 376.667 19.615ZM376.667 23.4226C377.889 23.4226 379.068 23.8765 379.974 24.6963C380.097 24.8126 380.29 24.8101 380.409 24.6906L381.569 23.5203C381.63 23.4589 381.663 23.3756 381.663 23.2891C381.662 23.2025 381.626 23.12 381.564 23.0598C378.805 20.4954 374.532 20.4954 371.773 23.0598C371.71 23.12 371.675 23.2026 371.674 23.2891C371.673 23.3757 371.707 23.459 371.768 23.5203L372.927 24.6906C373.047 24.8101 373.24 24.8126 373.362 24.6963C374.268 23.877 375.446 23.4231 376.667 23.4226ZM378.989 25.9845C378.991 26.0712 378.957 26.1549 378.895 26.2157L376.89 28.2377C376.831 28.2971 376.751 28.3306 376.667 28.3306C376.583 28.3306 376.503 28.2971 376.445 28.2377L374.439 26.2157C374.377 26.1549 374.343 26.0712 374.345 25.9844C374.347 25.8976 374.384 25.8154 374.449 25.7573C375.729 24.675 377.605 24.675 378.886 25.7573C378.95 25.8155 378.988 25.8977 378.989 25.9845Z" fill="white"/>
<path fill-rule="evenodd" clip-rule="evenodd" d="M363 17.6665H362C361.448 17.6665 361 18.1142 361 18.6665V27.3332C361 27.8855 361.448 28.3332 362 28.3332H363C363.552 28.3332 364 27.8855 364 27.3332V18.6665C364 18.1142 363.552 17.6665 363 17.6665ZM357.333 19.9998H358.333C358.886 19.9998 359.333 20.4476 359.333 20.9998V27.3332C359.333 27.8855 358.886 28.3332 358.333 28.3332H357.333C356.781 28.3332 356.333 27.8855 356.333 27.3332V20.9998C356.333 20.4476 356.781 19.9998 357.333 19.9998ZM353.667 22.3332H352.667C352.114 22.3332 351.667 22.7809 351.667 23.3332V27.3332C351.667 27.8855 352.114 28.3332 352.667 28.3332H353.667C354.219 28.3332 354.667 27.8855 354.667 27.3332V23.3332C354.667 22.7809 354.219 22.3332 353.667 22.3332ZM349 24.3332H348C347.448 24.3332 347 24.7809 347 25.3332V27.3332C347 27.8855 347.448 28.3332 348 28.3332H349C349.552 28.3332 350 27.8855 350 27.3332V25.3332C350 24.7809 349.552 24.3332 349 24.3332Z" fill="white"/>
<path d="M37.1613 17.1675C34.8688 17.1675 33.2355 18.7349 33.2355 20.8809V20.8955C33.2355 22.9023 34.6564 24.3818 36.6852 24.3818C38.1354 24.3818 39.0582 23.6421 39.4464 22.8071H39.5929C39.5929 22.8877 39.5856 22.9683 39.5856 23.0488C39.505 25.0703 38.7946 26.7109 37.1173 26.7109C36.1871 26.7109 35.5353 26.2275 35.257 25.4878L35.235 25.4146H33.3746L33.3893 25.4951C33.7262 27.1138 35.1764 28.2637 37.1173 28.2637C39.776 28.2637 41.38 26.1543 41.38 22.5947V22.5801C41.38 18.7715 39.4171 17.1675 37.1613 17.1675ZM37.1539 22.9316C35.9528 22.9316 35.0812 22.0527 35.0812 20.8296V20.8149C35.0812 19.6357 36.0114 18.7056 37.1759 18.7056C38.3478 18.7056 39.2633 19.6504 39.2633 20.8589V20.8735C39.2633 22.0674 38.3478 22.9316 37.1539 22.9316ZM44.5385 22.7046C45.2123 22.7046 45.703 22.1992 45.703 21.5547C45.703 20.9028 45.2123 20.3975 44.5385 20.3975C43.872 20.3975 43.3739 20.9028 43.3739 21.5547C43.3739 22.1992 43.872 22.7046 44.5385 22.7046ZM44.5385 28.1465C45.2123 28.1465 45.703 27.6338 45.703 26.9893C45.703 26.3374 45.2123 25.832 44.5385 25.832C43.872 25.832 43.3739 26.3374 43.3739 26.9893C43.3739 27.6338 43.872 28.1465 44.5385 28.1465ZM52.6041 28H54.4132V25.9712H55.8341V24.4111H54.4132V17.4312H51.7399C50.3043 19.6138 48.8029 22.0454 47.4332 24.4258V25.9712H52.6041V28ZM49.191 24.4551V24.3452C50.2164 22.5508 51.4396 20.5952 52.5236 18.9399H52.6334V24.4551H49.191ZM59.974 28H61.8636V17.4312H59.9813L57.2201 19.3721V21.1519L59.8495 19.2915H59.974V28Z" fill="white"/>
</svg>
