<svg width="6568" height="125" viewBox="0 0 6568 125" fill="none" xmlns="http://www.w3.org/2000/svg">
<rect width="6568" height="125" rx="10" fill="#14C871"/>
<path d="M3029.75 64.5361C3029.75 72.762 3027.4 79.0625 3022.71 83.4375C3018.04 87.8125 3011.28 90 3002.44 90H2988.29V40.0293H3003.98C3012.14 40.0293 3018.47 42.1826 3022.98 46.4893C3027.49 50.7959 3029.75 56.8115 3029.75 64.5361ZM3018.74 64.8096C3018.74 54.0771 3014 48.7109 3004.52 48.7109H2998.88V81.25H3003.43C3013.64 81.25 3018.74 75.7699 3018.74 64.8096ZM3063.55 90L3061.54 84.8047H3061.26C3059.51 87.015 3057.7 88.5531 3055.83 89.4189C3053.98 90.262 3051.57 90.6836 3048.58 90.6836C3044.91 90.6836 3042.02 89.6354 3039.9 87.5391C3037.8 85.4427 3036.76 82.4577 3036.76 78.584C3036.76 74.528 3038.17 71.543 3040.99 69.6289C3043.84 67.6921 3048.13 66.6211 3053.85 66.416L3060.48 66.2109V64.5361C3060.48 60.6624 3058.49 58.7256 3054.53 58.7256C3051.48 58.7256 3047.89 59.6484 3043.76 61.4941L3040.31 54.4531C3044.71 52.1517 3049.58 51.001 3054.94 51.001C3060.07 51.001 3064 52.1175 3066.73 54.3506C3069.47 56.5837 3070.83 59.9788 3070.83 64.5361V90H3063.55ZM3060.48 72.2949L3056.44 72.4316C3053.41 72.5228 3051.16 73.0697 3049.68 74.0723C3048.19 75.0749 3047.45 76.6016 3047.45 78.6523C3047.45 81.5918 3049.14 83.0615 3052.51 83.0615C3054.93 83.0615 3056.85 82.3665 3058.29 80.9766C3059.75 79.5866 3060.48 77.7409 3060.48 75.4395V72.2949ZM3093.7 90.6836C3089.21 90.6836 3085.68 88.9404 3083.1 85.4541C3080.55 81.9678 3079.28 77.137 3079.28 70.9619C3079.28 64.6956 3080.57 59.8193 3083.17 56.333C3085.79 52.8239 3089.39 51.0693 3093.97 51.0693C3098.78 51.0693 3102.45 52.9378 3104.98 56.6748H3105.32C3104.8 53.8265 3104.53 51.2858 3104.53 49.0527V36.8164H3114.99V90H3107L3104.98 85.0439H3104.53C3102.16 88.8037 3098.55 90.6836 3093.7 90.6836ZM3097.36 82.3779C3100.02 82.3779 3101.97 81.6032 3103.2 80.0537C3104.45 78.5042 3105.14 75.8724 3105.25 72.1582V71.0303C3105.25 66.9287 3104.61 63.9893 3103.34 62.2119C3102.08 60.4346 3100.03 59.5459 3097.19 59.5459C3094.86 59.5459 3093.05 60.5371 3091.75 62.5195C3090.47 64.4792 3089.84 67.3389 3089.84 71.0986C3089.84 74.8584 3090.49 77.6839 3091.79 79.5752C3093.08 81.4437 3094.94 82.3779 3097.36 82.3779ZM3134.2 70.8252C3134.2 74.6077 3134.82 77.4674 3136.05 79.4043C3137.3 81.3411 3139.33 82.3096 3142.13 82.3096C3144.91 82.3096 3146.91 81.3525 3148.11 79.4385C3149.34 77.5016 3149.96 74.6305 3149.96 70.8252C3149.96 67.0426 3149.34 64.2057 3148.11 62.3145C3146.88 60.4232 3144.87 59.4775 3142.06 59.4775C3139.28 59.4775 3137.28 60.4232 3136.05 62.3145C3134.82 64.1829 3134.2 67.0199 3134.2 70.8252ZM3160.62 70.8252C3160.62 77.0459 3158.98 81.9108 3155.7 85.4199C3152.42 88.929 3147.85 90.6836 3142 90.6836C3138.33 90.6836 3135.09 89.8861 3132.29 88.291C3129.49 86.6732 3127.33 84.3604 3125.83 81.3525C3124.32 78.3447 3123.57 74.8356 3123.57 70.8252C3123.57 64.5817 3125.2 59.7282 3128.46 56.2646C3131.72 52.8011 3136.3 51.0693 3142.2 51.0693C3145.87 51.0693 3149.1 51.8669 3151.91 53.4619C3154.71 55.057 3156.86 57.347 3158.37 60.332C3159.87 63.3171 3160.62 66.8148 3160.62 70.8252ZM3195.9 78.6523C3195.9 82.5716 3194.53 85.5566 3191.79 87.6074C3189.08 89.6582 3185.02 90.6836 3179.59 90.6836C3176.81 90.6836 3174.44 90.4899 3172.48 90.1025C3170.52 89.738 3168.69 89.1911 3166.98 88.4619V79.8486C3168.92 80.7601 3171.09 81.5234 3173.51 82.1387C3175.95 82.7539 3178.09 83.0615 3179.93 83.0615C3183.72 83.0615 3185.61 81.9678 3185.61 79.7803C3185.61 78.96 3185.36 78.2992 3184.86 77.7979C3184.36 77.2738 3183.49 76.6927 3182.26 76.0547C3181.03 75.3939 3179.39 74.6305 3177.34 73.7646C3174.4 72.5342 3172.23 71.3949 3170.84 70.3467C3169.48 69.2985 3168.47 68.1022 3167.83 66.7578C3167.22 65.3906 3166.91 63.7158 3166.91 61.7334C3166.91 58.3382 3168.22 55.7178 3170.84 53.8721C3173.49 52.0036 3177.22 51.0693 3182.05 51.0693C3186.66 51.0693 3191.13 52.0719 3195.49 54.0771L3192.34 61.5967C3190.43 60.7764 3188.64 60.1042 3186.98 59.5801C3185.31 59.056 3183.61 58.7939 3181.88 58.7939C3178.81 58.7939 3177.27 59.6257 3177.27 61.2891C3177.27 62.2233 3177.76 63.0322 3178.74 63.7158C3179.74 64.3994 3181.92 65.4134 3185.27 66.7578C3188.25 67.9655 3190.44 69.0934 3191.83 70.1416C3193.22 71.1898 3194.24 72.3975 3194.91 73.7646C3195.57 75.1318 3195.9 76.7611 3195.9 78.6523ZM3244.26 48.1299C3240.27 48.1299 3237.19 49.6338 3235 52.6416C3232.81 55.6266 3231.72 59.7965 3231.72 65.1514C3231.72 76.2939 3235.9 81.8652 3244.26 81.8652C3247.77 81.8652 3252.02 80.988 3257.01 79.2334V88.1201C3252.91 89.8291 3248.33 90.6836 3243.27 90.6836C3236 90.6836 3230.44 88.4847 3226.59 84.0869C3222.74 79.6663 3220.81 73.3317 3220.81 65.083C3220.81 59.8877 3221.76 55.3418 3223.65 51.4453C3225.54 47.526 3228.25 44.5296 3231.79 42.4561C3235.34 40.3597 3239.5 39.3115 3244.26 39.3115C3249.11 39.3115 3253.99 40.485 3258.89 42.832L3255.47 51.4453C3253.6 50.5566 3251.72 49.7819 3249.83 49.1211C3247.94 48.4603 3246.08 48.1299 3244.26 48.1299ZM3291.12 90L3289.1 84.8047H3288.83C3287.08 87.015 3285.26 88.5531 3283.4 89.4189C3281.55 90.262 3279.14 90.6836 3276.15 90.6836C3272.48 90.6836 3269.59 89.6354 3267.47 87.5391C3265.37 85.4427 3264.32 82.4577 3264.32 78.584C3264.32 74.528 3265.74 71.543 3268.56 69.6289C3271.41 67.6921 3275.69 66.6211 3281.41 66.416L3288.04 66.2109V64.5361C3288.04 60.6624 3286.06 58.7256 3282.1 58.7256C3279.04 58.7256 3275.46 59.6484 3271.33 61.4941L3267.88 54.4531C3272.28 52.1517 3277.15 51.001 3282.51 51.001C3287.63 51.001 3291.57 52.1175 3294.3 54.3506C3297.03 56.5837 3298.4 59.9788 3298.4 64.5361V90H3291.12ZM3288.04 72.2949L3284.01 72.4316C3280.98 72.5228 3278.73 73.0697 3277.24 74.0723C3275.76 75.0749 3275.02 76.6016 3275.02 78.6523C3275.02 81.5918 3276.71 83.0615 3280.08 83.0615C3282.5 83.0615 3284.42 82.3665 3285.86 80.9766C3287.32 79.5866 3288.04 77.7409 3288.04 75.4395V72.2949ZM3321.27 90.6836C3316.78 90.6836 3313.25 88.9404 3310.67 85.4541C3308.12 81.9678 3306.84 77.137 3306.84 70.9619C3306.84 64.6956 3308.14 59.8193 3310.74 56.333C3313.36 52.8239 3316.96 51.0693 3321.54 51.0693C3326.35 51.0693 3330.02 52.9378 3332.55 56.6748H3332.89C3332.36 53.8265 3332.1 51.2858 3332.1 49.0527V36.8164H3342.56V90H3334.56L3332.55 85.0439H3332.1C3329.73 88.8037 3326.12 90.6836 3321.27 90.6836ZM3324.92 82.3779C3327.59 82.3779 3329.54 81.6032 3330.77 80.0537C3332.02 78.5042 3332.71 75.8724 3332.82 72.1582V71.0303C3332.82 66.9287 3332.18 63.9893 3330.91 62.2119C3329.65 60.4346 3327.6 59.5459 3324.75 59.5459C3322.43 59.5459 3320.62 60.5371 3319.32 62.5195C3318.04 64.4792 3317.41 67.3389 3317.41 71.0986C3317.41 74.8584 3318.05 77.6839 3319.35 79.5752C3320.65 81.4437 3322.51 82.3779 3324.92 82.3779ZM3377.73 90L3375.72 84.8047H3375.44C3373.69 87.015 3371.88 88.5531 3370.01 89.4189C3368.16 90.262 3365.75 90.6836 3362.76 90.6836C3359.09 90.6836 3356.2 89.6354 3354.08 87.5391C3351.98 85.4427 3350.94 82.4577 3350.94 78.584C3350.94 74.528 3352.35 71.543 3355.17 69.6289C3358.02 67.6921 3362.31 66.6211 3368.03 66.416L3374.66 66.2109V64.5361C3374.66 60.6624 3372.67 58.7256 3368.71 58.7256C3365.66 58.7256 3362.07 59.6484 3357.94 61.4941L3354.49 54.4531C3358.89 52.1517 3363.76 51.001 3369.12 51.001C3374.25 51.001 3378.18 52.1175 3380.91 54.3506C3383.65 56.5837 3385.01 59.9788 3385.01 64.5361V90H3377.73ZM3374.66 72.2949L3370.62 72.4316C3367.59 72.5228 3365.34 73.0697 3363.86 74.0723C3362.37 75.0749 3361.63 76.6016 3361.63 78.6523C3361.63 81.5918 3363.32 83.0615 3366.69 83.0615C3369.11 83.0615 3371.03 82.3665 3372.47 80.9766C3373.93 79.5866 3374.66 77.7409 3374.66 75.4395V72.2949ZM3422.44 78.6523C3422.44 82.5716 3421.07 85.5566 3418.34 87.6074C3415.63 89.6582 3411.56 90.6836 3406.14 90.6836C3403.36 90.6836 3400.99 90.4899 3399.03 90.1025C3397.07 89.738 3395.23 89.1911 3393.52 88.4619V79.8486C3395.46 80.7601 3397.64 81.5234 3400.05 82.1387C3402.49 82.7539 3404.63 83.0615 3406.48 83.0615C3410.26 83.0615 3412.15 81.9678 3412.15 79.7803C3412.15 78.96 3411.9 78.2992 3411.4 77.7979C3410.9 77.2738 3410.03 76.6927 3408.8 76.0547C3407.57 75.3939 3405.93 74.6305 3403.88 73.7646C3400.94 72.5342 3398.78 71.3949 3397.39 70.3467C3396.02 69.2985 3395.02 68.1022 3394.38 66.7578C3393.76 65.3906 3393.46 63.7158 3393.46 61.7334C3393.46 58.3382 3394.77 55.7178 3397.39 53.8721C3400.03 52.0036 3403.77 51.0693 3408.6 51.0693C3413.2 51.0693 3417.68 52.0719 3422.03 54.0771L3418.88 61.5967C3416.97 60.7764 3415.18 60.1042 3413.52 59.5801C3411.86 59.056 3410.16 58.7939 3408.43 58.7939C3405.35 58.7939 3403.81 59.6257 3403.81 61.2891C3403.81 62.2233 3404.3 63.0322 3405.28 63.7158C3406.28 64.3994 3408.46 65.4134 3411.81 66.7578C3414.79 67.9655 3416.98 69.0934 3418.37 70.1416C3419.76 71.1898 3420.79 72.3975 3421.45 73.7646C3422.11 75.1318 3422.44 76.7611 3422.44 78.6523ZM3446.67 82.3779C3448.5 82.3779 3450.68 81.9792 3453.24 81.1816V88.9404C3450.64 90.1025 3447.45 90.6836 3443.67 90.6836C3439.5 90.6836 3436.45 89.6354 3434.54 87.5391C3432.65 85.4199 3431.7 82.2526 3431.7 78.0371V59.6143H3426.71V55.2051L3432.45 51.7188L3435.46 43.6523H3442.13V51.7871H3452.83V59.6143H3442.13V78.0371C3442.13 79.5182 3442.54 80.612 3443.36 81.3184C3444.2 82.0247 3445.31 82.3779 3446.67 82.3779ZM3482.32 51.0693C3483.74 51.0693 3484.91 51.1719 3485.84 51.377L3485.06 61.1523C3484.21 60.9245 3483.19 60.8105 3481.98 60.8105C3478.65 60.8105 3476.06 61.665 3474.19 63.374C3472.34 65.083 3471.42 67.4756 3471.42 70.5518V90H3460.99V51.7871H3468.89L3470.43 58.2129H3470.94C3472.13 56.071 3473.72 54.3506 3475.73 53.0518C3477.75 51.7301 3479.95 51.0693 3482.32 51.0693ZM3517.05 90L3515.03 84.8047H3514.76C3513 87.015 3511.19 88.5531 3509.32 89.4189C3507.48 90.262 3505.06 90.6836 3502.08 90.6836C3498.41 90.6836 3495.52 89.6354 3493.4 87.5391C3491.3 85.4427 3490.25 82.4577 3490.25 78.584C3490.25 74.528 3491.66 71.543 3494.49 69.6289C3497.34 67.6921 3501.62 66.6211 3507.34 66.416L3513.97 66.2109V64.5361C3513.97 60.6624 3511.99 58.7256 3508.03 58.7256C3504.97 58.7256 3501.38 59.6484 3497.26 61.4941L3493.81 54.4531C3498.2 52.1517 3503.08 51.001 3508.44 51.001C3513.56 51.001 3517.49 52.1175 3520.23 54.3506C3522.96 56.5837 3524.33 59.9788 3524.33 64.5361V90H3517.05ZM3513.97 72.2949L3509.94 72.4316C3506.91 72.5228 3504.65 73.0697 3503.17 74.0723C3501.69 75.0749 3500.95 76.6016 3500.95 78.6523C3500.95 81.5918 3502.64 83.0615 3506.01 83.0615C3508.42 83.0615 3510.35 82.3665 3511.79 80.9766C3513.24 79.5866 3513.97 77.7409 3513.97 75.4395V72.2949ZM3534.65 41.9092C3534.65 38.514 3536.54 36.8164 3540.33 36.8164C3544.11 36.8164 3546 38.514 3546 41.9092C3546 43.527 3545.52 44.7917 3544.56 45.7031C3543.63 46.5918 3542.22 47.0361 3540.33 47.0361C3536.54 47.0361 3534.65 45.3271 3534.65 41.9092ZM3545.52 90H3535.1V51.7871H3545.52V90ZM3583.15 78.6523C3583.15 82.5716 3581.79 85.5566 3579.05 87.6074C3576.34 89.6582 3572.27 90.6836 3566.85 90.6836C3564.07 90.6836 3561.7 90.4899 3559.74 90.1025C3557.78 89.738 3555.95 89.1911 3554.24 88.4619V79.8486C3556.17 80.7601 3558.35 81.5234 3560.76 82.1387C3563.2 82.7539 3565.34 83.0615 3567.19 83.0615C3570.97 83.0615 3572.86 81.9678 3572.86 79.7803C3572.86 78.96 3572.61 78.2992 3572.11 77.7979C3571.61 77.2738 3570.75 76.6927 3569.51 76.0547C3568.28 75.3939 3566.64 74.6305 3564.59 73.7646C3561.65 72.5342 3559.49 71.3949 3558.1 70.3467C3556.73 69.2985 3555.73 68.1022 3555.09 66.7578C3554.48 65.3906 3554.17 63.7158 3554.17 61.7334C3554.17 58.3382 3555.48 55.7178 3558.1 53.8721C3560.74 52.0036 3564.48 51.0693 3569.31 51.0693C3573.91 51.0693 3578.39 52.0719 3582.74 54.0771L3579.6 61.5967C3577.68 60.7764 3575.89 60.1042 3574.23 59.5801C3572.57 59.056 3570.87 58.7939 3569.14 58.7939C3566.06 58.7939 3564.52 59.6257 3564.52 61.2891C3564.52 62.2233 3565.01 63.0322 3565.99 63.7158C3567 64.3994 3569.17 65.4134 3572.52 66.7578C3575.51 67.9655 3577.69 69.0934 3579.08 70.1416C3580.47 71.1898 3581.5 72.3975 3582.16 73.7646C3582.82 75.1318 3583.15 76.7611 3583.15 78.6523Z" fill="white"/>
</svg>
