<svg width="428" height="125" viewBox="0 0 428 125" fill="none" xmlns="http://www.w3.org/2000/svg">
<rect width="428" height="125" rx="10" fill="#14C871"/>
<path d="M157.236 90H146.675V68.4326H126.885V90H116.289V40.0293H126.885V59.6143H146.675V40.0293H157.236V90ZM177.368 70.8252C177.368 74.6077 177.983 77.4674 179.214 79.4043C180.467 81.3411 182.495 82.3096 185.298 82.3096C188.078 82.3096 190.072 81.3525 191.279 79.4385C192.51 77.5016 193.125 74.6305 193.125 70.8252C193.125 67.0426 192.51 64.2057 191.279 62.3145C190.049 60.4232 188.032 59.4775 185.229 59.4775C182.45 59.4775 180.444 60.4232 179.214 62.3145C177.983 64.1829 177.368 67.0199 177.368 70.8252ZM203.789 70.8252C203.789 77.0459 202.148 81.9108 198.867 85.4199C195.586 88.929 191.017 90.6836 185.161 90.6836C181.493 90.6836 178.257 89.8861 175.454 88.291C172.651 86.6732 170.498 84.3604 168.994 81.3525C167.49 78.3447 166.738 74.8356 166.738 70.8252C166.738 64.5817 168.368 59.7282 171.626 56.2646C174.884 52.8011 179.465 51.0693 185.366 51.0693C189.035 51.0693 192.271 51.8669 195.073 53.4619C197.876 55.057 200.029 57.347 201.533 60.332C203.037 63.3171 203.789 66.8148 203.789 70.8252ZM246.616 90H236.191V67.6807C236.191 64.9235 235.724 62.8613 234.79 61.4941C233.879 60.1042 232.432 59.4092 230.449 59.4092C227.783 59.4092 225.846 60.389 224.639 62.3486C223.431 64.3083 222.827 67.5326 222.827 72.0215V90H212.402V51.7871H220.366L221.768 56.6748H222.349C223.374 54.9202 224.855 53.5531 226.792 52.5732C228.729 51.5706 230.951 51.0693 233.457 51.0693C239.176 51.0693 243.05 52.9378 245.078 56.6748H246.001C247.026 54.8975 248.53 53.5189 250.513 52.5391C252.518 51.5592 254.774 51.0693 257.28 51.0693C261.61 51.0693 264.88 52.1859 267.09 54.4189C269.323 56.6292 270.439 60.1839 270.439 65.083V90H259.98V67.6807C259.98 64.9235 259.513 62.8613 258.579 61.4941C257.668 60.1042 256.221 59.4092 254.238 59.4092C251.686 59.4092 249.772 60.3206 248.496 62.1436C247.243 63.9665 246.616 66.8604 246.616 70.8252V90ZM296.997 58.4863C294.787 58.4863 293.055 59.1927 291.802 60.6055C290.549 61.9954 289.831 63.9779 289.648 66.5527H304.277C304.232 63.9779 303.56 61.9954 302.261 60.6055C300.962 59.1927 299.207 58.4863 296.997 58.4863ZM298.467 90.6836C292.314 90.6836 287.507 88.986 284.043 85.5908C280.579 82.1956 278.848 77.3877 278.848 71.167C278.848 64.764 280.443 59.8193 283.633 56.333C286.846 52.8239 291.278 51.0693 296.929 51.0693C302.329 51.0693 306.533 52.6074 309.541 55.6836C312.549 58.7598 314.053 63.0094 314.053 68.4326V73.4912H289.409C289.523 76.4535 290.4 78.7663 292.041 80.4297C293.682 82.0931 295.983 82.9248 298.945 82.9248C301.247 82.9248 303.423 82.6855 305.474 82.207C307.524 81.7285 309.666 80.9652 311.899 79.917V87.9834C310.076 88.8949 308.128 89.5671 306.055 90C303.981 90.4557 301.452 90.6836 298.467 90.6836Z" fill="white"/>
</svg>
