<svg width="1117" height="125" viewBox="0 0 1117 125" fill="none" xmlns="http://www.w3.org/2000/svg">
<rect width="1117" height="125" rx="10" fill="#14C871"/>
<path d="M481.885 63.5449H485.371C488.63 63.5449 491.068 62.9069 492.686 61.6309C494.303 60.332 495.112 58.4521 495.112 55.9912C495.112 53.5075 494.429 51.6732 493.062 50.4883C491.717 49.3034 489.598 48.7109 486.704 48.7109H481.885V63.5449ZM505.811 55.6152C505.811 60.9928 504.124 65.1058 500.752 67.9541C497.402 70.8024 492.629 72.2266 486.431 72.2266H481.885V90H471.289V40.0293H487.251C493.312 40.0293 497.915 41.3395 501.06 43.96C504.227 46.5576 505.811 50.4427 505.811 55.6152ZM530.249 58.4863C528.039 58.4863 526.307 59.1927 525.054 60.6055C523.8 61.9954 523.083 63.9779 522.9 66.5527H537.529C537.484 63.9779 536.812 61.9954 535.513 60.6055C534.214 59.1927 532.459 58.4863 530.249 58.4863ZM531.719 90.6836C525.566 90.6836 520.758 88.986 517.295 85.5908C513.831 82.1956 512.1 77.3877 512.1 71.167C512.1 64.764 513.695 59.8193 516.885 56.333C520.098 52.8239 524.53 51.0693 530.181 51.0693C535.581 51.0693 539.785 52.6074 542.793 55.6836C545.801 58.7598 547.305 63.0094 547.305 68.4326V73.4912H522.661C522.775 76.4535 523.652 78.7663 525.293 80.4297C526.934 82.0931 529.235 82.9248 532.197 82.9248C534.499 82.9248 536.675 82.6855 538.726 82.207C540.776 81.7285 542.918 80.9652 545.151 79.917V87.9834C543.328 88.8949 541.38 89.5671 539.307 90C537.233 90.4557 534.704 90.6836 531.719 90.6836ZM577.109 51.0693C578.522 51.0693 579.696 51.1719 580.63 51.377L579.844 61.1523C579.001 60.9245 577.975 60.8105 576.768 60.8105C573.441 60.8105 570.843 61.665 568.975 63.374C567.129 65.083 566.206 67.4756 566.206 70.5518V90H555.781V51.7871H563.677L565.215 58.2129H565.728C566.912 56.071 568.507 54.3506 570.513 53.0518C572.541 51.7301 574.74 51.0693 577.109 51.0693ZM608.691 59.6143H599.668V90H589.243V59.6143H583.501V54.5898L589.243 51.7871V48.9844C589.243 44.6322 590.314 41.4535 592.456 39.4482C594.598 37.443 598.027 36.4404 602.744 36.4404C606.344 36.4404 609.546 36.9759 612.349 38.0469L609.683 45.7031C607.586 45.0423 605.649 44.7119 603.872 44.7119C602.391 44.7119 601.32 45.1562 600.659 46.0449C599.998 46.9108 599.668 48.0273 599.668 49.3945V51.7871H608.691V59.6143ZM614.229 41.9092C614.229 38.514 616.12 36.8164 619.902 36.8164C623.685 36.8164 625.576 38.514 625.576 41.9092C625.576 43.527 625.098 44.7917 624.141 45.7031C623.206 46.5918 621.794 47.0361 619.902 47.0361C616.12 47.0361 614.229 45.3271 614.229 41.9092ZM625.098 90H614.673V51.7871H625.098V90ZM646.46 90H636.035V36.8164H646.46V90Z" fill="white"/>
</svg>
