<svg width="2459" height="125" viewBox="0 0 2459 125" fill="none" xmlns="http://www.w3.org/2000/svg">
<rect width="2459" height="125" rx="10" fill="#14C871"/>
<path d="M944.789 90V40.0293H955.385V81.25H975.653V90H944.789ZM991.854 70.8252C991.854 74.6077 992.47 77.4674 993.7 79.4043C994.953 81.3411 996.981 82.3096 999.784 82.3096C1002.56 82.3096 1004.56 81.3525 1005.77 79.4385C1007 77.5016 1007.61 74.6305 1007.61 70.8252C1007.61 67.0426 1007 64.2057 1005.77 62.3145C1004.54 60.4232 1002.52 59.4775 999.716 59.4775C996.936 59.4775 994.931 60.4232 993.7 62.3145C992.47 64.1829 991.854 67.0199 991.854 70.8252ZM1018.28 70.8252C1018.28 77.0459 1016.63 81.9108 1013.35 85.4199C1010.07 88.929 1005.5 90.6836 999.647 90.6836C995.979 90.6836 992.743 89.8861 989.94 88.291C987.138 86.6732 984.984 84.3604 983.48 81.3525C981.977 78.3447 981.225 74.8356 981.225 70.8252C981.225 64.5817 982.854 59.7282 986.112 56.2646C989.371 52.8011 993.951 51.0693 999.853 51.0693C1003.52 51.0693 1006.76 51.8669 1009.56 53.4619C1012.36 55.057 1014.52 57.347 1016.02 60.332C1017.52 63.3171 1018.28 66.8148 1018.28 70.8252ZM1060.15 51.7871V57.085L1054.16 58.623C1055.26 60.332 1055.8 62.2461 1055.8 64.3652C1055.8 68.4668 1054.37 71.6683 1051.5 73.9697C1048.65 76.2484 1044.68 77.3877 1039.6 77.3877L1037.72 77.2852L1036.19 77.1143C1035.11 77.9346 1034.58 78.846 1034.58 79.8486C1034.58 81.3525 1036.49 82.1045 1040.32 82.1045H1046.82C1051.01 82.1045 1054.2 83.0046 1056.39 84.8047C1058.6 86.6048 1059.7 89.248 1059.7 92.7344C1059.7 97.2005 1057.83 100.664 1054.1 103.125C1050.38 105.586 1045.04 106.816 1038.07 106.816C1032.73 106.816 1028.65 105.882 1025.83 104.014C1023.03 102.168 1021.62 99.5703 1021.62 96.2207C1021.62 93.9193 1022.34 91.9938 1023.78 90.4443C1025.21 88.8949 1027.32 87.7897 1030.1 87.1289C1029.03 86.6732 1028.1 85.9326 1027.3 84.9072C1026.5 83.859 1026.1 82.7539 1026.1 81.5918C1026.1 80.1335 1026.52 78.9258 1027.37 77.9688C1028.21 76.9889 1029.43 76.0319 1031.02 75.0977C1029.02 74.2318 1027.42 72.8418 1026.24 70.9277C1025.08 69.0137 1024.5 66.7578 1024.5 64.1602C1024.5 59.9902 1025.85 56.766 1028.56 54.4873C1031.28 52.2087 1035.15 51.0693 1040.18 51.0693C1041.26 51.0693 1042.52 51.1719 1043.98 51.377C1045.46 51.5592 1046.41 51.696 1046.82 51.7871H1060.15ZM1030.65 95.4004C1030.65 96.8359 1031.33 97.9639 1032.7 98.7842C1034.09 99.6045 1036.03 100.015 1038.51 100.015C1042.25 100.015 1045.17 99.502 1047.29 98.4766C1049.41 97.4512 1050.47 96.0498 1050.47 94.2725C1050.47 92.8369 1049.85 91.8457 1048.59 91.2988C1047.34 90.752 1045.4 90.4785 1042.78 90.4785H1037.38C1035.47 90.4785 1033.86 90.9229 1032.56 91.8115C1031.29 92.723 1030.65 93.9193 1030.65 95.4004ZM1034.44 64.2969C1034.44 66.3704 1034.91 68.0111 1035.84 69.2188C1036.8 70.4264 1038.25 71.0303 1040.18 71.0303C1042.14 71.0303 1043.58 70.4264 1044.49 69.2188C1045.4 68.0111 1045.86 66.3704 1045.86 64.2969C1045.86 59.694 1043.97 57.3926 1040.18 57.3926C1036.36 57.3926 1034.44 59.694 1034.44 64.2969ZM1066.02 41.9092C1066.02 38.514 1067.92 36.8164 1071.7 36.8164C1075.48 36.8164 1077.37 38.514 1077.37 41.9092C1077.37 43.527 1076.89 44.7917 1075.94 45.7031C1075 46.5918 1073.59 47.0361 1071.7 47.0361C1067.92 47.0361 1066.02 45.3271 1066.02 41.9092ZM1076.89 90H1066.47V51.7871H1076.89V90ZM1123.14 90H1112.71V67.6807C1112.71 64.9235 1112.22 62.8613 1111.24 61.4941C1110.26 60.1042 1108.7 59.4092 1106.56 59.4092C1103.64 59.4092 1101.54 60.389 1100.24 62.3486C1098.94 64.2855 1098.29 67.5098 1098.29 72.0215V90H1087.87V51.7871H1095.83L1097.23 56.6748H1097.81C1098.97 54.8291 1100.57 53.4391 1102.6 52.5049C1104.65 51.5479 1106.97 51.0693 1109.57 51.0693C1114.01 51.0693 1117.39 52.277 1119.69 54.6924C1121.99 57.085 1123.14 60.5485 1123.14 65.083V90ZM1167.88 58.4863C1165.67 58.4863 1163.94 59.1927 1162.68 60.6055C1161.43 61.9954 1160.71 63.9779 1160.53 66.5527H1175.16C1175.11 63.9779 1174.44 61.9954 1173.14 60.6055C1171.84 59.1927 1170.09 58.4863 1167.88 58.4863ZM1169.35 90.6836C1163.2 90.6836 1158.39 88.986 1154.93 85.5908C1151.46 82.1956 1149.73 77.3877 1149.73 71.167C1149.73 64.764 1151.33 59.8193 1154.52 56.333C1157.73 52.8239 1162.16 51.0693 1167.81 51.0693C1173.21 51.0693 1177.42 52.6074 1180.42 55.6836C1183.43 58.7598 1184.94 63.0094 1184.94 68.4326V73.4912H1160.29C1160.41 76.4535 1161.28 78.7663 1162.92 80.4297C1164.56 82.0931 1166.87 82.9248 1169.83 82.9248C1172.13 82.9248 1174.31 82.6855 1176.36 82.207C1178.41 81.7285 1180.55 80.9652 1182.78 79.917V87.9834C1180.96 88.8949 1179.01 89.5671 1176.94 90C1174.86 90.4557 1172.33 90.6836 1169.35 90.6836ZM1233.64 48.1299C1229.65 48.1299 1226.57 49.6338 1224.38 52.6416C1222.19 55.6266 1221.1 59.7965 1221.1 65.1514C1221.1 76.2939 1225.28 81.8652 1233.64 81.8652C1237.15 81.8652 1241.4 80.988 1246.39 79.2334V88.1201C1242.29 89.8291 1237.71 90.6836 1232.65 90.6836C1225.38 90.6836 1219.82 88.4847 1215.97 84.0869C1212.12 79.6663 1210.19 73.3317 1210.19 65.083C1210.19 59.8877 1211.14 55.3418 1213.03 51.4453C1214.92 47.526 1217.63 44.5296 1221.17 42.4561C1224.72 40.3597 1228.88 39.3115 1233.64 39.3115C1238.5 39.3115 1243.37 40.485 1248.27 42.832L1244.85 51.4453C1242.98 50.5566 1241.1 49.7819 1239.21 49.1211C1237.32 48.4603 1235.46 48.1299 1233.64 48.1299ZM1280.5 90L1278.49 84.8047H1278.21C1276.46 87.015 1274.65 88.5531 1272.78 89.4189C1270.93 90.262 1268.52 90.6836 1265.53 90.6836C1261.86 90.6836 1258.97 89.6354 1256.85 87.5391C1254.75 85.4427 1253.71 82.4577 1253.71 78.584C1253.71 74.528 1255.12 71.543 1257.94 69.6289C1260.79 67.6921 1265.08 66.6211 1270.79 66.416L1277.43 66.2109V64.5361C1277.43 60.6624 1275.44 58.7256 1271.48 58.7256C1268.43 58.7256 1264.84 59.6484 1260.71 61.4941L1257.26 54.4531C1261.66 52.1517 1266.53 51.001 1271.89 51.001C1277.02 51.001 1280.95 52.1175 1283.68 54.3506C1286.42 56.5837 1287.78 59.9788 1287.78 64.5361V90H1280.5ZM1277.43 72.2949L1273.39 72.4316C1270.36 72.5228 1268.11 73.0697 1266.62 74.0723C1265.14 75.0749 1264.4 76.6016 1264.4 78.6523C1264.4 81.5918 1266.09 83.0615 1269.46 83.0615C1271.88 83.0615 1273.8 82.3665 1275.24 80.9766C1276.7 79.5866 1277.43 77.7409 1277.43 75.4395V72.2949ZM1310.65 90.6836C1306.16 90.6836 1302.63 88.9404 1300.05 85.4541C1297.5 81.9678 1296.22 77.137 1296.22 70.9619C1296.22 64.6956 1297.52 59.8193 1300.12 56.333C1302.74 52.8239 1306.34 51.0693 1310.92 51.0693C1315.73 51.0693 1319.4 52.9378 1321.93 56.6748H1322.27C1321.75 53.8265 1321.48 51.2858 1321.48 49.0527V36.8164H1331.94V90H1323.94L1321.93 85.0439H1321.48C1319.11 88.8037 1315.5 90.6836 1310.65 90.6836ZM1314.31 82.3779C1316.97 82.3779 1318.92 81.6032 1320.15 80.0537C1321.4 78.5042 1322.09 75.8724 1322.2 72.1582V71.0303C1322.2 66.9287 1321.56 63.9893 1320.29 62.2119C1319.03 60.4346 1316.98 59.5459 1314.13 59.5459C1311.81 59.5459 1310 60.5371 1308.7 62.5195C1307.42 64.4792 1306.79 67.3389 1306.79 71.0986C1306.79 74.8584 1307.44 77.6839 1308.73 79.5752C1310.03 81.4437 1311.89 82.3779 1314.31 82.3779ZM1367.11 90L1365.1 84.8047H1364.82C1363.07 87.015 1361.26 88.5531 1359.39 89.4189C1357.54 90.262 1355.13 90.6836 1352.14 90.6836C1348.47 90.6836 1345.58 89.6354 1343.46 87.5391C1341.36 85.4427 1340.32 82.4577 1340.32 78.584C1340.32 74.528 1341.73 71.543 1344.55 69.6289C1347.4 67.6921 1351.69 66.6211 1357.41 66.416L1364.04 66.2109V64.5361C1364.04 60.6624 1362.05 58.7256 1358.09 58.7256C1355.04 58.7256 1351.45 59.6484 1347.32 61.4941L1343.87 54.4531C1348.27 52.1517 1353.15 51.001 1358.5 51.001C1363.63 51.001 1367.56 52.1175 1370.29 54.3506C1373.03 56.5837 1374.39 59.9788 1374.39 64.5361V90H1367.11ZM1364.04 72.2949L1360 72.4316C1356.97 72.5228 1354.72 73.0697 1353.24 74.0723C1351.76 75.0749 1351.01 76.6016 1351.01 78.6523C1351.01 81.5918 1352.7 83.0615 1356.07 83.0615C1358.49 83.0615 1360.41 82.3665 1361.85 80.9766C1363.31 79.5866 1364.04 77.7409 1364.04 75.4395V72.2949ZM1411.82 78.6523C1411.82 82.5716 1410.45 85.5566 1407.72 87.6074C1405.01 89.6582 1400.94 90.6836 1395.52 90.6836C1392.74 90.6836 1390.37 90.4899 1388.41 90.1025C1386.45 89.738 1384.61 89.1911 1382.9 88.4619V79.8486C1384.84 80.7601 1387.02 81.5234 1389.43 82.1387C1391.87 82.7539 1394.01 83.0615 1395.86 83.0615C1399.64 83.0615 1401.53 81.9678 1401.53 79.7803C1401.53 78.96 1401.28 78.2992 1400.78 77.7979C1400.28 77.2738 1399.41 76.6927 1398.18 76.0547C1396.95 75.3939 1395.31 74.6305 1393.26 73.7646C1390.32 72.5342 1388.16 71.3949 1386.77 70.3467C1385.4 69.2985 1384.4 68.1022 1383.76 66.7578C1383.14 65.3906 1382.84 63.7158 1382.84 61.7334C1382.84 58.3382 1384.15 55.7178 1386.77 53.8721C1389.41 52.0036 1393.15 51.0693 1397.98 51.0693C1402.58 51.0693 1407.06 52.0719 1411.41 54.0771L1408.27 61.5967C1406.35 60.7764 1404.56 60.1042 1402.9 59.5801C1401.24 59.056 1399.54 58.7939 1397.81 58.7939C1394.73 58.7939 1393.19 59.6257 1393.19 61.2891C1393.19 62.2233 1393.68 63.0322 1394.66 63.7158C1395.66 64.3994 1397.84 65.4134 1401.19 66.7578C1404.18 67.9655 1406.36 69.0934 1407.75 70.1416C1409.14 71.1898 1410.17 72.3975 1410.83 73.7646C1411.49 75.1318 1411.82 76.7611 1411.82 78.6523ZM1436.05 82.3779C1437.88 82.3779 1440.06 81.9792 1442.62 81.1816V88.9404C1440.02 90.1025 1436.83 90.6836 1433.05 90.6836C1428.88 90.6836 1425.83 89.6354 1423.92 87.5391C1422.03 85.4199 1421.08 82.2526 1421.08 78.0371V59.6143H1416.09V55.2051L1421.83 51.7188L1424.84 43.6523H1431.51V51.7871H1442.21V59.6143H1431.51V78.0371C1431.51 79.5182 1431.92 80.612 1432.74 81.3184C1433.58 82.0247 1434.69 82.3779 1436.05 82.3779ZM1471.7 51.0693C1473.12 51.0693 1474.29 51.1719 1475.22 51.377L1474.44 61.1523C1473.59 60.9245 1472.57 60.8105 1471.36 60.8105C1468.03 60.8105 1465.44 61.665 1463.57 63.374C1461.72 65.083 1460.8 67.4756 1460.8 70.5518V90H1450.38V51.7871H1458.27L1459.81 58.2129H1460.32C1461.51 56.071 1463.1 54.3506 1465.11 53.0518C1467.13 51.7301 1469.33 51.0693 1471.7 51.0693ZM1490.47 70.8252C1490.47 74.6077 1491.08 77.4674 1492.31 79.4043C1493.57 81.3411 1495.59 82.3096 1498.4 82.3096C1501.18 82.3096 1503.17 81.3525 1504.38 79.4385C1505.61 77.5016 1506.22 74.6305 1506.22 70.8252C1506.22 67.0426 1505.61 64.2057 1504.38 62.3145C1503.15 60.4232 1501.13 59.4775 1498.33 59.4775C1495.55 59.4775 1493.54 60.4232 1492.31 62.3145C1491.08 64.1829 1490.47 67.0199 1490.47 70.8252ZM1516.89 70.8252C1516.89 77.0459 1515.25 81.9108 1511.97 85.4199C1508.69 88.929 1504.12 90.6836 1498.26 90.6836C1494.59 90.6836 1491.36 89.8861 1488.55 88.291C1485.75 86.6732 1483.6 84.3604 1482.09 81.3525C1480.59 78.3447 1479.84 74.8356 1479.84 70.8252C1479.84 64.5817 1481.47 59.7282 1484.73 56.2646C1487.98 52.8011 1492.56 51.0693 1498.47 51.0693C1502.13 51.0693 1505.37 51.8669 1508.17 53.4619C1510.98 55.057 1513.13 57.347 1514.63 60.332C1516.14 63.3171 1516.89 66.8148 1516.89 70.8252Z" fill="white"/>
</svg>
