<svg width="2777" height="125" viewBox="0 0 2777 125" fill="none" xmlns="http://www.w3.org/2000/svg">
<rect width="2777" height="125" rx="10" fill="#14C871"/>
<path d="M1288.26 61.9385H1308.08V87.8467C1304.87 88.8949 1301.84 89.624 1298.99 90.0342C1296.17 90.4671 1293.27 90.6836 1290.31 90.6836C1282.77 90.6836 1277 88.4733 1273.01 84.0527C1269.05 79.6094 1267.07 73.2406 1267.07 64.9463C1267.07 56.8799 1269.37 50.5908 1273.97 46.0791C1278.6 41.5674 1285 39.3115 1293.18 39.3115C1298.31 39.3115 1303.25 40.3369 1308.01 42.3877L1304.49 50.8643C1300.85 49.0413 1297.05 48.1299 1293.11 48.1299C1288.53 48.1299 1284.86 49.668 1282.11 52.7441C1279.35 55.8203 1277.97 59.9561 1277.97 65.1514C1277.97 70.5745 1279.08 74.7217 1281.29 77.5928C1283.52 80.4411 1286.75 81.8652 1290.99 81.8652C1293.2 81.8652 1295.45 81.6374 1297.73 81.1816V70.7568H1288.26V61.9385ZM1340.52 51.0693C1341.93 51.0693 1343.11 51.1719 1344.04 51.377L1343.25 61.1523C1342.41 60.9245 1341.39 60.8105 1340.18 60.8105C1336.85 60.8105 1334.25 61.665 1332.38 63.374C1330.54 65.083 1329.62 67.4756 1329.62 70.5518V90H1319.19V51.7871H1327.09L1328.62 58.2129H1329.14C1330.32 56.071 1331.92 54.3506 1333.92 53.0518C1335.95 51.7301 1338.15 51.0693 1340.52 51.0693ZM1378.05 90L1376.65 85.1123H1376.1C1374.98 86.8896 1373.4 88.2682 1371.35 89.248C1369.3 90.2051 1366.96 90.6836 1364.34 90.6836C1359.85 90.6836 1356.47 89.4873 1354.19 87.0947C1351.91 84.6794 1350.77 81.2158 1350.77 76.7041V51.7871H1361.2V74.1064C1361.2 76.8636 1361.69 78.9372 1362.67 80.3271C1363.65 81.6943 1365.21 82.3779 1367.35 82.3779C1370.27 82.3779 1372.38 81.4095 1373.67 79.4727C1374.97 77.513 1375.62 74.2773 1375.62 69.7656V51.7871H1386.05V90H1378.05ZM1417.97 90.6836C1413.48 90.6836 1409.96 89.0544 1407.41 85.7959H1406.86C1407.23 88.986 1407.41 90.8317 1407.41 91.333V106.816H1396.98V51.7871H1405.46L1406.93 56.7432H1407.41C1409.85 52.9606 1413.46 51.0693 1418.24 51.0693C1422.76 51.0693 1426.29 52.8125 1428.84 56.2988C1431.39 59.7852 1432.67 64.6273 1432.67 70.8252C1432.67 74.904 1432.06 78.4473 1430.86 81.4551C1429.67 84.4629 1427.97 86.7529 1425.76 88.3252C1423.55 89.8975 1420.96 90.6836 1417.97 90.6836ZM1414.89 59.4092C1412.32 59.4092 1410.44 60.2067 1409.25 61.8018C1408.07 63.374 1407.45 65.9831 1407.41 69.6289V70.7568C1407.41 74.8584 1408.01 77.7979 1409.22 79.5752C1410.45 81.3525 1412.39 82.2412 1415.03 82.2412C1419.7 82.2412 1422.04 78.3903 1422.04 70.6885C1422.04 66.9287 1421.46 64.1146 1420.29 62.2461C1419.16 60.3548 1417.36 59.4092 1414.89 59.4092ZM1449.59 70.8252C1449.59 74.6077 1450.2 77.4674 1451.43 79.4043C1452.69 81.3411 1454.71 82.3096 1457.52 82.3096C1460.3 82.3096 1462.29 81.3525 1463.5 79.4385C1464.73 77.5016 1465.34 74.6305 1465.34 70.8252C1465.34 67.0426 1464.73 64.2057 1463.5 62.3145C1462.27 60.4232 1460.25 59.4775 1457.45 59.4775C1454.67 59.4775 1452.66 60.4232 1451.43 62.3145C1450.2 64.1829 1449.59 67.0199 1449.59 70.8252ZM1476.01 70.8252C1476.01 77.0459 1474.37 81.9108 1471.09 85.4199C1467.8 88.929 1463.24 90.6836 1457.38 90.6836C1453.71 90.6836 1450.48 89.8861 1447.67 88.291C1444.87 86.6732 1442.72 84.3604 1441.21 81.3525C1439.71 78.3447 1438.96 74.8356 1438.96 70.8252C1438.96 64.5817 1440.59 59.7282 1443.84 56.2646C1447.1 52.8011 1451.68 51.0693 1457.58 51.0693C1461.25 51.0693 1464.49 51.8669 1467.29 53.4619C1470.09 55.057 1472.25 57.347 1473.75 60.332C1475.26 63.3171 1476.01 66.8148 1476.01 70.8252ZM1511.28 78.6523C1511.28 82.5716 1509.91 85.5566 1507.18 87.6074C1504.47 89.6582 1500.4 90.6836 1494.98 90.6836C1492.2 90.6836 1489.83 90.4899 1487.87 90.1025C1485.91 89.738 1484.07 89.1911 1482.37 88.4619V79.8486C1484.3 80.7601 1486.48 81.5234 1488.89 82.1387C1491.33 82.7539 1493.47 83.0615 1495.32 83.0615C1499.1 83.0615 1500.99 81.9678 1500.99 79.7803C1500.99 78.96 1500.74 78.2992 1500.24 77.7979C1499.74 77.2738 1498.87 76.6927 1497.64 76.0547C1496.41 75.3939 1494.77 74.6305 1492.72 73.7646C1489.78 72.5342 1487.62 71.3949 1486.23 70.3467C1484.86 69.2985 1483.86 68.1022 1483.22 66.7578C1482.6 65.3906 1482.3 63.7158 1482.3 61.7334C1482.3 58.3382 1483.61 55.7178 1486.23 53.8721C1488.87 52.0036 1492.61 51.0693 1497.44 51.0693C1502.04 51.0693 1506.52 52.0719 1510.87 54.0771L1507.73 61.5967C1505.81 60.7764 1504.02 60.1042 1502.36 59.5801C1500.7 59.056 1499 58.7939 1497.27 58.7939C1494.19 58.7939 1492.65 59.6257 1492.65 61.2891C1492.65 62.2233 1493.14 63.0322 1494.12 63.7158C1495.13 64.3994 1497.3 65.4134 1500.65 66.7578C1503.64 67.9655 1505.82 69.0934 1507.21 70.1416C1508.6 71.1898 1509.63 72.3975 1510.29 73.7646C1510.95 75.1318 1511.28 76.7611 1511.28 78.6523Z" fill="white"/>
</svg>
