<svg width="2138" height="125" viewBox="0 0 2138 125" fill="none" xmlns="http://www.w3.org/2000/svg">
<rect width="2138" height="125" rx="10" fill="#14C871"/>
<path d="M922.714 90H912.289V40.0293H940.932V48.7109H922.714V61.5967H939.667V70.2441H922.714V90ZM974.154 90L972.138 84.8047H971.864C970.11 87.015 968.298 88.5531 966.43 89.4189C964.584 90.262 962.169 90.6836 959.184 90.6836C955.515 90.6836 952.621 89.6354 950.502 87.5391C948.406 85.4427 947.357 82.4577 947.357 78.584C947.357 74.528 948.77 71.543 951.596 69.6289C954.444 67.6921 958.728 66.6211 964.447 66.416L971.078 66.2109V64.5361C971.078 60.6624 969.096 58.7256 965.131 58.7256C962.077 58.7256 958.489 59.6484 954.364 61.4941L950.912 54.4531C955.31 52.1517 960.186 51.001 965.541 51.001C970.668 51.001 974.599 52.1175 977.333 54.3506C980.067 56.5837 981.435 59.9788 981.435 64.5361V90H974.154ZM971.078 72.2949L967.045 72.4316C964.014 72.5228 961.758 73.0697 960.277 74.0723C958.796 75.0749 958.056 76.6016 958.056 78.6523C958.056 81.5918 959.742 83.0615 963.114 83.0615C965.53 83.0615 967.455 82.3665 968.891 80.9766C970.349 79.5866 971.078 77.7409 971.078 75.4395V72.2949ZM1001.29 90L986.732 51.7871H997.636L1005.02 73.5596C1005.84 76.3167 1006.35 78.9258 1006.56 81.3867H1006.76C1006.88 79.1992 1007.39 76.5902 1008.3 73.5596L1015.65 51.7871H1026.55L1011.99 90H1001.29ZM1040.36 70.8252C1040.36 74.6077 1040.98 77.4674 1042.21 79.4043C1043.46 81.3411 1045.49 82.3096 1048.29 82.3096C1051.07 82.3096 1053.06 81.3525 1054.27 79.4385C1055.5 77.5016 1056.12 74.6305 1056.12 70.8252C1056.12 67.0426 1055.5 64.2057 1054.27 62.3145C1053.04 60.4232 1051.02 59.4775 1048.22 59.4775C1045.44 59.4775 1043.44 60.4232 1042.21 62.3145C1040.98 64.1829 1040.36 67.0199 1040.36 70.8252ZM1066.78 70.8252C1066.78 77.0459 1065.14 81.9108 1061.86 85.4199C1058.58 88.929 1054.01 90.6836 1048.15 90.6836C1044.48 90.6836 1041.25 89.8861 1038.45 88.291C1035.64 86.6732 1033.49 84.3604 1031.99 81.3525C1030.48 78.3447 1029.73 74.8356 1029.73 70.8252C1029.73 64.5817 1031.36 59.7282 1034.62 56.2646C1037.88 52.8011 1042.46 51.0693 1048.36 51.0693C1052.03 51.0693 1055.26 51.8669 1058.07 53.4619C1060.87 55.057 1063.02 57.347 1064.53 60.332C1066.03 63.3171 1066.78 66.8148 1066.78 70.8252ZM1096.72 51.0693C1098.14 51.0693 1099.31 51.1719 1100.24 51.377L1099.46 61.1523C1098.61 60.9245 1097.59 60.8105 1096.38 60.8105C1093.05 60.8105 1090.46 61.665 1088.59 63.374C1086.74 65.083 1085.82 67.4756 1085.82 70.5518V90H1075.39V51.7871H1083.29L1084.83 58.2129H1085.34C1086.53 56.071 1088.12 54.3506 1090.13 53.0518C1092.15 51.7301 1094.35 51.0693 1096.72 51.0693ZM1106.74 41.9092C1106.74 38.514 1108.63 36.8164 1112.41 36.8164C1116.19 36.8164 1118.08 38.514 1118.08 41.9092C1118.08 43.527 1117.61 44.7917 1116.65 45.7031C1115.72 46.5918 1114.3 47.0361 1112.41 47.0361C1108.63 47.0361 1106.74 45.3271 1106.74 41.9092ZM1117.61 90H1107.18V51.7871H1117.61V90ZM1144.68 82.3779C1146.5 82.3779 1148.69 81.9792 1151.24 81.1816V88.9404C1148.64 90.1025 1145.45 90.6836 1141.67 90.6836C1137.5 90.6836 1134.46 89.6354 1132.54 87.5391C1130.65 85.4199 1129.71 82.2526 1129.71 78.0371V59.6143H1124.72V55.2051L1130.46 51.7188L1133.47 43.6523H1140.13V51.7871H1150.83V59.6143H1140.13V78.0371C1140.13 79.5182 1140.54 80.612 1141.36 81.3184C1142.2 82.0247 1143.31 82.3779 1144.68 82.3779ZM1167.3 70.8252C1167.3 74.6077 1167.92 77.4674 1169.15 79.4043C1170.4 81.3411 1172.43 82.3096 1175.23 82.3096C1178.01 82.3096 1180.01 81.3525 1181.21 79.4385C1182.45 77.5016 1183.06 74.6305 1183.06 70.8252C1183.06 67.0426 1182.45 64.2057 1181.21 62.3145C1179.98 60.4232 1177.97 59.4775 1175.17 59.4775C1172.39 59.4775 1170.38 60.4232 1169.15 62.3145C1167.92 64.1829 1167.3 67.0199 1167.3 70.8252ZM1193.72 70.8252C1193.72 77.0459 1192.08 81.9108 1188.8 85.4199C1185.52 88.929 1180.95 90.6836 1175.1 90.6836C1171.43 90.6836 1168.19 89.8861 1165.39 88.291C1162.59 86.6732 1160.43 84.3604 1158.93 81.3525C1157.43 78.3447 1156.67 74.8356 1156.67 70.8252C1156.67 64.5817 1158.3 59.7282 1161.56 56.2646C1164.82 52.8011 1169.4 51.0693 1175.3 51.0693C1178.97 51.0693 1182.21 51.8669 1185.01 53.4619C1187.81 55.057 1189.96 57.347 1191.47 60.332C1192.97 63.3171 1193.72 66.8148 1193.72 70.8252ZM1229 78.6523C1229 82.5716 1227.63 85.5566 1224.9 87.6074C1222.18 89.6582 1218.12 90.6836 1212.69 90.6836C1209.91 90.6836 1207.54 90.4899 1205.58 90.1025C1203.63 89.738 1201.79 89.1911 1200.08 88.4619V79.8486C1202.02 80.7601 1204.19 81.5234 1206.61 82.1387C1209.05 82.7539 1211.19 83.0615 1213.04 83.0615C1216.82 83.0615 1218.71 81.9678 1218.71 79.7803C1218.71 78.96 1218.46 78.2992 1217.96 77.7979C1217.46 77.2738 1216.59 76.6927 1215.36 76.0547C1214.13 75.3939 1212.49 74.6305 1210.44 73.7646C1207.5 72.5342 1205.33 71.3949 1203.94 70.3467C1202.58 69.2985 1201.57 68.1022 1200.94 66.7578C1200.32 65.3906 1200.01 63.7158 1200.01 61.7334C1200.01 58.3382 1201.32 55.7178 1203.94 53.8721C1206.59 52.0036 1210.32 51.0693 1215.16 51.0693C1219.76 51.0693 1224.24 52.0719 1228.59 54.0771L1225.44 61.5967C1223.53 60.7764 1221.74 60.1042 1220.08 59.5801C1218.41 59.056 1216.72 58.7939 1214.98 58.7939C1211.91 58.7939 1210.37 59.6257 1210.37 61.2891C1210.37 62.2233 1210.86 63.0322 1211.84 63.7158C1212.84 64.3994 1215.02 65.4134 1218.37 66.7578C1221.35 67.9655 1223.54 69.0934 1224.93 70.1416C1226.32 71.1898 1227.35 72.3975 1228.01 73.7646C1228.67 75.1318 1229 76.7611 1229 78.6523Z" fill="white"/>
</svg>
