<svg width="2891" height="125" viewBox="0 0 2891 125" fill="none" xmlns="http://www.w3.org/2000/svg">
<rect width="2891" height="125" rx="10" fill="#14C871"/>
<path d="M1007.29 90V40.0293H1017.88V90H1007.29ZM1064.92 90H1054.49V67.6807C1054.49 64.9235 1054 62.8613 1053.02 61.4941C1052.04 60.1042 1050.48 59.4092 1048.34 59.4092C1045.42 59.4092 1043.31 60.389 1042.02 62.3486C1040.72 64.2855 1040.07 67.5098 1040.07 72.0215V90H1029.64V51.7871H1037.61L1039.01 56.6748H1039.59C1040.75 54.8291 1042.35 53.4391 1044.37 52.5049C1046.42 51.5479 1048.75 51.0693 1051.35 51.0693C1055.79 51.0693 1059.16 52.277 1061.46 54.6924C1063.77 57.085 1064.92 60.5485 1064.92 65.083V90ZM1091.75 82.3779C1093.57 82.3779 1095.76 81.9792 1098.31 81.1816V88.9404C1095.71 90.1025 1092.52 90.6836 1088.74 90.6836C1084.57 90.6836 1081.53 89.6354 1079.61 87.5391C1077.72 85.4199 1076.78 82.2526 1076.78 78.0371V59.6143H1071.79V55.2051L1077.53 51.7188L1080.54 43.6523H1087.2V51.7871H1097.9V59.6143H1087.2V78.0371C1087.2 79.5182 1087.61 80.612 1088.43 81.3184C1089.27 82.0247 1090.38 82.3779 1091.75 82.3779ZM1121.89 58.4863C1119.68 58.4863 1117.95 59.1927 1116.7 60.6055C1115.44 61.9954 1114.73 63.9779 1114.54 66.5527H1129.17C1129.13 63.9779 1128.46 61.9954 1127.16 60.6055C1125.86 59.1927 1124.1 58.4863 1121.89 58.4863ZM1123.36 90.6836C1117.21 90.6836 1112.4 88.986 1108.94 85.5908C1105.48 82.1956 1103.74 77.3877 1103.74 71.167C1103.74 64.764 1105.34 59.8193 1108.53 56.333C1111.74 52.8239 1116.17 51.0693 1121.83 51.0693C1127.23 51.0693 1131.43 52.6074 1134.44 55.6836C1137.45 58.7598 1138.95 63.0094 1138.95 68.4326V73.4912H1114.31C1114.42 76.4535 1115.3 78.7663 1116.94 80.4297C1118.58 82.0931 1120.88 82.9248 1123.84 82.9248C1126.14 82.9248 1128.32 82.6855 1130.37 82.207C1132.42 81.7285 1134.56 80.9652 1136.8 79.917V87.9834C1134.97 88.8949 1133.02 89.5671 1130.95 90C1128.88 90.4557 1126.35 90.6836 1123.36 90.6836ZM1168.75 51.0693C1170.17 51.0693 1171.34 51.1719 1172.27 51.377L1171.49 61.1523C1170.65 60.9245 1169.62 60.8105 1168.41 60.8105C1165.09 60.8105 1162.49 61.665 1160.62 63.374C1158.77 65.083 1157.85 67.4756 1157.85 70.5518V90H1147.43V51.7871H1155.32L1156.86 58.2129H1157.37C1158.56 56.071 1160.15 54.3506 1162.16 53.0518C1164.19 51.7301 1166.38 51.0693 1168.75 51.0693ZM1203.48 90L1201.46 84.8047H1201.19C1199.44 87.015 1197.62 88.5531 1195.76 89.4189C1193.91 90.262 1191.49 90.6836 1188.51 90.6836C1184.84 90.6836 1181.95 89.6354 1179.83 87.5391C1177.73 85.4427 1176.68 82.4577 1176.68 78.584C1176.68 74.528 1178.1 71.543 1180.92 69.6289C1183.77 67.6921 1188.05 66.6211 1193.77 66.416L1200.4 66.2109V64.5361C1200.4 60.6624 1198.42 58.7256 1194.46 58.7256C1191.4 58.7256 1187.81 59.6484 1183.69 61.4941L1180.24 54.4531C1184.64 52.1517 1189.51 51.001 1194.87 51.001C1199.99 51.001 1203.92 52.1175 1206.66 54.3506C1209.39 56.5837 1210.76 59.9788 1210.76 64.5361V90H1203.48ZM1200.4 72.2949L1196.37 72.4316C1193.34 72.5228 1191.08 73.0697 1189.6 74.0723C1188.12 75.0749 1187.38 76.6016 1187.38 78.6523C1187.38 81.5918 1189.07 83.0615 1192.44 83.0615C1194.86 83.0615 1196.78 82.3665 1198.22 80.9766C1199.68 79.5866 1200.4 77.7409 1200.4 75.4395V72.2949ZM1237.04 90.6836C1225.15 90.6836 1219.2 84.1553 1219.2 71.0986C1219.2 64.6045 1220.82 59.6484 1224.06 56.2305C1227.29 52.7897 1231.93 51.0693 1237.97 51.0693C1242.39 51.0693 1246.35 51.9352 1249.86 53.667L1246.79 61.7334C1245.15 61.0726 1243.62 60.5371 1242.21 60.127C1240.79 59.694 1239.38 59.4775 1237.97 59.4775C1232.54 59.4775 1229.83 63.3285 1229.83 71.0303C1229.83 78.5042 1232.54 82.2412 1237.97 82.2412C1239.97 82.2412 1241.83 81.9792 1243.54 81.4551C1245.25 80.9082 1246.96 80.0651 1248.67 78.9258V87.8467C1246.98 88.9176 1245.27 89.6582 1243.54 90.0684C1241.83 90.4785 1239.67 90.6836 1237.04 90.6836ZM1243.57 98.5449C1243.57 101.462 1242.71 103.569 1240.98 104.868C1239.27 106.167 1236.61 106.816 1233.01 106.816C1231.23 106.816 1229.57 106.577 1228.02 106.099V100.356C1228.64 100.516 1229.46 100.675 1230.48 100.835C1231.53 100.994 1232.34 101.074 1232.91 101.074C1234.55 101.074 1235.37 100.368 1235.37 98.9551C1235.37 97.0638 1233.48 95.8333 1229.7 95.2637L1232.36 90H1238.96L1238.04 92.085C1239.72 92.6318 1241.07 93.4749 1242.07 94.6143C1243.07 95.7764 1243.57 97.0866 1243.57 98.5449ZM1281.82 90L1279.8 84.8047H1279.53C1277.78 87.015 1275.96 88.5531 1274.1 89.4189C1272.25 90.262 1269.83 90.6836 1266.85 90.6836C1263.18 90.6836 1260.29 89.6354 1258.17 87.5391C1256.07 85.4427 1255.02 82.4577 1255.02 78.584C1255.02 74.528 1256.44 71.543 1259.26 69.6289C1262.11 67.6921 1266.39 66.6211 1272.11 66.416L1278.74 66.2109V64.5361C1278.74 60.6624 1276.76 58.7256 1272.8 58.7256C1269.74 58.7256 1266.15 59.6484 1262.03 61.4941L1258.58 54.4531C1262.98 52.1517 1267.85 51.001 1273.21 51.001C1278.33 51.001 1282.26 52.1175 1285 54.3506C1287.73 56.5837 1289.1 59.9788 1289.1 64.5361V90H1281.82ZM1278.74 72.2949L1274.71 72.4316C1271.68 72.5228 1269.42 73.0697 1267.94 74.0723C1266.46 75.0749 1265.72 76.6016 1265.72 78.6523C1265.72 81.5918 1267.41 83.0615 1270.78 83.0615C1273.2 83.0615 1275.12 82.3665 1276.56 80.9766C1278.01 79.5866 1278.74 77.7409 1278.74 75.4395V72.2949ZM1268.05 43.9941C1267.34 43.9941 1266.66 44.3018 1266 44.917C1265.36 45.5094 1264.89 46.4209 1264.59 47.6514H1259.5C1259.75 44.3473 1260.69 41.7611 1262.3 39.8926C1263.94 38.0241 1266.11 37.0898 1268.8 37.0898C1269.73 37.0898 1270.64 37.2835 1271.53 37.6709C1272.44 38.0355 1273.33 38.4456 1274.2 38.9014C1275.09 39.3343 1275.95 39.7331 1276.8 40.0977C1277.64 40.4622 1278.47 40.6445 1279.29 40.6445C1280 40.6445 1280.67 40.3483 1281.31 39.7559C1281.97 39.1634 1282.45 38.252 1282.74 37.0215H1287.84C1287.59 40.3255 1286.63 42.9118 1284.96 44.7803C1283.32 46.6488 1281.18 47.583 1278.54 47.583C1277.6 47.583 1276.68 47.4007 1275.77 47.0361C1274.88 46.6488 1273.99 46.2386 1273.1 45.8057C1272.24 45.3499 1271.38 44.9398 1270.54 44.5752C1269.7 44.1878 1268.87 43.9941 1268.05 43.9941ZM1308.17 70.8252C1308.17 74.6077 1308.79 77.4674 1310.02 79.4043C1311.27 81.3411 1313.3 82.3096 1316.1 82.3096C1318.88 82.3096 1320.88 81.3525 1322.08 79.4385C1323.31 77.5016 1323.93 74.6305 1323.93 70.8252C1323.93 67.0426 1323.31 64.2057 1322.08 62.3145C1320.85 60.4232 1318.84 59.4775 1316.03 59.4775C1313.25 59.4775 1311.25 60.4232 1310.02 62.3145C1308.79 64.1829 1308.17 67.0199 1308.17 70.8252ZM1334.59 70.8252C1334.59 77.0459 1332.95 81.9108 1329.67 85.4199C1326.39 88.929 1321.82 90.6836 1315.97 90.6836C1312.3 90.6836 1309.06 89.8861 1306.26 88.291C1303.46 86.6732 1301.3 84.3604 1299.8 81.3525C1298.29 78.3447 1297.54 74.8356 1297.54 70.8252C1297.54 64.5817 1299.17 59.7282 1302.43 56.2646C1305.69 52.8011 1310.27 51.0693 1316.17 51.0693C1319.84 51.0693 1323.08 51.8669 1325.88 53.4619C1328.68 55.057 1330.83 57.347 1332.34 60.332C1333.84 63.3171 1334.59 66.8148 1334.59 70.8252ZM1376.91 90.6836C1365.01 90.6836 1359.07 84.1553 1359.07 71.0986C1359.07 64.6045 1360.68 59.6484 1363.92 56.2305C1367.16 52.7897 1371.79 51.0693 1377.83 51.0693C1382.25 51.0693 1386.22 51.9352 1389.73 53.667L1386.65 61.7334C1385.01 61.0726 1383.48 60.5371 1382.07 60.127C1380.66 59.694 1379.24 59.4775 1377.83 59.4775C1372.41 59.4775 1369.7 63.3285 1369.7 71.0303C1369.7 78.5042 1372.41 82.2412 1377.83 82.2412C1379.84 82.2412 1381.69 81.9792 1383.4 81.4551C1385.11 80.9082 1386.82 80.0651 1388.53 78.9258V87.8467C1386.84 88.9176 1385.13 89.6582 1383.4 90.0684C1381.69 90.4785 1379.53 90.6836 1376.91 90.6836ZM1405.72 70.8252C1405.72 74.6077 1406.34 77.4674 1407.57 79.4043C1408.82 81.3411 1410.85 82.3096 1413.65 82.3096C1416.43 82.3096 1418.43 81.3525 1419.63 79.4385C1420.86 77.5016 1421.48 74.6305 1421.48 70.8252C1421.48 67.0426 1420.86 64.2057 1419.63 62.3145C1418.4 60.4232 1416.39 59.4775 1413.58 59.4775C1410.8 59.4775 1408.8 60.4232 1407.57 62.3145C1406.34 64.1829 1405.72 67.0199 1405.72 70.8252ZM1432.14 70.8252C1432.14 77.0459 1430.5 81.9108 1427.22 85.4199C1423.94 88.929 1419.37 90.6836 1413.51 90.6836C1409.85 90.6836 1406.61 89.8861 1403.81 88.291C1401 86.6732 1398.85 84.3604 1397.35 81.3525C1395.84 78.3447 1395.09 74.8356 1395.09 70.8252C1395.09 64.5817 1396.72 59.7282 1399.98 56.2646C1403.24 52.8011 1407.82 51.0693 1413.72 51.0693C1417.39 51.0693 1420.62 51.8669 1423.43 53.4619C1426.23 55.057 1428.38 57.347 1429.89 60.332C1431.39 63.3171 1432.14 66.8148 1432.14 70.8252ZM1474.97 90H1464.54V67.6807C1464.54 64.9235 1464.08 62.8613 1463.14 61.4941C1462.23 60.1042 1460.79 59.4092 1458.8 59.4092C1456.14 59.4092 1454.2 60.389 1452.99 62.3486C1451.78 64.3083 1451.18 67.5326 1451.18 72.0215V90H1440.76V51.7871H1448.72L1450.12 56.6748H1450.7C1451.73 54.9202 1453.21 53.5531 1455.15 52.5732C1457.08 51.5706 1459.3 51.0693 1461.81 51.0693C1467.53 51.0693 1471.4 52.9378 1473.43 56.6748H1474.35C1475.38 54.8975 1476.88 53.5189 1478.87 52.5391C1480.87 51.5592 1483.13 51.0693 1485.63 51.0693C1489.96 51.0693 1493.23 52.1859 1495.44 54.4189C1497.68 56.6292 1498.79 60.1839 1498.79 65.083V90H1488.33V67.6807C1488.33 64.9235 1487.87 62.8613 1486.93 61.4941C1486.02 60.1042 1484.57 59.4092 1482.59 59.4092C1480.04 59.4092 1478.13 60.3206 1476.85 62.1436C1475.6 63.9665 1474.97 66.8604 1474.97 70.8252V90ZM1569.99 64.5361C1569.99 72.762 1567.64 79.0625 1562.95 83.4375C1558.28 87.8125 1551.52 90 1542.68 90H1528.53V40.0293H1544.22C1552.38 40.0293 1558.71 42.1826 1563.22 46.4893C1567.73 50.7959 1569.99 56.8115 1569.99 64.5361ZM1558.98 64.8096C1558.98 54.0771 1554.24 48.7109 1544.76 48.7109H1539.12V81.25H1543.67C1553.88 81.25 1558.98 75.7699 1558.98 64.8096ZM1595.35 58.4863C1593.14 58.4863 1591.41 59.1927 1590.16 60.6055C1588.9 61.9954 1588.18 63.9779 1588 66.5527H1602.63C1602.59 63.9779 1601.91 61.9954 1600.61 60.6055C1599.32 59.1927 1597.56 58.4863 1595.35 58.4863ZM1596.82 90.6836C1590.67 90.6836 1585.86 88.986 1582.4 85.5908C1578.93 82.1956 1577.2 77.3877 1577.2 71.167C1577.2 64.764 1578.8 59.8193 1581.99 56.333C1585.2 52.8239 1589.63 51.0693 1595.28 51.0693C1600.68 51.0693 1604.89 52.6074 1607.89 55.6836C1610.9 58.7598 1612.41 63.0094 1612.41 68.4326V73.4912H1587.76C1587.88 76.4535 1588.75 78.7663 1590.39 80.4297C1592.04 82.0931 1594.34 82.9248 1597.3 82.9248C1599.6 82.9248 1601.78 82.6855 1603.83 82.207C1605.88 81.7285 1608.02 80.9652 1610.25 79.917V87.9834C1608.43 88.8949 1606.48 89.5671 1604.41 90C1602.33 90.4557 1599.81 90.6836 1596.82 90.6836ZM1647.54 78.6523C1647.54 82.5716 1646.18 85.5566 1643.44 87.6074C1640.73 89.6582 1636.66 90.6836 1631.24 90.6836C1628.46 90.6836 1626.09 90.4899 1624.13 90.1025C1622.17 89.738 1620.34 89.1911 1618.63 88.4619V79.8486C1620.56 80.7601 1622.74 81.5234 1625.16 82.1387C1627.59 82.7539 1629.74 83.0615 1631.58 83.0615C1635.36 83.0615 1637.25 81.9678 1637.25 79.7803C1637.25 78.96 1637 78.2992 1636.5 77.7979C1636 77.2738 1635.14 76.6927 1633.91 76.0547C1632.67 75.3939 1631.03 74.6305 1628.98 73.7646C1626.04 72.5342 1623.88 71.3949 1622.49 70.3467C1621.12 69.2985 1620.12 68.1022 1619.48 66.7578C1618.87 65.3906 1618.56 63.7158 1618.56 61.7334C1618.56 58.3382 1619.87 55.7178 1622.49 53.8721C1625.13 52.0036 1628.87 51.0693 1633.7 51.0693C1638.3 51.0693 1642.78 52.0719 1647.13 54.0771L1643.99 61.5967C1642.07 60.7764 1640.29 60.1042 1638.62 59.5801C1636.96 59.056 1635.26 58.7939 1633.53 58.7939C1630.45 58.7939 1628.92 59.6257 1628.92 61.2891C1628.92 62.2233 1629.4 63.0322 1630.38 63.7158C1631.39 64.3994 1633.56 65.4134 1636.91 66.7578C1639.9 67.9655 1642.09 69.0934 1643.48 70.1416C1644.87 71.1898 1645.89 72.3975 1646.55 73.7646C1647.21 75.1318 1647.54 76.7611 1647.54 78.6523ZM1671.78 82.3779C1673.6 82.3779 1675.79 81.9792 1678.34 81.1816V88.9404C1675.74 90.1025 1672.55 90.6836 1668.77 90.6836C1664.6 90.6836 1661.56 89.6354 1659.64 87.5391C1657.75 85.4199 1656.81 82.2526 1656.81 78.0371V59.6143H1651.82V55.2051L1657.56 51.7188L1660.57 43.6523H1667.23V51.7871H1677.93V59.6143H1667.23V78.0371C1667.23 79.5182 1667.64 80.612 1668.46 81.3184C1669.3 82.0247 1670.41 82.3779 1671.78 82.3779ZM1710.37 90L1708.35 84.8047H1708.08C1706.32 87.015 1704.51 88.5531 1702.64 89.4189C1700.79 90.262 1698.38 90.6836 1695.39 90.6836C1691.73 90.6836 1688.83 89.6354 1686.71 87.5391C1684.62 85.4427 1683.57 82.4577 1683.57 78.584C1683.57 74.528 1684.98 71.543 1687.81 69.6289C1690.65 67.6921 1694.94 66.6211 1700.66 66.416L1707.29 66.2109V64.5361C1707.29 60.6624 1705.31 58.7256 1701.34 58.7256C1698.29 58.7256 1694.7 59.6484 1690.58 61.4941L1687.12 54.4531C1691.52 52.1517 1696.4 51.001 1701.75 51.001C1706.88 51.001 1710.81 52.1175 1713.54 54.3506C1716.28 56.5837 1717.65 59.9788 1717.65 64.5361V90H1710.37ZM1707.29 72.2949L1703.26 72.4316C1700.23 72.5228 1697.97 73.0697 1696.49 74.0723C1695.01 75.0749 1694.27 76.6016 1694.27 78.6523C1694.27 81.5918 1695.95 83.0615 1699.33 83.0615C1701.74 83.0615 1703.67 82.3665 1705.1 80.9766C1706.56 79.5866 1707.29 77.7409 1707.29 75.4395V72.2949ZM1744.24 82.5146C1746.88 82.5146 1748.82 81.7627 1750.05 80.2588C1751.28 78.7321 1751.95 76.0775 1752.06 72.2949V71.0303C1752.06 66.9287 1751.43 63.9893 1750.15 62.2119C1748.9 60.4346 1746.87 59.5459 1744.07 59.5459C1739.17 59.5459 1736.72 63.3968 1736.72 71.0986C1736.72 74.9268 1737.32 77.7865 1738.53 79.6777C1739.76 81.569 1741.66 82.5146 1744.24 82.5146ZM1740.51 90.6836C1736 90.6836 1732.47 88.9518 1729.92 85.4883C1727.36 82.002 1726.09 77.1598 1726.09 70.9619C1726.09 64.7184 1727.39 59.8421 1729.98 56.333C1732.6 52.8239 1736.18 51.0693 1740.72 51.0693C1743.13 51.0693 1745.24 51.5251 1747.04 52.4365C1748.84 53.348 1750.42 54.7607 1751.79 56.6748H1752.06L1752.99 51.7871H1761.81V106.816H1751.35V90.7861C1751.35 89.3962 1751.49 87.4821 1751.79 85.0439H1751.35C1750.23 86.8896 1748.75 88.291 1746.9 89.248C1745.06 90.2051 1742.93 90.6836 1740.51 90.6836ZM1799.78 90L1798.38 85.1123H1797.83C1796.71 86.8896 1795.13 88.2682 1793.08 89.248C1791.03 90.2051 1788.69 90.6836 1786.07 90.6836C1781.58 90.6836 1778.2 89.4873 1775.92 87.0947C1773.64 84.6794 1772.5 81.2158 1772.5 76.7041V51.7871H1782.93V74.1064C1782.93 76.8636 1783.42 78.9372 1784.4 80.3271C1785.38 81.6943 1786.94 82.3779 1789.08 82.3779C1792 82.3779 1794.11 81.4095 1795.4 79.4727C1796.7 77.513 1797.35 74.2773 1797.35 69.7656V51.7871H1807.78V90H1799.78ZM1834.54 58.4863C1832.33 58.4863 1830.6 59.1927 1829.34 60.6055C1828.09 61.9954 1827.37 63.9779 1827.19 66.5527H1841.82C1841.77 63.9779 1841.1 61.9954 1839.8 60.6055C1838.5 59.1927 1836.75 58.4863 1834.54 58.4863ZM1836.01 90.6836C1829.86 90.6836 1825.05 88.986 1821.59 85.5908C1818.12 82.1956 1816.39 77.3877 1816.39 71.167C1816.39 64.764 1817.99 59.8193 1821.18 56.333C1824.39 52.8239 1828.82 51.0693 1834.47 51.0693C1839.87 51.0693 1844.08 52.6074 1847.08 55.6836C1850.09 58.7598 1851.6 63.0094 1851.6 68.4326V73.4912H1826.95C1827.07 76.4535 1827.94 78.7663 1829.58 80.4297C1831.22 82.0931 1833.53 82.9248 1836.49 82.9248C1838.79 82.9248 1840.97 82.6855 1843.02 82.207C1845.07 81.7285 1847.21 80.9652 1849.44 79.917V87.9834C1847.62 88.8949 1845.67 89.5671 1843.6 90C1841.52 90.4557 1838.99 90.6836 1836.01 90.6836ZM1886.73 78.6523C1886.73 82.5716 1885.37 85.5566 1882.63 87.6074C1879.92 89.6582 1875.85 90.6836 1870.43 90.6836C1867.65 90.6836 1865.28 90.4899 1863.32 90.1025C1861.36 89.738 1859.53 89.1911 1857.82 88.4619V79.8486C1859.75 80.7601 1861.93 81.5234 1864.34 82.1387C1866.78 82.7539 1868.92 83.0615 1870.77 83.0615C1874.55 83.0615 1876.44 81.9678 1876.44 79.7803C1876.44 78.96 1876.19 78.2992 1875.69 77.7979C1875.19 77.2738 1874.33 76.6927 1873.09 76.0547C1871.86 75.3939 1870.22 74.6305 1868.17 73.7646C1865.23 72.5342 1863.07 71.3949 1861.68 70.3467C1860.31 69.2985 1859.31 68.1022 1858.67 66.7578C1858.06 65.3906 1857.75 63.7158 1857.75 61.7334C1857.75 58.3382 1859.06 55.7178 1861.68 53.8721C1864.32 52.0036 1868.06 51.0693 1872.89 51.0693C1877.49 51.0693 1881.97 52.0719 1886.32 54.0771L1883.18 61.5967C1881.26 60.7764 1879.47 60.1042 1877.81 59.5801C1876.15 59.056 1874.45 58.7939 1872.72 58.7939C1869.64 58.7939 1868.1 59.6257 1868.1 61.2891C1868.1 62.2233 1868.59 63.0322 1869.57 63.7158C1870.58 64.3994 1872.75 65.4134 1876.1 66.7578C1879.09 67.9655 1881.28 69.0934 1882.67 70.1416C1884.06 71.1898 1885.08 72.3975 1885.74 73.7646C1886.4 75.1318 1886.73 76.7611 1886.73 78.6523Z" fill="white"/>
</svg>
