<svg width="2070" height="125" viewBox="0 0 2070 125" fill="none" xmlns="http://www.w3.org/2000/svg">
<rect width="2070" height="125" rx="10" fill="#14C871"/>
<path d="M908.068 90H879.289V40.0293H908.068V48.7109H889.885V59.6826H906.804V68.3643H889.885V81.25H908.068V90ZM952.98 90H942.556V67.6807C942.556 64.9235 942.066 62.8613 941.086 61.4941C940.106 60.1042 938.545 59.4092 936.403 59.4092C933.487 59.4092 931.379 60.389 930.08 62.3486C928.781 64.2855 928.132 67.5098 928.132 72.0215V90H917.707V51.7871H925.671L927.072 56.6748H927.653C928.815 54.8291 930.41 53.4391 932.438 52.5049C934.489 51.5479 936.813 51.0693 939.411 51.0693C943.854 51.0693 947.227 52.277 949.528 54.6924C951.83 57.085 952.98 60.5485 952.98 65.083V90ZM975.812 90.6836C971.324 90.6836 967.792 88.9404 965.217 85.4541C962.665 81.9678 961.389 77.137 961.389 70.9619C961.389 64.6956 962.688 59.8193 965.285 56.333C967.906 52.8239 971.506 51.0693 976.086 51.0693C980.894 51.0693 984.562 52.9378 987.092 56.6748H987.434C986.91 53.8265 986.647 51.2858 986.647 49.0527V36.8164H997.106V90H989.108L987.092 85.0439H986.647C984.278 88.8037 980.666 90.6836 975.812 90.6836ZM979.47 82.3779C982.136 82.3779 984.084 81.6032 985.314 80.0537C986.568 78.5042 987.251 75.8724 987.365 72.1582V71.0303C987.365 66.9287 986.727 63.9893 985.451 62.2119C984.198 60.4346 982.147 59.5459 979.299 59.5459C976.975 59.5459 975.163 60.5371 973.864 62.5195C972.588 64.4792 971.95 67.3389 971.95 71.0986C971.95 74.8584 972.6 77.6839 973.898 79.5752C975.197 81.4437 977.054 82.3779 979.47 82.3779ZM1023.83 58.4863C1021.62 58.4863 1019.89 59.1927 1018.64 60.6055C1017.39 61.9954 1016.67 63.9779 1016.49 66.5527H1031.12C1031.07 63.9779 1030.4 61.9954 1029.1 60.6055C1027.8 59.1927 1026.05 58.4863 1023.83 58.4863ZM1025.3 90.6836C1019.15 90.6836 1014.34 88.986 1010.88 85.5908C1007.42 82.1956 1005.69 77.3877 1005.69 71.167C1005.69 64.764 1007.28 59.8193 1010.47 56.333C1013.68 52.8239 1018.12 51.0693 1023.77 51.0693C1029.17 51.0693 1033.37 52.6074 1036.38 55.6836C1039.39 58.7598 1040.89 63.0094 1040.89 68.4326V73.4912H1016.25C1016.36 76.4535 1017.24 78.7663 1018.88 80.4297C1020.52 82.0931 1022.82 82.9248 1025.78 82.9248C1028.08 82.9248 1030.26 82.6855 1032.31 82.207C1034.36 81.7285 1036.5 80.9652 1038.74 79.917V87.9834C1036.91 88.8949 1034.97 89.5671 1032.89 90C1030.82 90.4557 1028.29 90.6836 1025.3 90.6836ZM1070.7 51.0693C1072.11 51.0693 1073.28 51.1719 1074.22 51.377L1073.43 61.1523C1072.59 60.9245 1071.56 60.8105 1070.35 60.8105C1067.03 60.8105 1064.43 61.665 1062.56 63.374C1060.71 65.083 1059.79 67.4756 1059.79 70.5518V90H1049.37V51.7871H1057.26L1058.8 58.2129H1059.31C1060.5 56.071 1062.09 54.3506 1064.1 53.0518C1066.13 51.7301 1068.33 51.0693 1070.7 51.0693ZM1096.98 58.4863C1094.77 58.4863 1093.04 59.1927 1091.78 60.6055C1090.53 61.9954 1089.81 63.9779 1089.63 66.5527H1104.26C1104.21 63.9779 1103.54 61.9954 1102.24 60.6055C1100.94 59.1927 1099.19 58.4863 1096.98 58.4863ZM1098.45 90.6836C1092.3 90.6836 1087.49 88.986 1084.03 85.5908C1080.56 82.1956 1078.83 77.3877 1078.83 71.167C1078.83 64.764 1080.43 59.8193 1083.62 56.333C1086.83 52.8239 1091.26 51.0693 1096.91 51.0693C1102.31 51.0693 1106.52 52.6074 1109.52 55.6836C1112.53 58.7598 1114.04 63.0094 1114.04 68.4326V73.4912H1089.39C1089.51 76.4535 1090.38 78.7663 1092.02 80.4297C1093.66 82.0931 1095.97 82.9248 1098.93 82.9248C1101.23 82.9248 1103.41 82.6855 1105.46 82.207C1107.51 81.7285 1109.65 80.9652 1111.88 79.917V87.9834C1110.06 88.8949 1108.11 89.5671 1106.04 90C1103.96 90.4557 1101.43 90.6836 1098.45 90.6836ZM1138.03 90.6836C1126.13 90.6836 1120.19 84.1553 1120.19 71.0986C1120.19 64.6045 1121.81 59.6484 1125.04 56.2305C1128.28 52.7897 1132.91 51.0693 1138.95 51.0693C1143.37 51.0693 1147.34 51.9352 1150.85 53.667L1147.77 61.7334C1146.13 61.0726 1144.6 60.5371 1143.19 60.127C1141.78 59.694 1140.36 59.4775 1138.95 59.4775C1133.53 59.4775 1130.82 63.3285 1130.82 71.0303C1130.82 78.5042 1133.53 82.2412 1138.95 82.2412C1140.96 82.2412 1142.81 81.9792 1144.52 81.4551C1146.23 80.9082 1147.94 80.0651 1149.65 78.9258V87.8467C1147.96 88.9176 1146.26 89.6582 1144.52 90.0684C1142.81 90.4785 1140.65 90.6836 1138.03 90.6836ZM1144.56 98.5449C1144.56 101.462 1143.69 103.569 1141.96 104.868C1140.25 106.167 1137.6 106.816 1134 106.816C1132.22 106.816 1130.56 106.577 1129.01 106.099V100.356C1129.62 100.516 1130.44 100.675 1131.47 100.835C1132.51 100.994 1133.32 101.074 1133.89 101.074C1135.53 101.074 1136.35 100.368 1136.35 98.9551C1136.35 97.0638 1134.46 95.8333 1130.68 95.2637L1133.35 90H1139.94L1139.02 92.085C1140.71 92.6318 1142.05 93.4749 1143.05 94.6143C1144.06 95.7764 1144.56 97.0866 1144.56 98.5449ZM1166.84 70.8252C1166.84 74.6077 1167.46 77.4674 1168.69 79.4043C1169.94 81.3411 1171.97 82.3096 1174.77 82.3096C1177.55 82.3096 1179.55 81.3525 1180.75 79.4385C1181.98 77.5016 1182.6 74.6305 1182.6 70.8252C1182.6 67.0426 1181.98 64.2057 1180.75 62.3145C1179.52 60.4232 1177.51 59.4775 1174.7 59.4775C1171.92 59.4775 1169.92 60.4232 1168.69 62.3145C1167.46 64.1829 1166.84 67.0199 1166.84 70.8252ZM1193.26 70.8252C1193.26 77.0459 1191.62 81.9108 1188.34 85.4199C1185.06 88.929 1180.49 90.6836 1174.64 90.6836C1170.97 90.6836 1167.73 89.8861 1164.93 88.291C1162.13 86.6732 1159.97 84.3604 1158.47 81.3525C1156.96 78.3447 1156.21 74.8356 1156.21 70.8252C1156.21 64.5817 1157.84 59.7282 1161.1 56.2646C1164.36 52.8011 1168.94 51.0693 1174.84 51.0693C1178.51 51.0693 1181.75 51.8669 1184.55 53.4619C1187.35 55.057 1189.5 57.347 1191.01 60.332C1192.51 63.3171 1193.26 66.8148 1193.26 70.8252Z" fill="white"/>
</svg>
